<svg xmlns="http://www.w3.org/2000/svg" xmlns:xlink="http://www.w3.org/1999/xlink" width="100" height="100" viewBox="0 0 100 100"><defs><clipPath id="a"><path d="M-547.94,1321.553a50.1,50.1,0,0,1,50.1-50.1,50.1,50.1,0,0,1,50.1,50.1,50.1,50.1,0,0,1-50.1,50.1,50.1,50.1,0,0,1-50.1-50.1Z" fill="none"/></clipPath><clipPath id="c"><rect width="100" height="100"/></clipPath></defs><g id="b" clip-path="url(#c)"><g transform="translate(547.94 -1271.453)"><circle cx="50" cy="50" r="50" transform="translate(-547.84 1271.553)" fill="#f7a201"/><g clip-path="url(#a)"><path d="M-475.72,1308.837a2.61,2.61,0,0,0-.8-1.88,2.617,2.617,0,0,0,1.213-2.209,2.619,2.619,0,0,0-1.388-2.313,2.608,2.608,0,0,0,.658-1.732,2.621,2.621,0,0,0-1.395-2.317,2.6,2.6,0,0,0,.65-1.723,2.622,2.622,0,0,0-2.322-2.6,2.617,2.617,0,0,0,.159-.893,2.619,2.619,0,0,0-2.414-2.611,2.6,2.6,0,0,0,.111-.753,2.621,2.621,0,0,0-2.621-2.621,2.611,2.611,0,0,0-.739.107,2.619,2.619,0,0,0-2.615-2.485,2.6,2.6,0,0,0-.932.174,2.619,2.619,0,0,0-2.581-2.182,2.612,2.612,0,0,0-1.692.621,2.621,2.621,0,0,0-2.337-1.438,2.6,2.6,0,0,0-1.148.268,2.614,2.614,0,0,0-1.974-.9,2.62,2.62,0,0,0-2.337,1.438,2.609,2.609,0,0,0-1.692-.621,2.621,2.621,0,0,0-2.337,1.438,2.607,2.607,0,0,0-1.692-.621,2.618,2.618,0,0,0-2.613,2.469,2.61,2.61,0,0,0-.748-.11,2.62,2.62,0,0,0-2.619,2.571,2.589,2.589,0,0,0-.608-.074,2.622,2.622,0,0,0-2.621,2.621,2.612,2.612,0,0,0,.159.893,2.621,2.621,0,0,0-2.321,2.6,2.612,2.612,0,0,0,.22,1.05,2.62,2.62,0,0,0-2.075,2.563,2.607,2.607,0,0,0,.657,1.733,2.621,2.621,0,0,0-1.388,2.313,2.612,2.612,0,0,0,.753,1.837,2.615,2.615,0,0,0-1.23,2.218,2.62,2.62,0,0,0,1.217,2.211,2.614,2.614,0,0,0-.795,1.878,2.618,2.618,0,0,0,1.461,2.348,2.613,2.613,0,0,0-.579,1.642,2.621,2.621,0,0,0,1.734,2.464,2.606,2.606,0,0,0-.428,1.433,2.62,2.62,0,0,0,2.288,2.6,2.605,2.605,0,0,0-.158.89,2.619,2.619,0,0,0,2.551,2.618,2.632,2.632,0,0,0-.078.625,2.621,2.621,0,0,0,2.621,2.621,2.617,2.617,0,0,0,.76-.113,2.619,2.619,0,0,0,2.613,2.463,2.606,2.606,0,0,0,1.172-.279,2.621,2.621,0,0,0,2.515,1.888,2.611,2.611,0,0,0,1.706-.634,2.618,2.618,0,0,0,2.328,1.422,2.612,2.612,0,0,0,2.091-1.045,2.611,2.611,0,0,0,1.944.868,2.62,2.62,0,0,0,2.329-1.422,2.609,2.609,0,0,0,1.705.633,2.622,2.622,0,0,0,2.577-2.145,2.6,2.6,0,0,0,.962.185,2.619,2.619,0,0,0,2.616-2.524,2.654,2.654,0,0,0,.671.09,2.621,2.621,0,0,0,2.621-2.622,2.617,2.617,0,0,0-.118-.78,2.618,2.618,0,0,0,2.44-2.612,2.607,2.607,0,0,0-.211-1.031,2.621,2.621,0,0,0,2.112-2.571,2.606,2.606,0,0,0-.428-1.433,2.62,2.62,0,0,0,1.734-2.465,2.606,2.606,0,0,0-.666-1.741A2.619,2.619,0,0,0-475.72,1308.837Z" fill="#453832"/><path d="M-493.64,1333.041c0-1.168-.109-3.817.878-4.291-.383-.5,4.422.77,4.422.1a2.94,2.94,0,0,1,2.079-2.81,2.933,2.933,0,0,1,1.044-4.014,2.933,2.933,0,0,1,.631-.277,2.935,2.935,0,0,1,1.045-4.016,2.964,2.964,0,0,1,.63-.276,2.935,2.935,0,0,1,1.045-4.016,2.965,2.965,0,0,1,.63-.276,2.924,2.924,0,0,1,.548-3.642c-.007-.082-.013-.164-.013-.247a2.939,2.939,0,0,1,2.938-2.939,2.938,2.938,0,0,1,2.938,2.938,2.93,2.93,0,0,1-.225,1.128,2.928,2.928,0,0,1,2.431,3.352,2.922,2.922,0,0,1-.24.781,2.935,2.935,0,0,1,2.287,3.466,2.926,2.926,0,0,1-.318.851,2.934,2.934,0,0,1,2.015,3.627,2.921,2.921,0,0,1-.358.788,2.93,2.93,0,0,1,1.776,3.744,2.913,2.913,0,0,1-.414.771,2.933,2.933,0,0,1,1.537,3.853,2.931,2.931,0,0,1-.707,1,2.932,2.932,0,0,1,.794,4.071,2.906,2.906,0,0,1-.742.758l-21.49-2.046C-489.04,1334.877-493.64,1333.88-493.64,1333.041Z" fill="#453832"/><path d="M-502.178,1333.474c0-1.168-3.2-3.665-4.185-4.139.383-.5-1.346.185-1.346-.49a2.936,2.936,0,0,0-2.079-2.81,2.931,2.931,0,0,0-1.04-4.013,2.924,2.924,0,0,0-.635-.278,2.931,2.931,0,0,0-1.042-4.013,2.9,2.9,0,0,0-.635-.278,2.933,2.933,0,0,0-1.04-4.014,2.946,2.946,0,0,0-.635-.278,2.921,2.921,0,0,0-.547-3.642c.006-.082.012-.164.012-.247a2.938,2.938,0,0,0-2.937-2.939,2.939,2.939,0,0,0-2.939,2.938A2.953,2.953,0,0,0-521,1310.4a2.931,2.931,0,0,0-2.428,3.359,2.953,2.953,0,0,0,.237.774,2.937,2.937,0,0,0-2.286,3.468,2.932,2.932,0,0,0,.317.849,2.932,2.932,0,0,0-2.015,3.624,2.946,2.946,0,0,0,.359.791,2.929,2.929,0,0,0-1.775,3.744,2.94,2.94,0,0,0,.413.771,2.935,2.935,0,0,0-1.536,3.855,2.952,2.952,0,0,0,.705,1,2.935,2.935,0,0,0-.79,4.075,2.953,2.953,0,0,0,.738.754l21.491-2.046C-507.006,1334.877-502.178,1334.312-502.178,1333.474Z" fill="#453832"/><path d="M-505.677,1347.068a2.924,2.924,0,0,0-1.237-2.392,2.934,2.934,0,0,0,.282-4.141,2.886,2.886,0,0,0-.571-.5,2.932,2.932,0,0,0,.177-4.143,2.9,2.9,0,0,0-.551-.468l.008-.008-11.316-.438-10.175,2.479.029.023a2.935,2.935,0,0,0-.083,4.148,2.934,2.934,0,0,0,1,.68,2.935,2.935,0,0,0,.7,4.091,2.931,2.931,0,0,0,1.7.539c.061,0,.121-.006.181-.009a2.894,2.894,0,0,0-.047.5,2.937,2.937,0,0,0,2.94,2.936,2.911,2.911,0,0,0,.86-.129,2.932,2.932,0,0,0,3.283,2.531,2.921,2.921,0,0,0,1.092-.37,2.935,2.935,0,0,0,3.651,1.975,2.936,2.936,0,0,0,1.514-1.057,14.594,14.594,0,0,0,6.562-6.252Z" fill="#453832"/><path d="M-490.372,1347.068a2.933,2.933,0,0,1,1.236-2.392,2.935,2.935,0,0,1-.281-4.141,2.943,2.943,0,0,1,.571-.5,2.93,2.93,0,0,1-.178-4.141,2.916,2.916,0,0,1,.552-.47l-.008-.008,11.315-.438,10.175,2.479-.029.023a2.935,2.935,0,0,1,.082,4.15,2.938,2.938,0,0,1-.995.678,2.935,2.935,0,0,1-.7,4.092,2.941,2.941,0,0,1-1.7.538c-.061,0-.12-.006-.18-.009a2.887,2.887,0,0,1,.046.5,50.494,50.494,0,0,0-6.714,5.362,2.928,2.928,0,0,1-1.466-.394,2.934,2.934,0,0,1-3.65,1.975,2.934,2.934,0,0,1-1.515-1.057,14.592,14.592,0,0,1-6.561-6.252Z" fill="#453832"/><path d="M-487.24,1333.723l-.267-.075-9.647-2.711-10.4,2.786-.272,5.874,20.586-.544Z" fill="#b4b4b5"/><path d="M-506.115,1319.329s3.679,15.8-2.49,17.719-.526,40.4-.526,40.4l23.973-.736.917-35.945s.9-1.858-3.374-3.718-3-15.709-3-15.709Z" fill="#a75d33"/><path d="M-489.813,1334.034c-1.68,3.812-3.79,7.96-6.637,9.406-4.277,2.171-9.618-1.944-12.964-5.81a1.889,1.889,0,0,1,.809-.582c6.169-1.92,2.49-17.719,2.49-17.719l15.5,2.01S-491.356,1329.384-489.813,1334.034Z" fill="#824927"/><path d="M-482.953,1312.524c.812-2.884,2.371-4.7,3.483-4.059s1.355,3.5.543,6.385a6.979,6.979,0,0,1-1.4,2.785c-.661.827-.9,1.746-1.531,1.746C-482.94,1319.381-483.765,1315.408-482.953,1312.524Z" fill="#824927"/><path d="M-514.164,1312.524c-.812-2.884-2.372-4.7-3.483-4.059s-1.355,3.5-.543,6.385a6.991,6.991,0,0,0,1.4,2.785c.66.827.9,1.746,1.53,1.746C-514.177,1319.381-513.352,1315.408-514.164,1312.524Z" fill="#824927"/><path d="M-498.558,1286.984c17.008,0,17.008,16.982,17.008,16.982s-1.7,16.8-2.576,20.2c-1.333,5.165-7.726,9.553-14.566,9.553-6.941,0-12.8-4.388-14.3-9.553-.981-3.378-2.576-20.2-2.576-20.2S-515.567,1286.984-498.558,1286.984Z" fill="#a75d33"/><path d="M-515.348,1309.271c-.027-.446-.219-5.3-.219-5.3s0-16.982,17.009-16.982,17.008,16.982,17.008,16.982-.189,3.328-.208,3.652C-489.813,1289.992-512.959,1296.419-515.348,1309.271Z" fill="#824927"/><path d="M-500.054,1318.667c-.274.452-.258.372-.076.717a3.837,3.837,0,0,0,.6.66c.392.429-1.33.315-1.632-.014-.251-.274-.859-.726-.982-1.091-.148-.436.161-.6.467-.86a5.376,5.376,0,0,0,1.743-2.8C-499.815,1314.839-499.118,1317.13-500.054,1318.667Z" fill="#764121"/><path d="M-496.2,1306.607a2.906,2.906,0,0,0,.309-.059c6.181-1.339,9.324,1.92,9.24,1.773a1.634,1.634,0,0,0,.947.422c.24-.018.228-.254-.056-.526-.007.152-2.752-4.022-10.14-2.66C-496.4,1305.675-496.572,1306.664-496.2,1306.607Z" fill="#3d312b"/><path d="M-501.648,1307.042a2.731,2.731,0,0,1-.278-.06,10.317,10.317,0,0,0-8.816,1.392,1.618,1.618,0,0,1-.969.366c-.239-.032-.206-.268.1-.523-.03.1,3.156-3.734,9.828-2.189C-501.335,1306.153-501.316,1307.1-501.648,1307.042Z" fill="#3d312b"/><circle cx="1.376" cy="1.376" r="1.376" transform="translate(-507.328 1310.084)" fill="#4c2a09"/><circle cx="1.376" cy="1.376" r="1.376" transform="translate(-494.411 1309.835)" fill="#4c2a09"/><path d="M-498.64,1285.732c-8.264,0-24.718,9.718-16.021,26.317-.665-8.119,2.9-16.552,16.021-16.552s16.67,8.6,16.02,16.552C-473.928,1295.453-490.382,1285.732-498.64,1285.732Z" fill="#453832"/><path d="M-498.7,1323.791a21.048,21.048,0,0,1-5.66-.64c-.281-.081-.549.155-.46.4a6.646,6.646,0,0,0,8.715,3.52,6.644,6.644,0,0,0,3.543-3.575.328.328,0,0,0-.242-.4.335.335,0,0,0-.193.012A22.741,22.741,0,0,1-498.7,1323.791Z" fill="#803925"/><path d="M-503.819,1323.292c.155.761.808,2.337,5.119,2.337,4.294,0,5.16-1.744,5.271-2.408a23.31,23.31,0,0,1-5.272.57A22.579,22.579,0,0,1-503.819,1323.292Z" fill="#f0e2d9"/><circle cx="0.795" cy="0.795" r="0.795" transform="translate(-516.585 1318.439)" fill="#e1f4fd"/><circle cx="0.795" cy="0.795" r="0.795" transform="translate(-482.453 1318.803)" fill="#e1f4fd"/><path d="M-483.821,1337.759l-3.819,10.781-2.869.414-7.58,12.029-7.578-12.03-3.05-.4-3.82-10.79-16.025,7.3s-.39,21.409,1.255,32.144c.119.406.238.913.355,1.5h56.086a17.279,17.279,0,0,1,.424-2.091c2.564-10.884,3.324-31.391,3.324-31.391Z" fill="#f2f2f2"/><path d="M-498.086,1360.983l-1.991-1.935v19.593h3.982v-19.594Z" fill="#fff"/><path d="M-490.506,1348.953l-7.581,12.029,8.893-8.645,9.932.971Z" fill="#bdbdbd"/><path d="M-483.163,1336.6l-4.077-2.874-3.266,15.23,11.244,4.355Z" fill="#fff"/><path d="M-505.667,1348.953l7.581,12.029-8.893-8.645-9.932.971Z" fill="#bdbdbd"/><path d="M-513.01,1336.6l5.459-2.874,1.885,15.231-11.244,4.355Z" fill="#fff"/><path d="M-522.84,1377.743c.1-.388-5.722-32.679-5.722-32.679s-6.931,6.554-8.462,32.679Z" fill="#fff"/><path d="M-472.84,1377.9c-.1-.387,5.722-32.678,5.722-32.678s6.931,6.554,8.462,32.678Z" fill="#fff"/><circle cx="0.876" cy="0.876" r="0.876" transform="translate(-498.963 1364.295)" fill="#eee"/><circle cx="0.876" cy="0.876" r="0.876" transform="translate(-498.963 1371.209)" fill="#eee"/></g></g></g></svg>