<svg xmlns="http://www.w3.org/2000/svg" xmlns:xlink="http://www.w3.org/1999/xlink" width="44" height="27" viewBox="0 0 44 27">
  <defs>
    <style>
      .cls-1 {
        clip-path: url(#clip-learn_icon);
      }

      .cls-2 {
        fill: #fff;
      }
    </style>
    <clipPath id="clip-learn_icon">
      <rect width="44" height="27"/>
    </clipPath>
  </defs>
  <g id="learn_icon" class="cls-1">
    <path id="Path_13045" data-name="Path 13045" class="cls-2" d="M237.124,112.367l-19.177-5.892a5.5,5.5,0,0,0-3.217,0l-19.177,5.892a1.619,1.619,0,0,0,0,3.135l3.344,1.027a5.417,5.417,0,0,0-1.23,3.225,2.122,2.122,0,0,0-.176,3.645l-1.755,7.9a1.1,1.1,0,0,0,1.074,1.339h3.857a1.1,1.1,0,0,0,1.074-1.339l-1.755-7.9a2.116,2.116,0,0,0-.124-3.611,3.244,3.244,0,0,1,1.422-2.525l13.446,4.132a5.492,5.492,0,0,0,3.216,0l19.178-5.892a1.619,1.619,0,0,0,0-3.135ZM218.592,123.5a7.7,7.7,0,0,1-4.51,0l-9.97-3.063-.975,7.8c0,2.431,5.909,4.4,13.2,4.4s13.2-1.97,13.2-4.4l-.975-7.8Z" transform="translate(-194.338 -106.233)"/>
  </g>
</svg>
