<svg xmlns="http://www.w3.org/2000/svg" xmlns:xlink="http://www.w3.org/1999/xlink" width="300" height="63" viewBox="0 0 300 63"><defs><clipPath id="b"><rect width="300" height="63"/></clipPath></defs><g id="a" clip-path="url(#b)"><g transform="translate(-207.088 -706.863)"><g opacity="0.2"><path d="M207.088,762.252l5.325,4.711a1.744,1.744,0,0,0,1.244.188c.474-.084.689-.308.472-.495l-7.041-6.229Z" fill="#fff"/><path d="M207.088,756.007l12.384,10.956a1.748,1.748,0,0,0,1.245.188c.476-.084.689-.308.472-.495l-14.1-12.474Z" fill="#fff"/><path d="M207.871,750.376c0-.143.206-.279.555-.342a1.748,1.748,0,0,1,1.245.188l18.578,16.434c.215.187,0,.411-.473.495a1.744,1.744,0,0,1-1.244-.188l-18.578-16.434A.207.207,0,0,1,207.871,750.376Z" fill="#fff"/><path d="M214.931,750.376c0-.143.205-.279.555-.342a1.744,1.744,0,0,1,1.244.188l18.578,16.434c.219.187,0,.411-.472.495a1.744,1.744,0,0,1-1.244-.188l-18.579-16.434A.205.205,0,0,1,214.931,750.376Z" fill="#fff"/><path d="M221.988,750.376c0-.143.206-.279.556-.342a1.744,1.744,0,0,1,1.244.188l18.58,16.434c.217.187,0,.411-.472.495a1.748,1.748,0,0,1-1.245-.188l-18.58-16.434A.207.207,0,0,1,221.988,750.376Z" fill="#fff"/><path d="M229.048,750.376c0-.143.206-.279.555-.342a1.748,1.748,0,0,1,1.245.188l18.58,16.434c.217.187,0,.411-.472.495a1.746,1.746,0,0,1-1.245-.188l-18.58-16.434A.207.207,0,0,1,229.048,750.376Z" fill="#fff"/><path d="M236.108,750.376c0-.143.206-.279.555-.342a1.744,1.744,0,0,1,1.244.188l18.581,16.434c.216.187,0,.411-.473.495a1.744,1.744,0,0,1-1.244-.188l-18.58-16.434A.207.207,0,0,1,236.108,750.376Z" fill="#fff"/><path d="M243.168,750.376c0-.143.206-.279.555-.342a1.744,1.744,0,0,1,1.244.188l18.58,16.434c.219.187,0,.411-.472.495a1.744,1.744,0,0,1-1.244-.188L243.25,750.529A.205.205,0,0,1,243.168,750.376Z" fill="#fff"/><path d="M250.227,750.376c0-.143.206-.279.555-.342a1.746,1.746,0,0,1,1.245.188l18.58,16.434c.219.187,0,.411-.473.495a1.744,1.744,0,0,1-1.244-.188l-18.58-16.434A.207.207,0,0,1,250.227,750.376Z" fill="#fff"/><path d="M257.287,750.376c0-.143.206-.279.555-.342a1.744,1.744,0,0,1,1.244.188l18.581,16.434c.216.187,0,.411-.473.495a1.744,1.744,0,0,1-1.244-.188l-18.58-16.434A.207.207,0,0,1,257.287,750.376Z" fill="#fff"/><path d="M264.347,750.376c0-.143.206-.279.555-.342a1.744,1.744,0,0,1,1.244.188l18.58,16.434c.217.187,0,.411-.472.495a1.744,1.744,0,0,1-1.244-.188l-18.581-16.434A.205.205,0,0,1,264.347,750.376Z" fill="#fff"/><path d="M271.406,750.376c0-.143.206-.279.555-.342a1.746,1.746,0,0,1,1.245.188l18.58,16.434c.217.187,0,.411-.472.495a1.747,1.747,0,0,1-1.245-.188l-18.58-16.434A.207.207,0,0,1,271.406,750.376Z" fill="#fff"/><path d="M278.466,750.376c0-.143.206-.279.555-.342a1.744,1.744,0,0,1,1.244.188l18.581,16.434c.218.187,0,.411-.473.495a1.744,1.744,0,0,1-1.244-.188l-18.58-16.434A.207.207,0,0,1,278.466,750.376Z" fill="#fff"/><path d="M285.526,750.376c0-.143.206-.279.555-.342a1.744,1.744,0,0,1,1.244.188L305.9,766.656c.217.187,0,.411-.472.495a1.744,1.744,0,0,1-1.244-.188l-18.579-16.434A.209.209,0,0,1,285.526,750.376Z" fill="#fff"/><path d="M292.585,750.376c0-.143.206-.279.555-.342a1.746,1.746,0,0,1,1.245.188l18.578,16.434c.215.187,0,.411-.472.495a1.748,1.748,0,0,1-1.245-.188l-18.578-16.434A.207.207,0,0,1,292.585,750.376Z" fill="#fff"/><path d="M299.645,750.376c0-.143.206-.279.555-.342a1.744,1.744,0,0,1,1.244.188l18.579,16.434c.219.187,0,.411-.472.495a1.746,1.746,0,0,1-1.245-.188l-18.578-16.434A.207.207,0,0,1,299.645,750.376Z" fill="#fff"/><path d="M306.7,750.376c0-.143.206-.279.555-.342a1.744,1.744,0,0,1,1.244.188l18.579,16.434c.218.187,0,.411-.473.495a1.744,1.744,0,0,1-1.244-.188l-18.578-16.434A.207.207,0,0,1,306.7,750.376Z" fill="#fff"/><path d="M313.764,750.376c0-.143.206-.279.556-.342a1.744,1.744,0,0,1,1.244.188l18.578,16.434c.217.187,0,.411-.472.495a1.744,1.744,0,0,1-1.244-.188l-18.579-16.434A.207.207,0,0,1,313.764,750.376Z" fill="#fff"/><path d="M320.822,750.376c0-.143.206-.279.555-.342a1.746,1.746,0,0,1,1.245.188l18.58,16.434c.213.187,0,.411-.473.495a1.744,1.744,0,0,1-1.244-.188L320.9,750.529A.207.207,0,0,1,320.822,750.376Z" fill="#fff"/><path d="M327.882,750.376c0-.143.206-.279.555-.342a1.744,1.744,0,0,1,1.244.188l18.581,16.434c.212.187,0,.411-.473.495a1.744,1.744,0,0,1-1.244-.188l-18.58-16.434A.207.207,0,0,1,327.882,750.376Z" fill="#fff"/><path d="M334.942,750.376c0-.143.206-.279.555-.342a1.744,1.744,0,0,1,1.244.188l18.58,16.434c.215.187,0,.411-.472.495a1.744,1.744,0,0,1-1.244-.188l-18.581-16.434A.205.205,0,0,1,334.942,750.376Z" fill="#fff"/><path d="M342,750.376c0-.143.207-.279.555-.342a1.746,1.746,0,0,1,1.245.188l18.58,16.434c.214.187,0,.411-.472.495a1.747,1.747,0,0,1-1.245-.188l-18.58-16.434A.21.21,0,0,1,342,750.376Z" fill="#fff"/><path d="M349.061,750.376c0-.143.207-.279.555-.342a1.744,1.744,0,0,1,1.244.188l18.581,16.434c.213.187,0,.411-.473.495a1.744,1.744,0,0,1-1.244-.188l-18.58-16.434A.21.21,0,0,1,349.061,750.376Z" fill="#fff"/><path d="M356.121,750.376c0-.143.207-.279.555-.342a1.744,1.744,0,0,1,1.244.188l18.58,16.434c.214.187,0,.411-.473.495a1.744,1.744,0,0,1-1.244-.188L356.2,750.529A.21.21,0,0,1,356.121,750.376Z" fill="#fff"/><path d="M363.18,750.376c0-.143.207-.279.556-.342a1.744,1.744,0,0,1,1.244.188l18.579,16.434c.213.187,0,.411-.472.495a1.748,1.748,0,0,1-1.245-.188l-18.579-16.434A.21.21,0,0,1,363.18,750.376Z" fill="#fff"/><path d="M370.24,750.376c0-.143.207-.279.555-.342a1.748,1.748,0,0,1,1.245.188l18.579,16.434c.212.187,0,.411-.473.495a1.744,1.744,0,0,1-1.244-.188l-18.579-16.434A.21.21,0,0,1,370.24,750.376Z" fill="#fff"/><path d="M377.3,750.376c0-.143.207-.279.555-.342a1.744,1.744,0,0,1,1.244.188l18.579,16.434c.216.187,0,.411-.472.495a1.744,1.744,0,0,1-1.244-.188l-18.579-16.434A.207.207,0,0,1,377.3,750.376Z" fill="#fff"/><path d="M384.36,750.376c0-.143.206-.279.555-.342a1.744,1.744,0,0,1,1.244.188l18.579,16.434c.214.187,0,.411-.472.495a1.748,1.748,0,0,1-1.245-.188l-18.579-16.434A.209.209,0,0,1,384.36,750.376Z" fill="#fff"/><path d="M391.418,750.376c0-.143.207-.279.555-.342a1.747,1.747,0,0,1,1.245.188l18.58,16.434c.213.187,0,.411-.473.495a1.744,1.744,0,0,1-1.244-.188L391.5,750.529A.21.21,0,0,1,391.418,750.376Z" fill="#fff"/><path d="M398.478,750.376c0-.143.207-.279.555-.342a1.744,1.744,0,0,1,1.244.188l18.58,16.434c.214.187,0,.411-.472.495a1.744,1.744,0,0,1-1.244-.188l-18.58-16.434A.21.21,0,0,1,398.478,750.376Z" fill="#fff"/><path d="M405.538,750.376c0-.143.206-.279.555-.342a1.744,1.744,0,0,1,1.244.188l18.579,16.434c.214.187,0,.411-.472.495a1.744,1.744,0,0,1-1.244-.188l-18.58-16.434A.209.209,0,0,1,405.538,750.376Z" fill="#fff"/><path d="M412.6,750.376c0-.143.207-.279.555-.342a1.746,1.746,0,0,1,1.245.188l18.579,16.434c.212.187,0,.411-.472.495a1.746,1.746,0,0,1-1.245-.188L412.68,750.529A.21.21,0,0,1,412.6,750.376Z" fill="#fff"/><path d="M419.657,750.376c0-.143.207-.279.555-.342a1.744,1.744,0,0,1,1.244.188l18.58,16.434c.215.187,0,.411-.473.495a1.744,1.744,0,0,1-1.244-.188L419.74,750.529A.21.21,0,0,1,419.657,750.376Z" fill="#fff"/><path d="M426.717,750.376c0-.143.207-.279.555-.342a1.744,1.744,0,0,1,1.244.188L447.1,766.656c.214.187,0,.411-.472.495a1.744,1.744,0,0,1-1.244-.188L426.8,750.529A.207.207,0,0,1,426.717,750.376Z" fill="#fff"/><path d="M433.776,750.376c0-.143.207-.279.556-.342a1.744,1.744,0,0,1,1.244.188l18.579,16.434c.214.187,0,.411-.472.495a1.747,1.747,0,0,1-1.245-.188l-18.579-16.434A.21.21,0,0,1,433.776,750.376Z" fill="#fff"/><path d="M440.835,750.376c0-.143.207-.279.555-.342a1.748,1.748,0,0,1,1.245.188l18.58,16.434c.213.187,0,.411-.473.495a1.744,1.744,0,0,1-1.244-.188l-18.58-16.434A.21.21,0,0,1,440.835,750.376Z" fill="#fff"/><path d="M447.895,750.376c0-.143.207-.279.555-.342a1.744,1.744,0,0,1,1.244.188l18.58,16.434c.213.187,0,.411-.472.495a1.744,1.744,0,0,1-1.244-.188l-18.58-16.434A.207.207,0,0,1,447.895,750.376Z" fill="#fff"/><path d="M454.955,750.376c0-.143.206-.279.555-.342a1.744,1.744,0,0,1,1.244.188l18.579,16.434c.212.187,0,.411-.472.495a1.748,1.748,0,0,1-1.245-.188l-18.579-16.434A.209.209,0,0,1,454.955,750.376Z" fill="#fff"/><path d="M462.014,750.376c0-.143.207-.279.555-.342a1.747,1.747,0,0,1,1.245.188l18.579,16.434c.215.187,0,.411-.473.495a1.744,1.744,0,0,1-1.244-.188L462.1,750.529A.21.21,0,0,1,462.014,750.376Z" fill="#fff"/><path d="M469.074,750.376c0-.143.207-.279.555-.342a1.744,1.744,0,0,1,1.244.188l18.579,16.434c.215.187,0,.411-.472.495a1.744,1.744,0,0,1-1.244-.188l-18.579-16.434A.21.21,0,0,1,469.074,750.376Z" fill="#fff"/><path d="M476.134,750.376c0-.143.206-.279.555-.342a1.744,1.744,0,0,1,1.244.188l18.579,16.434c.214.187,0,.411-.472.495a1.744,1.744,0,0,1-1.244-.188l-18.58-16.434A.209.209,0,0,1,476.134,750.376Z" fill="#fff"/><path d="M483.193,750.376c0-.143.207-.279.555-.342a1.747,1.747,0,0,1,1.245.188l18.579,16.434c.213.187,0,.411-.472.495a1.746,1.746,0,0,1-1.245-.188l-18.579-16.434A.21.21,0,0,1,483.193,750.376Z" fill="#fff"/></g><g opacity="0.15"><g opacity="0.4"><path d="M370.206,722.739a5.145,5.145,0,0,1-1.532,3.651.64.64,0,0,1-.9-.913,3.854,3.854,0,0,0,1.149-2.738v-.023a3.843,3.843,0,0,0-7.392-1.456.639.639,0,0,1-1.18-.491,5.122,5.122,0,0,1,9.85,1.939Z" fill="#fff"/></g><g opacity="0.7"><path d="M373.976,722.74a8.893,8.893,0,0,1-17.785.044v-.052a8.912,8.912,0,0,1,2.659-6.338.639.639,0,0,1,.9.912,7.631,7.631,0,0,0-2.277,5.426v.045a7.615,7.615,0,0,0,15.229-.037V722.7a7.632,7.632,0,0,0-2.184-5.3.64.64,0,0,1,.913-.9,8.916,8.916,0,0,1,2.55,6.185Z" fill="#fff"/></g><g opacity="0.95"><path d="M377.855,722.741a12.758,12.758,0,0,1-7.9,11.8.639.639,0,0,1-.487-1.182,11.5,11.5,0,0,0,7.114-10.618v-.066a11.49,11.49,0,0,0-22.1-4.353.64.64,0,0,1-1.181-.492,12.772,12.772,0,0,1,24.561,4.837Z" fill="#fff"/></g><path d="M237.16,722.488a12.715,12.715,0,1,1-12.714-12.714A12.729,12.729,0,0,1,237.16,722.488Zm-24.669,0a11.955,11.955,0,1,0,11.955-11.954A11.969,11.969,0,0,0,212.491,722.488Z" fill="#fff"/><path d="M228.528,722.488a4.082,4.082,0,1,1-4.082-4.082A4.087,4.087,0,0,1,228.528,722.488Zm-7.4,0a3.323,3.323,0,1,0,3.323-3.323A3.327,3.327,0,0,0,221.123,722.488Z" fill="#fff"/><path d="M230.513,733.853a1.266,1.266,0,0,1-.773,1.167,13.6,13.6,0,0,1-18.618-9.792,1.266,1.266,0,0,1,2.48-.508,10.98,10.98,0,0,0,.644,2.077,11.074,11.074,0,0,0,14.508,5.891,1.266,1.266,0,0,1,1.759,1.165Z" fill="#fff"/><path d="M238.046,722.488a1.266,1.266,0,1,1-2.531,0,11.185,11.185,0,0,0-.225-2.232,11,11,0,0,0-.644-2.076,11.118,11.118,0,0,0-4.012-4.871,11.022,11.022,0,0,0-1.88-1.02,1.266,1.266,0,0,1,.986-2.332,13.662,13.662,0,0,1,2.311,1.254,13.632,13.632,0,0,1,4.926,5.983,13.554,13.554,0,0,1,.793,2.555A13.734,13.734,0,0,1,238.046,722.488Z" fill="#fff"/><path d="M220.911,711.123a1.267,1.267,0,0,1-.773,1.166,11.084,11.084,0,0,0-3.519,2.372,11.267,11.267,0,0,0-1.353,1.639,11.1,11.1,0,0,0-1.02,1.88,1.265,1.265,0,1,1-2.331-.986,13.624,13.624,0,0,1,2.914-4.322,13.638,13.638,0,0,1,4.323-2.915,1.268,1.268,0,0,1,1.759,1.166Z" fill="#fff"/><path d="M218.709,717.542a.374.374,0,0,1-.084.238A7.543,7.543,0,0,0,217,723.193a.38.38,0,0,1-.756.071,8.2,8.2,0,0,1,.006-1.6,8.284,8.284,0,0,1,1.784-4.362.38.38,0,0,1,.676.238Z" fill="#fff"/><path d="M227.12,730.048a.382.382,0,0,1-.271.364,8.326,8.326,0,0,1-1.6.311,8.2,8.2,0,0,1-1.6-.006,8.309,8.309,0,0,1-1.556-.309,8.416,8.416,0,0,1-1.469-.6.38.38,0,0,1,.353-.673,7.521,7.521,0,0,0,4.2.831,7.427,7.427,0,0,0,1.449-.283.379.379,0,0,1,.472.255A.375.375,0,0,1,227.12,730.048Z" fill="#fff"/><path d="M232.748,722.481a8.319,8.319,0,0,1-.351,2.386,8.27,8.27,0,0,1-1.475,2.806.38.38,0,1,1-.592-.476,7.537,7.537,0,0,0,.8-1.214,7.529,7.529,0,0,0,.83-4.2.38.38,0,1,1,.756-.071C232.736,721.968,232.748,722.225,232.748,722.481Z" fill="#fff"/><path d="M228.528,715.505a.379.379,0,0,1-.556.336,7.558,7.558,0,0,0-1.334-.545,7.664,7.664,0,0,0-1.414-.281,7.563,7.563,0,0,0-1.451-.005,7.461,7.461,0,0,0-1.448.283.38.38,0,0,1-.218-.728,8.226,8.226,0,0,1,3.194-.3,8.312,8.312,0,0,1,3.024.908A.38.38,0,0,1,228.528,715.505Z" fill="#fff"/><path d="M273.11,721.748a12.718,12.718,0,0,1-24.5,4.785,12.82,12.82,0,0,1,0-9.569,12.754,12.754,0,0,1,7-7l.285.7a11.994,11.994,0,0,0-6.581,6.58,12.058,12.058,0,0,0,0,9,11.961,11.961,0,0,0,22.159,0,12.049,12.049,0,0,0,0-9,12,12,0,0,0-6.58-6.58l.285-.7a12.7,12.7,0,0,1,7.93,11.783Z" fill="#fff"/><path d="M269.318,721.748c0,.086,0,.172,0,.258l-.506-.015a8.4,8.4,0,0,0-.028-.978l.5-.044C269.307,721.226,269.318,721.488,269.318,721.748Zm-.094,1.291a8.709,8.709,0,0,1-.208,1.016l-.489-.13a8.4,8.4,0,0,0,.2-.959Zm-.09-3.1-.5.1a8.342,8.342,0,0,0-.252-.946l.48-.158A8.708,8.708,0,0,1,269.134,719.943Zm-.443,5.1a8.718,8.718,0,0,1-.438.94l-.445-.24a8.608,8.608,0,0,0,.412-.887Zm-.207-7.064-.459.214a8.4,8.4,0,0,0-.464-.861l.43-.266A8.74,8.74,0,0,1,268.484,717.976Zm-.776,8.886a9.01,9.01,0,0,1-.643.814l-.378-.337a8.623,8.623,0,0,0,.607-.767Zm-.313-10.648-.4.314a8.621,8.621,0,0,0-.651-.731l.339-.376.019.018A9.179,9.179,0,0,1,267.395,716.214Zm-1.063,12.2a9.159,9.159,0,0,1-.812.646l-.292-.415a8.634,8.634,0,0,0,.767-.608Zm-.422-13.676-.313.4a8.357,8.357,0,0,0-.8-.56l.265-.431A8.915,8.915,0,0,1,265.91,714.733ZM264.638,729.6a8.73,8.73,0,0,1-.94.439l-.188-.47a8.322,8.322,0,0,0,.887-.414Zm-.493-15.95-.212.459a8.471,8.471,0,0,0-.91-.358l.158-.481A8.762,8.762,0,0,1,264.145,713.65Zm-1.432,16.716a9.084,9.084,0,0,1-1.017.21l-.073-.5a8.545,8.545,0,0,0,.959-.2Zm-.535-17.361-.1.5a8.581,8.581,0,0,0-.968-.139l.042-.5A8.915,8.915,0,0,1,262.178,713.005Zm-1.515,17.662-.267,0q-.385,0-.769-.034l.043-.5q.363.031.726.031c.084,0,.169,0,.253,0Zm-.533-17.331a8.563,8.563,0,0,0-.974.088l-.074-.5a8.893,8.893,0,0,1,1.033-.093ZM258.7,729.993l-.1.5a9.031,9.031,0,0,1-1-.266l.159-.482A8.274,8.274,0,0,0,258.7,729.993Zm-.5-16.37a8.2,8.2,0,0,0-.928.309l-.188-.47a8.811,8.811,0,0,1,.984-.328Zm-1.351,15.759-.213.459a8.807,8.807,0,0,1-.913-.491l.265-.431A8.6,8.6,0,0,0,256.847,729.382Zm-.463-15.035a8.354,8.354,0,0,0-.831.517l-.292-.414a8.872,8.872,0,0,1,.881-.548Zm-1.2,14.011-.314.4a8.87,8.87,0,0,1-.775-.689l.358-.358A8.488,8.488,0,0,0,255.185,728.358Zm-.4-12.884q-.174.156-.342.323t-.348.37l-.379-.336q.177-.2.369-.392.177-.177.362-.343Zm-.986,11.5-.4.315a8.7,8.7,0,0,1-.6-.848l.431-.267A8.174,8.174,0,0,0,253.8,726.978Zm-.311-10.043a8.495,8.495,0,0,0-.512.833l-.446-.239a8.842,8.842,0,0,1,.543-.884Zm-.718,8.383-.459.214a8.815,8.815,0,0,1-.384-.963l.48-.16A8.394,8.394,0,0,0,252.772,725.318Zm-.205-6.663a8.482,8.482,0,0,0-.306.929l-.489-.129a9.009,9.009,0,0,1,.323-.986Zm-.411,4.809-.5.1a9.063,9.063,0,0,1-.152-1.026l.505-.045A8.489,8.489,0,0,0,252.156,723.464Zm-.09-2.921a8.568,8.568,0,0,0-.083.975l-.506-.014a8.9,8.9,0,0,1,.088-1.033Z" fill="#fff"/><path d="M266.256,721.749c0,.169-.008.339-.022.508l-.353-.03a5.6,5.6,0,0,0,0-.96l.353-.031C266.248,721.407,266.256,721.578,266.256,721.749Zm-.2,1.514a5.787,5.787,0,0,1-.349.959l-.321-.149a5.416,5.416,0,0,0,.327-.9Zm0-3.033-.342.092a5.487,5.487,0,0,0-.328-.9l.321-.15A5.827,5.827,0,0,1,266.056,720.23Zm-.857,4.877a5.88,5.88,0,0,1-.657.782l-.25-.25a5.66,5.66,0,0,0,.617-.735Zm0-6.721-.29.2a5.59,5.59,0,0,0-.617-.735l.239-.262.011.012A5.871,5.871,0,0,1,265.2,718.386Zm-1.435,8.16a5.757,5.757,0,0,1-.884.512l-.15-.32a5.567,5.567,0,0,0,.83-.481Zm-.017-9.608-.2.291a5.491,5.491,0,0,0-.831-.478l.149-.321A5.856,5.856,0,0,1,263.744,716.938Zm-1.826,10.47a5.81,5.81,0,0,1-1.006.177l-.031-.353a5.578,5.578,0,0,0,.945-.166Zm-.02-11.324-.091.342a5.534,5.534,0,0,0-.945-.163l.03-.353A5.772,5.772,0,0,1,261.9,716.084Zm-1.977,11.15-.03.353a5.879,5.879,0,0,1-1.006-.176l.091-.342A5.577,5.577,0,0,0,259.921,727.234Zm-.018-10.969a5.487,5.487,0,0,0-.945.168l-.092-.342a5.8,5.8,0,0,1,1.005-.179Zm-1.829,10.477-.149.322a5.811,5.811,0,0,1-.884-.51l.2-.29A5.359,5.359,0,0,0,258.074,726.742Zm-.017-9.979a5.419,5.419,0,0,0-.83.482l-.2-.29a5.844,5.844,0,0,1,.883-.513Zm-1.554,8.878-.245.257-.006-.006a5.866,5.866,0,0,1-.652-.775l.29-.2A5.448,5.448,0,0,0,256.5,725.641Zm-.009-7.777a5.551,5.551,0,0,0-.616.736l-.29-.2a5.9,5.9,0,0,1,.655-.783Zm-1.086,6.22-.32.15a5.8,5.8,0,0,1-.351-.96l.342-.091A5.515,5.515,0,0,0,255.408,724.084Zm-.008-4.653a5.481,5.481,0,0,0-.326.9l-.342-.091a5.789,5.789,0,0,1,.347-.96Zm-.488,2.807-.353.031a6,6,0,0,1,0-1.021l.353.03A5.6,5.6,0,0,0,254.912,722.238Z" fill="#fff"/><path d="M263.445,721.748a3.046,3.046,0,0,1-.1.785l-.146-.039a2.915,2.915,0,0,0,.085-1l.152-.013C263.441,721.569,263.445,721.658,263.445,721.748Zm-.286-1.29-.137.064a2.921,2.921,0,0,0-.577-.823l-.022-.021.106-.109.023.023A3.025,3.025,0,0,1,263.159,720.458Zm-.261,3.034a3.085,3.085,0,0,1-.346.413,3.208,3.208,0,0,1-.4.337l-.088-.125a2.924,2.924,0,0,0,.709-.712Zm-1.241-4.521-.063.139a2.864,2.864,0,0,0-.973-.25l.012-.152A3.04,3.04,0,0,1,261.657,718.971Zm-.462,5.721a3.034,3.034,0,0,1-.8.106c-.085,0-.169,0-.253-.01l.012-.152c.08.007.16.01.241.01a2.916,2.916,0,0,0,.76-.1Zm-1.574-5.736a2.878,2.878,0,0,0-.906.432l-.089-.124a3.023,3.023,0,0,1,.955-.455Zm-.438,5.425-.064.138a3.035,3.035,0,0,1-.868-.6l.107-.108A2.863,2.863,0,0,0,259.183,724.381Zm-1.174-4.277a2.873,2.873,0,0,0-.418.914l-.147-.038a3.033,3.033,0,0,1,.44-.962Zm-.233,2.885-.137.065a3.036,3.036,0,0,1-.279-1.02l.151-.015A2.9,2.9,0,0,0,257.776,722.989Z" fill="#fff"/><path d="M261.186,720.958a1.118,1.118,0,1,1-1.581,0A1.117,1.117,0,0,1,261.186,720.958Z" fill="#fff"/><path d="M257.02,733.18a1.267,1.267,0,0,1-1.741,1.173,13.581,13.581,0,0,1-8.235-10.008,13.784,13.784,0,0,1,0-5.193,13.52,13.52,0,0,1,1.993-4.888,1.265,1.265,0,0,1,2.112,1.394,11.076,11.076,0,0,0,5.08,16.349A1.264,1.264,0,0,1,257.02,733.18Z" fill="#fff"/><path d="M274,721.748a13.718,13.718,0,0,1-.249,2.6,13.541,13.541,0,0,1-1.992,4.888,13.772,13.772,0,0,1-1.742,2.132,1.266,1.266,0,0,1-1.79-1.79,11.113,11.113,0,0,0,1.419-1.737,11.024,11.024,0,0,0,1.62-3.974,11.192,11.192,0,0,0,0-4.231,11.008,11.008,0,0,0-.608-2.051,1.266,1.266,0,0,1,2.346-.951,13.628,13.628,0,0,1,1,5.117Z" fill="#fff"/><path d="M310.365,721.748a12.718,12.718,0,0,1-24.5,4.785l.7-.286a11.961,11.961,0,0,0,22.159,0,12.049,12.049,0,0,0,0-9,11.962,11.962,0,0,0-22.159,0l-.7-.285a12.714,12.714,0,0,1,24.5,4.784Z" fill="#fff"/><path d="M290.194,730.47a1.265,1.265,0,0,1-2.16.9,13.614,13.614,0,0,1-2.915-14.911,1.266,1.266,0,0,1,2.332.986,11.157,11.157,0,0,0,0,8.617,11.026,11.026,0,0,0,2.372,3.518A1.258,1.258,0,0,1,290.194,730.47Z" fill="#fff"/><path d="M307.638,730.47a1.258,1.258,0,0,1-.371.9,13.552,13.552,0,0,1-9.616,3.984,1.266,1.266,0,0,1,0-2.532,11.028,11.028,0,0,0,7.827-3.242,1.266,1.266,0,0,1,2.16.895Z" fill="#fff"/><path d="M307.638,713.026a1.266,1.266,0,0,1-2.16.9,11.084,11.084,0,0,0-12.135-2.373,1.266,1.266,0,0,1-.987-2.331,13.586,13.586,0,0,1,14.911,2.915A1.257,1.257,0,0,1,307.638,713.026Z" fill="#fff"/><rect width="24.669" height="0.759" transform="translate(288.66 730.202) rotate(-45)" fill="#fff"/><rect width="0.759" height="24.669" transform="translate(288.66 713.295) rotate(-45)" fill="#fff"/><circle cx="9.363" cy="9.363" r="9.363" transform="translate(288.288 712.386)" fill="#fff"/><path d="M344.82,722.277a12.692,12.692,0,1,1-12.692-12.693A12.706,12.706,0,0,1,344.82,722.277Zm-24.625,0a11.933,11.933,0,1,0,11.933-11.933A11.946,11.946,0,0,0,320.2,722.277Z" fill="#fff"/><path d="M339.814,722.277a7.686,7.686,0,1,1-15.372,0h.354a7.335,7.335,0,0,0,14.088,2.854,7.394,7.394,0,0,0,0-5.708,7.3,7.3,0,0,0-1.572-2.331l.251-.25a7.662,7.662,0,0,1,2.251,5.435Z" fill="#fff"/><path d="M342.245,721.626a.38.38,0,0,1-.759.024c-.01-.162-.025-.324-.044-.484a.376.376,0,0,1,.332-.422.381.381,0,0,1,.422.333q.03.259.048.523Zm-.017,1.516v.033c-.016.176-.035.35-.06.523a.38.38,0,1,1-.752-.106c.023-.16.041-.321.055-.483a.38.38,0,0,1,.758.033Zm-.324-3.508a.38.38,0,0,1-.745.1c-.044-.156-.092-.311-.144-.464a.379.379,0,0,1,.719-.243c.057.165.108.333.156.5A.412.412,0,0,1,341.9,719.634Zm-.06,5.492a.393.393,0,0,1-.017.111q-.076.252-.167.5a.38.38,0,0,1-.714-.259c.056-.153.107-.307.155-.463a.38.38,0,0,1,.743.111Zm-.686-7.371a.38.38,0,0,1-.716.176c-.075-.143-.154-.285-.237-.423a.38.38,0,0,1,.654-.388q.133.227.255.459A.373.373,0,0,1,341.158,717.755Zm-.1,9.234a.378.378,0,0,1-.047.183q-.127.231-.266.454a.38.38,0,0,1-.645-.4c.085-.138.168-.278.246-.42a.38.38,0,0,1,.712.184Zm-1.015-10.916a.38.38,0,0,1-.673.241q-.154-.187-.318-.367a.379.379,0,1,1,.56-.512c.118.129.234.261.345.4A.377.377,0,0,1,340.04,716.073Zm-.14,12.575a.379.379,0,0,1-.093.248q-.171.2-.353.389a.38.38,0,0,1-.549-.525q.168-.176.327-.36a.38.38,0,0,1,.668.248Zm-1.3-13.994a.38.38,0,0,1-.616.3q-.19-.153-.389-.295a.38.38,0,0,1,.444-.616q.213.153.419.317A.382.382,0,0,1,338.6,714.654Zm-.172,15.379a.378.378,0,0,1-.149.3c-.139.107-.281.209-.425.309a.38.38,0,0,1-.43-.627c.134-.092.265-.186.394-.285a.379.379,0,0,1,.61.3ZM336.9,713.561a.38.38,0,0,1-.551.338c-.145-.073-.291-.142-.44-.207a.38.38,0,1,1,.306-.7q.242.106.476.225A.379.379,0,0,1,336.9,713.561Zm-.2,17.527a.378.378,0,0,1-.216.343q-.235.112-.479.214a.38.38,0,0,1-.292-.7q.225-.094.444-.2a.379.379,0,0,1,.543.342Zm-1.7-18.246a.367.367,0,0,1-.013.1.378.378,0,0,1-.464.269c-.156-.041-.314-.078-.472-.112a.379.379,0,1,1,.155-.743q.258.054.512.122A.379.379,0,0,1,335.01,712.842Zm-.207,18.922a.379.379,0,0,1-.291.368c-.17.042-.341.078-.514.11a.38.38,0,0,1-.14-.746c.161-.03.319-.064.476-.1a.382.382,0,0,1,.469.37Zm-1.789-19.233v.02a.381.381,0,0,1-.4.36c-.161-.009-.323-.013-.486-.013l-.039,0-.036,0c-.164,0-.326.007-.487.016a.38.38,0,0,1-.045-.758c.174-.01.349-.016.525-.017a.3.3,0,0,1,.043,0,.253.253,0,0,1,.039,0c.176,0,.351,0,.525.013A.381.381,0,0,1,333.014,712.531Zm-.214,19.5a.38.38,0,0,1-.368.379c-.1,0-.2.005-.3.005l-.222,0a.372.372,0,0,1-.372-.387.381.381,0,0,1,.388-.372l.206,0c.094,0,.188,0,.28,0a.381.381,0,0,1,.392.368Zm-2.016-.148a.388.388,0,0,1-.006.067.379.379,0,0,1-.44.307q-.26-.047-.516-.106a.379.379,0,0,1,.173-.739c.157.037.316.069.476.1A.379.379,0,0,1,330.784,731.883Zm-.364-19.141a.379.379,0,0,1-.3.371c-.159.035-.317.074-.473.116a.379.379,0,0,1-.2-.732q.254-.069.51-.126a.381.381,0,0,1,.453.289A.386.386,0,0,1,330.42,712.742Zm-1.578,18.581a.38.38,0,0,1-.523.352c-.163-.066-.324-.137-.482-.21a.38.38,0,0,1,.321-.689q.221.1.447.2A.379.379,0,0,1,328.842,731.323Zm-.341-17.947a.379.379,0,0,1-.223.346q-.221.1-.438.211a.379.379,0,1,1-.347-.675c.155-.08.313-.156.472-.228a.378.378,0,0,1,.536.346Zm-1.444,17a.375.375,0,0,1-.065.212.38.38,0,0,1-.527.1c-.146-.1-.288-.2-.428-.3a.38.38,0,1,1,.456-.607q.193.145.4.282A.381.381,0,0,1,327.057,730.372Zm-.3-15.98a.379.379,0,0,1-.156.307c-.131.1-.259.2-.385.3a.38.38,0,0,1-.479-.59q.2-.165.416-.32a.38.38,0,0,1,.6.306Zm-1.25,14.683a.379.379,0,0,1-.652.264c-.122-.126-.241-.254-.356-.386a.379.379,0,1,1,.571-.5c.107.121.217.241.33.357A.381.381,0,0,1,325.507,729.075Zm-.251-13.329a.378.378,0,0,1-.1.254q-.164.181-.316.37a.38.38,0,1,1-.59-.478c.11-.136.224-.27.341-.4a.38.38,0,0,1,.662.254Zm-1,11.742a.38.38,0,0,1-.7.2q-.139-.222-.269-.451a.38.38,0,0,1,.662-.372q.119.211.249.417A.377.377,0,0,1,324.256,727.488Zm-.191-10.108a.374.374,0,0,1-.051.19c-.082.14-.159.283-.234.427a.379.379,0,1,1-.675-.347q.12-.234.252-.461a.38.38,0,0,1,.708.191Zm-.706,8.3a.38.38,0,0,1-.736.132c-.061-.164-.117-.329-.17-.5a.38.38,0,0,1,.724-.228c.049.155.1.309.158.46A.389.389,0,0,1,323.359,725.679Zm-.123-6.455a.384.384,0,0,1-.019.119c-.05.153-.1.309-.14.465a.379.379,0,1,1-.732-.2q.069-.255.151-.5a.379.379,0,0,1,.74.119Zm-.38,4.5a.38.38,0,0,1-.756.056c-.025-.173-.047-.347-.063-.523a.38.38,0,0,1,.756-.072c.015.163.035.323.058.483A.364.364,0,0,1,322.856,723.722Zm-.048-2.524c0,.014,0,.028,0,.042-.018.161-.031.322-.041.485a.38.38,0,0,1-.4.357.374.374,0,0,1-.357-.4c.01-.176.025-.351.044-.524a.38.38,0,0,1,.757.041Z" fill="#fff"/><g opacity="0.4"><path d="M318.79,714.556l13.338,7.721V706.863A15.4,15.4,0,0,0,318.79,714.556Z" fill="#fff"/></g><path d="M332.128,720.478a1.8,1.8,0,1,1-1.8,1.8A1.8,1.8,0,0,1,332.128,720.478Z" fill="#fff"/></g></g></g></svg>