<svg xmlns="http://www.w3.org/2000/svg" xmlns:xlink="http://www.w3.org/1999/xlink" width="36" height="36" viewBox="0 0 36 36"><defs><style>.a{clip-path:url(#b);}.b{fill:#fff;}</style><clipPath id="b"><rect width="36" height="36"/></clipPath></defs><g id="a" class="a"><path class="b" d="M-664.377,709.78c-3.689.814-8.087-.6-10.088-2.935-2.5-2.913-1.7-7.229,1.364-6.885,1.742.2,3.1-.927,5.78-3.5,2.492-2.389,5.485.072,6.818,2.026a3.845,3.845,0,0,0,6.662-.1c1.165-1.827-1.568-4.087-5.851-.861a7.862,7.862,0,0,0-1.4-1.508s3.279-2.693,7-1.839c3.5.8,3.686,4.511,2.447,8.141-.969,2.84-3.664,4.985-6.67,4.121C-660.251,705.886-660.167,708.851-664.377,709.78Z" transform="translate(681.949 -683.776)"/></g></svg>