<svg xmlns="http://www.w3.org/2000/svg" xmlns:xlink="http://www.w3.org/1999/xlink" width="36" height="36" viewBox="0 0 36 36">
  <defs>
    <clipPath id="clip-clients_love_3_icon_dark">
      <rect width="36" height="36"/>
    </clipPath>
  </defs>
  <g id="clients_love_3_icon_dark" clip-path="url(#clip-clients_love_3_icon_dark)">
    <path id="ICO_love_03" d="M639.233,1082.907a6.572,6.572,0,0,0-5.916,3.775,6.573,6.573,0,0,0-5.917-3.775,6.655,6.655,0,0,0-6.583,6.725c0,8.835,12.5,15.275,12.5,15.275s12.5-6.44,12.5-15.275A6.655,6.655,0,0,0,639.233,1082.907Zm-3.988,16.316a5.187,5.187,0,0,1-3.14.837,9.012,9.012,0,0,1-1.53-.122,7.843,7.843,0,0,1-1.523-.443v-2.346a6,6,0,0,0,1.369.519,5.506,5.506,0,0,0,1.285.168,2.58,2.58,0,0,0,1.327-.261.9.9,0,0,0,.417-.819.935.935,0,0,0-.217-.662,1.394,1.394,0,0,0-.7-.35,5.474,5.474,0,0,0-1.26-.118h-.63V1093.5h.644q2.107,0,2.107-1.1a.681.681,0,0,0-.311-.615,1.532,1.532,0,0,0-.837-.2,3.776,3.776,0,0,0-2.03.672l-1.148-1.888a5.525,5.525,0,0,1,1.663-.815,7.1,7.1,0,0,1,1.95-.243,4.229,4.229,0,0,1,2.492.643,2.06,2.06,0,0,1,.9,1.774,2.526,2.526,0,0,1-.581,1.67,3.3,3.3,0,0,1-1.68,1.012v.043q2.562.33,2.562,2.475A2.7,2.7,0,0,1,635.245,1099.223Z" transform="translate(-614.816 -1075.907)" fill="#00043e"/>
  </g>
</svg>
