<svg xmlns="http://www.w3.org/2000/svg" xmlns:xlink="http://www.w3.org/1999/xlink" width="36" height="36" viewBox="0 0 36 36">
  <defs>
    <clipPath id="clip-clients_love_2_icon_dark">
      <rect width="36" height="36"/>
    </clipPath>
  </defs>
  <g id="clients_love_2_icon_dark" clip-path="url(#clip-clients_love_2_icon_dark)">
    <path id="ICO_love_02" d="M490.588,1082.907a6.572,6.572,0,0,0-5.917,3.775,6.573,6.573,0,0,0-5.917-3.775,6.655,6.655,0,0,0-6.583,6.725c0,8.835,12.5,15.275,12.5,15.275s12.5-6.44,12.5-15.275A6.655,6.655,0,0,0,490.588,1082.907Zm-2.815,17.01h-7.428v-1.86l2.5-2.582q1.071-1.144,1.4-1.562a3.431,3.431,0,0,0,.458-.719,1.574,1.574,0,0,0,.13-.63.829.829,0,0,0-.259-.644,1.043,1.043,0,0,0-.728-.236,1.957,1.957,0,0,0-.977.282,7.034,7.034,0,0,0-1.117.834l-1.519-1.817a8.189,8.189,0,0,1,1.33-1.033,4.692,4.692,0,0,1,1.172-.476,5.673,5.673,0,0,1,1.425-.164,4.219,4.219,0,0,1,1.775.357,2.8,2.8,0,0,1,1.211,1.019,2.663,2.663,0,0,1,.431,1.484,3.878,3.878,0,0,1-.616,2.163,7.074,7.074,0,0,1-.837,1.063q-.521.557-2.223,2.117v.071h3.872Z" transform="translate(-466.171 -1075.907)" fill="#00043e"/>
  </g>
</svg>
