<svg xmlns="http://www.w3.org/2000/svg" xmlns:xlink="http://www.w3.org/1999/xlink" width="36" height="36" viewBox="0 0 36 36">
  <defs>
    <clipPath id="clip-epic_fail_icon_dark">
      <rect width="36" height="36"/>
    </clipPath>
  </defs>
  <g id="epic_fail_icon_dark" clip-path="url(#clip-epic_fail_icon_dark)">
    <g id="ICO_epic_fail" transform="translate(2 2)">
      <g id="Ellipse_450" data-name="Ellipse 450" fill="none" stroke="#00043e" stroke-miterlimit="10" stroke-width="3.412">
        <circle cx="16" cy="16" r="16" stroke="none"/>
        <circle cx="16" cy="16" r="14.294" fill="none"/>
      </g>
      <g id="Group_1041" data-name="Group 1041" transform="translate(13.15 6.807)">
        <path id="Path_1757" data-name="Path 1757" d="M383.159,619.96h-4.122l-.638-11.82h5.4Zm-4.71,4.373a2.3,2.3,0,0,1,.675-1.767,2.764,2.764,0,0,1,1.962-.632,2.673,2.673,0,0,1,1.93.632,2.332,2.332,0,0,1,.656,1.767,2.276,2.276,0,0,1-.681,1.756,2.7,2.7,0,0,1-1.9.632,2.789,2.789,0,0,1-1.937-.632A2.243,2.243,0,0,1,378.449,624.333Z" transform="translate(-378.399 -608.14)" fill="#00043e"/>
      </g>
    </g>
  </g>
</svg>
