<svg xmlns="http://www.w3.org/2000/svg" xmlns:xlink="http://www.w3.org/1999/xlink" width="36" height="36" viewBox="0 0 36 36"><defs><clipPath id="b"><rect width="36" height="36"/></clipPath></defs><g id="a" clip-path="url(#b)"><path d="M321.539,129.957a3.464,3.464,0,0,0-3.866-.071,4.139,4.139,0,0,0-.944.853h-12.2a4.13,4.13,0,0,0-.944-.853,3.465,3.465,0,0,0-3.866.071,3.671,3.671,0,0,0-1.542,3.739c.341,2.364,2.326,4.4,5.417,5.657a8.174,8.174,0,0,0,1.806,3.691,18.57,18.57,0,0,0,1.737,1.655,5.294,5.294,0,0,1,1.343,2.742c.136.967-.669,1.345-1.736,1.345h-1.161a.717.717,0,0,0-.653.5l-.684,2.54a.378.378,0,0,0,.382.5h12.191a.378.378,0,0,0,.382-.5l-.684-2.54a.717.717,0,0,0-.653-.5H314.5c-1.067,0-1.872-.378-1.736-1.345a5.291,5.291,0,0,1,1.343-2.742,18.573,18.573,0,0,0,1.737-1.655,8.167,8.167,0,0,0,1.8-3.684c3.1-1.254,5.093-3.3,5.434-5.664A3.67,3.67,0,0,0,321.539,129.957Zm-18.394,3.992a24.288,24.288,0,0,0,.077,3.121c-2.054-1.1-2.992-2.507-3.157-3.651a1.788,1.788,0,0,1,.659-1.831,1.592,1.592,0,0,1,1.925-.021,2.364,2.364,0,0,1,.61.657c-.038.4-.074.855-.1,1.361A.946.946,0,0,0,303.145,133.949Zm11.418,2.691-1.892,1.383a.726.726,0,0,0-.244.756l.722,2.237c.083.257-.027.338-.244.178l-1.89-1.383a.715.715,0,0,0-.79,0l-1.891,1.383c-.217.159-.327.079-.244-.178l.723-2.237a.726.726,0,0,0-.244-.756l-1.892-1.383c-.217-.159-.175-.289.093-.289h2.338a.718.718,0,0,0,.639-.467l.722-2.237c.083-.257.218-.257.3,0l.722,2.237a.717.717,0,0,0,.639.467h2.338C314.739,136.351,314.78,136.481,314.563,136.64Zm6.628-3.221c-.165,1.146-1.107,2.561-3.174,3.66a24.232,24.232,0,0,0,.081-3.071.959.959,0,0,0-.022-.5c-.024-.466-.057-.891-.092-1.261a2.374,2.374,0,0,1,.623-.679,1.591,1.591,0,0,1,1.925.022A1.787,1.787,0,0,1,321.191,133.419Z" transform="translate(-292.128 -122.331)" fill="#fff"/></g></svg>