<svg xmlns="http://www.w3.org/2000/svg" xmlns:xlink="http://www.w3.org/1999/xlink" width="36" height="36" viewBox="0 0 36 36">
  <defs>
    <clipPath id="clip-fell_last_hurdle_icon_dark">
      <rect width="36" height="36"/>
    </clipPath>
  </defs>
  <g id="fell_last_hurdle_icon_dark" clip-path="url(#clip-fell_last_hurdle_icon_dark)">
    <g id="ICO_hurdle" transform="translate(4 5)">
      <path id="Path_1758" data-name="Path 1758" d="M71.968,129.526l7.115,1.9a1.063,1.063,0,0,0,.978-.255l1.994-2.005a3.619,3.619,0,0,1-2.545-2.835l-1.378,1.524-5.558-.976a1.421,1.421,0,0,0-.607,2.647Z" transform="translate(-71.248 -111.543)" fill="#00043e"/>
      <path id="Path_1759" data-name="Path 1759" d="M107.542,59.235a1.151,1.151,0,0,0,1.24.371l3.209-2.907,1.923,1.5c-1.774,2.658-3.746,4.887-3.962,7.61-.1,1.207.578,2.989,3.334,3.166,1.588.1,6.359-.239,6.359-.239l7.324,1.109a1.157,1.157,0,0,0,1.016-1.178c.133-1.275-.761-1.382-.761-1.382l-6.638-1.826a5.19,5.19,0,0,0-1.45-.259l-4.152-.342a30.708,30.708,0,0,1,2.993-3.462l1.8,1.9a1.84,1.84,0,0,0,1.14.705c1.1.236,4.253,1.088,4.253,1.088a.993.993,0,0,0,1.1-.766.96.96,0,0,0-.477-1.224l-4-1.865-2.323-3.072a6.111,6.111,0,0,0-1.769-1.682l-5.372-3.2a.716.716,0,0,0-.867.144l-4.14,4.606A1.026,1.026,0,0,0,107.542,59.235Z" transform="translate(-99.999 -52.292)" fill="#00043e"/>
      <path id="Path_1760" data-name="Path 1760" d="M170.381,54.355a2.952,2.952,0,1,0-2.952-2.952A2.952,2.952,0,0,0,170.381,54.355Z" transform="translate(-148.787 -48.451)" fill="#00043e"/>
      <path id="Rectangle_576" data-name="Rectangle 576" d="M.777,0h0a.777.777,0,0,1,.777.777V6.407a.778.778,0,0,1-.778.778h0A.778.778,0,0,1,0,6.407V.777A.777.777,0,0,1,.777,0Z" transform="translate(17.934 18.815)" fill="#00043e"/>
      <path id="Path_1761" data-name="Path 1761" d="M76.875,75.484l-3.3,3.477a.273.273,0,0,0,.009.387l5.024,4.791A.274.274,0,0,0,79,84.13l3.3-3.477a.274.274,0,0,0-.01-.389l-5.023-4.79A.275.275,0,0,0,76.875,75.484Z" transform="translate(-73.073 -70.281)" fill="#00043e"/>
    </g>
  </g>
</svg>
