<svg xmlns="http://www.w3.org/2000/svg" xmlns:xlink="http://www.w3.org/1999/xlink" width="36" height="36" viewBox="0 0 36 36"><defs><style>.a{clip-path:url(#b);}.b{fill:#fffdfd;}</style><clipPath id="b"><rect width="36" height="36"/></clipPath></defs><g id="a" class="a"><g transform="translate(-114.765 -201.901)"><path class="b" d="M166.09,209.919s-3.831-3.018-6.411-3.018a9.732,9.732,0,0,1,1.3,3.37,18.118,18.118,0,0,0-6.039,3.279c-1.369-1.155-3.176-2.663-3.706-3.03-.567,1.125.817,2.708.817,4.425s-1.384,3.3-.817,4.425c.55-.38,2.47-1.986,3.854-3.154a19.017,19.017,0,0,0,4.521,2.68l-.57,2.005a18.349,18.349,0,0,0,2.729-1.321,11.436,11.436,0,0,0,2.534.3c5.962,0,10.8-5.052,10.8-5.052S171.2,210.753,166.09,209.919Zm2.871,4.375a.575.575,0,1,1,.533-.573A.554.554,0,0,1,168.961,214.295Z" transform="translate(-30.384 6)"/></g></g></svg>