<svg xmlns="http://www.w3.org/2000/svg" xmlns:xlink="http://www.w3.org/1999/xlink" width="36" height="36" viewBox="0 0 36 36">
  <defs>
    <clipPath id="clip-flying_start_icon_dark">
      <rect width="36" height="36"/>
    </clipPath>
  </defs>
  <g id="flying_start_icon_dark" clip-path="url(#clip-flying_start_icon_dark)">
    <path id="ICO_flying_start" d="M477.468,556c.966-.964,2.223-3.784,1.257-4.75s-3.785.289-4.751,1.257l-4.035,4.251a1.239,1.239,0,0,1-1.115.223l-1.8-.639a.981.981,0,0,0-.114-.174l-1.648-1.648a.9.9,0,0,0-1.266,0l-.55.551-6.05-2.146a1.288,1.288,0,0,0-1.228.278l-1.8,1.8a.594.594,0,0,0,.089.945l5.526,3.757-.069.109a.586.586,0,0,0,.079.695l.929.93a.588.588,0,0,0,.694.077l.536-.337,1.589,1.08a.6.6,0,0,1,.172.841l-3.107,3.275a1.412,1.412,0,0,1-1.221.344l-3.6-.9a1.465,1.465,0,0,0-1.25.347l-.47.468a.612.612,0,0,0,.079.961l4.071,2.92c-.509.543-.722,1.177-.458,1.439s.915.049,1.463-.476a.819.819,0,0,0,.036.077l2.919,4.074a.61.61,0,0,0,.961.077l.469-.47a1.464,1.464,0,0,0,.347-1.25l-.9-3.6a1.417,1.417,0,0,1,.337-1.21l3.287-3.121a.6.6,0,0,1,.838.174l1.08,1.586-.337.537a.589.589,0,0,0,.077.695l.93.928a.588.588,0,0,0,.7.079l.109-.069,3.756,5.526a.6.6,0,0,0,.946.089l1.8-1.8a1.289,1.289,0,0,0,.278-1.228l-2.147-6.049.552-.553a.9.9,0,0,0,0-1.265l-1.648-1.648a.826.826,0,0,0-.174-.115l-.638-1.8a1.232,1.232,0,0,1,.218-1.109Z" transform="translate(-449.071 -544.906)" fill="#00043e"/>
  </g>
</svg>
