<svg xmlns="http://www.w3.org/2000/svg" xmlns:xlink="http://www.w3.org/1999/xlink" width="36" height="36" viewBox="0 0 36 36"><defs><clipPath id="b"><rect width="36" height="36"/></clipPath></defs><g id="a" clip-path="url(#b)"><path d="M9.446,8.889a2.981,2.981,0,0,1-.731,2.02A4.174,4.174,0,0,1,6.6,12.133v.052q3.222.4,3.222,2.993A3.226,3.226,0,0,1,8.4,17.954a6.716,6.716,0,0,1-3.949,1.012,11.758,11.758,0,0,1-1.924-.147,10.188,10.188,0,0,1-1.915-.536V15.446a7.731,7.731,0,0,0,1.721.627,7.186,7.186,0,0,0,1.616.2,3.354,3.354,0,0,0,1.668-.316,1.073,1.073,0,0,0,.524-.99,1.1,1.1,0,0,0-.273-.8,1.777,1.777,0,0,0-.88-.424A7.154,7.154,0,0,0,3.406,13.6H2.614V11.034h.81q2.65,0,2.65-1.332a.814.814,0,0,0-.392-.744A1.987,1.987,0,0,0,4.63,8.716a4.876,4.876,0,0,0-2.553.813L.633,7.246A7.066,7.066,0,0,1,2.724,6.26a9.276,9.276,0,0,1,2.452-.294,5.481,5.481,0,0,1,3.134.778A2.463,2.463,0,0,1,9.446,8.889Zm8.118,9.9L14.932,9.685h-.079q.185,2.327.185,3.615v5.492H11.956V6.147h4.631l2.685,8.978h.07l2.633-8.978h4.64V18.793h-3.2V13.249q0-.432.013-.96T23.551,9.7h-.079l-2.6,9.09Z" transform="translate(4.385 6.034)" fill="#fff"/></g></svg>