<svg xmlns="http://www.w3.org/2000/svg" xmlns:xlink="http://www.w3.org/1999/xlink" width="36" height="36" viewBox="0 0 36 36">
  <defs>
    <clipPath id="clip-off_the_mark_icon_dark">
      <rect width="36" height="36"/>
    </clipPath>
  </defs>
  <g id="off_the_mark_icon_dark" clip-path="url(#clip-off_the_mark_icon_dark)">
    <g id="ICO_off_the_mark" transform="translate(4 5)">
      <path id="Path_1750" data-name="Path 1750" d="M238.167,185.9a2.827,2.827,0,1,0-.957-3.882A2.829,2.829,0,0,0,238.167,185.9Z" transform="translate(-216.448 -180.648)" fill="#00043e"/>
      <path id="Path_1751" data-name="Path 1751" d="M220.588,200.492a25.8,25.8,0,0,1-3.99-2,20.035,20.035,0,0,1-1.343-5.144,1.292,1.292,0,0,0-.054-.206,3.312,3.312,0,0,0-1.005-2.031,9.087,9.087,0,0,0-.978-.693c-.8-.488-4.655-2.69-7.6-1.577a9.04,9.04,0,0,0-4.172,3.457,1.327,1.327,0,0,0,.449,1.82l0,0a1.334,1.334,0,0,0,1.824-.443,6.387,6.387,0,0,1,2.836-2.346,4.339,4.339,0,0,1,2.656.178l-3.822,4a3.326,3.326,0,0,0,.1,4.7,16.48,16.48,0,0,1,4.008,5.924,7.573,7.573,0,0,1-.075,4.481,1.729,1.729,0,1,0,3.356.836,14.722,14.722,0,0,0,.091-6.084A15.861,15.861,0,0,0,210.1,200.2c.034-.033.07-.065.1-.1l3.054-3.193a7.706,7.706,0,0,0,1.58,3.576,6.211,6.211,0,0,0,.794.552,35.972,35.972,0,0,0,3.934,1.911,1.33,1.33,0,1,0,1.028-2.454Z" transform="translate(-193.405 -185.758)" fill="#00043e"/>
      <path id="Path_1752" data-name="Path 1752" d="M194.843,224.084A25.642,25.642,0,0,1,191.2,226.5a19.8,19.8,0,0,1-3.652,1.261,1.729,1.729,0,1,0,.754,3.375,23.064,23.064,0,0,0,4.4-1.519,29.33,29.33,0,0,0,4.288-2.818,1.623,1.623,0,0,0,.122-.118,17.213,17.213,0,0,0-2.173-2.656C194.9,224.047,194.871,224.061,194.843,224.084Z" transform="translate(-183.376 -208.769)" fill="#00043e"/>
      <path id="Rectangle_575" data-name="Rectangle 575" d="M2.733,0h.822A2.734,2.734,0,0,1,6.289,2.734V6.267A2.733,2.733,0,0,1,3.556,9H2.733A2.733,2.733,0,0,1,0,6.267V2.733A2.733,2.733,0,0,1,2.733,0Z" transform="translate(0 10.431) rotate(-50.509)" fill="#00043e"/>
    </g>
  </g>
</svg>
