<svg xmlns="http://www.w3.org/2000/svg" xmlns:xlink="http://www.w3.org/1999/xlink" width="36" height="36" viewBox="0 0 36 36"><defs><clipPath id="b"><rect width="36" height="36"/></clipPath></defs><g id="a" clip-path="url(#b)"><g transform="translate(-424.26 -1665.217)"><g transform="translate(429.26 1671.217)"><path d="M431.425,1677.684l2.331-.857a13.613,13.613,0,0,1-.654-2.689s-.135-2.088-1.131-2.626a2.34,2.34,0,0,0-.876-.287,1.538,1.538,0,0,0-.313,0,1.77,1.77,0,0,0-.415.116,1.426,1.426,0,0,0-.461.271,2.109,2.109,0,0,0-.491.694c-.026.056-.05.114-.073.171-.41,1.054.839,2.733.839,2.733A13.6,13.6,0,0,1,431.425,1677.684Z" transform="translate(-429.26 -1671.217)" fill="#fff"/><path d="M908.4,3138.613l-1.227-1.125a5.658,5.658,0,0,1-.8-.861l-2.642.971a5.67,5.67,0,0,1-.049,1.172l-.206,1.652a7.99,7.99,0,0,0,.669,3.95,20.921,20.921,0,0,0,3.644,4.93.618.618,0,0,0,.345.189,4.974,4.974,0,0,0,2.586-.95.619.619,0,0,0,.141-.368,20.913,20.913,0,0,0-.416-6.116A7.99,7.99,0,0,0,908.4,3138.613Z" transform="translate(-901.013 -3128.831)" fill="#fff"/><path d="M899.221,2890.759c.043.115.066.181.066.181a3.188,3.188,0,0,1,.165.544l2.371-.872a3.2,3.2,0,0,1-.226-.521s-.025-.066-.067-.181Z" transform="translate(-896.822 -2883.585)" fill="#fff"/></g><path d="M2653.128,3494.045a7.19,7.19,0,1,0,7.19,7.19A7.19,7.19,0,0,0,2653.128,3494.045Zm-4.628,7.024a.991.991,0,1,1,.992-.992A.992.992,0,0,1,2648.5,3501.069Zm.5-3.553a.992.992,0,1,1,.992.992A.992.992,0,0,1,2649,3497.516Zm2.314,3.8a.992.992,0,1,1,.992-.992A.992.992,0,0,1,2651.31,3501.317Z" transform="translate(-2205.058 -1813.208)" fill="#fff"/></g></g></svg>