<svg xmlns="http://www.w3.org/2000/svg" xmlns:xlink="http://www.w3.org/1999/xlink" width="36" height="36" viewBox="0 0 36 36"><defs><clipPath id="b"><rect width="36" height="36"/></clipPath></defs><g id="a" clip-path="url(#b)"><g transform="translate(-317.289 -37.503)"><path d="M337.664,49.838a3.369,3.369,0,0,1,.4-1.75c-3.161-.033-6.313-.267-9.786-.581a.386.386,0,0,0-.466.309c-.114.73-.247,1.545-.388,2.406,1.888.21,5.47.528,10.236.6Z" transform="translate(-3.464)" fill="#fff"/><path d="M361.828,50.176v1c3.01.02,6.447-.064,10.2-.332-.182-1.237-.32-2.182-.367-2.567a.444.444,0,0,0-.439-.253,76.947,76.947,0,0,1-8.206.418C361.824,48.445,361.828,49.759,361.828,50.176Zm1.876-1.086a.769.769,0,1,1-.769.769A.769.769,0,0,1,363.7,49.089Z" transform="translate(-25.255 -0.352)" fill="#fff"/><path d="M327.777,59.013c-.831-.072-1.53-.143-2.082-.2-.2,1.2-.406,2.467-.6,3.7A4.7,4.7,0,0,0,327.777,59.013Z" transform="translate(-1.889 -7.621)" fill="#fff"/><path d="M389.546,63.1c-.171-1.2-.345-2.387-.5-3.442-.741.053-1.466.1-2.181.138A4.617,4.617,0,0,0,389.546,63.1Z" transform="translate(-42.13 -8.193)" fill="#fff"/><path d="M368.993,60.243a5.536,5.536,0,0,0,3.829,4.319c.477,3.413.873,6.609.667,6.695-1.308.545-10.765,2.354-10.842,1.688-.057-.479-.543-3.552-.818-5.346v-7.2C362.984,60.449,367.079,60.365,368.993,60.243Z" transform="translate(-25.255 -8.587)" fill="#fff"/><path d="M326.873,59.682c1.928.147,4.408.281,7.327.323v7.039c-.27,1.742-.8,5.024-.861,5.523-.078.666-9.562-1.385-10.933-1.748-.324-.086.071-3.1.625-6.636C324.436,63.942,326.453,62.129,326.873,59.682Z" transform="translate(0 -8.209)" fill="#fff"/></g></g></svg>