<svg xmlns="http://www.w3.org/2000/svg" xmlns:xlink="http://www.w3.org/1999/xlink" width="36" height="36" viewBox="0 0 36 36">
  <defs>
    <clipPath id="clip-this_shouldnt_be_icon_dark">
      <rect width="36" height="36"/>
    </clipPath>
  </defs>
  <g id="this_shouldnt_be_icon_dark" clip-path="url(#clip-this_shouldnt_be_icon_dark)">
    <path id="Path_10422" data-name="Path 10422" d="M6.834,15.992H3.928V10.327q0-1.032.043-1.888a6.249,6.249,0,0,1-.667.688l-1.2,1L.615,8.285,4.254,5.292h2.58ZM16.88,10.656a7.256,7.256,0,0,1-.942,4.161,3.305,3.305,0,0,1-2.885,1.321,3.265,3.265,0,0,1-2.863-1.38,7.17,7.17,0,0,1-.964-4.1,7.345,7.345,0,0,1,.942-4.186,3.3,3.3,0,0,1,2.885-1.332,3.261,3.261,0,0,1,2.859,1.387A7.233,7.233,0,0,1,16.88,10.656Zm-4.806,0a9.217,9.217,0,0,0,.225,2.5q.225.681.754.681t.757-.7a9.392,9.392,0,0,0,.221-2.474,9.42,9.42,0,0,0-.225-2.492q-.225-.714-.754-.714t-.754.688A9.385,9.385,0,0,0,12.075,10.656Zm11.09,5.335L21,8.285h-.065q.152,1.969.152,3.059v4.647H18.547V5.292H22.36l2.211,7.6h.058l2.167-7.6h3.82v10.7H27.984V11.3q0-.366.011-.812t.1-2.188h-.065l-2.138,7.692Z" transform="translate(1.385 6.862)" fill="#00043e"/>
  </g>
</svg>
