<svg xmlns="http://www.w3.org/2000/svg" xmlns:xlink="http://www.w3.org/1999/xlink" width="36" height="36" viewBox="0 0 36 36">
  <defs>
    <clipPath id="clip-up_to_speed_icon_dark">
      <rect width="36" height="36"/>
    </clipPath>
  </defs>
  <g id="up_to_speed_icon_dark" clip-path="url(#clip-up_to_speed_icon_dark)">
    <g id="ICO_up_to_speed" transform="translate(2 5)">
      <path id="Path_1753" data-name="Path 1753" d="M59.625,437.174c-5.107-1.157-4.482-2.373-6.838-2.838a6.6,6.6,0,0,0-5.629,1.13c1.312-.332,6.045.853,1.437,1.622-6.2,1.034-8.236,5.3-8.236,5.3s5.717-1.285,3.932,2.862c-2.2,4.648-7.661,1.988-7.661,1.988.464,4.023,8.488,5.033,10.32,7.261s-1.823.962-1.823.962c1.392,3.805,6.5,3.145,6.849,3.1a11.6,11.6,0,1,0,7.649-21.383Zm-1.7,21.145a9.708,9.708,0,1,1,9.826-9.708A9.767,9.767,0,0,1,57.93,458.319Z" transform="translate(-36.63 -434.171)" fill="#00043e"/>
      <path id="Path_1754" data-name="Path 1754" d="M89.867,457.571a7.363,7.363,0,0,0-5.314,12.458l.265-.357a6.407,6.407,0,0,1-1.553-4.455,5.726,5.726,0,0,1,6.074-5.789c3.094,0,5.939,1.9,5.939,5.348a5.238,5.238,0,0,1-.539,2.537l1.315,2.006a7.031,7.031,0,0,0,1.381-4.195A7.329,7.329,0,0,0,89.867,457.571Z" transform="translate(-68.435 -450.594)" fill="#00043e"/>
      <path id="Path_1755" data-name="Path 1755" d="M104.411,477.3l-.011-.017h0a1.815,1.815,0,1,0-2.223,2.684h0l6.234,3.434-3.972-6.06Zm-1.391,1.715a.722.722,0,1,1,.591-.834A.722.722,0,0,1,103.021,479.019Z" transform="translate(-81.556 -463.868)" fill="#00043e"/>
    </g>
  </g>
</svg>
