<svg xmlns="http://www.w3.org/2000/svg" xmlns:xlink="http://www.w3.org/1999/xlink" width="36" height="36" viewBox="0 0 36 36">
  <defs>
    <clipPath id="clip-you_might_be_icon_dark">
      <rect width="36" height="36"/>
    </clipPath>
  </defs>
  <g id="you_might_be_icon_dark" clip-path="url(#clip-you_might_be_icon_dark)">
    <path id="Path_10419" data-name="Path 10419" d="M5.886,10.571a4.008,4.008,0,0,1,2.019.513,3.568,3.568,0,0,1,1.4,1.452,4.528,4.528,0,0,1,.5,2.167A4.154,4.154,0,0,1,8.5,18,5.87,5.87,0,0,1,4.537,19.15a8.572,8.572,0,0,1-3.71-.693V15.615a9.417,9.417,0,0,0,1.744.579,7.493,7.493,0,0,0,1.673.228,2.4,2.4,0,0,0,1.5-.408,1.435,1.435,0,0,0,.524-1.206,1.371,1.371,0,0,0-.533-1.149,2.621,2.621,0,0,0-1.616-.412,5.873,5.873,0,0,0-1.784.307l-1.287-.632L1.536,6.15h7.4V9.036H4.519l-.16,1.693a8.038,8.038,0,0,1,.985-.145Q5.637,10.571,5.886,10.571Zm11.815,8.4L15.047,9.738h-.08q.186,2.36.186,3.667v5.57H12.046V6.15h4.669l2.707,9.105h.071L22.148,6.15h4.678V18.975H23.6V13.352q0-.439.013-.974t.12-2.623h-.08l-2.619,9.219Z" transform="translate(4.174 5.85)" fill="#00043e"/>
  </g>
</svg>
