<svg xmlns="http://www.w3.org/2000/svg" width="62.322" height="279.171" viewBox="0 0 62.322 279.171">
  <defs>
    <style>
      .cls-1 {
        opacity: 0.2;
      }

      .cls-2 {
        fill: #fff;
      }

      .cls-3 {
        opacity: 0.25;
      }

      .cls-4 {
        opacity: 0.3;
      }

      .cls-5 {
        opacity: 0.5;
      }

      .cls-6 {
        opacity: 0.4;
      }

      .cls-7 {
        opacity: 0.1;
      }

      .cls-8 {
        opacity: 0.6;
      }

      .cls-9 {
        opacity: 0.8;
      }

      .cls-10 {
        opacity: 0.15;
      }

      .cls-11 {
        opacity: 0.7;
      }
    </style>
  </defs>
  <g id="Group_6007" data-name="Group 6007" class="cls-1" transform="translate(-1251.186 -423.712)">
    <g id="Group_5955" data-name="Group 5955">
      <g id="Group_5945" data-name="Group 5945">
        <path id="Path_12982" data-name="Path 12982" class="cls-2" d="M1286.284,464.094a31.407,31.407,0,0,0,4.771-1.121l-2.06-6.44a24.488,24.488,0,0,1-3.738.878Z"/>
      </g>
      <g id="Group_5946" data-name="Group 5946">
        <path id="Path_12983" data-name="Path 12983" class="cls-2" d="M1295.594,461.115a31.44,31.44,0,0,0,4.186-2.545l-3.955-5.485a24.53,24.53,0,0,1-3.281,2Z"/>
      </g>
      <g id="Group_5947" data-name="Group 5947">
        <path id="Path_12984" data-name="Path 12984" class="cls-2" d="M1277.525,457.814l-1.008,6.25a31.268,31.268,0,0,0,4.887.4l.016-6.762c-.556,0-1.112-.025-1.667-.064q-.69.086-1.39.139C1278.082,457.794,1277.8,457.8,1277.525,457.814Z"/>
      </g>
      <g id="Group_5948" data-name="Group 5948">
        <path id="Path_12985" data-name="Path 12985" class="cls-2" d="M1303.293,444.425l6.006,3.105a31.351,31.351,0,0,0,1.9-4.518l-6.419-2.125A24.478,24.478,0,0,1,1303.293,444.425Z"/>
      </g>
      <g id="Group_5949" data-name="Group 5949">
        <path id="Path_12986" data-name="Path 12986" class="cls-2" d="M1305.7,437.161l6.673,1.089a31.274,31.274,0,0,0,.406-4.885l-6.761-.031A24.562,24.562,0,0,1,1305.7,437.161Z"/>
      </g>
      <g id="Group_5950" data-name="Group 5950">
        <path id="Path_12987" data-name="Path 12987" class="cls-2" d="M1300.072,449.189c-.418.485-.861.961-1.316,1.412l4.761,4.8c.58-.575,1.144-1.18,1.677-1.8s1.04-1.256,1.521-1.91l-5.449-4C1300.888,448.2,1300.487,448.708,1300.072,449.189Z"/>
      </g>
      <g id="Group_5951" data-name="Group 5951">
        <path id="Path_12988" data-name="Path 12988" class="cls-2" d="M1267.231,461.013a31.274,31.274,0,0,0,4.523,1.893l1.71-5.205a27.806,27.806,0,0,1-4.149-.74Z"/>
      </g>
      <g id="Group_5952" data-name="Group 5952">
        <path id="Path_12989" data-name="Path 12989" class="cls-2" d="M1304.865,425.757a24.477,24.477,0,0,1,.869,3.739l6.686-1.01a31.155,31.155,0,0,0-1.11-4.774Z"/>
      </g>
      <g id="Group_5953" data-name="Group 5953">
        <path id="Path_12990" data-name="Path 12990" class="cls-2" d="M1259.347,455.248c.559.562,1.149,1.111,1.753,1.631.633.545,1.293,1.07,1.963,1.559l2.121-2.9a27.86,27.86,0,0,1-3.986-2.133Z"/>
      </g>
      <g id="Group_5954" data-name="Group 5954">
        <path id="Path_12991" data-name="Path 12991" class="cls-2" d="M1254.239,447.021l-.623.316a31.336,31.336,0,0,0,2.556,4.183l1.331-.965A28.09,28.09,0,0,1,1254.239,447.021Z"/>
      </g>
    </g>
    <g id="Group_5964" data-name="Group 5964">
      <g id="Group_5956" data-name="Group 5956" class="cls-3">
        <path id="Path_12992" data-name="Path 12992" class="cls-2" d="M1285.961,692.578v10.033a30.458,30.458,0,0,0,17.6-8.715q.6-.6,1.163-1.23l-7.022-7.022A20.793,20.793,0,0,1,1285.961,692.578Z"/>
      </g>
      <g id="Group_5957" data-name="Group 5957" class="cls-4">
        <path id="Path_12993" data-name="Path 12993" class="cls-2" d="M1298.583,684.529l7.061,7.061a30.439,30.439,0,0,0,6.891-18.683h-9.9A20.656,20.656,0,0,1,1298.583,684.529Z"/>
      </g>
      <g id="Group_5958" data-name="Group 5958" class="cls-5">
        <path id="Path_12994" data-name="Path 12994" class="cls-2" d="M1285.961,641.789v10.033a20.8,20.8,0,0,1,11.737,6.934l7.022-7.022q-.562-.627-1.163-1.23A30.458,30.458,0,0,0,1285.961,641.789Z"/>
      </g>
      <g id="Group_5959" data-name="Group 5959" class="cls-6">
        <path id="Path_12995" data-name="Path 12995" class="cls-2" d="M1302.632,671.493h9.9a30.439,30.439,0,0,0-6.891-18.683l-7.061,7.061A20.656,20.656,0,0,1,1302.632,671.493Z"/>
      </g>
      <g id="Group_5960" data-name="Group 5960" class="cls-1">
        <path id="Path_12996" data-name="Path 12996" class="cls-2" d="M1281.861,692.985a20.679,20.679,0,0,1-12.33-4.062l-7.06,7.06a30.451,30.451,0,0,0,19.39,6.9c.9,0,1.8-.041,2.686-.118v-9.953A20.892,20.892,0,0,1,1281.861,692.985Z"/>
      </g>
      <g id="Group_5961" data-name="Group 5961" class="cls-7">
        <path id="Path_12997" data-name="Path 12997" class="cls-2" d="M1261.089,672.907h-9.9a30.471,30.471,0,0,0,8.979,20.989q.6.6,1.23,1.163l7.021-7.021A20.749,20.749,0,0,1,1261.089,672.907Z"/>
      </g>
      <g id="Group_5962" data-name="Group 5962" class="cls-8">
        <path id="Path_12998" data-name="Path 12998" class="cls-2" d="M1281.861,651.415a20.892,20.892,0,0,1,2.686.173v-9.953c-.888-.077-1.784-.118-2.686-.118a30.451,30.451,0,0,0-19.39,6.9l7.06,7.06A20.679,20.679,0,0,1,1281.861,651.415Z"/>
      </g>
      <g id="Group_5963" data-name="Group 5963" class="cls-9">
        <path id="Path_12999" data-name="Path 12999" class="cls-2" d="M1268.416,656.362l-7.021-7.022q-.629.564-1.23,1.164a30.471,30.471,0,0,0-8.979,20.989h9.9A20.749,20.749,0,0,1,1268.416,656.362Z"/>
      </g>
    </g>
    <g id="Group_5973" data-name="Group 5973">
      <g id="Group_5965" data-name="Group 5965" class="cls-10">
        <circle id="Ellipse_3531" data-name="Ellipse 3531" class="cls-2" cx="2.262" cy="2.262" r="2.262" transform="translate(1252.91 590.865)"/>
      </g>
      <g id="Group_5966" data-name="Group 5966" class="cls-8">
        <path id="Path_13000" data-name="Path 13000" class="cls-2" d="M1306.357,588.673a4.454,4.454,0,1,1-4.454,4.454A4.454,4.454,0,0,1,1306.357,588.673Z"/>
      </g>
      <g id="Group_5967" data-name="Group 5967" class="cls-9">
        <path id="Path_13001" data-name="Path 13001" class="cls-2" d="M1275.745,618.719a5.02,5.02,0,1,1,5.02,5.02A5.02,5.02,0,0,1,1275.745,618.719Z"/>
      </g>
      <g id="Group_5968" data-name="Group 5968" class="cls-6">
        <circle id="Ellipse_3532" data-name="Ellipse 3532" class="cls-2" cx="2.687" cy="2.687" r="2.687" transform="translate(1278.078 567.534)"/>
      </g>
      <g id="Group_5969" data-name="Group 5969" class="cls-4">
        <circle id="Ellipse_3533" data-name="Ellipse 3533" class="cls-2" cx="2.688" cy="2.688" r="2.688" transform="translate(1259.98 572.342)"/>
      </g>
      <g id="Group_5970" data-name="Group 5970" class="cls-11">
        <path id="Path_13002" data-name="Path 13002" class="cls-2" d="M1302.229,607.856a4.762,4.762,0,1,1-6.735,0A4.762,4.762,0,0,1,1302.229,607.856Z"/>
      </g>
      <g id="Group_5971" data-name="Group 5971">
        <circle id="Ellipse_3534" data-name="Ellipse 3534" class="cls-2" cx="5.019" cy="5.019" r="5.019" transform="translate(1257.649 606.204)"/>
      </g>
      <g id="Group_5972" data-name="Group 5972" class="cls-5">
        <circle id="Ellipse_3535" data-name="Ellipse 3535" class="cls-2" cx="3.549" cy="3.549" r="3.549" transform="translate(1295.312 571.481)"/>
      </g>
    </g>
    <g id="Group_6006" data-name="Group 6006">
      <g id="Group_5975" data-name="Group 5975">
        <g id="Group_5974" data-name="Group 5974">
          <path id="Path_13003" data-name="Path 13003" class="cls-2" d="M1261.458,516.5a.777.777,0,0,1,0,1.554"/>
        </g>
      </g>
      <g id="Group_5977" data-name="Group 5977">
        <g id="Group_5976" data-name="Group 5976">
          <path id="Path_13004" data-name="Path 13004" class="cls-2" d="M1266.863,499.529a.583.583,0,0,1-.995.412l-3.575-3.575a.583.583,0,0,1,.824-.824l3.575,3.575A.581.581,0,0,1,1266.863,499.529Z"/>
        </g>
      </g>
      <g id="Group_5979" data-name="Group 5979">
        <g id="Group_5978" data-name="Group 5978">
          <path id="Path_13005" data-name="Path 13005" class="cls-2" d="M1266.863,535.029a.581.581,0,0,1-.171.412l-3.575,3.575a.583.583,0,0,1-.824-.824l3.575-3.575a.583.583,0,0,1,.995.412Z"/>
        </g>
      </g>
      <g id="Group_5981" data-name="Group 5981">
        <g id="Group_5980" data-name="Group 5980">
          <path id="Path_13006" data-name="Path 13006" class="cls-2" d="M1301.824,495.954a.581.581,0,0,1-.171.412l-3.575,3.575a.583.583,0,1,1-.824-.824l3.575-3.575a.583.583,0,0,1,.995.412Z"/>
        </g>
      </g>
      <g id="Group_5983" data-name="Group 5983">
        <g id="Group_5982" data-name="Group 5982">
          <path id="Path_13007" data-name="Path 13007" class="cls-2" d="M1301.824,538.6a.583.583,0,0,1-.995.412l-3.575-3.575a.583.583,0,0,1,.824-.824l3.575,3.575A.581.581,0,0,1,1301.824,538.6Z"/>
        </g>
      </g>
      <g id="Group_5985" data-name="Group 5985">
        <g id="Group_5984" data-name="Group 5984">
          <path id="Path_13008" data-name="Path 13008" class="cls-2" d="M1272.993,495.229a.583.583,0,0,1-1.111.248l-2.143-4.579a.582.582,0,1,1,1.055-.494l2.144,4.579A.586.586,0,0,1,1272.993,495.229Z"/>
        </g>
      </g>
      <g id="Group_5987" data-name="Group 5987">
        <g id="Group_5986" data-name="Group 5986">
          <path id="Path_13009" data-name="Path 13009" class="cls-2" d="M1308.292,505.176a.582.582,0,0,1-.336.528l-4.579,2.144a.582.582,0,0,1-.493-1.055l4.578-2.144a.582.582,0,0,1,.775.28A.573.573,0,0,1,1308.292,505.176Z"/>
        </g>
      </g>
      <g id="Group_5989" data-name="Group 5989">
        <g id="Group_5988" data-name="Group 5988">
          <path id="Path_13010" data-name="Path 13010" class="cls-2" d="M1261.4,527.237a.582.582,0,0,1-.335.528l-4.579,2.144a.582.582,0,1,1-.494-1.055l4.579-2.144a.582.582,0,0,1,.774.281A.572.572,0,0,1,1261.4,527.237Z"/>
        </g>
      </g>
      <g id="Group_5991" data-name="Group 5991">
        <g id="Group_5990" data-name="Group 5990">
          <path id="Path_13011" data-name="Path 13011" class="cls-2" d="M1294.262,543.907a.582.582,0,0,1-1.11.247l-2.144-4.579a.583.583,0,1,1,1.056-.494l2.143,4.579A.573.573,0,0,1,1294.262,543.907Z"/>
        </g>
      </g>
      <g id="Group_5993" data-name="Group 5993">
        <g id="Group_5992" data-name="Group 5992">
          <path id="Path_13012" data-name="Path 13012" class="cls-2" d="M1273.576,539.607a.582.582,0,0,1-.048.233l-2.023,4.634a.583.583,0,0,1-1.068-.467l2.022-4.633a.583.583,0,0,1,1.117.233Z"/>
        </g>
      </g>
      <g id="Group_5995" data-name="Group 5995">
        <g id="Group_5994" data-name="Group 5994">
          <path id="Path_13013" data-name="Path 13013" class="cls-2" d="M1308.6,528.666a.583.583,0,0,1-.816.534l-4.634-2.023a.583.583,0,1,1,.466-1.068l4.634,2.023A.584.584,0,0,1,1308.6,528.666Z"/>
        </g>
      </g>
      <g id="Group_5997" data-name="Group 5997">
        <g id="Group_5996" data-name="Group 5996">
          <path id="Path_13014" data-name="Path 13014" class="cls-2" d="M1261.145,507.915a.584.584,0,0,1-.816.534l-4.634-2.023a.583.583,0,0,1,.466-1.068l4.634,2.023A.583.583,0,0,1,1261.145,507.915Z"/>
        </g>
      </g>
      <g id="Group_5999" data-name="Group 5999">
        <g id="Group_5998" data-name="Group 5998">
          <path id="Path_13015" data-name="Path 13015" class="cls-2" d="M1293.558,490.318a.584.584,0,0,1-.049.233l-2.022,4.633a.583.583,0,0,1-1.068-.466l2.022-4.634a.583.583,0,0,1,1.117.234Z"/>
        </g>
      </g>
      <g id="Group_6001" data-name="Group 6001">
        <g id="Group_6000" data-name="Group 6000">
          <path id="Path_13016" data-name="Path 13016" class="cls-2" d="M1282.75,485.192v10.243a.777.777,0,1,1-1.554,0V485.192a.777.777,0,0,1,1.554,0Z"/>
        </g>
      </g>
      <g id="Group_6003" data-name="Group 6003">
        <g id="Group_6002" data-name="Group 6002">
          <path id="Path_13017" data-name="Path 13017" class="cls-2" d="M1313.508,517.279a.777.777,0,0,1-.777.777h-10.243a.777.777,0,0,1,0-1.554h10.243A.777.777,0,0,1,1313.508,517.279Z"/>
        </g>
      </g>
      <g id="Group_6005" data-name="Group 6005">
        <g id="Group_6004" data-name="Group 6004">
          <path id="Path_13018" data-name="Path 13018" class="cls-2" d="M1282.75,539.123v10.243a.777.777,0,0,1-1.554,0V539.123a.777.777,0,0,1,1.554,0Z"/>
        </g>
      </g>
    </g>
  </g>
</svg>
