<svg xmlns="http://www.w3.org/2000/svg" xmlns:xlink="http://www.w3.org/1999/xlink" width="245.742" height="102.802" viewBox="0 0 245.742 102.802">
  <defs>
    <style>
      .cls-1 {
        opacity: 0.15;
      }

      .cls-2 {
        fill: #fff;
      }

      .cls-3 {
        filter: url(#Ellipse_3573);
      }

      .cls-4 {
        filter: url(#Ellipse_3572);
      }

      .cls-5 {
        filter: url(#Ellipse_3571);
      }

      .cls-6 {
        filter: url(#Ellipse_3570);
      }

      .cls-7 {
        filter: url(#Ellipse_3569);
      }

      .cls-8 {
        filter: url(#Ellipse_3568);
      }
    </style>
    <filter id="Ellipse_3568" x="151.029" y="48.466" width="12.217" height="12.216" filterUnits="userSpaceOnUse">
      <feOffset input="SourceAlpha"/>
      <feGaussianBlur stdDeviation="1.19" result="blur"/>
      <feFlood flood-color="#fff" flood-opacity="0.8"/>
      <feComposite operator="in" in2="blur"/>
      <feComposite in="SourceGraphic"/>
    </filter>
    <filter id="Ellipse_3569" x="71.072" y="9.122" width="12.217" height="12.216" filterUnits="userSpaceOnUse">
      <feOffset input="SourceAlpha"/>
      <feGaussianBlur stdDeviation="1.19" result="blur-2"/>
      <feFlood flood-color="#fff" flood-opacity="0.8"/>
      <feComposite operator="in" in2="blur-2"/>
      <feComposite in="SourceGraphic"/>
    </filter>
    <filter id="Ellipse_3570" x="206.873" y="30.698" width="12.217" height="12.216" filterUnits="userSpaceOnUse">
      <feOffset input="SourceAlpha"/>
      <feGaussianBlur stdDeviation="1.19" result="blur-3"/>
      <feFlood flood-color="#fff" flood-opacity="0.8"/>
      <feComposite operator="in" in2="blur-3"/>
      <feComposite in="SourceGraphic"/>
    </filter>
    <filter id="Ellipse_3571" x="233.525" y="87.81" width="12.217" height="12.216" filterUnits="userSpaceOnUse">
      <feOffset input="SourceAlpha"/>
      <feGaussianBlur stdDeviation="1.19" result="blur-4"/>
      <feFlood flood-color="#fff" flood-opacity="0.8"/>
      <feComposite operator="in" in2="blur-4"/>
      <feComposite in="SourceGraphic"/>
    </filter>
    <filter id="Ellipse_3572" x="145.953" y="4.045" width="12.217" height="12.216" filterUnits="userSpaceOnUse">
      <feOffset input="SourceAlpha"/>
      <feGaussianBlur stdDeviation="1.19" result="blur-5"/>
      <feFlood flood-color="#fff" flood-opacity="0.8"/>
      <feComposite operator="in" in2="blur-5"/>
      <feComposite in="SourceGraphic"/>
    </filter>
    <filter id="Ellipse_3573" x="0" y="23.083" width="12.217" height="12.216" filterUnits="userSpaceOnUse">
      <feOffset input="SourceAlpha"/>
      <feGaussianBlur stdDeviation="1.19" result="blur-6"/>
      <feFlood flood-color="#fff" flood-opacity="0.8"/>
      <feComposite operator="in" in2="blur-6"/>
      <feComposite in="SourceGraphic"/>
    </filter>
  </defs>
  <g id="Group_6009" data-name="Group 6009" class="cls-1" transform="translate(-1070.197 -259.771)">
    <circle id="Ellipse_3567" data-name="Ellipse 3567" class="cls-2" cx="2.538" cy="2.538" r="2.538" transform="translate(1163.878 304.191)"/>
    <g class="cls-8" transform="matrix(1, 0, 0, 1, 1070.2, 259.77)">
      <circle id="Ellipse_3568-2" data-name="Ellipse 3568" class="cls-2" cx="2.538" cy="2.538" r="2.538" transform="translate(154.6 52.04)"/>
    </g>
    <g class="cls-7" transform="matrix(1, 0, 0, 1, 1070.2, 259.77)">
      <circle id="Ellipse_3569-2" data-name="Ellipse 3569" class="cls-2" cx="2.538" cy="2.538" r="2.538" transform="translate(74.64 12.69)"/>
    </g>
    <g class="cls-6" transform="matrix(1, 0, 0, 1, 1070.2, 259.77)">
      <circle id="Ellipse_3570-2" data-name="Ellipse 3570" class="cls-2" cx="2.538" cy="2.538" r="2.538" transform="translate(210.44 34.27)"/>
    </g>
    <g class="cls-5" transform="matrix(1, 0, 0, 1, 1070.2, 259.77)">
      <circle id="Ellipse_3571-2" data-name="Ellipse 3571" class="cls-2" cx="2.538" cy="2.538" r="2.538" transform="translate(237.1 91.38)"/>
    </g>
    <g class="cls-4" transform="matrix(1, 0, 0, 1, 1070.2, 259.77)">
      <circle id="Ellipse_3572-2" data-name="Ellipse 3572" class="cls-2" cx="2.538" cy="2.538" r="2.538" transform="translate(149.52 7.61)"/>
    </g>
    <g class="cls-3" transform="matrix(1, 0, 0, 1, 1070.2, 259.77)">
      <circle id="Ellipse_3573-2" data-name="Ellipse 3573" class="cls-2" cx="2.538" cy="2.538" r="2.538" transform="translate(3.57 26.65)"/>
    </g>
    <circle id="Ellipse_3574" data-name="Ellipse 3574" class="cls-2" cx="1.269" cy="1.269" r="1.269" transform="translate(1264.141 328.305)"/>
    <circle id="Ellipse_3575" data-name="Ellipse 3575" class="cls-2" cx="1.269" cy="1.269" r="1.269" transform="translate(1304.754 264.847)"/>
    <circle id="Ellipse_3576" data-name="Ellipse 3576" class="cls-2" cx="1.269" cy="1.269" r="1.269" transform="translate(1128.341 288.961)"/>
    <circle id="Ellipse_3577" data-name="Ellipse 3577" class="cls-2" cx="1.269" cy="1.269" r="1.269" transform="translate(1214.644 295.307)"/>
    <circle id="Ellipse_3578" data-name="Ellipse 3578" class="cls-2" cx="1.269" cy="1.269" r="1.269" transform="translate(1171.493 283.885)"/>
    <circle id="Ellipse_3579" data-name="Ellipse 3579" class="cls-2" cx="1.269" cy="1.269" r="1.269" transform="translate(1185.453 302.922)"/>
    <circle id="Ellipse_3580" data-name="Ellipse 3580" class="cls-2" cx="1.269" cy="1.269" r="1.269" transform="translate(1085.19 259.771)"/>
    <circle id="Ellipse_3581" data-name="Ellipse 3581" class="cls-2" cx="1.269" cy="1.269" r="1.269" transform="translate(1281.909 360.034)"/>
    <circle id="Ellipse_3582" data-name="Ellipse 3582" class="cls-2" cx="1.269" cy="1.269" r="1.269" transform="translate(1104.227 286.423)"/>
    <circle id="Ellipse_3583" data-name="Ellipse 3583" class="cls-2" cx="1.269" cy="1.269" r="1.269" transform="translate(1286.986 335.92)"/>
    <circle id="Ellipse_3584" data-name="Ellipse 3584" class="cls-2" cx="1.269" cy="1.269" r="1.269" transform="translate(1264.141 263.578)"/>
    <circle id="Ellipse_3585" data-name="Ellipse 3585" class="cls-2" cx="1.904" cy="1.904" r="1.904" transform="translate(1198.145 287.692)"/>
    <circle id="Ellipse_3586" data-name="Ellipse 3586" class="cls-2" cx="1.904" cy="1.904" r="1.904" transform="translate(1187.992 262.309)"/>
    <circle id="Ellipse_3587" data-name="Ellipse 3587" class="cls-2" cx="1.904" cy="1.904" r="1.904" transform="translate(1233.681 290.23)"/>
    <circle id="Ellipse_3588" data-name="Ellipse 3588" class="cls-2" cx="1.269" cy="1.269" r="1.269" transform="translate(1255.257 281.346)"/>
    <circle id="Ellipse_3589" data-name="Ellipse 3589" class="cls-2" cx="1.269" cy="1.269" r="1.269" transform="translate(1257.795 311.806)"/>
    <circle id="Ellipse_3590" data-name="Ellipse 3590" class="cls-2" cx="1.269" cy="1.269" r="1.269" transform="translate(1297.139 319.421)"/>
    <circle id="Ellipse_3591" data-name="Ellipse 3591" class="cls-2" cx="1.269" cy="1.269" r="1.269" transform="translate(1265.41 358.765)"/>
    <circle id="Ellipse_3592" data-name="Ellipse 3592" class="cls-2" cx="1.904" cy="1.904" r="1.904" transform="translate(1193.068 318.152)"/>
  </g>
</svg>
