<svg xmlns="http://www.w3.org/2000/svg" xmlns:xlink="http://www.w3.org/1999/xlink" width="88" height="88" viewBox="0 0 88 88">
  <defs>
    <clipPath id="clip-lv2_client1_n">
      <rect width="88" height="88"/>
    </clipPath>
  </defs>
  <g id="lv2_client1_n" clip-path="url(#clip-lv2_client1_n)">
    <path id="Path_515" data-name="Path 515" d="M547.648,496.476l-35.14-22.184-35.98,22.563v32.318L512,551.484,547.648,529Zm-66.073,29.481v-6.564l20.039,12.546,25.595-15.985,5.421,3.393-30.74,19.184C496.857,535.386,487.081,529.237,481.575,525.957Zm25.518-3.829-5.463,3.388L481.575,513v-6.774Zm-4.235-9.1,9.874-6.209,9.44,5.932-9.879,6.182Zm14.739-9.4,5.118-3.285L542.6,512.856v6.631Zm5.489-9.809-25.422,16.025-5.26-3.325,30.822-19.27c.118.075.035.149.153.223,5.4,3.412,14.633,9.1,19.222,12.221v6.73Zm-10.317-13.171c1.62,1.024,3.473,2.191,5.4,3.4l-30.809,19.279-5.416-3.39Zm-5.745,61.116,30.505-19.222,5.072,3.228v.088l-30.49,19.232Z" transform="translate(-468.528 -469.292)" fill="#ed4f4f"/>
  </g>
</svg>
