<svg xmlns="http://www.w3.org/2000/svg" xmlns:xlink="http://www.w3.org/1999/xlink" width="88" height="88" viewBox="0 0 88 88">
  <defs>
    <clipPath id="clip-lv2_client3_h">
      <rect width="88" height="88"/>
    </clipPath>
  </defs>
  <g id="lv2_client3_h" clip-path="url(#clip-lv2_client3_h)">
    <path id="Path_13144" data-name="Path 13144" d="M463.055,124l-11.03,6.428v25.713l29.334-16.912,3.892,2.246v-4.648L463.055,124Zm29.4,25.539L481.371,143.2l-22.266,12.857L488.419,173V177.5l4.026-2.325.011-25.636ZM418.82,174.918l11.084,6.339L452.172,168.4l-29.317-16.949v-4.495l-4.025,2.325-.01,25.636Zm66.22,12.848L484.986,175l-22.267-12.857L462.7,196l-3.892,2.247,4.027,2.324,22.207-12.808Zm-58.8-51.079.052,12.768,22.267,12.857.022-33.862,3.891-2.247-4.026-2.324-22.207,12.808Zm21.983,63.772,11.031-6.43V168.317l-29.336,16.912-3.89-2.247v4.65l22.2,12.827Z" transform="translate(-410.82 -117.879)" fill="#fff" fill-rule="evenodd"/>
  </g>
</svg>
