<svg xmlns="http://www.w3.org/2000/svg" xmlns:xlink="http://www.w3.org/1999/xlink" width="100" height="100" viewBox="0 0 100 100"><defs><clipPath id="a"><path d="M277.679,882.089a49.954,49.954,0,1,1,49.954,49.954,49.954,49.954,0,0,1-49.954-49.954Z" fill="none"/></clipPath><clipPath id="b"><path d="M287.114,915.1c1.278-1.182,27.875-13.554,27.875-13.554l6.2,11.9,23.723-13.437s25.8,15.568,27.363,17.134c1,1-6.744,22.1-12.5,37.286-3.28,8.657-2.972,6.428-5.914,15.4s2.711,31.214,2.711,31.214l-44.139,6.634-12.531-2.3-2.046-16.367-7.16-55.75S285.834,916.289,287.114,915.1Z" fill="none"/></clipPath><clipPath id="d"><rect width="100" height="100"/></clipPath></defs><g id="c" clip-path="url(#d)"><g transform="translate(-277.634 -832.089)"><circle cx="50" cy="50" r="50" transform="translate(277.633 832.089)" fill="#f87c01"/><g clip-path="url(#a)"><path d="M333.093,1166.345l-3.324-66.417-4.408-38.262c4.447,12.648,6.733,26.649,8.089,39.608.9,8.621,2.239,17.325,2.6,25.985.368,8.7-.284,17.36.747,26.04,1.013,8.53,2.465,16.444.932,25.023a113.8,113.8,0,0,1-3.649,14.025l-6.337-.437s4.044-14.909,4.8-18.194A37.156,37.156,0,0,0,333.093,1166.345Z" opacity="0.1" style="isolation:isolate"/><path d="M294.9,1188.175l-3.657-.249a114.539,114.539,0,0,1-.6-16.881c.589-14.7.4-29.448,1.331-44.133,1-15.739,4.026-31.174,10.4-45.662,2.691-6.113,5.893-12.559,10.236-17.688,1.7-2.01,3.582-3.822,5.438-5.652-6.923,16.508-18.01,43.289-17.766,44.934,2.161,14.573,1.047,22.187,1.047,22.187S292.365,1182,294.9,1188.175Z" opacity="0.1" style="isolation:isolate"/><g opacity="0.1"><path d="M323.452,1045.089l-11.372-7.7,1.011,2.527,6.57,4.675-9.855-.379.379.884,9.1,2.022-5.307.884,3.664,1.39,2.148-.379-9.981,16.9,3.655-3.123Z"/></g><path d="M366.7,1025.039l-.4,2c-3.477-.253-6.994-1.008-10.461-1.534l.169-1.427C359.585,1024.289,363.156,1024.544,366.7,1025.039Z" fill="#9d9e9f"/><path d="M357.551,1015.931l10.444,1.877s.123-1.715-1.826,8.759l-9.378-2.878Z" fill="#c7c4e3"/><path d="M357.551,1016.88l10.444,1.71s.123-1.562-1.826,7.977l-9.378-2.621Z" fill="#d6d7e9"/><path d="M290.312,1043.9l4.869,10.871a7.5,7.5,0,0,1,.505,1.573c.516,2.528,1.852,9.869.135,10.682-2.078.984-4.646-8.181-4.646-8.181s8.438,6.125,2.625,12.484c-2.16,2.362-9.169-9.486-9.169-9.486l-.431-16.168Z" fill="#8a2047"/><path d="M282.323,1036.04l-1.48,12.349,11.852-.975-.52-10.784Z" fill="#8a2047"/><path d="M294.752,1043.674l-14.869,1.625,6.793-61.444s-10.262-57.576-1.778-66.674c3.045-4.8,10.562-1.265,10.562-1.265l6.063,75.059Z" fill="#192f60"/><path d="M298.623,962.416l1.022,5.115-1.79,2.046v7.16l-3.513-.922s-4.032-15.267-4.032-26.121.576-20.14.576-20.14l9.593,23.391.7,4.868Z" fill="#192f60"/><path d="M344.142,893.879l-9.91-1.023-11.892,1.918-5.845,4.142.8,6.727,7.672-4.731,9.717-1.6,12.189,2.048Z" fill="#afbec5"/><path d="M340.562,884.162s0,17.9,3.58,25.317-23.527,15.6-23.527,15.6-11.508-7.416-6.649-14.321,5.882-20.715,5.882-20.715Z" fill="#fbb57a"/><path d="M327.425,906.368c-2.6,2.328-6.361,5.457-9.948,5.988-1.523.226-2.441-.837-3.027-2.331,4.442-7.1,5.4-19.982,5.4-19.982l20.714-5.881s0,1.267.068,3.258C337.076,894.3,333.247,901.163,327.425,906.368Z" fill="#e88252"/><path d="M287.114,915.1c1.278-1.182,27.875-13.554,27.875-13.554l4.6,16.623,25.318-18.157s25.8,15.568,27.363,17.134c1,1-6.745,22.1-12.5,37.286-3.28,8.657-2.973,6.428-5.914,15.4s2.711,31.214,2.711,31.214l-44.139,6.634-12.532-2.3-2.045-16.367-7.16-55.75S285.834,916.289,287.114,915.1Z" fill="#f4f4f4"/><path d="M325.218,905.643l-.609,9.079c9.268-.693,22.154-13.584,22.154-13.584l-2.621-7.259Z" fill="#afbec5"/><path d="M319.56,919.868a1.247,1.247,0,1,1-1.247,1.247A1.246,1.246,0,0,1,319.56,919.868Z" fill="#f1f2f2"/><path d="M319.433,944.973a1.247,1.247,0,1,1-1.247,1.247,1.247,1.247,0,0,1,1.247-1.247Z" fill="#f1f2f2"/><path d="M319.3,970.078a1.246,1.246,0,1,1-1.247,1.246,1.245,1.245,0,0,1,1.247-1.246Z" fill="#f1f2f2"/><path d="M319.433,995.182a1.247,1.247,0,1,1-1.247,1.247,1.247,1.247,0,0,1,1.247-1.247Z" fill="#f1f2f2"/><path d="M281.748,1106.434c3.766-25.574,15.852-81.363,15.852-81.363v-1.534l1.054-20.235c24.957,3.383,58.738-3.4,58.738-3.4l-.644,35.415-9.792,67.738s-1.066,6.566,1.809,19.709-4.366,61.167-4.366,61.167l-1.535,13.758-14.831-1.02s4.093-15.088,4.859-18.413a37.589,37.589,0,0,0,.551-7.459l-3.364-67.215-6.4-55.493s-23.808,56.03-23.45,58.446c2.187,14.748,1.059,22.453,1.059,22.453s-9.069,57.652-6.507,63.9l-11.253-.767S280.869,1112.4,281.748,1106.434Z" fill="#282728"/><path d="M315.433,1010.3c9.883,0,41.934-4.088,41.934-4.088l.412-5.168c-16.593,2.122-34.815,3.885-42.346,3.885-9.373,0-16.834-.579-16.9-.584l-.434,5.356C298.394,1009.728,305.848,1010.3,315.433,1010.3Z" fill="#754c29"/><rect width="2.302" height="8.378" transform="translate(335.214 1003.514) rotate(-1.05)" fill="#cabdac"/><path d="M305.834,1012.275l2.293-.2-.684-7.723-2.321-.121Z" fill="#cabdac"/><path d="M348.373,1008.789l2.546-.038-.261-7.286-2.346.6Z" fill="#cabdac"/><path d="M314.447,1010.689a3.354,3.354,0,0,1-1.1-2.333l-.027-.566a3.38,3.38,0,0,1,3.207-3.527l3.923-.187a3.384,3.384,0,0,1,3.528,3.207l.028.567a3.382,3.382,0,0,1-3.209,3.528l-3.921.186h-.163A3.35,3.35,0,0,1,314.447,1010.689Zm6.076-5.08-3.923.186h0a1.844,1.844,0,0,0-1.747,1.921l.027.568a1.845,1.845,0,0,0,1.922,1.747l3.922-.186a1.845,1.845,0,0,0,1.748-1.922l-.027-.566a1.838,1.838,0,0,0-1.833-1.75c-.029,0-.059,0-.088,0Z" fill="#e6e7e8"/><path d="M371.381,916.045s4.987,3.1,6.393,5.626.512,43.475.512,43.475-1.791,2.429-1.535,4.091,1.79,2.046,2.045,3.837-1.614,2.573-1.79,3.58.7,2.365.767,3.58-6.809,29.218-6.809,29.218l-12,1.265-.539-25.086s.2-2.632.171-3.862-2.973-3.069-3.325-4.092,1.791-3.325,1.791-3.325l-.257-4.6-3.836-18.669,8.951-27.108Z" fill="#d1d3d4"/><path d="M357.019,974.772l-.115-.246.155-.174-.229-4.119a23.811,23.811,0,0,1,8.961-1.525A42.965,42.965,0,0,0,357.019,974.772Z" fill="#9d9e9f"/><path d="M347.633,991.846c1.085-6.154,1.565-12.439,2.908-18.535,2.761-12.528,5.412-22.663,14.138-32.382q1.274-1.421,2.575-2.808l-6.8,36.359s11.178,54.15,7.949,57.962c-.687.811-3.012,1.494-6.232,2.07-3.954-7.364-7.01-15.166-10.27-23.012C349.115,1004.789,346.316,999.31,347.633,991.846Z" fill="#282728"/><path d="M354.955,1040.889l-9.036,7.516-2.529,6.994-1.684,5.312-1.146,5.339s1.424.757,2.154.114,1.447-4.892,1.447-4.892l1.911-5.515,1.738-3.256-.99,3.4-1.571,5.21.618,4.676s1.381.863,1.938.1.687-4.823.687-4.823l1.321-4.575,2.036-3.78-.449,4.4-.89,4.6.424,4.235s1.61.709,1.763-.663.409-3.651.409-3.651l.964-3.945,1.072-1.888-.165,3.124-.2,3.769a1.424,1.424,0,0,0,1.621-.022c.772-.6,1.514-4.132,1.514-4.132l.239-4.524,4.966-6.11,1.469-5.323,5.518-29.737-9.514-1.809Z" fill="#8a2047"/><path d="M355.212,1039.538l5.378-28.5,9.515,1.809-5.421,29.217C361.507,1041.31,358.4,1040.267,355.212,1039.538Z" fill="#8a2047"/><path d="M360.895,990.975,374.7,992s-7.713,37.66-9.686,48.26l-9.684-2.469Z" fill="#8a2047"/><path d="M371.381,916.045l7.492,5.124L381.2,980.1l-12.988,59.708-14.539-3.49,3.3-59.707s-6.4-14.668-4.652-24.426,6.4-24.878,9.111-29.466S371.381,916.045,371.381,916.045Z" fill="#192f60"/><path d="M310.446,853.543c-.607.965-1.534,12.337-1.434,13.242s1.321,2.566,1.318,4.2-1.069,4.078-.74,6.716c.813,5.485,6.887,15.778,7.717,17.615.557,1.236,4.806,1.769,7.031,1.4,3.722-.617,14.38-8.489,15.579-10.773s1.456-7.747,1.456-7.747,2.148-11.237,2.169-13.421-.262-15.161-1.013-16.4-6.756-6.931-19.585-5.646S311.051,852.577,310.446,853.543Z" fill="#fbb57a"/><path d="M319.433,870.462a17.486,17.486,0,0,1-.9,3.293q-.311.8-.7,1.571c-.258.512-.546,1.01-.854,1.5-.075.123-.153.244-.233.364s-.157.242-.242.358l-.245.354a1.56,1.56,0,0,0-.178.3.431.431,0,0,0-.035.227.936.936,0,0,0,.083.279,3.472,3.472,0,0,0,.173.331c.067.117.137.238.207.35a2.259,2.259,0,0,0,1.015,1.032,3.058,3.058,0,0,0,.776.122,1.552,1.552,0,0,1,.848.279l-.035.065c-.539-.17-1.032.144-1.716.039a1.9,1.9,0,0,1-.887-.436,4.094,4.094,0,0,1-.618-.69,4.865,4.865,0,0,1-.47-.785,1.591,1.591,0,0,1-.135-.537,1.167,1.167,0,0,1,.133-.6,2.289,2.289,0,0,1,.29-.406l.269-.322c.089-.106.173-.217.258-.327s.17-.22.251-.333c.325-.451.633-.917.913-1.4s.547-.975.787-1.481a18.88,18.88,0,0,0,1.17-3.163Z" fill="#e88252"/><path d="M323.386,865.83a.828.828,0,0,0,.271-.043,13.064,13.064,0,0,1,9.067.043.814.814,0,0,0,1.058-.326.719.719,0,0,0-.3-.973.352.352,0,0,0-.044-.021,10.807,10.807,0,0,0-9.8-1.072C323.234,863.575,323.066,865.828,323.386,865.83Z" fill="#4d4c4d"/><path d="M309.462,866.831a.573.573,0,0,0,.22-.034,7.959,7.959,0,0,1,6.783.331.6.6,0,0,0,.825-.2.756.756,0,0,0,.043-.085c.175-.357-.537-1.818-.839-2.018-.131-.087-2.662-1.09-7.174.56a.782.782,0,0,0-.428.929A.649.649,0,0,0,309.462,866.831Z" fill="#4d4c4d"/><path d="M319.339,887.813a8.919,8.919,0,0,0,4.753-1.285.382.382,0,0,0,.113-.376c-.03-.152-.129-.231-.223-.178a8.323,8.323,0,0,1-7.978.437c-.1-.044-.193.047-.222.2a.343.343,0,0,0,.116.363A8.5,8.5,0,0,0,319.339,887.813Z" fill="#e88252"/><path d="M339.248,871.489c-.895,3.545,1.115,7.984,2.923,7.736,1.056-.143,1.3-1.269,2.276-2.383a7.723,7.723,0,0,0,1.887-3.553c.9-3.544.035-6.818-1.922-7.313S340.144,867.95,339.248,871.489Z" fill="#fbb57a"/><g clip-path="url(#b)"><path d="M312.433,902.745s.18,13.1,8.376,12.978,27.39-13.715,27.39-13.715l13.992,1.259,12.043,10.187-2.261,11.625-8.3,25.231s-8.891,7.038-9.632,7.409-56.794,13.037-57.786,13.6-14.631-4.345-15-5.271-8.334-22.966-8.334-23.707,2.223-42.329,2.223-42.329Z" fill="#192f60"/><path d="M310.533,903.763s.15,13.862,9.863,14c8.823.123,30.151-14.864,30.151-14.864l9.744,1.388,12.039,10.187L370.07,926.1l-8.3,25.231s-8.89,7.038-9.631,7.409-56.794,13.037-57.786,13.606-14.631-4.346-15-5.272-8.335-22.966-8.335-23.707,2.223-42.329,2.223-42.329Z" fill="#023572"/></g><path d="M344.142,893.879l-18.924,11.764s1.771,7.373,7.672,9.462l13.873-13.967Z" fill="#d6dddf"/><path d="M317.126,904.042s-2.3,8.554-9.3,10.3l4.6-12.275,4.065-3.146Z" fill="#afbec5"/><path d="M312.433,902.063l5.5,10.1s-.755-4.684-1-7.544,1.755-7.4,1.755-7.4Z" fill="#d6dddf"/><path d="M308.364,870.116v0Z" fill="none"/><path d="M335.188,870.155v-.1C335.187,870.082,335.188,870.167,335.188,870.155Z" fill="none"/><path d="M335.167,869.136l5.117-1.075.085-1.038-5.459,1.228a1.97,1.97,0,0,0-1.4-.939,19.419,19.419,0,0,0-5.4.022,27.816,27.816,0,0,0-5.259,1.054,28.514,28.514,0,0,1-3.426.566,20.058,20.058,0,0,1-2.4-.367,15.434,15.434,0,0,0-3.69-.969,10.413,10.413,0,0,0-3.791-.021c-1.3.391-1.171,1.768-1.175,2.591v-.076a5.211,5.211,0,0,0,.691,2.984,3.888,3.888,0,0,0,2.688,1.083,9.525,9.525,0,0,0,3.741-.156,4.822,4.822,0,0,0,2.345-2.291s.614-1.118,1.594-1.11a2.756,2.756,0,0,1,2.272,1.187,6.357,6.357,0,0,0,3.341,2.492,17.732,17.732,0,0,0,5.333.169c1.438-.12,3.137-.414,3.83-1.178a4.613,4.613,0,0,0,.987-3.245c.005.808,0,.306,0,.084v0A9.521,9.521,0,0,0,335.167,869.136Zm-18.527,2.9a2.623,2.623,0,0,1-2.059,1.5,10.908,10.908,0,0,1-3.764-.206,2.069,2.069,0,0,1-1.746-1.832,6.773,6.773,0,0,1-.076-2.413c.115-.877,1.076-.847,2.124-.807-.391-.015,1.117,0,0,0a17.446,17.446,0,0,1,3.542.421,4.193,4.193,0,0,1,2.367.971c.586.742.021,1.657-.388,2.365Zm17.539-.479c-.276.932-.717,1.67-2.489,1.993a20.255,20.255,0,0,1-5.364.224,3.785,3.785,0,0,1-2.935-1.635c-.581-.769-1.387-1.764-.552-2.57.667-.643,2.161-.864,3.374-1.056a32.126,32.126,0,0,1,5.048-.457c-1.593,0,.557-.017,0,0,1.494-.044,2.863-.077,3.027.877a5.635,5.635,0,0,1-.109,2.623Z" fill="#5c3b13"/><path d="M311.119,868.28" fill="#0b0000"/><path d="M311.119,868.28" fill="#fff" opacity="0.25" style="isolation:isolate"/><path d="M331.261,868.055" fill="#0b0000"/><path d="M331.261,868.055" fill="#fff" opacity="0.25" style="isolation:isolate"/><path d="M329.649,883.3a2.742,2.742,0,0,0,1.069-1.433,9.543,9.543,0,0,1-2.41,1.169c-.759.1-2.063-.742-5.129-1.39a6.048,6.048,0,0,0-5.108,1.445,2.6,2.6,0,0,0-2.892-1.076c-1.733.648-2.464,1.125-2.893,1.025s-1.362-1.169-1.362-1.169a4.779,4.779,0,0,0,.746,1.608c-.046.193-.681.093-.681.093s.269.261.6.526c.4.346,5,2.763,6.474,1.136,2.6,1.631,10.763-.79,11.464-1.136a3.171,3.171,0,0,0,1.076-.987A1.6,1.6,0,0,1,329.649,883.3Z" fill="#454545"/><path d="M338.843,864.189c-.5-1.052-3.068-1.777-3.091-1.9-.017-.1,1.084-3.644.368-5.073A4.064,4.064,0,0,0,333.2,855.3c-1.209-.234-8.367.467-9.164.4-1.8-.142-3.441-.982-5.182-1.435s-7.532-.4-8.641.876c0,0-1.76-1.546-2.014-2.708a7.869,7.869,0,0,1,.153-3.51c.1-.412.849-4.26,1.266-4.507-.058,1.771.684,2.72,1.412,2.188h0c-.548-.5-.022-2.171-.022-2.171s.452,1.956,1.564,1.256a6.326,6.326,0,0,0,1.717-1.3,12.521,12.521,0,0,1,4.471-2.929A17.738,17.738,0,0,1,329,840.218c5.339,1.076,14.955,7.826,14.806,8.118-.6,1.162-.139,2.534.158,3.8a23.276,23.276,0,0,1,.468,3.173,30.451,30.451,0,0,1-.4,9.472c-.7,3.1-3.484,8.272-3.484,8.272S339.09,864.713,338.843,864.189Z" fill="#3c3d3d"/><path d="M317.955,843.831c2.257-1.049,6.318-2.287,11.9.056a26.6,26.6,0,0,0-9.328.981s4.333-.277,5.747.348c-4.289.941-3.562.829-6.54,2.357a7.564,7.564,0,0,1-2.894.75l-3.553-.186A12.323,12.323,0,0,1,317.955,843.831Z" fill="#4e4d4e"/><circle cx="1.07" cy="1.07" r="1.07" transform="translate(313.37 869.763)" fill="#643a19"/><path d="M314.657,868.7a17.463,17.463,0,0,0-3.542-.421c-1.048-.04-2.009-.07-2.124.807a6.728,6.728,0,0,0,.076,2.413,2.067,2.067,0,0,0,1.747,1.832,10.9,10.9,0,0,0,3.764.206,2.626,2.626,0,0,0,2.059-1.5c.407-.708.973-1.623.387-2.363A4.2,4.2,0,0,0,314.657,868.7Z" fill="#fff" opacity="0.25" style="isolation:isolate"/><circle cx="1.193" cy="1.193" r="1.193" transform="translate(325.907 869.396)" fill="#643a19"/><path d="M331.256,868.055a32.119,32.119,0,0,0-5.048.457c-1.212.192-2.707.413-3.374,1.056-.834.806-.028,1.8.553,2.57a3.778,3.778,0,0,0,2.934,1.635,20.261,20.261,0,0,0,5.365-.224c1.77-.323,2.212-1.061,2.488-1.993a5.626,5.626,0,0,0,.109-2.624C334.12,867.978,332.751,868.011,331.256,868.055Z" fill="#fff" opacity="0.25" style="isolation:isolate"/></g></g></g></svg>