<svg xmlns="http://www.w3.org/2000/svg" width="29.67" height="19.613" viewBox="0 0 29.67 19.613">
  <g id="mydashboard_construction" transform="translate(-35.163 -519.323)">
    <path id="Path_44" data-name="Path 44" d="M56.756,526.054c-1.362.607-8.215,3.7-9.4,4.882a3.737,3.737,0,1,0,5.285,5.285c1.2-1.2,4.783-8.24,5.188-9.04a.826.826,0,0,0-1.073-1.127Zm-5.283,9a2.086,2.086,0,1,1-2.95-2.95,45.663,45.663,0,0,1,6.74-3.553A50.967,50.967,0,0,1,51.473,535.053Z" fill="#fff"/>
    <path id="Path_45" data-name="Path 45" d="M50,534.783a1.075,1.075,0,1,0-1.075-1.074A1.074,1.074,0,0,0,50,534.783Z" fill="#fff"/>
    <path id="Path_46" data-name="Path 46" d="M50.824,525.853v-2.37a.826.826,0,0,0-1.652,0v2.37a.826.826,0,0,0,1.652,0Z" fill="#fff"/>
    <path id="Path_47" data-name="Path 47" d="M43.179,525.941a.826.826,0,0,0-1.168,1.167l1.676,1.676a.826.826,0,0,0,1.168-1.167Z" fill="#fff"/>
    <path id="Path_48" data-name="Path 48" d="M40.9,532.883h-2.37a.826.826,0,1,0,0,1.652H40.9a.826.826,0,1,0,0-1.652Z" fill="#fff"/>
    <path id="Path_49" data-name="Path 49" d="M61.462,532.883h-2.37a.826.826,0,1,0,0,1.651h2.37a.826.826,0,1,0,0-1.651Z" fill="#fff"/>
    <path id="Path_50" data-name="Path 50" d="M50,519.323a14.825,14.825,0,0,0-14.229,19.02.826.826,0,1,0,1.584-.466,13.184,13.184,0,1,1,25.29,0,.826.826,0,1,0,1.584.466A14.825,14.825,0,0,0,50,519.323Z" fill="#fff"/>
  </g>
</svg>
