<svg xmlns="http://www.w3.org/2000/svg" xmlns:xlink="http://www.w3.org/1999/xlink" width="100" height="100" viewBox="0 0 100 100"><defs><clipPath id="a"><path d="M780.766,139.637a50.1,50.1,0,1,1,50.1,50.1h0A50.1,50.1,0,0,1,780.766,139.637Z" fill="none"/></clipPath><clipPath id="c"><rect width="100" height="100"/></clipPath></defs><g id="b" clip-path="url(#c)"><g transform="translate(-780.766 -89.537)"><circle cx="50" cy="50" r="50" transform="translate(780.866 89.637)" fill="#f7b600"/><g clip-path="url(#a)"><g opacity="0.5"><path d="M778.557,488.578c0,5.09,31.056,9.217,69.367,9.217s69.367-4.127,69.367-9.217-31.057-9.216-69.367-9.216S778.557,483.488,778.557,488.578Z" fill="#231f20"/></g><path d="M789.924,179.486l-10.9,53.563,3.841,27.2,18.155-33.516,3.575-24.088Z" fill="#c3c0e0"/><path d="M877.676,181.588s22.231,55.66,25.637,73.246c0,0-4.491,11.865-11,8.9s-30.637-53.564-30.637-53.564Z" fill="#c3c0e0"/><path d="M798.436,271.2s-3.031,55.866,8.378,114.772c.712,3.676,4.794,77.845,2.376,91.473h21.348s9.251-57.144,1.067-93.188l-3.144-41.437-3.581-27.133s12.774,64.614,17.755,75.6,10.158,86.965,10.158,86.965l20.441.069s5.337-49.671-7.116-98.463c0,0-6.691-90.278-10.249-107.421Z" fill="#292728"/><path d="M810.465,317.228a103.487,103.487,0,0,0,15,2.927l-.59-4.473s.332,1.677.9,4.512c3.969.492,7.965.826,11.976,1.072,7.87.484,15.749.593,23.629.566-1.9-21.321-4-42.06-5.52-49.4l-57.433-1.24s-.938,17.352.2,42.9C802.608,314.942,806.52,316.122,810.465,317.228Z" fill="#151414"/><path d="M830.6,477.251a85.18,85.18,0,0,1-10.615-.649,74,74,0,0,1-10.49-2.726c-5.745,7.074-23.549,9.672-24.29,11.52,6.913,10.2,44.892.153,44.892.153S830.278,482.49,830.6,477.251Z" fill="#3c2419"/><path d="M848.646,157.678l-10.182-1.052-12.218,1.97-5.977,3.548.788,7.619,7.882-4.861,9.985-1.642,12.524,2.1Z" fill="#9490a7"/><path d="M842.6,145.316s-.512,17.123,7.1,23.868c6.464,5.725-24.666,16.356-24.666,16.356s-12.066-7.776-6.972-15.016,6.167-21.717,6.167-21.717Z" fill="#c68d66"/><path d="M832.176,165.922c-2.729,2.44-6.669,5.721-10.43,6.277-1.6.237-2.56-.876-3.175-2.443,4.659-7.445,5.66-20.949,5.66-20.949l21.718-6.167s0,1.329.071,3.415C842.295,153.273,838.278,160.465,832.176,165.922Z" fill="#a57656"/><path d="M789.924,179.486c1.314-1.215,28.768-13.926,28.768-13.926l4.73,17.079,26.012-18.655s26.634,15.994,28.242,17.6c1.026,1.025-7.058,22.7-12.97,38.309-3.37,8.9-3.054,6.6-6.076,15.818s-1.295,32.07-1.295,32.07L811.984,274.6l-12.875-2.365-2.1-16.816-3.277-57.28S788.61,180.7,789.924,179.486Z" fill="#dddbed"/><path d="M829.2,169.764l-.626,9.328c9.522-.712,22.763-13.957,22.763-13.957l-2.693-7.457Z" fill="#9490a7"/><path d="M823.388,184.38a1.28,1.28,0,1,1-1.28,1.28A1.281,1.281,0,0,1,823.388,184.38Z" fill="#f1f1f1"/><path d="M823.258,210.173a1.281,1.281,0,1,1-1.282,1.281A1.282,1.282,0,0,1,823.258,210.173Z" fill="#f1f1f1"/><path d="M823.127,235.967a1.281,1.281,0,1,1-1.282,1.281A1.281,1.281,0,0,1,823.127,235.967Z" fill="#f1f1f1"/><path d="M819.177,261.76a1.281,1.281,0,1,1-1.282,1.281A1.282,1.282,0,0,1,819.177,261.76Z" fill="#f1f1f1"/><path d="M815.071,277.3c10.154,0,41.044-4.2,41.044-4.2l.424-5.311s-33.73,3.993-41.468,3.993c-9.63,0-16.962-.664-17.034-.67l-.34,5.662C798,276.8,805.22,277.3,815.071,277.3Z" fill="#784f2c"/><path d="M835.55,278.927l2.364-.043-.2-9.308-2.171.255Z" fill="#292728"/><path d="M805.209,279.322l2.355-.208-.672-7.665-2.384-.128Z" fill="#292728"/><path d="M848.913,275.741l2.615-.038-.267-7.486-2.354.252Z" fill="#292728"/><path d="M814.055,277.692a3.444,3.444,0,0,1-1.131-2.4l-.029-.582a3.473,3.473,0,0,1,3.3-3.625l4.031-.191a3.478,3.478,0,0,1,3.624,3.294l.029.583a3.474,3.474,0,0,1-3.3,3.625l-4.029.19c-.057,0-.112.005-.168.005A3.438,3.438,0,0,1,814.055,277.692Zm6.242-5.219-4.03.191h0a1.9,1.9,0,0,0-1.795,1.974l.027.583a1.9,1.9,0,0,0,1.976,1.795l4.03-.191a1.9,1.9,0,0,0,1.795-1.975l-.028-.582a1.889,1.889,0,0,0-1.882-1.8C820.359,272.47,820.327,272.471,820.3,272.473Z" fill="#e3e4e3"/><g opacity="0.1"><path d="M823.545,316.117,811.721,308.1l1.051,2.628,6.832,4.86-10.247-.393.394.92,9.459,2.1-5.518.92,3.811,1.445,2.233-.395-10.379,17.57,3.8-3.248Z"/></g><path d="M848.646,157.678,829.2,169.764s1.82,7.575,7.883,9.722l14.254-14.351Z" fill="#c3c0e0"/><path d="M820.886,168.12s-2.358,8.788-9.551,10.578l4.73-12.612,4.2-3.941Z" fill="#9490a7"/><path d="M816.065,166.086l5.649,10.378a47.73,47.73,0,0,1-1.774-7.75,32.165,32.165,0,0,1,.329-6.569Z" fill="#c3c0e0"/><path d="M825.257,171.281l4.388.1a28.37,28.37,0,0,0,2.275,4.214c.839,1.007-2.571,1.2-2.571,1.2Z" fill="#9a3e42"/><path d="M819.913,171.284a2.442,2.442,0,0,1-1.2-.191c-.346-.251-.906,3.714-.642,4.562S819.913,171.284,819.913,171.284Z" fill="#9a3e42"/><path d="M827.506,171.281l-7.593,0-1.845,4.371L820.5,182.6l5.138-.005,4.883-5.93Z" fill="#ce5358"/><path d="M819,261.986l7.907-6.18-1.267-73.216-5.138.005-7.946,73.224Z" fill="#ce5358"/><path d="M873.923,474.654c-1-7.168-19.8-5.58-20.2.068s-2.938,8.189-2.938,11.455-.362,8.711,10.889,8.711,13.791-4.718,13.791-8.711S874.921,481.822,873.923,474.654Z" fill="#3c2419"/><path d="M812.836,134.661c1.073,3.614.377,7.009-1.558,7.584s-4.372-1.889-5.445-5.5-.378-7.009,1.557-7.584S811.762,131.048,812.836,134.661Z" fill="#a57656"/><path d="M851.549,136.035c-.819,3.679-2.875,6.353-4.591,5.971s-2.443-3.675-1.624-7.354,2.875-6.354,4.591-5.972S852.368,132.355,851.549,136.035Z" fill="#a57656"/><path d="M807.071,112.829c-3.763,19.764,4.372,30.82,4.372,30.82s11.612-15.552,12.641-25.412-1.166-11.716-7.477-12.187S807.071,112.829,807.071,112.829Z" fill="#6b6264"/><path d="M849.924,114.179c4.107,18.362-4.342,28.988-4.342,28.988s-12.312-14.148-13.47-23.339,1.128-11,7.748-11.661S849.924,114.179,849.924,114.179Z" fill="#6b6264"/><path d="M828.549,107.041c-18.6.2-19.536,17.667-19.582,19.771,0,.128,0,.25.011.378.132,1.942,1.411,19.9,3.239,23.312,1.515,2.831,8.206,8.613,11.024,10.979a4.38,4.38,0,0,0,2.869,1.025l.9-.009,4.28-.046.9-.01a4.386,4.386,0,0,0,2.845-1.087c2.767-2.425,9.331-8.35,10.786-11.212,1.754-3.452,2.646-21.432,2.737-23.378.006-.126.008-.249,0-.377C848.462,124.283,847.152,106.841,828.549,107.041Z" fill="#c68d66"/><path d="M812.8,121.447c1.106-.3,1.831.472,2.877.554a38.212,38.212,0,0,0,14.641-1.108c6.9-1.892,12.465-1.371,17.566,1.039-1.412-5.83-5.785-15.036-19.333-14.891-14.447.156-18.236,10.721-19.229,16.422A8.582,8.582,0,0,1,812.8,121.447Z" fill="#a57656"/><path d="M837.563,133.7a1.444,1.444,0,0,0-1.507,1.392,1.47,1.47,0,0,0,1.31,1.6,1.445,1.445,0,0,0,1.508-1.392A1.471,1.471,0,0,0,837.563,133.7Z" fill="#3d3739"/><path d="M820.361,133.8a1.444,1.444,0,0,0-1.507,1.392,1.469,1.469,0,0,0,1.311,1.6,1.444,1.444,0,0,0,1.507-1.391A1.472,1.472,0,0,0,820.361,133.8Z" fill="#3d3739"/><path d="M834.613,118.05c-3.43.422-6.808,1.113-10.212,1.7s-6.966.853-10.253-.218-6.251-3.718-6.883-7.155a11.734,11.734,0,0,1,.329-4.918c1.34-5.395,4.968-10.521,10.223-12.143,1.837-.567,3.922-.758,5.29-2.122-.481.9.352,2.035,1.329,2.291a6.755,6.755,0,0,0,2.988-.254c6.455-1.273,13.06,2.847,16.557,8.487a44.993,44.993,0,0,1,6.3,19.92S843.222,116.989,834.613,118.05Z" fill="#4c484a"/><path d="M810.149,101.514c.956,4.755,3.321,8.778,7.712,10.6,5.909,2.449,12.789-1.157,18.876-1.4a23.7,23.7,0,0,1,8.266.754,15.358,15.358,0,0,1,3.237,1.667,42.98,42.98,0,0,0-4.26-9.413c-3.5-5.64-10.1-9.76-16.556-8.487a6.755,6.755,0,0,1-2.988.254c-.977-.256-1.81-1.393-1.329-2.291-1.368,1.364-3.453,1.555-5.29,2.122A14.324,14.324,0,0,0,810.149,101.514Z" fill="#686062"/><path d="M828.45,143.758c-.285.913-.272.75-.033,1.466a8.9,8.9,0,0,0,.759,1.381c.493.9-1.529.587-1.907-.1a10.7,10.7,0,0,1-1.236-2.284,1.846,1.846,0,0,1,.478-1.742,12.984,12.984,0,0,0,1.813-5.661C828.424,135.916,829.42,140.646,828.45,143.758Z" fill="#ba794e"/><path d="M824.84,128.538a1.222,1.222,0,0,1-.336,0,18.179,18.179,0,0,0-11.067,1.4,1.075,1.075,0,0,1-1.334-.192.739.739,0,0,1,.293-1.115c.207-.119,4.419-3.842,11.829-2.612C824.742,126.1,825.232,128.487,824.84,128.538Z" fill="#4c484a"/><path d="M832.328,128.784a1.191,1.191,0,0,0,.337-.006,18.184,18.184,0,0,1,11.068,1.4,1.074,1.074,0,0,0,1.333-.192.738.738,0,0,0-.293-1.115c-.207-.119-4.42-3.842-11.829-2.613C832.427,126.344,831.937,128.733,832.328,128.784Z" fill="#4c484a"/><path d="M820.4,150.648a97.9,97.9,0,0,1,15.751,0s-4.024,3.506-7.818,3.506S820.4,150.648,820.4,150.648Z" fill="#f1f2f2"/><path d="M849.994,130.807a3.4,3.4,0,0,0-1.124-.433,29.086,29.086,0,0,0-6.3-.811c-2.921,0-10.683,0-11.243,3.637l-.2.175h-4.495l-.2-.175c-.558-3.637-8.319-3.637-11.24-3.637a27.69,27.69,0,0,0-6.691.924,2.182,2.182,0,0,0-.784.369c-.053.113-.1.415.188,1.172a2.682,2.682,0,0,0,.464.9.016.016,0,0,0,.012-.01l1.858.1.193.2c0,.042.135,4.175,1.638,5.99.936,1.124,4.106,1.526,6.765,1.526a16,16,0,0,0,4.2-.441,4.926,4.926,0,0,0,3.481-4.682l.208-.191h4.329l.208.191a4.932,4.932,0,0,0,3.484,4.682,16,16,0,0,0,4.2.441c2.658,0,5.834-.4,6.764-1.526,1.5-1.815,1.637-5.948,1.639-5.99l.192-.2,1.683-.1.207.084a8.6,8.6,0,0,0,.448-.988C850.143,131.271,850.1,130.968,849.994,130.807Zm-26.811,8.165a8.867,8.867,0,0,1-4.066.651c-2.1,0-4.852-.311-5.7-1.2-1.413-1.469-1.316-5.311-.653-6.681.54-.768,2.772-.881,4.052-.881,3,0,7.469.678,8,2.182a5.513,5.513,0,0,1-1.635,5.93Zm21.166-.55c-.852.886-3.6,1.2-5.7,1.2a8.852,8.852,0,0,1-4.065-.651,5.522,5.522,0,0,1-1.637-5.93c.538-1.506,5.005-2.182,8-2.182,1.283,0,3.514.114,4.071.91.645,1.343.737,5.185-.673,6.651Z" fill="#3f3133"/><path d="M840.948,130.86c-3,0-7.469.677-8,2.182a5.522,5.522,0,0,0,1.637,5.93,8.852,8.852,0,0,0,4.065.651c2.1,0,4.85-.311,5.7-1.2,1.41-1.467,1.318-5.309.675-6.651C844.462,130.974,842.231,130.86,840.948,130.86Z" fill="#fff" opacity="0.25" style="isolation:isolate"/><path d="M816.811,130.86c-1.283,0-3.514.114-4.052.881-.663,1.37-.761,5.212.653,6.681.852.886,3.606,1.2,5.7,1.2a8.867,8.867,0,0,0,4.066-.651,5.512,5.512,0,0,0,1.636-5.93C824.28,131.537,819.813,130.86,816.811,130.86Z" fill="#fff" opacity="0.25" style="isolation:isolate"/><path d="M842.648,148.715a1.77,1.77,0,0,1-1.941.863l-7.227-1.187a7.473,7.473,0,0,0-3.128-.108,15.324,15.324,0,0,1-2.8-.216s-8.306.863-10.787.324c-4.4-2.469-6.256-9.683-6.959-13.591h-.2c.57,5.994,1.486,13.6,2.611,15.7,1.515,2.831,8.206,8.613,11.024,10.979a4.38,4.38,0,0,0,2.869,1.025l.9-.009,4.28-.046.9-.01a4.386,4.386,0,0,0,2.845-1.087c2.767-2.425,9.331-8.35,10.786-11.212.841-1.656,1.483-6.652,1.934-11.619C845.6,146.672,842.648,148.715,842.648,148.715Z" fill="#a57656" opacity="0.54"/></g></g></g></svg>