<svg xmlns="http://www.w3.org/2000/svg" xmlns:xlink="http://www.w3.org/1999/xlink" width="40" height="40" viewBox="0 0 40 40"><defs><clipPath id="b"><rect width="40" height="40"/></clipPath></defs><g id="a" clip-path="url(#b)"><path d="M35.556,40H4.445A4.449,4.449,0,0,1,0,35.556V4.445A4.429,4.429,0,0,1,4.445,0H35.556A4.449,4.449,0,0,1,40,4.445V35.556A4.449,4.449,0,0,1,35.556,40ZM8.188,15.29a1.025,1.025,0,0,0-1.023,1.024V24.5a1.025,1.025,0,0,0,1.023,1.024H12.6l5.821,6.589a1.558,1.558,0,0,0,1.055.535c.593,0,.992-.575.992-1.431V9.436c0-.747-.4-1.248-.986-1.248h-.005a1.506,1.506,0,0,0-1.024.482L12.6,15.29Zm18.759-5.054H26.9a1.024,1.024,0,0,0-.223,1.951,9.212,9.212,0,0,1,0,16.439,1.024,1.024,0,1,0,.9,1.824,11.339,11.339,0,0,0,4.482-4.072,11.2,11.2,0,0,0,0-11.943,11.342,11.342,0,0,0-4.482-4.072,1.017,1.017,0,0,0-.5-.13l-.076,0ZM24.516,14.2h-.048a1.024,1.024,0,0,0-.415,1.92,5.051,5.051,0,0,1,2.559,4.286,5.073,5.073,0,0,1-2.59,4.318,1.023,1.023,0,1,0,1.087,1.726,7.136,7.136,0,0,0,3.55-6.045,7.156,7.156,0,0,0-3.519-6.045,1.022,1.022,0,0,0-.552-.161h-.072Z" fill="#fff"/></g></svg>