<svg xmlns="http://www.w3.org/2000/svg" xmlns:xlink="http://www.w3.org/1999/xlink" width="36" height="36" viewBox="0 0 36 36"><defs><clipPath id="b"><rect width="36" height="36"/></clipPath></defs><g id="a" clip-path="url(#b)"><path d="M24.757,17.106h3.357A14.783,14.783,0,0,0,12.99,2V5.357A11.372,11.372,0,0,1,24.757,17.106Z" transform="translate(3.78 -2)" fill="#fff"/><path d="M19.787,11.267c3.53,0,5.036,1.506,5.036,5.036H28.18c0-5.414-2.98-8.393-8.393-8.393ZM25.531,20.4a1.68,1.68,0,0,0-2.335.072l-4.017,4.131a9.637,9.637,0,0,1-4.912-2.787,9.59,9.59,0,0,1-2.787-4.912l4.128-4.019a1.679,1.679,0,0,0,.072-2.335l-6.2-6.82a1.679,1.679,0,0,0-2.335-.146L3.5,6.713A1.679,1.679,0,0,0,3.014,7.8a25.352,25.352,0,0,0,7.2,18.072A25.419,25.419,0,0,0,27.685,33.09c.339,0,.547-.01.6-.013a1.665,1.665,0,0,0,1.088-.488L32.5,28.943a1.679,1.679,0,0,0-.144-2.335Z" transform="translate(-3 -1.196)" fill="#fff"/></g></svg>