<svg xmlns="http://www.w3.org/2000/svg" xmlns:xlink="http://www.w3.org/1999/xlink" width="32" height="33" viewBox="0 0 32 33"><defs><clipPath id="b"><rect width="32" height="33"/></clipPath></defs><g id="a" clip-path="url(#b)"><path d="M13.442,26.785,11.86,28.357a3.542,3.542,0,0,1-4.97,0,3.441,3.441,0,0,1,0-4.89L12.709,17.7c1.2-1.2,3.474-2.959,5.128-1.318a1.937,1.937,0,1,0,2.728-2.748c-2.808-2.789-6.964-2.273-10.582,1.318L4.164,20.722a7.308,7.308,0,0,0,0,10.381,7.417,7.417,0,0,0,10.424,0l1.584-1.572a1.936,1.936,0,0,0-2.73-2.746ZM31.08,4.359c-3.021-3-7.243-3.158-10.036-.385l-1.97,1.957A1.935,1.935,0,0,0,21.8,8.676l1.972-1.955c1.445-1.437,3.341-.842,4.581.385a3.439,3.439,0,0,1,0,4.888l-6.21,6.159c-2.839,2.814-4.171,1.5-4.74.932a1.935,1.935,0,1,0-2.726,2.746,6.112,6.112,0,0,0,4.351,1.933A8.532,8.532,0,0,0,24.874,20.9l6.21-6.157a7.31,7.31,0,0,0,0-10.383Z" transform="translate(-2 -2.296)" fill="#fff"/></g></svg>