<svg xmlns="http://www.w3.org/2000/svg" xmlns:xlink="http://www.w3.org/1999/xlink" width="38" height="28" viewBox="0 0 38 28"><defs><clipPath id="b"><rect width="38" height="28"/></clipPath></defs><g id="a" clip-path="url(#b)"><path d="M6,4H34.23c2.664,0,4.006,1.257,4.006,3.814V25.756c0,2.536-1.342,3.814-4.006,3.814H6c-2.664,0-4.006-1.279-4.006-3.814V7.814C1.99,5.257,3.332,4,6,4ZM20.1,22.325,34.464,10.542a1.684,1.684,0,0,0,.277-2.28A1.764,1.764,0,0,0,32.248,7.9L20.1,16.125,7.978,7.9a1.764,1.764,0,0,0-2.493.362,1.684,1.684,0,0,0,.277,2.28Z" transform="translate(-1.99 -4)" fill="#fff"/></g></svg>