<svg xmlns="http://www.w3.org/2000/svg" xmlns:xlink="http://www.w3.org/1999/xlink" width="32" height="40" viewBox="0 0 32 40"><defs><clipPath id="b"><rect width="32" height="40"/></clipPath></defs><g id="a" clip-path="url(#b)"><g transform="translate(-80 -32)"><path d="M109.774,48.427H97.8a4.107,4.107,0,0,1-4.107-4.107V32.342A.342.342,0,0,0,93.347,32H85.476A5.476,5.476,0,0,0,80,37.476V64.855a5.476,5.476,0,0,0,5.476,5.476h19.165a5.476,5.476,0,0,0,5.476-5.476V48.77A.342.342,0,0,0,109.774,48.427ZM101.9,62.117H88.214a1.369,1.369,0,1,1,0-2.738H101.9a1.369,1.369,0,0,1,0,2.738Zm0-6.845H88.214a1.369,1.369,0,1,1,0-2.738H101.9a1.369,1.369,0,1,1,0,2.738Z" transform="translate(0)" fill="#fff"/><path d="M284.6,56.552l-12.3-12.3a.171.171,0,0,0-.292.121V55.475a1.369,1.369,0,0,0,1.369,1.369h11.106a.171.171,0,0,0,.121-.292Z" transform="translate(-175.573 -11.155)" fill="#fff"/></g></g></svg>