<svg xmlns="http://www.w3.org/2000/svg" xmlns:xlink="http://www.w3.org/1999/xlink" width="40" height="40" viewBox="0 0 40 40"><defs><clipPath id="b"><rect width="40" height="40"/></clipPath></defs><g id="a" clip-path="url(#b)"><path d="M38.556,3A4.444,4.444,0,0,1,43,7.444V38.556A4.444,4.444,0,0,1,38.556,43H7.444A4.444,4.444,0,0,1,3,38.556V7.444A4.429,4.429,0,0,1,7.444,3H38.556M19.867,18.733c-.044.111-.644,3.911-4.644,10.422,0,0-7.778,4.022-5.933,7.044,1.489,2.356,5.156-.089,8.289-5.933a40.43,40.43,0,0,1,9.4-1.822s8.578,3.867,9.733-.244c1.156-4.089-6.778-3.2-8.156-2.778,0,0-4.533-2.978-5.556-7.111,0,0,2.511-8.756-1.378-8.644S19.2,16.6,19.867,18.733m1.8,2.333a17.071,17.071,0,0,0,4.2,5.444,51.756,51.756,0,0,0-7.533,2.044,44.166,44.166,0,0,0,3.333-7.489m8.711,6.022c1.289-.333,5.156.356,5.022,1.067-.178.733-5.022-1.067-5.022-1.067M14.689,31.222c-1.178,2.689-3.178,4.4-3.689,4.378s1.556-3.556,3.689-4.378M21.667,15.8c-.022-.111-.822-4.867,0-4.778C22.867,11.156,21.667,15.689,21.667,15.8Z" transform="translate(-3 -3)" fill="#fff"/></g></svg>