<svg xmlns="http://www.w3.org/2000/svg" xmlns:xlink="http://www.w3.org/1999/xlink" width="49" height="47" viewBox="0 0 49 47"><defs><clipPath id="b"><rect width="49" height="47"/></clipPath></defs><g id="a" clip-path="url(#b)"><path d="M2.67,22.717a2.278,2.278,0,0,1-.856-3.168l3.468-5.989a2.205,2.205,0,0,1,1.087-.971l18.1-10.174a2.295,2.295,0,0,1,2.636,0L45.376,12.682a2.27,2.27,0,0,1,1.017,1.064l3.353,5.827a2.3,2.3,0,0,1-.832,3.145L46.6,24.058V35.527a2.292,2.292,0,0,1-1.225,2.035L27.11,47.828a2.295,2.295,0,0,1-2.636,0L6.207,37.562a2.291,2.291,0,0,1-1.225-2.035V22.717a2.353,2.353,0,0,1-2.312,0M25.792,6.971V22.463l13.781-7.746L25.792,6.971M9.606,34.163,23.48,41.978V26.463L9.606,18.671V34.163m32.371,0V26.717L30.416,33.423a2.415,2.415,0,0,1-2.312.023v8.532l13.873-7.815m-11.908-5.9L44.59,19.873l-1.341-2.335L28.728,25.931Z" transform="translate(-1.489 -2)" fill="#fff"/></g></svg>