<svg xmlns="http://www.w3.org/2000/svg" width="37.246" height="37.246" viewBox="0 0 37.246 37.246">
  <path id="Path_13296" data-name="Path 13296" d="M13.174,11.311A3.725,3.725,0,0,1,16.9,15.036v9.311a3.725,3.725,0,0,1-7.449,0V15.036a3.725,3.725,0,0,1,3.725-3.725M24.347,24.347a11.189,11.189,0,0,1-9.311,11.025v3.874H11.311V35.372A11.189,11.189,0,0,1,2,24.347H5.725a7.449,7.449,0,1,0,14.9,0h3.725m13.8-8.548-7.9,7.915L32.132,16.9H24.347a3.725,3.725,0,0,1-3.725-3.725V5.725A3.725,3.725,0,0,1,24.347,2H35.521a3.725,3.725,0,0,1,3.725,3.725v7.449A3.641,3.641,0,0,1,38.147,15.8Z" transform="translate(-2 -2)" fill="#fff"/>
</svg>
