<svg xmlns="http://www.w3.org/2000/svg" xmlns:xlink="http://www.w3.org/1999/xlink" width="56" height="35" viewBox="0 0 56 35"><defs><clipPath id="b"><rect width="56" height="35"/></clipPath></defs><g id="a" clip-path="url(#b)"><g transform="translate(-808 -481.34)"><g transform="translate(831.282 481.34)"><path d="M261.787,97.191a7.5,7.5,0,0,1-5.47-2.524,9.758,9.758,0,0,1-2.54-5.958,8.156,8.156,0,0,1,2.065-6.228,8.33,8.33,0,0,1,11.873.012,8.139,8.139,0,0,1,2.077,6.215,9.786,9.786,0,0,1-2.54,5.958A7.482,7.482,0,0,1,261.787,97.191ZM268.233,88.6Z" transform="translate(-246.157 -80)" fill="#fff"/><path d="M204.491,302.065H178.739a2.707,2.707,0,0,1-2.149-1.042,2.952,2.952,0,0,1-.514-2.519,12.873,12.873,0,0,1,5.892-7.92,19.416,19.416,0,0,1,19.288-.04,12.8,12.8,0,0,1,5.9,7.965,2.956,2.956,0,0,1-.52,2.518A2.7,2.7,0,0,1,204.491,302.065Z" transform="translate(-175.985 -267.683)" fill="#fff"/></g><path d="M25.9,3.531a7.909,7.909,0,0,1,0,11.094L14.837,25.72a7.789,7.789,0,0,1-10.765.235c-.094-.078-.2-.141-.3-.235a7.909,7.909,0,0,1,0-11.094l7.752-7.768a4.694,4.694,0,0,1,6.622,6.654l-7.736,7.768A1.565,1.565,0,1,1,8.2,19.067L15.935,11.3a1.563,1.563,0,0,0,0-2.213,1.544,1.544,0,0,0-2.2,0L5.987,16.854a4.709,4.709,0,0,0-.894,5.335A4.235,4.235,0,0,0,7.3,24.4a4.659,4.659,0,0,0,5.32-.894L23.687,12.413a4.687,4.687,0,0,0-3.138-8.019,1.67,1.67,0,0,1-1.318-.424A1.625,1.625,0,0,1,19.262,1.7a1.588,1.588,0,0,1,1.506-.408A7.738,7.738,0,0,1,25.9,3.531Z" transform="translate(806.409 486.406)" fill="#fff"/></g></g></svg>