<svg xmlns="http://www.w3.org/2000/svg" xmlns:xlink="http://www.w3.org/1999/xlink" width="42" height="40" viewBox="0 0 42 40"><defs><clipPath id="b"><rect width="42" height="40"/></clipPath></defs><g id="a" clip-path="url(#b)"><g transform="translate(-16 -16)"><path d="M52.631,53.894h-34.1A2.526,2.526,0,0,1,16,51.368v-34.1a1.263,1.263,0,0,1,2.526,0v34.1h34.1a1.263,1.263,0,1,1,0,2.526Z" fill="#fff"/><path d="M86,225.684H82.842A2.842,2.842,0,0,1,80,222.842v-12A2.842,2.842,0,0,1,82.842,208H86a2.842,2.842,0,0,1,2.842,2.842v12A2.842,2.842,0,0,1,86,225.684Z" transform="translate(-58.947 -176.842)" fill="#fff"/><path d="M230,181.473h-3.158A2.842,2.842,0,0,1,224,178.631V162.842A2.842,2.842,0,0,1,226.842,160H230a2.842,2.842,0,0,1,2.842,2.842v15.789A2.842,2.842,0,0,1,230,181.473Z" transform="translate(-191.579 -132.632)" fill="#fff"/><path d="M373.64,122.526h-3.158a2.842,2.842,0,0,1-2.842-2.842V98.842A2.842,2.842,0,0,1,370.482,96h3.158a2.842,2.842,0,0,1,2.842,2.842v20.842A2.842,2.842,0,0,1,373.64,122.526Z" transform="translate(-323.879 -73.684)" fill="#fff"/></g></g></svg>