<svg xmlns="http://www.w3.org/2000/svg" xmlns:xlink="http://www.w3.org/1999/xlink" width="32" height="40" viewBox="0 0 32 40"><defs><clipPath id="b"><rect width="32" height="40"/></clipPath></defs><g id="a" clip-path="url(#b)"><path d="M24.641,38.33H5.476A5.482,5.482,0,0,1,0,32.854V5.476A5.482,5.482,0,0,1,5.476,0h7.871a.342.342,0,0,1,.342.342V12.32A4.111,4.111,0,0,0,17.8,16.427H29.775a.343.343,0,0,1,.342.343V32.854A5.482,5.482,0,0,1,24.641,38.33Zm-8.093-18.3a1.284,1.284,0,0,0-.891.358l-.1.1v2.332a11.037,11.037,0,0,0-6.645,2.572,8.132,8.132,0,0,0-3.207,6.2c0,.9.237,1.355.7,1.355.32,0,.648-.265.921-.747a8.173,8.173,0,0,1,3.382-3.071,10.959,10.959,0,0,1,4.844-1.348v2.215l.1.093a1.465,1.465,0,0,0,.987.381h.115a1.56,1.56,0,0,0,.909-.29l5.159-3.923a1.346,1.346,0,0,0,0-1.85l-5.132-3.947A1.541,1.541,0,0,0,16.6,20.03ZM28.9,13.689H17.8a1.37,1.37,0,0,1-1.369-1.369V1.214a.172.172,0,0,1,.293-.121l12.3,12.3a.171.171,0,0,1-.121.292Z" fill="#fff"/></g></svg>