<svg xmlns="http://www.w3.org/2000/svg" xmlns:xlink="http://www.w3.org/1999/xlink" width="42" height="30" viewBox="0 0 42 30"><defs><clipPath id="b"><rect width="42" height="30"/></clipPath></defs><g id="a" clip-path="url(#b)"><path d="M-1001.234,9547.34h-23.529a8.362,8.362,0,0,1-8.236-8.266,8.062,8.062,0,0,1,2.059-5.463,9.01,9.01,0,0,1,5.235-2.8,1.784,1.784,0,0,1-.235-1.181,5.831,5.831,0,0,1,5.884-5.9,5.608,5.608,0,0,1,2.117.472,9.542,9.542,0,0,1,8.47-5.194,9.328,9.328,0,0,1,6.648,2.774,9.393,9.393,0,0,1,2.765,6.671,8.439,8.439,0,0,1-.13,1.351,6.683,6.683,0,0,0-.105,1.011,8.142,8.142,0,0,1,5.235,2.716,8.4,8.4,0,0,1,2.059,5.551A8.361,8.361,0,0,1-1001.234,9547.34Zm-15.3-8.735h0v2.9a9.364,9.364,0,0,0,4.152.886,6.215,6.215,0,0,0,3.974-1.146,3.83,3.83,0,0,0,1.429-3.142,3.87,3.87,0,0,0-.762-2.429,7.85,7.85,0,0,0-2.817-1.979,18.622,18.622,0,0,1-1.97-1.032,2.084,2.084,0,0,1-.607-.594,1.336,1.336,0,0,1-.189-.72,1.37,1.37,0,0,1,.471-1.076,2,2,0,0,1,1.352-.412,6.2,6.2,0,0,1,1.509.191,14.657,14.657,0,0,1,1.94.675l1-2.427a14.764,14.764,0,0,0-2.169-.764,8.68,8.68,0,0,0-2.182-.271,5.49,5.49,0,0,0-3.645,1.116,3.826,3.826,0,0,0-1.318,3.069,3.9,3.9,0,0,0,.4,1.812,4.574,4.574,0,0,0,1.074,1.358,8.931,8.931,0,0,0,2.015,1.218,18.285,18.285,0,0,1,1.9,1,2.658,2.658,0,0,1,.707.65,1.293,1.293,0,0,1,.242.771,1.353,1.353,0,0,1-.548,1.167,2.688,2.688,0,0,1-1.569.391,7.424,7.424,0,0,1-1.881-.271,17.089,17.089,0,0,1-2.511-.935Z" transform="translate(1033 -9519)" fill="#fff"/></g></svg>