<svg xmlns="http://www.w3.org/2000/svg" xmlns:xlink="http://www.w3.org/1999/xlink" width="34" height="34" viewBox="0 0 34 34"><defs><clipPath id="b"><rect width="34" height="34"/></clipPath></defs><g id="a" clip-path="url(#b)"><path d="M29.334,33H3.667A3.671,3.671,0,0,1,0,29.334V3.667A3.654,3.654,0,0,1,3.667,0H29.334A3.671,3.671,0,0,1,33,3.667V29.334A3.67,3.67,0,0,1,29.334,33ZM6.755,12.614a.846.846,0,0,0-.844.845v6.754a.846.846,0,0,0,.844.845H10.4l4.8,5.436a1.285,1.285,0,0,0,.87.442c.49,0,.818-.474.818-1.18V7.785c0-.616-.327-1.03-.813-1.03h0a1.242,1.242,0,0,0-.845.4L10.4,12.614ZM22.231,8.445h-.04a.844.844,0,0,0-.184,1.61,7.6,7.6,0,0,1,0,13.562.844.844,0,1,0,.739,1.5,9.355,9.355,0,0,0,3.7-3.359,9.243,9.243,0,0,0,0-9.853,9.357,9.357,0,0,0-3.7-3.359.839.839,0,0,0-.411-.107l-.063,0Zm-2.006,3.271h-.04a.845.845,0,0,0-.343,1.584,4.167,4.167,0,0,1,2.111,3.536A4.185,4.185,0,0,1,19.817,20.4a.844.844,0,1,0,.9,1.424,5.887,5.887,0,0,0,2.929-4.987,5.9,5.9,0,0,0-2.9-4.987.843.843,0,0,0-.455-.133h-.059Z" fill="#fff"/></g></svg>