<svg xmlns="http://www.w3.org/2000/svg" xmlns:xlink="http://www.w3.org/1999/xlink" width="250" height="44" viewBox="0 0 250 44"><defs><style>.a{clip-path:url(#b);}.b{opacity:0.15;}.c{opacity:0.4;}.d{fill:#fff;}.e{opacity:0.7;}.f{opacity:0.95;}</style><clipPath id="b"><rect width="250" height="44"/></clipPath></defs><g id="a" class="a"><g class="b" transform="translate(-331.595 -815.539)"><g class="c"><path class="d" d="M563.007,838.629a7.467,7.467,0,0,1-2.228,5.31.93.93,0,1,1-1.3-1.327,5.615,5.615,0,0,0,1.672-3.983V838.6a5.589,5.589,0,0,0-10.751-2.118.93.93,0,0,1-1.717-.714,7.45,7.45,0,0,1,14.327,2.821Z"/></g><g class="e"><path class="d" d="M568.491,838.631a12.934,12.934,0,0,1-25.867.064v-.076a12.966,12.966,0,0,1,3.867-9.218.93.93,0,1,1,1.3,1.326,11.113,11.113,0,0,0-3.311,7.892v.065a11.075,11.075,0,0,0,22.149-.053v-.065a11.118,11.118,0,0,0-3.176-7.7.93.93,0,1,1,1.327-1.3,12.983,12.983,0,0,1,3.709,9Z"/></g><g class="f"><path class="d" d="M574.133,838.633a18.557,18.557,0,0,1-11.5,17.161.93.93,0,0,1-.709-1.719,16.736,16.736,0,0,0,10.347-15.442v-.1a16.711,16.711,0,0,0-32.145-6.331.93.93,0,0,1-1.717-.715,18.576,18.576,0,0,1,35.722,7.035Z"/></g><path class="d" d="M369.5,838.265a18.492,18.492,0,1,1-18.492-18.492A18.514,18.514,0,0,1,369.5,838.265Zm-35.88,0a17.387,17.387,0,1,0,17.388-17.388A17.407,17.407,0,0,0,333.624,838.265Z"/><path class="d" d="M356.949,838.265a5.938,5.938,0,1,1-5.937-5.938A5.945,5.945,0,0,1,356.949,838.265Zm-10.771,0a4.833,4.833,0,1,0,4.834-4.833A4.839,4.839,0,0,0,346.178,838.265Z"/><path class="d" d="M359.836,854.794a1.843,1.843,0,0,1-1.125,1.7,19.779,19.779,0,0,1-27.078-14.242,1.841,1.841,0,0,1,3.607-.738,15.991,15.991,0,0,0,2.421,5.754,16.158,16.158,0,0,0,7.085,5.835,16.065,16.065,0,0,0,3.019.937,16.129,16.129,0,0,0,9.513-.937,1.842,1.842,0,0,1,2.558,1.694Z"/><path class="d" d="M370.792,838.265a1.84,1.84,0,1,1-3.681,0,16.256,16.256,0,0,0-.327-3.247,16.092,16.092,0,0,0-4.389-8.137,16.256,16.256,0,0,0-2.384-1.967,16.022,16.022,0,0,0-2.733-1.484,1.841,1.841,0,1,1,1.433-3.391,19.784,19.784,0,0,1,3.361,1.824,19.841,19.841,0,0,1,5.341,5.341,19.715,19.715,0,0,1,3.379,11.061Z"/><path class="d" d="M345.87,821.734a1.842,1.842,0,0,1-1.124,1.7,15.993,15.993,0,0,0-2.734,1.484A16.152,16.152,0,0,0,336.177,832a1.841,1.841,0,0,1-3.391-1.434,19.845,19.845,0,0,1,10.526-10.526,1.842,1.842,0,0,1,2.558,1.7Z"/><path class="d" d="M342.668,831.071a.55.55,0,0,1-.122.346,10.958,10.958,0,0,0-2.365,7.873.552.552,0,0,1-1.1.1,12.074,12.074,0,0,1,.458-4.587,12.013,12.013,0,0,1,2.145-4.081.552.552,0,0,1,.983.346Z"/><path class="d" d="M354.9,849.26a.553.553,0,0,1-.393.529,11.994,11.994,0,0,1-4.646.444,12.065,12.065,0,0,1-4.4-1.322.552.552,0,1,1,.513-.978,10.909,10.909,0,0,0,1.94.792,10.878,10.878,0,0,0,6.273.006.553.553,0,0,1,.688.37A.546.546,0,0,1,354.9,849.26Z"/><path class="d" d="M363.086,838.255q0,.6-.06,1.207a12.06,12.06,0,0,1-2.6,6.343.552.552,0,0,1-.861-.692,10.982,10.982,0,0,0,2.357-5.762,11.028,11.028,0,0,0,.008-2.111.552.552,0,1,1,1.1-.1Q363.087,837.693,363.086,838.255Z"/><path class="d" d="M356.949,828.108a.552.552,0,0,1-.809.488,10.95,10.95,0,0,0-4-1.2,10.852,10.852,0,0,0-4.217.4.552.552,0,1,1-.318-1.058,12,12,0,0,1,4.646-.444,12.1,12.1,0,0,1,4.4,1.321A.553.553,0,0,1,356.949,828.108Z"/><path class="d" d="M421.79,837.188a18.5,18.5,0,0,1-35.63,6.959,18.637,18.637,0,0,1,0-13.917,18.55,18.55,0,0,1,10.18-10.179l.415,1.023a17.452,17.452,0,0,0-9.572,9.571,17.534,17.534,0,0,0,0,13.087,17.4,17.4,0,0,0,32.229,0,17.524,17.524,0,0,0,0-13.087,17.446,17.446,0,0,0-9.571-9.571l.415-1.023a18.475,18.475,0,0,1,11.534,17.137Z"/><path class="d" d="M416.274,837.188c0,.125,0,.25,0,.375l-.736-.022a12.269,12.269,0,0,0-.041-1.422l.733-.064C416.258,836.429,416.274,836.81,416.274,837.188Zm-.136,1.877a12.7,12.7,0,0,1-.3,1.478l-.711-.189a12.212,12.212,0,0,0,.286-1.394Zm-.131-4.5-.721.148a12.369,12.369,0,0,0-.367-1.374l.7-.231A12.719,12.719,0,0,1,416.007,834.562Zm-.644,7.413a13.079,13.079,0,0,1-.637,1.368l-.648-.35a12.069,12.069,0,0,0,.6-1.289Zm-.3-10.273-.668.311a12,12,0,0,0-.676-1.252l.627-.387A13.181,13.181,0,0,1,415.062,831.7Zm-1.129,12.924a12.854,12.854,0,0,1-.935,1.183l-.55-.489a12.505,12.505,0,0,0,.883-1.116Zm-.455-15.487-.577.457a12.517,12.517,0,0,0-.948-1.063l.494-.547.027.027A13.2,13.2,0,0,1,413.478,829.139Zm-1.546,17.737a13.011,13.011,0,0,1-1.182.939l-.423-.6a12.606,12.606,0,0,0,1.115-.885Zm-.614-19.891-.456.579a12.038,12.038,0,0,0-1.166-.814l.385-.628A13.086,13.086,0,0,1,411.318,826.985Zm-1.851,21.624a13.183,13.183,0,0,1-1.367.638l-.272-.684a12.186,12.186,0,0,0,1.289-.6Zm-.716-23.2-.309.668a12.105,12.105,0,0,0-1.323-.521l.229-.7A12.731,12.731,0,0,1,408.751,825.41Zm-2.083,24.312a12.951,12.951,0,0,1-1.478.3l-.107-.729a12.349,12.349,0,0,0,1.394-.287Zm-.778-25.25-.147.722a12,12,0,0,0-1.408-.2l.061-.734A13.015,13.015,0,0,1,405.89,824.472Zm-2.2,25.687c-.129,0-.258.006-.388.006q-.561,0-1.119-.048l.063-.734c.351.03.7.046,1.055.046.122,0,.245,0,.368-.006Zm-.775-25.205a12.438,12.438,0,0,0-1.418.127l-.108-.728a13,13,0,0,1,1.5-.135Zm-2.077,24.226-.148.721a12.934,12.934,0,0,1-1.458-.388l.23-.7A12.394,12.394,0,0,0,400.835,849.18Zm-.734-23.81a12.2,12.2,0,0,0-1.35.45l-.273-.684a12.928,12.928,0,0,1,1.432-.477Zm-1.964,22.921-.31.668a12.866,12.866,0,0,1-1.329-.715l.386-.627A12.184,12.184,0,0,0,398.137,848.291Zm-.674-21.867a12.316,12.316,0,0,0-1.209.751l-.424-.6a13.066,13.066,0,0,1,1.282-.8ZM395.72,846.8l-.457.578a13.227,13.227,0,0,1-1.127-1l.52-.522A12.236,12.236,0,0,0,395.72,846.8Zm-.58-18.74q-.254.228-.5.471-.263.264-.507.538l-.551-.489q.258-.291.537-.569c.172-.172.348-.339.527-.5Zm-1.434,16.733-.576.458a12.936,12.936,0,0,1-.869-1.234l.627-.387A12.191,12.191,0,0,0,393.706,844.795Zm-.452-14.607a12.379,12.379,0,0,0-.745,1.211l-.648-.348a12.873,12.873,0,0,1,.79-1.285Zm-1.045,12.192-.667.312a13.071,13.071,0,0,1-.559-1.4l.7-.232A12.29,12.29,0,0,0,392.209,842.38Zm-.3-9.691a12.2,12.2,0,0,0-.444,1.352l-.712-.188a12.911,12.911,0,0,1,.471-1.434Zm-.6,6.995-.721.149a12.856,12.856,0,0,1-.22-1.492l.733-.065A12.319,12.319,0,0,0,391.313,839.684Zm-.13-4.249a12.436,12.436,0,0,0-.121,1.418l-.736-.02a13.017,13.017,0,0,1,.128-1.5Z"/><path class="d" d="M411.82,837.189c0,.246-.01.493-.031.739l-.514-.044a8.133,8.133,0,0,0,0-1.4l.513-.044C411.81,836.692,411.82,836.94,411.82,837.189Zm-.288,2.2a8.458,8.458,0,0,1-.506,1.4l-.467-.218a8.063,8.063,0,0,0,.475-1.31Zm0-4.411-.5.133a8.119,8.119,0,0,0-.477-1.311l.467-.218A8.534,8.534,0,0,1,411.531,834.98Zm-1.248,7.093a8.521,8.521,0,0,1-.954,1.138l-.365-.365a8.118,8.118,0,0,0,.9-1.068Zm0-9.775-.422.3a8.148,8.148,0,0,0-.9-1.069l.347-.381.017.017A8.6,8.6,0,0,1,410.28,832.3Zm-2.088,11.869a8.507,8.507,0,0,1-1.285.744l-.219-.466a8.087,8.087,0,0,0,1.208-.7Zm-.024-13.975-.3.423a8.029,8.029,0,0,0-1.21-.7l.217-.467A8.577,8.577,0,0,1,408.168,830.192Zm-2.657,15.228a8.509,8.509,0,0,1-1.462.258l-.045-.513a8.082,8.082,0,0,0,1.374-.243Zm-.028-16.47-.132.5a7.956,7.956,0,0,0-1.375-.238l.043-.513A8.374,8.374,0,0,1,405.483,828.95Zm-2.875,16.216-.044.514a8.575,8.575,0,0,1-1.463-.255l.132-.5A8.075,8.075,0,0,0,402.608,845.166Zm-.027-15.953a8.1,8.1,0,0,0-1.375.245l-.133-.5a8.512,8.512,0,0,1,1.462-.26Zm-2.659,15.239-.217.467a8.5,8.5,0,0,1-1.287-.741l.3-.422A7.93,7.93,0,0,0,399.922,844.452Zm-.026-14.514a7.885,7.885,0,0,0-1.206.7l-.3-.421a8.523,8.523,0,0,1,1.284-.746Zm-2.26,12.913-.356.373-.009-.009a8.552,8.552,0,0,1-.948-1.127l.421-.3A8.029,8.029,0,0,0,397.636,842.851Zm-.013-11.312a8.086,8.086,0,0,0-.895,1.07l-.423-.295a8.561,8.561,0,0,1,.953-1.139Zm-1.579,9.046-.467.218a8.55,8.55,0,0,1-.509-1.395l.5-.134A7.962,7.962,0,0,0,396.044,840.585Zm-.012-6.767a7.923,7.923,0,0,0-.474,1.312l-.5-.132a8.521,8.521,0,0,1,.5-1.4Zm-.709,4.083-.514.045a8.769,8.769,0,0,1,0-1.485l.514.044A8.036,8.036,0,0,0,395.323,837.9Z"/><path class="d" d="M407.733,837.188a4.469,4.469,0,0,1-.148,1.141l-.214-.057a4.225,4.225,0,0,0,.125-1.456l.22-.019C407.728,836.927,407.733,837.057,407.733,837.188Zm-.416-1.877-.2.094a4.178,4.178,0,0,0-.839-1.2l-.031-.031.154-.159.033.033A4.435,4.435,0,0,1,407.317,835.311Zm-.379,4.413a4.486,4.486,0,0,1-1.085,1.091l-.127-.181a4.27,4.27,0,0,0,1.03-1.036Zm-1.806-6.575-.091.2a4.169,4.169,0,0,0-1.415-.364l.017-.22A4.421,4.421,0,0,1,405.132,833.149Zm-.671,8.32a4.4,4.4,0,0,1-1.163.155c-.123,0-.246-.005-.368-.015l.018-.22c.116.009.233.014.35.014a4.208,4.208,0,0,0,1.105-.147Zm-2.29-8.342a4.16,4.16,0,0,0-1.318.629l-.129-.18a4.4,4.4,0,0,1,1.388-.662Zm-.637,7.891-.092.2a4.406,4.406,0,0,1-1.264-.877l.156-.156A4.21,4.21,0,0,0,401.534,841.018Zm-1.707-6.221a4.176,4.176,0,0,0-.608,1.329l-.214-.055a4.39,4.39,0,0,1,.64-1.4Zm-.339,4.2-.2.095a4.433,4.433,0,0,1-.406-1.484l.22-.021A4.189,4.189,0,0,0,399.488,838.992Z"/><path class="d" d="M404.448,836.039a1.626,1.626,0,1,1-2.3,0A1.625,1.625,0,0,1,404.448,836.039Z"/><path class="d" d="M398.388,853.815a1.841,1.841,0,0,1-2.532,1.706,19.636,19.636,0,0,1-3.443-1.812,19.779,19.779,0,0,1-5.636-27.4,1.841,1.841,0,1,1,3.073,2.027,16.031,16.031,0,0,0-2.356,5.781,16.285,16.285,0,0,0,0,6.153,16.031,16.031,0,0,0,2.356,5.781,16.271,16.271,0,0,0,4.591,4.59,16.021,16.021,0,0,0,2.8,1.473A1.84,1.84,0,0,1,398.388,853.815Z"/><path class="d" d="M423.079,837.188a19.849,19.849,0,0,1-1.449,7.443,19.664,19.664,0,0,1-1.812,3.443,19.981,19.981,0,0,1-2.533,3.1,1.841,1.841,0,0,1-2.6-2.6,16.189,16.189,0,0,0,2.064-2.527,16.021,16.021,0,0,0,2.356-5.779,16.249,16.249,0,0,0,0-6.154,16.015,16.015,0,0,0-.884-2.982,1.841,1.841,0,0,1,3.412-1.384,19.86,19.86,0,0,1,1.449,7.442Z"/><path class="d" d="M475.974,837.188a18.5,18.5,0,0,1-35.63,6.959l1.023-.415a17.4,17.4,0,0,0,32.23,0,17.534,17.534,0,0,0,0-13.087,17.4,17.4,0,0,0-32.23,0l-1.023-.415a18.492,18.492,0,0,1,35.63,6.958Z"/><path class="d" d="M446.637,849.874a1.841,1.841,0,0,1-3.142,1.3,19.8,19.8,0,0,1-4.239-21.687,1.841,1.841,0,0,1,3.392,1.433,16.222,16.222,0,0,0,0,12.533,16.028,16.028,0,0,0,3.45,5.117A1.833,1.833,0,0,1,446.637,849.874Z"/><path class="d" d="M472.008,849.874a1.835,1.835,0,0,1-.539,1.3,19.72,19.72,0,0,1-13.987,5.794,1.841,1.841,0,1,1,0-3.682,16.041,16.041,0,0,0,11.384-4.715,1.84,1.84,0,0,1,3.142,1.3Z"/><path class="d" d="M472.008,824.5a1.84,1.84,0,0,1-3.142,1.3,16.115,16.115,0,0,0-17.65-3.451,1.841,1.841,0,0,1-1.434-3.391,19.763,19.763,0,0,1,21.687,4.239A1.834,1.834,0,0,1,472.008,824.5Z"/><rect class="d" width="35.879" height="1.104" transform="translate(444.406 849.483) rotate(-45)"/><rect class="d" width="1.104" height="35.879" transform="translate(444.406 824.894) rotate(-45)"/><circle class="d" cx="13.617" cy="13.617" r="13.617" transform="translate(443.865 823.571)"/><path class="d" d="M526.087,837.957a18.46,18.46,0,1,1-18.461-18.46A18.482,18.482,0,0,1,526.087,837.957Zm-35.816,0A17.355,17.355,0,1,0,507.626,820.6,17.375,17.375,0,0,0,490.271,837.957Z"/><path class="d" d="M518.806,837.957a11.18,11.18,0,1,1-22.359,0h.516a10.666,10.666,0,0,0,20.489,4.151,10.747,10.747,0,0,0,0-8.3,10.627,10.627,0,0,0-2.285-3.39l.364-.364a11.149,11.149,0,0,1,3.275,7.9Z"/><path class="d" d="M522.341,837.01a.553.553,0,0,1-1.1.036c-.015-.237-.037-.472-.064-.7a.547.547,0,0,1,.483-.614.553.553,0,0,1,.613.483q.045.378.071.762Zm-.025,2.205a.419.419,0,0,1,0,.049q-.033.383-.086.76a.552.552,0,1,1-1.094-.155c.033-.232.059-.466.08-.7a.552.552,0,0,1,1.1.048Zm-.471-5.1a.552.552,0,0,1-1.084.149q-.1-.342-.209-.676a.552.552,0,0,1,1.046-.353c.082.241.157.484.226.731A.551.551,0,0,1,521.845,834.113Zm-.088,7.987a.534.534,0,0,1-.024.162q-.112.367-.243.727a.552.552,0,1,1-1.038-.377q.121-.333.225-.673a.552.552,0,0,1,1.08.161Zm-1-10.72a.552.552,0,0,1-1.041.257q-.164-.314-.344-.616a.553.553,0,1,1,.951-.563q.193.328.371.667A.543.543,0,0,1,520.759,831.38Zm-.148,13.43a.548.548,0,0,1-.069.267q-.186.336-.388.66a.552.552,0,1,1-.937-.584q.186-.3.358-.61a.553.553,0,0,1,1.036.267Zm-1.477-15.877a.552.552,0,0,1-.979.351c-.15-.182-.3-.359-.463-.533a.552.552,0,0,1,.815-.746c.172.189.34.381.5.578A.548.548,0,0,1,519.134,828.933Zm-.2,18.29a.552.552,0,0,1-.134.361c-.167.193-.338.381-.515.565a.552.552,0,1,1-.8-.763c.163-.171.321-.345.475-.524a.553.553,0,0,1,.971.361Zm-1.889-20.352a.552.552,0,0,1-.9.431c-.184-.148-.372-.29-.564-.428a.552.552,0,0,1,.645-.9q.311.223.609.462A.553.553,0,0,1,517.041,826.871Zm-.25,22.367a.551.551,0,0,1-.217.439q-.3.232-.618.449a.552.552,0,1,1-.625-.911q.291-.2.572-.415a.553.553,0,0,1,.774.1A.547.547,0,0,1,516.791,849.238Zm-2.223-23.958a.552.552,0,0,1-.8.493c-.21-.106-.424-.207-.64-.3a.552.552,0,1,1,.445-1.011q.351.154.692.327A.552.552,0,0,1,514.568,825.28Zm-.283,25.492a.552.552,0,0,1-.314.5q-.344.164-.7.311a.552.552,0,1,1-.425-1.02c.218-.091.433-.186.645-.288a.552.552,0,0,1,.736.261A.54.54,0,0,1,514.285,850.772Zm-2.466-26.537a.534.534,0,0,1-.019.142.553.553,0,0,1-.676.392q-.34-.09-.687-.163a.552.552,0,1,1,.226-1.081q.377.078.745.177A.552.552,0,0,1,511.819,824.235Zm-.3,27.52a.552.552,0,0,1-.424.536q-.369.09-.747.16a.552.552,0,0,1-.2-1.086c.233-.043.464-.093.692-.147a.551.551,0,0,1,.666.407A.532.532,0,0,1,511.517,851.755Zm-2.6-27.972v.028a.554.554,0,0,1-.58.524c-.235-.013-.47-.019-.708-.019a.54.54,0,0,1-.057,0,.437.437,0,0,1-.052,0c-.238,0-.473.01-.708.024a.552.552,0,1,1-.065-1.1c.253-.015.507-.024.764-.026.021,0,.041,0,.062,0a.508.508,0,0,1,.056,0q.384,0,.765.02A.552.552,0,0,1,508.915,823.783Zm-.311,28.36a.553.553,0,0,1-.536.552c-.146.005-.293.007-.442.007l-.322,0a.542.542,0,0,1-.541-.564.553.553,0,0,1,.564-.541l.3,0q.205,0,.408-.006a.552.552,0,0,1,.569.535Zm-2.932-.215a.658.658,0,0,1-.008.1.553.553,0,0,1-.641.447q-.378-.068-.75-.154a.553.553,0,1,1,.252-1.076c.228.054.459.1.692.143A.551.551,0,0,1,505.672,851.928Zm-.529-27.838a.553.553,0,0,1-.433.539c-.232.051-.461.107-.689.169a.552.552,0,1,1-.29-1.066c.244-.066.492-.127.741-.182a.552.552,0,0,1,.658.421A.542.542,0,0,1,505.143,824.09Zm-2.3,27.025a.545.545,0,0,1-.041.207.552.552,0,0,1-.719.3q-.355-.145-.7-.306a.552.552,0,0,1,.467-1c.213.1.43.194.65.283A.554.554,0,0,1,502.847,851.115Zm-.495-26.1a.55.55,0,0,1-.325.5c-.214.1-.427.2-.636.308a.553.553,0,0,1-.505-.983q.338-.174.686-.331a.552.552,0,0,1,.78.5Zm-2.1,24.72a.552.552,0,0,1-.861.458c-.212-.143-.419-.291-.623-.444a.552.552,0,0,1,.664-.883q.282.213.576.411A.553.553,0,0,1,500.251,849.731Zm-.437-23.242a.551.551,0,0,1-.226.447c-.191.139-.377.283-.56.431a.552.552,0,0,1-.7-.857c.2-.161.4-.316.606-.467a.553.553,0,0,1,.771.121A.546.546,0,0,1,499.814,826.489ZM498,847.844a.553.553,0,0,1-.949.384q-.266-.273-.518-.561a.552.552,0,1,1,.831-.728c.155.177.315.351.48.52A.551.551,0,0,1,498,847.844Zm-.365-19.385a.55.55,0,0,1-.142.369c-.157.176-.311.355-.459.538a.552.552,0,1,1-.858-.7c.16-.2.326-.391.5-.58a.552.552,0,0,1,.963.369Zm-1.455,17.077a.552.552,0,0,1-1.019.3c-.136-.215-.267-.434-.391-.657a.552.552,0,0,1,.962-.54q.174.308.362.6A.555.555,0,0,1,496.177,845.536Zm-.277-14.7a.547.547,0,0,1-.075.277q-.177.3-.34.621a.552.552,0,0,1-.982-.5q.176-.342.367-.671a.552.552,0,0,1,1.03.278Zm-1.028,12.07a.552.552,0,0,1-1.07.192q-.132-.357-.247-.722a.552.552,0,0,1,1.053-.333c.071.226.148.45.23.67A.57.57,0,0,1,494.872,842.905Zm-.178-9.388a.583.583,0,0,1-.027.173q-.111.335-.2.677a.552.552,0,1,1-1.065-.29c.067-.247.14-.492.22-.733a.552.552,0,0,1,1.076.173Zm-.553,6.542a.553.553,0,0,1-1.1.081q-.055-.378-.092-.76a.552.552,0,1,1,1.1-.1c.023.237.051.47.086.7A.576.576,0,0,1,494.141,840.059Zm-.069-3.671a.4.4,0,0,1,0,.061q-.037.351-.059.706a.553.553,0,0,1-.584.519.543.543,0,0,1-.518-.584c.014-.255.036-.509.063-.761a.553.553,0,0,1,1.1.059Z"/><g class="c"><path class="d" d="M488.227,826.727l19.4,11.23V815.539A22.4,22.4,0,0,0,488.227,826.727Z"/></g><path class="d" d="M507.627,835.341a2.616,2.616,0,1,1-2.617,2.616A2.616,2.616,0,0,1,507.627,835.341Z"/></g></g></svg>