<svg xmlns="http://www.w3.org/2000/svg" xmlns:xlink="http://www.w3.org/1999/xlink" width="106" height="230" viewBox="0 0 106 230"><defs><style>.a{clip-path:url(#b);}.b{opacity:0.2;}.c{fill:#fff;}.d{opacity:0.95;}.e{opacity:0.9;}.f{opacity:0.8;}.g{opacity:0.7;}.h{opacity:0.6;}.i{opacity:0.5;}.j{opacity:0.4;}.k{opacity:0.3;}</style><clipPath id="b"><rect width="106" height="230"/></clipPath></defs><g id="a" class="a"><g class="b" transform="translate(-1580.398 -181.06)"><path class="c" d="M1593.933,187.828a6.768,6.768,0,1,1-6.768-6.768A6.776,6.776,0,0,1,1593.933,187.828Zm-12.763,0a6,6,0,1,0,5.995-6A6,6,0,0,0,1581.17,187.828Z"/><path class="c" d="M1593.933,209.179a6.768,6.768,0,1,1-6.768-6.768A6.776,6.776,0,0,1,1593.933,209.179Zm-12.763,0a6,6,0,1,0,5.995-6A6,6,0,0,0,1581.17,209.179Z"/><path class="c" d="M1593.933,230.53a6.768,6.768,0,1,1-6.768-6.768A6.776,6.776,0,0,1,1593.933,230.53Zm-12.763,0a6,6,0,1,0,5.995-6A6,6,0,0,0,1581.17,230.53Z"/><g class="d"><path class="c" d="M1593.933,251.881a6.768,6.768,0,1,1-6.768-6.768A6.776,6.776,0,0,1,1593.933,251.881Zm-12.763,0a6,6,0,1,0,5.995-5.995A6,6,0,0,0,1581.17,251.881Z"/></g><g class="e"><circle class="c" cx="6.381" cy="6.381" r="6.381" transform="translate(1580.784 266.85)"/><path class="c" d="M1593.933,273.232a6.768,6.768,0,1,1-6.768-6.768A6.776,6.776,0,0,1,1593.933,273.232Zm-12.763,0a6,6,0,1,0,5.995-5.995A6,6,0,0,0,1581.17,273.232Z"/></g><g class="f"><circle class="c" cx="6.381" cy="6.381" r="6.381" transform="translate(1580.784 288.201)"/><path class="c" d="M1593.933,294.583a6.768,6.768,0,1,1-6.768-6.768A6.776,6.776,0,0,1,1593.933,294.583Zm-12.763,0a6,6,0,1,0,5.995-5.995A6,6,0,0,0,1581.17,294.583Z"/></g><g class="g"><circle class="c" cx="6.381" cy="6.381" r="6.381" transform="translate(1580.784 309.553)"/><path class="c" d="M1593.933,315.934a6.768,6.768,0,1,1-6.768-6.768A6.776,6.776,0,0,1,1593.933,315.934Zm-12.763,0a6,6,0,1,0,5.995-5.995A6,6,0,0,0,1581.17,315.934Z"/></g><g class="h"><path class="c" d="M1587.166,343.667a6.382,6.382,0,1,0-6.382-6.382A6.381,6.381,0,0,0,1587.166,343.667Z"/><path class="c" d="M1593.933,337.285a6.768,6.768,0,1,1-6.768-6.768A6.776,6.776,0,0,1,1593.933,337.285Zm-12.763,0a6,6,0,1,0,5.995-5.995A6,6,0,0,0,1581.17,337.285Z"/></g><g class="i"><path class="c" d="M1587.166,365.018a6.382,6.382,0,1,0-6.382-6.382A6.381,6.381,0,0,0,1587.166,365.018Z"/><path class="c" d="M1593.933,358.636a6.768,6.768,0,1,1-6.768-6.768A6.776,6.776,0,0,1,1593.933,358.636Zm-12.763,0a6,6,0,1,0,5.995-5.995A6,6,0,0,0,1581.17,358.636Z"/></g><g class="j"><circle class="c" cx="6.381" cy="6.381" r="6.381" transform="translate(1580.784 373.606)"/><path class="c" d="M1593.933,379.987a6.768,6.768,0,1,1-6.768-6.767A6.776,6.776,0,0,1,1593.933,379.987Zm-12.763,0a6,6,0,1,0,5.995-5.995A6,6,0,0,0,1581.17,379.987Z"/></g><g class="k"><circle class="c" cx="6.381" cy="6.381" r="6.381" transform="translate(1580.784 394.957)"/><path class="c" d="M1593.933,401.339a6.768,6.768,0,1,1-6.768-6.768A6.776,6.776,0,0,1,1593.933,401.339Zm-12.763,0a6,6,0,1,0,5.995-6A6,6,0,0,0,1581.17,401.339Z"/></g><path class="c" d="M1612.125,187.828a6.768,6.768,0,1,1-6.768-6.768A6.777,6.777,0,0,1,1612.125,187.828Zm-12.764,0a6,6,0,1,0,6-6A6,6,0,0,0,1599.361,187.828Z"/><path class="c" d="M1612.125,209.179a6.768,6.768,0,1,1-6.768-6.768A6.776,6.776,0,0,1,1612.125,209.179Zm-12.764,0a6,6,0,1,0,6-6A6,6,0,0,0,1599.361,209.179Z"/><path class="c" d="M1612.125,230.53a6.768,6.768,0,1,1-6.768-6.768A6.776,6.776,0,0,1,1612.125,230.53Zm-12.764,0a6,6,0,1,0,6-6A6,6,0,0,0,1599.361,230.53Z"/><g class="d"><path class="c" d="M1612.125,251.881a6.768,6.768,0,1,1-6.768-6.768A6.776,6.776,0,0,1,1612.125,251.881Zm-12.764,0a6,6,0,1,0,6-5.995A6,6,0,0,0,1599.361,251.881Z"/></g><g class="e"><path class="c" d="M1612.125,273.232a6.768,6.768,0,1,1-6.768-6.768A6.776,6.776,0,0,1,1612.125,273.232Zm-12.764,0a6,6,0,1,0,6-5.995A6,6,0,0,0,1599.361,273.232Z"/></g><g class="f"><path class="c" d="M1612.125,294.583a6.768,6.768,0,1,1-6.768-6.768A6.776,6.776,0,0,1,1612.125,294.583Zm-12.764,0a6,6,0,1,0,6-5.995A6,6,0,0,0,1599.361,294.583Z"/></g><g class="g"><path class="c" d="M1612.125,315.934a6.768,6.768,0,1,1-6.768-6.768A6.776,6.776,0,0,1,1612.125,315.934Zm-12.764,0a6,6,0,1,0,6-5.995A6,6,0,0,0,1599.361,315.934Z"/></g><g class="h"><path class="c" d="M1605.357,343.667a6.382,6.382,0,1,0-6.382-6.382A6.381,6.381,0,0,0,1605.357,343.667Z"/><path class="c" d="M1612.125,337.285a6.768,6.768,0,1,1-6.768-6.768A6.776,6.776,0,0,1,1612.125,337.285Zm-12.764,0a6,6,0,1,0,6-5.995A6,6,0,0,0,1599.361,337.285Z"/></g><g class="i"><path class="c" d="M1605.357,365.018a6.382,6.382,0,1,0-6.382-6.382A6.381,6.381,0,0,0,1605.357,365.018Z"/><path class="c" d="M1612.125,358.636a6.768,6.768,0,1,1-6.768-6.768A6.776,6.776,0,0,1,1612.125,358.636Zm-12.764,0a6,6,0,1,0,6-5.995A6,6,0,0,0,1599.361,358.636Z"/></g><g class="j"><path class="c" d="M1605.357,386.369a6.382,6.382,0,1,0-6.382-6.382A6.381,6.381,0,0,0,1605.357,386.369Z"/><path class="c" d="M1612.125,379.987a6.768,6.768,0,1,1-6.768-6.767A6.776,6.776,0,0,1,1612.125,379.987Zm-12.764,0a6,6,0,1,0,6-5.995A6,6,0,0,0,1599.361,379.987Z"/></g><g class="k"><path class="c" d="M1605.357,407.72a6.382,6.382,0,1,0-6.382-6.382A6.381,6.381,0,0,0,1605.357,407.72Z"/><path class="c" d="M1612.125,401.339a6.768,6.768,0,1,1-6.768-6.768A6.777,6.777,0,0,1,1612.125,401.339Zm-12.764,0a6,6,0,1,0,6-6A6,6,0,0,0,1599.361,401.339Z"/></g><path class="c" d="M1630.316,187.828a6.768,6.768,0,1,1-6.768-6.768A6.776,6.776,0,0,1,1630.316,187.828Zm-12.763,0a5.995,5.995,0,1,0,5.995-6A6,6,0,0,0,1617.553,187.828Z"/><path class="c" d="M1630.316,209.179a6.768,6.768,0,1,1-6.768-6.768A6.776,6.776,0,0,1,1630.316,209.179Zm-12.763,0a5.995,5.995,0,1,0,5.995-6A6,6,0,0,0,1617.553,209.179Z"/><circle class="c" cx="6.382" cy="6.382" r="6.382" transform="translate(1617.166 224.148)"/><path class="c" d="M1630.316,230.53a6.768,6.768,0,1,1-6.768-6.768A6.776,6.776,0,0,1,1630.316,230.53Zm-12.763,0a5.995,5.995,0,1,0,5.995-6A6,6,0,0,0,1617.553,230.53Z"/><g class="d"><path class="c" d="M1623.548,258.262a6.382,6.382,0,1,0-6.382-6.381A6.381,6.381,0,0,0,1623.548,258.262Z"/><path class="c" d="M1630.316,251.881a6.768,6.768,0,1,1-6.768-6.768A6.776,6.776,0,0,1,1630.316,251.881Zm-12.763,0a5.995,5.995,0,1,0,5.995-5.995A6,6,0,0,0,1617.553,251.881Z"/></g><g class="e"><circle class="c" cx="6.381" cy="6.381" r="6.381" transform="translate(1617.166 266.85)"/><path class="c" d="M1630.316,273.232a6.768,6.768,0,1,1-6.768-6.768A6.776,6.776,0,0,1,1630.316,273.232Zm-12.763,0a5.995,5.995,0,1,0,5.995-5.995A6,6,0,0,0,1617.553,273.232Z"/></g><g class="f"><circle class="c" cx="6.381" cy="6.381" r="6.381" transform="translate(1617.166 288.201)"/><path class="c" d="M1630.316,294.583a6.768,6.768,0,1,1-6.768-6.768A6.776,6.776,0,0,1,1630.316,294.583Zm-12.763,0a5.995,5.995,0,1,0,5.995-5.995A6,6,0,0,0,1617.553,294.583Z"/></g><g class="g"><circle class="c" cx="6.381" cy="6.381" r="6.381" transform="translate(1617.166 309.553)"/><path class="c" d="M1630.316,315.934a6.768,6.768,0,1,1-6.768-6.768A6.776,6.776,0,0,1,1630.316,315.934Zm-12.763,0a5.995,5.995,0,1,0,5.995-5.995A6,6,0,0,0,1617.553,315.934Z"/></g><g class="h"><path class="c" d="M1623.548,343.667a6.382,6.382,0,1,0-6.382-6.382A6.381,6.381,0,0,0,1623.548,343.667Z"/><path class="c" d="M1630.316,337.285a6.768,6.768,0,1,1-6.768-6.768A6.776,6.776,0,0,1,1630.316,337.285Zm-12.763,0a5.995,5.995,0,1,0,5.995-5.995A6,6,0,0,0,1617.553,337.285Z"/></g><g class="i"><path class="c" d="M1623.548,365.018a6.382,6.382,0,1,0-6.382-6.382A6.381,6.381,0,0,0,1623.548,365.018Z"/><path class="c" d="M1630.316,358.636a6.768,6.768,0,1,1-6.768-6.768A6.776,6.776,0,0,1,1630.316,358.636Zm-12.763,0a5.995,5.995,0,1,0,5.995-5.995A6,6,0,0,0,1617.553,358.636Z"/></g><g class="j"><circle class="c" cx="6.381" cy="6.381" r="6.381" transform="translate(1617.166 373.606)"/><path class="c" d="M1630.316,379.987a6.768,6.768,0,1,1-6.768-6.767A6.776,6.776,0,0,1,1630.316,379.987Zm-12.763,0a5.995,5.995,0,1,0,5.995-5.995A6,6,0,0,0,1617.553,379.987Z"/></g><g class="k"><circle class="c" cx="6.381" cy="6.381" r="6.381" transform="translate(1617.166 394.957)"/><path class="c" d="M1630.316,401.339a6.768,6.768,0,1,1-6.768-6.768A6.776,6.776,0,0,1,1630.316,401.339Zm-12.763,0a5.995,5.995,0,1,0,5.995-6A6,6,0,0,0,1617.553,401.339Z"/></g><path class="c" d="M1648.506,187.828a6.768,6.768,0,1,1-6.768-6.768A6.776,6.776,0,0,1,1648.506,187.828Zm-12.762,0a5.995,5.995,0,1,0,5.994-6A6,6,0,0,0,1635.744,187.828Z"/><path class="c" d="M1648.506,209.179a6.768,6.768,0,1,1-6.768-6.768A6.776,6.776,0,0,1,1648.506,209.179Zm-12.762,0a5.995,5.995,0,1,0,5.994-6A6,6,0,0,0,1635.744,209.179Z"/><path class="c" d="M1648.506,230.53a6.768,6.768,0,1,1-6.768-6.768A6.776,6.776,0,0,1,1648.506,230.53Zm-12.762,0a5.995,5.995,0,1,0,5.994-6A6,6,0,0,0,1635.744,230.53Z"/><g class="d"><path class="c" d="M1648.506,251.881a6.768,6.768,0,1,1-6.768-6.768A6.776,6.776,0,0,1,1648.506,251.881Zm-12.762,0a5.995,5.995,0,1,0,5.994-5.995A6,6,0,0,0,1635.744,251.881Z"/></g><g class="e"><path class="c" d="M1648.506,273.232a6.768,6.768,0,1,1-6.768-6.768A6.776,6.776,0,0,1,1648.506,273.232Zm-12.762,0a5.995,5.995,0,1,0,5.994-5.995A6,6,0,0,0,1635.744,273.232Z"/></g><g class="f"><path class="c" d="M1648.506,294.583a6.768,6.768,0,1,1-6.768-6.768A6.776,6.776,0,0,1,1648.506,294.583Zm-12.762,0a5.995,5.995,0,1,0,5.994-5.995A6,6,0,0,0,1635.744,294.583Z"/></g><g class="g"><path class="c" d="M1648.506,315.934a6.768,6.768,0,1,1-6.768-6.768A6.776,6.776,0,0,1,1648.506,315.934Zm-12.762,0a5.995,5.995,0,1,0,5.994-5.995A6,6,0,0,0,1635.744,315.934Z"/></g><g class="h"><path class="c" d="M1648.506,337.285a6.768,6.768,0,1,1-6.768-6.768A6.776,6.776,0,0,1,1648.506,337.285Zm-12.762,0a5.995,5.995,0,1,0,5.994-5.995A6,6,0,0,0,1635.744,337.285Z"/></g><g class="i"><path class="c" d="M1641.739,365.018a6.382,6.382,0,1,0-6.382-6.382A6.381,6.381,0,0,0,1641.739,365.018Z"/><path class="c" d="M1648.506,358.636a6.768,6.768,0,1,1-6.768-6.768A6.776,6.776,0,0,1,1648.506,358.636Zm-12.762,0a5.995,5.995,0,1,0,5.994-5.995A6,6,0,0,0,1635.744,358.636Z"/></g><g class="j"><path class="c" d="M1641.739,386.369a6.382,6.382,0,1,0-6.382-6.382A6.381,6.381,0,0,0,1641.739,386.369Z"/><path class="c" d="M1648.506,379.987a6.768,6.768,0,1,1-6.768-6.767A6.776,6.776,0,0,1,1648.506,379.987Zm-12.762,0a5.995,5.995,0,1,0,5.994-5.995A6,6,0,0,0,1635.744,379.987Z"/></g><g class="k"><path class="c" d="M1641.739,407.72a6.382,6.382,0,1,0-6.382-6.382A6.381,6.381,0,0,0,1641.739,407.72Z"/><path class="c" d="M1648.506,401.339a6.768,6.768,0,1,1-6.768-6.768A6.776,6.776,0,0,1,1648.506,401.339Zm-12.762,0a5.995,5.995,0,1,0,5.994-6A6,6,0,0,0,1635.744,401.339Z"/></g><path class="c" d="M1666.7,187.828a6.768,6.768,0,1,1-6.768-6.768A6.777,6.777,0,0,1,1666.7,187.828Zm-12.764,0a6,6,0,1,0,6-6A6,6,0,0,0,1653.934,187.828Z"/><path class="c" d="M1666.7,209.179a6.768,6.768,0,1,1-6.768-6.768A6.776,6.776,0,0,1,1666.7,209.179Zm-12.764,0a6,6,0,1,0,6-6A6,6,0,0,0,1653.934,209.179Z"/><path class="c" d="M1666.7,230.53a6.768,6.768,0,1,1-6.768-6.768A6.776,6.776,0,0,1,1666.7,230.53Zm-12.764,0a6,6,0,1,0,6-6A6,6,0,0,0,1653.934,230.53Z"/><g class="d"><path class="c" d="M1666.7,251.881a6.768,6.768,0,1,1-6.768-6.768A6.776,6.776,0,0,1,1666.7,251.881Zm-12.764,0a6,6,0,1,0,6-5.995A6,6,0,0,0,1653.934,251.881Z"/></g><g class="e"><path class="c" d="M1666.7,273.232a6.768,6.768,0,1,1-6.768-6.768A6.776,6.776,0,0,1,1666.7,273.232Zm-12.764,0a6,6,0,1,0,6-5.995A6,6,0,0,0,1653.934,273.232Z"/></g><g class="f"><path class="c" d="M1666.7,294.583a6.768,6.768,0,1,1-6.768-6.768A6.776,6.776,0,0,1,1666.7,294.583Zm-12.764,0a6,6,0,1,0,6-5.995A6,6,0,0,0,1653.934,294.583Z"/></g><g class="g"><path class="c" d="M1666.7,315.934a6.768,6.768,0,1,1-6.768-6.768A6.776,6.776,0,0,1,1666.7,315.934Zm-12.764,0a6,6,0,1,0,6-5.995A6,6,0,0,0,1653.934,315.934Z"/></g><g class="h"><path class="c" d="M1666.7,337.285a6.768,6.768,0,1,1-6.768-6.768A6.776,6.776,0,0,1,1666.7,337.285Zm-12.764,0a6,6,0,1,0,6-5.995A6,6,0,0,0,1653.934,337.285Z"/></g><g class="i"><path class="c" d="M1666.7,358.636a6.768,6.768,0,1,1-6.768-6.768A6.776,6.776,0,0,1,1666.7,358.636Zm-12.764,0a6,6,0,1,0,6-5.995A6,6,0,0,0,1653.934,358.636Z"/></g><g class="j"><path class="c" d="M1666.7,379.987a6.768,6.768,0,1,1-6.768-6.767A6.776,6.776,0,0,1,1666.7,379.987Zm-12.764,0a6,6,0,1,0,6-5.995A6,6,0,0,0,1653.934,379.987Z"/></g><g class="k"><circle class="c" cx="6.381" cy="6.381" r="6.381" transform="translate(1653.548 394.957)"/><path class="c" d="M1666.7,401.339a6.768,6.768,0,1,1-6.768-6.768A6.777,6.777,0,0,1,1666.7,401.339Zm-12.764,0a6,6,0,1,0,6-6A6,6,0,0,0,1653.934,401.339Z"/></g><path class="c" d="M1684.889,187.828a6.768,6.768,0,1,1-6.768-6.768A6.776,6.776,0,0,1,1684.889,187.828Zm-12.764,0a6,6,0,1,0,6-6A6,6,0,0,0,1672.125,187.828Z"/><path class="c" d="M1684.889,209.179a6.768,6.768,0,1,1-6.768-6.768A6.776,6.776,0,0,1,1684.889,209.179Zm-12.764,0a6,6,0,1,0,6-6A6,6,0,0,0,1672.125,209.179Z"/><path class="c" d="M1684.889,230.53a6.768,6.768,0,1,1-6.768-6.768A6.776,6.776,0,0,1,1684.889,230.53Zm-12.764,0a6,6,0,1,0,6-6A6,6,0,0,0,1672.125,230.53Z"/><g class="d"><path class="c" d="M1684.889,251.881a6.768,6.768,0,1,1-6.768-6.768A6.776,6.776,0,0,1,1684.889,251.881Zm-12.764,0a6,6,0,1,0,6-5.995A6,6,0,0,0,1672.125,251.881Z"/></g><g class="e"><path class="c" d="M1684.889,273.232a6.768,6.768,0,1,1-6.768-6.768A6.776,6.776,0,0,1,1684.889,273.232Zm-12.764,0a6,6,0,1,0,6-5.995A6,6,0,0,0,1672.125,273.232Z"/></g><g class="f"><path class="c" d="M1678.121,300.964a6.382,6.382,0,1,0-6.382-6.381A6.381,6.381,0,0,0,1678.121,300.964Z"/><path class="c" d="M1684.889,294.583a6.768,6.768,0,1,1-6.768-6.768A6.776,6.776,0,0,1,1684.889,294.583Zm-12.764,0a6,6,0,1,0,6-5.995A6,6,0,0,0,1672.125,294.583Z"/></g><g class="g"><path class="c" d="M1678.121,322.316a6.382,6.382,0,1,0-6.382-6.382A6.381,6.381,0,0,0,1678.121,322.316Z"/><path class="c" d="M1684.889,315.934a6.768,6.768,0,1,1-6.768-6.768A6.776,6.776,0,0,1,1684.889,315.934Zm-12.764,0a6,6,0,1,0,6-5.995A6,6,0,0,0,1672.125,315.934Z"/></g><g class="h"><path class="c" d="M1678.121,343.667a6.382,6.382,0,1,0-6.382-6.382A6.381,6.381,0,0,0,1678.121,343.667Z"/><path class="c" d="M1684.889,337.285a6.768,6.768,0,1,1-6.768-6.768A6.776,6.776,0,0,1,1684.889,337.285Zm-12.764,0a6,6,0,1,0,6-5.995A6,6,0,0,0,1672.125,337.285Z"/></g><g class="i"><path class="c" d="M1678.121,365.018a6.382,6.382,0,1,0-6.382-6.382A6.381,6.381,0,0,0,1678.121,365.018Z"/><path class="c" d="M1684.889,358.636a6.768,6.768,0,1,1-6.768-6.768A6.776,6.776,0,0,1,1684.889,358.636Zm-12.764,0a6,6,0,1,0,6-5.995A6,6,0,0,0,1672.125,358.636Z"/></g><g class="j"><path class="c" d="M1678.121,386.369a6.382,6.382,0,1,0-6.382-6.382A6.381,6.381,0,0,0,1678.121,386.369Z"/><path class="c" d="M1684.889,379.987a6.768,6.768,0,1,1-6.768-6.767A6.776,6.776,0,0,1,1684.889,379.987Zm-12.764,0a6,6,0,1,0,6-5.995A6,6,0,0,0,1672.125,379.987Z"/></g><g class="k"><path class="c" d="M1678.121,407.72a6.382,6.382,0,1,0-6.382-6.382A6.381,6.381,0,0,0,1678.121,407.72Z"/><path class="c" d="M1684.889,401.339a6.768,6.768,0,1,1-6.768-6.768A6.776,6.776,0,0,1,1684.889,401.339Zm-12.764,0a6,6,0,1,0,6-6A6,6,0,0,0,1672.125,401.339Z"/></g></g></g></svg>