<svg xmlns="http://www.w3.org/2000/svg" xmlns:xlink="http://www.w3.org/1999/xlink" width="1228" height="700" viewBox="0 0 1228 700"><defs><style>.a{clip-path:url(#b);}.b,.d{fill:none;stroke:#fff;stroke-miterlimit:10;}.b,.c{opacity:0.1;}</style><clipPath id="b"><rect width="1228" height="700"/></clipPath></defs><g id="a" class="a"><g transform="translate(-240 -86.542)"><g transform="translate(458.001 694.818)"><path class="b" d="M539.108,764.5c3.77,7.434,13.221,10.208,21.532,9.579s16.22-3.822,24.466-5.033c27.876-4.1,53.387,14.374,80.043,23.5,4.321,1.48,9.237,2.682,13.3.607,4.346-2.217,6.259-7.763,5.331-12.552s-4.168-8.842-7.907-11.975c-14.824-12.418-37.694-12.913-50.685-27.237-5.389-5.943-8.408-13.627-12.993-20.211-5.892-8.46-14.618-15.113-24.623-17.6s-21.23-.515-29.221,6c-9.385,7.649-12.535,20.241-16.576,31.654-2.355,6.65-3.428,9.938-4.454,16.363l1.782,6.906" transform="translate(-537.326 -702.54)"/><path class="b" d="M549.017,757.742c3.81,5.667,12.259,8.342,19.474,8.465s13.9-1.649,21.019-1.955c24.062-1.035,47.632,14.172,71.55,22.665,3.877,1.377,8.255,2.593,11.664,1.368,3.641-1.309,4.925-5.208,3.781-8.755s-4.256-6.719-7.741-9.257c-13.813-10.062-33.823-12.015-46.168-23.336-5.121-4.7-8.294-10.494-12.757-15.6a48.237,48.237,0,0,0-22.733-14.512c-8.912-2.506-18.579-1.854-25.105,2.324-7.664,4.908-9.538,13.844-12.272,21.86a43.217,43.217,0,0,0-2.75,11.587l2.038,5.146" transform="translate(-537.326 -702.54)"/><path class="b" d="M565.027,751.135c3.731,3.62,10.847,6.1,16.673,7.016s11,.7,16.7,1.358c19.259,2.229,40.017,13.5,60.272,21.05,3.284,1.224,6.952,2.417,9.554,2.128,2.779-.308,3.359-2.343,2.023-4.463s-4.212-4.261-7.315-6.09c-12.3-7.249-28.643-10.679-39.907-18.462-4.674-3.229-7.9-6.847-12.1-10.228a65.078,65.078,0,0,0-20-10.784c-7.471-2.444-15.18-3.208-19.949-1.629-5.6,1.855-6.066,6.642-7.332,10.813a14.267,14.267,0,0,0-.862,6.171l2.242,3.12" transform="translate(-537.326 -702.54)"/><ellipse class="b" cx="4.241" cy="11.615" rx="4.241" ry="11.615" transform="translate(37.599 44.504) rotate(-80.917)"/></g><g transform="translate(1202.417 703.26)"><path class="b" d="M1403.39,743.546c-2.808-6.527-10.7-9.4-17.805-9.307s-14,2.381-21.085,2.969c-23.937,1.987-44.649-15.1-66.838-24.294-3.6-1.49-7.714-2.777-11.287-1.23-3.816,1.653-5.742,6.268-5.209,10.393s3.071,7.746,6.084,10.612c11.945,11.361,31.376,13.01,41.659,25.895,4.266,5.345,6.422,12.045,9.969,17.893,4.559,7.514,11.625,13.643,20,16.3s18.035,1.579,25.184-3.534c8.4-6,11.752-16.547,15.8-26.04a66.941,66.941,0,0,0,4.667-13.682l-1.145-5.971" transform="translate(-1281.079 -710.983)"/><path class="b" d="M1394.6,748.763c-2.937-5.026-9.982-7.756-16.114-8.247s-11.915.656-17.987.534c-20.528-.412-39.764-14.615-59.657-23.126-3.224-1.379-6.884-2.65-9.85-1.79-3.168.918-4.47,4.166-3.687,7.245s3.26,5.945,6.089,8.292c11.211,9.3,28.13,12.039,38.025,22.333,4.1,4.27,6.493,9.373,10.016,13.957a41.12,41.12,0,0,0,18.561,13.568c7.448,2.611,15.708,2.576,21.485-.629,6.783-3.764,8.858-11.266,11.615-17.939a36.866,36.866,0,0,0,2.961-9.71l-1.457-4.488" transform="translate(-1281.079 -710.983)"/><path class="b" d="M1380.621,753.524c-2.98-3.28-8.9-5.776-13.808-6.864s-9.324-1.186-14.136-2.053c-16.265-2.93-33.321-13.634-50.148-21.146-2.728-1.217-5.784-2.429-8.014-2.323-2.381.113-2.984,1.813-1.961,3.689s3.355,3.851,5.9,5.573c10.075,6.828,23.8,10.625,32.961,17.851,3.8,3,6.358,6.25,9.742,9.352a55.478,55.478,0,0,0,16.439,10.249c6.224,2.48,12.743,3.544,16.884,2.457,4.864-1.277,5.518-5.325,6.819-8.806a12.17,12.17,0,0,0,1.065-5.2l-1.74-2.776" transform="translate(-1281.079 -710.983)"/><ellipse class="b" cx="3.615" cy="9.902" rx="3.615" ry="9.902" transform="translate(69.993 48.191) rotate(-77.305)"/></g><g transform="translate(1134.935 577.778)"><path class="b" d="M1213.838,643.653c-.979,10.836,7.04,21.765,17.671,24.084,8,1.744,16.291-.937,24.463-.495,10.264.556,19.554,5.941,29.371,8.989s22.09,3.064,28.613-4.88c9.335-11.368.119-28.9,4.423-42.968,1.651-5.4,5.217-9.952,8.443-14.582s6.261-9.72,6.581-15.353-2.956-11.842-8.472-13.03a15.65,15.65,0,0,0-7.538.688c-24.608,7.064-41.072,31.338-65.335,39.506-13.39,4.507-32.077,4.172-37.885,16.537Z" transform="translate(-1213.757 -585.197)"/><path class="b" d="M1328.689,596.994a9.068,9.068,0,0,1,.012,1.187c-.254,4.483-2.91,8.863-5.743,12.928-.428.614-.863,1.228-1.3,1.842-3.016,4.258-6.135,8.662-7.785,14.055-1.715,5.607-1.556,11.556-1.175,16.634.1,1.389.232,2.781.358,4.168.121,1.326.242,2.648.341,3.958.546,7.264.221,12.574-3.083,16.6-3.382,4.119-11.352,7.168-23.578,3.371-3.05-.947-6.041-2.13-9.208-3.382-6.707-2.654-13.642-5.4-21.3-5.812a69.046,69.046,0,0,0-10.936.541c-4.543.471-8.835.916-12.779.055-7.4-1.613-13.416-8.7-14-16.49a15.6,15.6,0,0,1-.006-2.287l.141-.634c3.381-6.458,12.6-8.415,22.348-10.486a114.294,114.294,0,0,0,12.566-3.165c12.529-4.217,22.942-12.342,33.013-20.2,10.452-8.155,20.324-15.857,32.119-19.243a11.653,11.653,0,0,1,5.247-.611c2.79.6,4.529,4.041,4.75,6.973Z" transform="translate(-1213.757 -585.197)"/><path class="b" d="M1323.993,597.347a4.362,4.362,0,0,1,.007.57c-.188,3.31-2.469,7-4.905,10.5-.4.577-.813,1.156-1.223,1.735l-.055.078c-3.081,4.349-6.572,9.28-8.444,15.4-1.944,6.355-1.782,12.85-1.367,18.365.106,1.415.235,2.831.364,4.244l.009.094c.116,1.269.231,2.534.325,3.788.542,7.2-.007,10.8-2.026,13.255-2.3,2.8-8.536,4.971-18.542,1.863-2.883-.9-5.792-2.045-8.872-3.264-7.057-2.792-14.354-5.678-22.783-6.135a72.767,72.767,0,0,0-11.675.559c-4.157.431-8.083.838-11.29.139-5.353-1.168-9.881-6.545-10.31-12.243-.024-.328-.034-.657-.03-.982,2.742-4.056,10.55-5.714,18.794-7.465a117.923,117.923,0,0,0,13.092-3.309c13.291-4.474,24.026-12.85,34.407-20.95,10.084-7.867,19.606-15.295,30.522-18.429a9.27,9.27,0,0,1,2.88-.544A4.524,4.524,0,0,1,1323.993,597.347Z" transform="translate(-1213.757 -585.197)"/><path class="b" d="M1318.354,600.654a40.265,40.265,0,0,1-3.123,5.072c-.378.541-.763,1.086-1.149,1.632l-.1.145c-3.127,4.416-7.014,9.9-9.108,16.747-2.172,7.1-2.007,14.144-1.56,20.1.108,1.439.239,2.881.371,4.319l.01.109c.113,1.235.226,2.472.318,3.7.53,7.05-.193,8.967-.97,9.913s-4.911,3.025-13.507.356c-2.714-.843-5.542-1.962-8.536-3.147-7.407-2.93-15.067-5.96-24.26-6.458a76.443,76.443,0,0,0-12.413.577c-3.774.391-7.335.76-9.8.222-2.991-.652-5.75-3.7-6.461-6.937,2.765-1.971,9.408-3.382,14.89-4.546A121.651,121.651,0,0,0,1256.566,639c14.049-4.729,25.1-13.354,35.8-21.7C1301.123,610.468,1309.442,603.977,1318.354,600.654Z" transform="translate(-1213.757 -585.197)"/><path class="b" d="M1254.486,647.251a65.742,65.742,0,0,1,35.072,7.023,13.176,13.176,0,0,0,4.189,1.634,3.956,3.956,0,0,0,3.953-1.6c.693-1.186.45-2.672.232-4.029a59.2,59.2,0,0,1,3.871-32.163,88.5,88.5,0,0,1-39.333,23.2c-2.923.811-6.271,1.772-7.539,4.527" transform="translate(-1213.757 -585.197)"/><path class="b" d="M1281.721,643.452a21.7,21.7,0,0,0,4.854.477,1.569,1.569,0,0,0,1.165-.3,1.6,1.6,0,0,0,.356-.868l.549-2.877a4.767,4.767,0,0,0,.095-2,1.627,1.627,0,0,0-1.351-1.308c-1.354-.08-1.729,1.811-2.609,2.842-.949,1.111-4.581,1.528-3.076,3.794Z" transform="translate(-1213.757 -585.197)"/></g><g transform="translate(240 477.094)"><path class="b" d="M483.769,517.817c-30.744-9.662-58.34-29.973-90.411-33.139-4.765-.47-9.788-.5-14.079,1.621-8.264,4.091-10.954,14.411-12.256,23.54-3.347,23.46-3.53,47.409-8.972,70.472s-17.215,46.021-37.683,57.962c0,0-4.835,15.232,8.224,24.729,0,0,17.808,3.562,22.556-10.684,0,0,1.188-18.995,23.744-11.872,0,0,33.241,0,45.113,16.621" transform="translate(-319.493 -484.417)"/><g transform="translate(47.456 30.467)"><path class="b" d="M410.463,522.728c-6.253-2.334-11.592-2.744-15.838,1.223s-6.071,9.816-7.729,15.386L374.2,581.992c-1.068,3.588-2.032,7.818.244,10.79,2.156,2.816,6.168,3.134,9.61,3.994a24.394,24.394,0,0,1,15.3,11.829c2.322,4.258,3.339,9.18,6.024,13.218a18.985,18.985,0,0,0,15.036,8.323c3.308.09,6.83-.835,9.024-3.313,4.545-5.133,1.223-13.029-1.422-19.354-3.976-9.508-5.965-19.982-4.674-30.207.929-7.354,3.507-14.387,5.136-21.618s2.255-15.034-.619-21.866-7.782-8.614-17.395-11.06" transform="translate(-366.948 -514.884)"/><path class="b" d="M414.627,635.414h0A25.247,25.247,0,0,1,400.3,625.2a42.766,42.766,0,0,1-4.091-8.567A43.688,43.688,0,0,0,394,611.523a18.335,18.335,0,0,0-11.139-8.76l-.284-.073c-.576-.144-1.17-.27-1.767-.4-.93-.2-1.866-.4-2.776-.646a15.107,15.107,0,0,1-8.429-5.159c-4.376-5.715-2.262-12.82-1.246-16.234l6.347-21.327,6.346-21.327c1.71-5.746,3.839-12.9,9.409-18.1,4.761-4.447,10.956-5.687,18.413-3.684,1.09.292,2.206.649,3.4,1.086.718.183,1.408.363,2.075.543,8.168,2.193,15.245,4.759,19.125,13.982,2.939,6.986,3.249,15.35.946,25.569-.628,2.79-1.383,5.526-2.113,8.172a92.38,92.38,0,0,0-2.921,12.871c-1.075,8.505.4,17.873,4.25,27.092,2.973,7.108,7.429,17.764.362,25.746-3.153,3.561-8.165,5.517-13.753,5.366A24.209,24.209,0,0,1,414.627,635.414Zm-28.6-44.425a30.325,30.325,0,0,1,18.681,14.7,53.453,53.453,0,0,1,2.882,6.564,32.676,32.676,0,0,0,2.866,6.2,12.9,12.9,0,0,0,7.335,5.191h0a12.07,12.07,0,0,0,2.789.413c1.886.05,3.572-.444,4.294-1.26,2-2.255-.578-8.411-2.458-12.906-4.7-11.239-6.462-22.762-5.121-33.378a103.22,103.22,0,0,1,3.264-14.589c.725-2.623,1.409-5.1,1.973-7.6,1.725-7.657,1.63-13.6-.291-18.163-1.435-3.412-3.146-4.814-11.049-6.936-.713-.192-1.456-.384-2.231-.581l-.319-.082-.308-.115c-.939-.35-1.821-.636-2.619-.851-4.337-1.164-5.85-.188-6.927.818-3.153,2.947-4.691,8.113-6.048,12.671L386.392,562.4l-6.347,21.327c-1.292,4.344-.859,5.215-.759,5.346.028.036.319.368,1.911.8.709.19,1.439.343,2.163.5s1.466.315,2.175.492Z" transform="translate(-366.948 -514.884)"/><path class="b" d="M409.441,536.218a7.081,7.081,0,0,0-7.151,3.441c-1.355,2.258-1.6,4.942-1.964,7.528a65.686,65.686,0,0,1-6.546,20.6c-1.984,3.881-4.383,8.3-2.245,12.385a16.175,16.175,0,0,0,3.952,4.362L409.049,596.3c1.386-1.646.05-4.052-.85-6.078-3.785-8.523.986-17.336,3.541-25.8a51.519,51.519,0,0,0,1.744-21.384c-.316-2.488-1.381-5.545-4.172-6.145" transform="translate(-366.948 -514.884)"/><ellipse class="b" cx="15.634" cy="1.82" rx="15.634" ry="1.82" transform="translate(31.865 62.49) rotate(-74.967)"/></g></g><g transform="translate(888.627 319.71)"><path class="b" d="M1035.812,341.035c-.16-4.426-1.266-7.8-4.778-9.4s-7.561-1.225-11.4-.824l-29.375,3.066c-2.471.258-5.309.743-6.553,2.894-1.178,2.038-.352,4.578,0,6.907a16.188,16.188,0,0,1-3.361,12.384c-2.02,2.507-4.778,4.382-6.571,7.055a12.6,12.6,0,0,0-1.278,11.333,7.663,7.663,0,0,0,4.326,4.69c4.3,1.48,8.3-2.564,11.5-5.794a39.549,39.549,0,0,1,17.328-10.547c4.744-1.3,9.712-1.51,14.558-2.35s9.79-2.441,13.247-5.94,3.3-6.961,2.356-13.476" transform="translate(-967.654 -326.415)"/><path class="b" d="M967.794,372.245h0a16.754,16.754,0,0,1,2.619-11.379,28.392,28.392,0,0,1,4.211-4.687,28.946,28.946,0,0,0,2.57-2.653,12.163,12.163,0,0,0,2.537-9.056l-.027-.193c-.058-.389-.133-.786-.206-1.184-.114-.621-.228-1.246-.31-1.866a10.026,10.026,0,0,1,1.019-6.479c2.39-4.136,7.283-4.647,9.635-4.892l14.687-1.534,14.688-1.533c3.957-.413,8.881-.927,13.489,1.164,3.937,1.787,6.272,5.269,6.941,10.35.1.742.163,1.517.2,2.362.07.486.136.955.2,1.41.733,5.564.96,10.555-3.707,15.279-3.535,3.578-8.584,5.895-15.433,7.083-1.87.324-3.74.557-5.547.782a61.456,61.456,0,0,0-8.633,1.483,35.494,35.494,0,0,0-15.526,9.5c-3.6,3.629-9,9.071-15.69,6.769a11.617,11.617,0,0,1-6.787-7.066A16.1,16.1,0,0,1,967.794,372.245Zm19.959-28.831a20.127,20.127,0,0,1-4.259,15.189,35.415,35.415,0,0,1-3.291,3.436,21.664,21.664,0,0,0-3.07,3.333,8.566,8.566,0,0,0-1.317,5.817h0a7.968,7.968,0,0,0,.457,1.815,3.887,3.887,0,0,0,1.864,2.312c1.89.65,5.009-2.493,7.286-4.789a43.617,43.617,0,0,1,19.158-11.628,68.4,68.4,0,0,1,9.773-1.709c1.792-.223,3.485-.434,5.164-.725,5.133-.89,8.75-2.459,11.06-4.8,1.726-1.747,2.15-3.152,1.442-8.536-.064-.486-.136-.99-.212-1.516l-.031-.216-.008-.218c-.024-.665-.072-1.278-.144-1.822-.389-2.955-1.372-3.634-2.263-4.038-2.608-1.184-6.166-.813-9.305-.485l-14.688,1.533L990.682,337.9c-2.991.312-3.415.8-3.47.894-.015.027-.145.289,0,1.374.064.483.156.969.245,1.453s.179.978.251,1.458Z" transform="translate(-967.654 -326.415)"/><path class="b" d="M1027.283,343.839a4.7,4.7,0,0,0-3.928-3.508,13.045,13.045,0,0,0-5.115.71,43.572,43.572,0,0,1-14.294,1.227c-2.883-.229-6.2-.577-8.163,1.774a10.742,10.742,0,0,0-1.669,3.532l-3.76,11.3c1.361.431,2.5-1,3.51-2.067,4.262-4.488,10.877-3.8,16.715-4.39a34.193,34.193,0,0,0,13.552-4.369c1.445-.827,3.048-2.257,2.705-4.12" transform="translate(-967.654 -326.415)"/><ellipse class="b" cx="10.376" cy="1.208" rx="10.376" ry="1.208" transform="translate(31.697 21.376) rotate(-7.5)"/></g><g transform="translate(857.982 616.485)"><g class="c"><path class="d" d="M1041.09,671.405c0,15.077-26.075,20.359-53.675,20.359s-49.972-12.223-49.972-27.3-5.389-40.256,22.21-40.256S1041.09,656.327,1041.09,671.405Z" transform="translate(-937.018 -624.208)"/><path class="d" d="M987.416,685.723c-12.354,0-23.874-2.577-32.44-7.257-7.3-3.989-11.492-9.093-11.492-14,0-2.157-.1-4.412-.2-6.8-.385-8.736-.822-18.637,3.844-23.513,2.513-2.625,6.611-3.9,12.529-3.9,11.435,0,30.281,6.718,48.013,17.115,20.487,12.013,27.383,21.539,27.383,24.041C1035.049,679.969,1015.906,685.723,987.416,685.723Z" transform="translate(-937.018 -624.208)"/><path class="d" d="M987.416,679.682c-11.36,0-21.852-2.314-29.544-6.517-5.766-3.15-8.347-6.639-8.347-8.7,0-2.292-.1-4.611-.21-7.065-.3-6.78-.708-16.061,2.174-19.071,1.276-1.333,4.1-2.038,8.164-2.038,10.279,0,28.345,6.544,44.957,16.285,15.939,9.346,22.456,16.647,24.151,19.248C1026.846,674.244,1015.193,679.682,987.416,679.682Z" transform="translate(-937.018 -624.208)"/><path class="d" d="M987.416,673.641c-10.365,0-19.829-2.051-26.647-5.777a15.465,15.465,0,0,1-5.206-4.075c-.017-2.192-.112-4.363-.213-6.65-.158-3.593-.516-11.714.488-14.429a14.654,14.654,0,0,1,3.815-.379c9.152,0,26.383,6.356,41.9,15.455,8.142,4.774,14.055,8.134,14.621,12.095C1014.477,672.992,1003.311,673.641,987.416,673.641Z" transform="translate(-937.018 -624.208)"/><path class="d" d="M992.414,661.669l-12.273-4.557a63.086,63.086,0,0,0-12.42-3.665c-1.389-.21-3.081-.2-3.863.969a2.685,2.685,0,0,0,.217,2.936,7.286,7.286,0,0,0,2.4,1.963,66.353,66.353,0,0,0,24.775,8.608c1.134.153,5.687-.183,6.2-1.208.486-.974-1.42-2.573-2.274-3.249s-2.382-.776-2.762-1.8" transform="translate(-937.018 -624.208)"/></g></g><g transform="translate(577.971 674.286)"><g class="c"><path class="d" d="M659.672,742.223c-8.617-10.614,6.72-29.233,26.148-45.006s42.162-19.955,50.779-9.341,26.8,25.257,7.371,41.03S668.288,752.836,659.672,742.223Z" transform="translate(-657.216 -682.008)"/><path class="d" d="M689.272,701.469c8.7-7.059,18.278-11.829,26.983-13.43,7.421-1.366,13.286-.167,16.091,3.289,1.233,1.518,2.592,3.049,4.03,4.67,5.263,5.929,11.229,12.65,10.731,18.748-.268,3.284-2.424,6.525-6.59,9.907-8.049,6.535-25.154,12.577-43.578,15.391-21.287,3.253-31.585.487-33.015-1.274C659.03,732.742,669.216,717.752,689.272,701.469Z" transform="translate(-657.216 -682.008)"/><path class="d" d="M692.724,705.722c8-6.492,16.705-10.859,24.521-12.3,5.86-1.078,9.671-.1,10.849,1.354,1.31,1.614,2.707,3.187,4.185,4.854,4.085,4.6,9.677,10.9,9.369,14.667-.136,1.667-1.721,3.776-4.583,6.1-7.235,5.874-23.693,11.592-40.953,14.229-16.561,2.53-25.321,1.115-28,.253C668.076,732.084,673.171,721.6,692.724,705.722Z" transform="translate(-657.216 -682.008)"/><path class="d" d="M696.177,709.974c7.295-5.923,15.13-9.887,22.059-11.161a14.016,14.016,0,0,1,5.993-.107c1.265,1.534,2.573,3.007,3.95,4.56,2.165,2.438,7.058,7.951,7.9,10.436a13.327,13.327,0,0,1-2.469,2.447c-6.443,5.23-22.2,10.6-38.328,13.066-8.46,1.293-14.542,2.306-17.2-.158C677.5,725.9,684.987,719.058,696.177,709.974Z" transform="translate(-657.216 -682.008)"/><path class="d" d="M699.5,721.258l11.244-3.806a57.174,57.174,0,0,0,10.837-4.518c1.1-.646,2.282-1.621,2.166-2.889a2.435,2.435,0,0,0-1.831-1.943,6.639,6.639,0,0,0-2.814-.009,60.145,60.145,0,0,0-22.358,8.1c-.887.54-3.9,3.379-3.673,4.391.215.964,2.47,1,3.458.988s2.12-.815,2.971-.314" transform="translate(-657.216 -682.008)"/></g></g><g class="c" transform="translate(1017.353 122.39)"><path class="d" d="M1187.324,130.274c12.324,8.724,1.555,33.094-14.414,55.655s-38.906,33.777-51.231,25.053-36.024-18.887-20.055-41.448S1175,121.55,1187.324,130.274Z" transform="translate(-1096.275 -128.516)"/><path class="d" d="M1167.972,182.433c-7.148,10.1-15.92,18.025-24.7,22.319-7.487,3.662-14.083,4.133-18.095,1.292-1.764-1.248-3.665-2.472-5.677-3.768-7.363-4.74-15.71-10.112-17-16.747-.692-3.573.636-7.662,4.06-12.5,6.616-9.348,23.012-20.866,41.771-29.345,21.674-9.8,33.45-9.921,35.5-8.473C1190.829,140.167,1184.457,159.144,1167.972,182.433Z" transform="translate(-1096.275 -128.516)"/><path class="d" d="M1163.034,178.938c-6.573,9.286-14.535,16.523-22.421,20.379-5.912,2.891-10.258,2.982-11.943,1.789-1.874-1.326-3.828-2.584-5.9-3.916-5.715-3.679-13.538-8.715-14.331-12.812-.352-1.815.706-4.53,3.058-7.853,5.947-8.4,21.75-19.384,39.324-27.327,16.862-7.622,26.6-8.723,29.708-8.6C1181.4,143.56,1179.106,156.232,1163.034,178.938Z" transform="translate(-1096.275 -128.516)"/><path class="d" d="M1158.1,175.443c-6,8.472-13.15,15.021-20.141,18.439a15.5,15.5,0,0,1-6.343,1.9c-1.8-1.255-3.632-2.433-5.559-3.674-3.029-1.95-9.874-6.356-11.513-8.748a14.729,14.729,0,0,1,1.9-3.338c5.3-7.481,20.46-17.888,36.877-25.309,8.614-3.893,14.782-6.782,18.347-4.953C1173.223,152.946,1167.293,162.45,1158.1,175.443Z" transform="translate(-1096.275 -128.516)"/><path class="d" d="M1151.2,164.43l-10.826,7.4a63.218,63.218,0,0,0-10.183,8.032c-.974,1.014-1.944,2.4-1.442,3.718a2.687,2.687,0,0,0,2.525,1.522,7.324,7.324,0,0,0,2.995-.828A66.442,66.442,0,0,0,1155.641,169c.782-.838,3.141-4.755,2.6-5.764-.516-.962-2.926-.328-3.973-.021s-2.013,1.5-3.067,1.218" transform="translate(-1096.275 -128.516)"/></g><g transform="translate(693.603 184.108)"><g class="c"><path class="d" d="M774.119,196.209c7.873-12.613,32.348-3.474,55.334,10.875s35.237,36.205,27.364,48.817-16.533,36.476-39.518,22.127S766.246,208.821,774.119,196.209Z" transform="translate(-772.766 -190.234)"/><path class="d" d="M826.3,212.137c10.288,6.422,18.538,14.567,23.228,22.935,4,7.135,4.822,13.582,2.259,17.688-1.126,1.805-2.222,3.743-3.381,5.794-4.241,7.508-9.048,16.017-15.48,17.67-3.463.89-7.543-.173-12.472-3.25-9.524-5.945-21.712-21.362-31.05-39.278-10.791-20.7-11.559-32.254-10.252-34.347C783.623,192.185,802.57,197.324,826.3,212.137Z" transform="translate(-772.766 -190.234)"/><path class="d" d="M823.144,217.19c9.461,5.9,16.99,13.3,21.2,20.811,3.158,5.633,3.485,9.894,2.409,11.618-1.2,1.918-2.323,3.91-3.515,6.02-3.291,5.826-7.8,13.8-11.769,14.822-1.759.452-4.478-.426-7.864-2.54-8.56-5.344-20.19-20.211-28.938-36.995-8.4-16.1-10.01-25.6-10.064-28.657C787.465,201.239,800.01,202.748,823.144,217.19Z" transform="translate(-772.766 -190.234)"/><path class="d" d="M819.99,222.243c8.632,5.389,15.442,12.025,19.176,18.686a15.217,15.217,0,0,1,2.207,6.115c-1.13,1.844-2.185,3.709-3.295,5.674-1.744,3.088-5.687,10.068-7.941,11.817a14.36,14.36,0,0,1-3.375-1.667c-7.623-4.758-18.654-19.033-26.827-34.712-4.288-8.227-7.458-14.112-5.861-17.719C797.112,208.717,806.751,213.979,819.99,222.243Z" transform="translate(-772.766 -190.234)"/><path class="d" d="M809.575,229.659l7.842,10.193a61.832,61.832,0,0,0,8.43,9.523c1.048.9,2.463,1.768,3.723,1.2A2.657,2.657,0,0,0,830.923,248a7.194,7.194,0,0,0-.976-2.892,64.979,64.979,0,0,0-16.139-20.08c-.865-.718-4.833-2.8-5.793-2.213-.913.563-.16,2.891.2,3.9s1.578,1.888,1.362,2.939" transform="translate(-772.766 -190.234)"/></g></g><g class="c" transform="translate(545.448 490.859)"><path class="d" d="M705.732,500.694c9.013,8.66-2.741,27.214-18.525,43.64s-35.885,22.723-44.9,14.063-27.147-19.915-11.364-36.342S696.719,492.033,705.732,500.694Z" transform="translate(-624.719 -498.001)"/><path class="d" d="M683.6,540.865c-7.064,7.352-15.193,12.729-22.89,15.139-6.562,2.056-12.008,1.617-14.942-1.2-1.29-1.24-2.7-2.476-4.182-3.785-5.443-4.789-11.611-10.216-11.858-15.794-.132-3,1.448-6.176,4.833-9.7,6.539-6.806,21.333-14.165,37.689-18.746,18.9-5.294,28.536-3.927,30.031-2.489C707.4,509.209,699.89,523.907,683.6,540.865Z" transform="translate(-624.719 -498.001)"/><path class="d" d="M679.985,537.4c-6.5,6.761-13.88,11.676-20.791,13.84-5.181,1.623-8.743,1.155-9.976-.029-1.37-1.317-2.814-2.588-4.344-3.933-4.223-3.717-10.005-8.8-10.157-12.248-.067-1.526,1.126-3.61,3.451-6.03,5.878-6.118,20.122-13.112,35.445-17.4,14.7-4.119,22.794-3.8,25.318-3.319C699.284,510.8,695.871,520.862,679.985,537.4Z" transform="translate(-624.719 -498.001)"/><path class="d" d="M676.374,533.925c-5.928,6.169-12.566,10.623-18.693,12.542a12.79,12.79,0,0,1-5.413.757c-1.32-1.249-2.673-2.439-4.1-3.693-2.239-1.969-7.3-6.421-8.347-8.578a12.055,12.055,0,0,1,1.955-2.489c5.234-5.447,18.887-12.052,33.2-16.061,7.51-2.1,12.9-3.693,15.591-1.755C691.462,517.445,685.464,524.464,676.374,533.925Z" transform="translate(-624.719 -498.001)"/><path class="d" d="M672.075,524.073l-9.743,4.687a51.926,51.926,0,0,0-9.294,5.288c-.919.706-1.88,1.719-1.63,2.855a2.233,2.233,0,0,0,1.879,1.557,6.021,6.021,0,0,0,2.549-.3,54.6,54.6,0,0,0,19.313-9.8c.741-.586,3.143-3.49,2.823-4.382-.3-.849-2.35-.632-3.243-.513s-1.827.972-2.654.612" transform="translate(-624.719 -498.001)"/></g><g transform="translate(689.912 574.947)"><path class="b" d="M769.176,618.627c-1.253,6.043,10.256,15.359,11.032,21,0,0,1.792,16.522,13.683,1.952,0,0,20.927-22.041,35.992-27.465,0,0,20.681-15.123,9.529-24.786,0,0-7.4-10.672-14.2-5.715s-18.889,28.748-32.506,28.424C792.706,612.039,770.43,612.583,769.176,618.627Z" transform="translate(-769.081 -582.302)"/><path class="b" d="M835.322,602.721a44.7,44.7,0,0,1-7.58,7.516c-15.775,6.065-36.157,27.409-37.028,28.327l-.114.119-.1.127c-2.557,3.132-4.077,4.04-4.673,4.3a10.493,10.493,0,0,1-1.261-3.968l-.014-.108c-.493-3.591-3.184-7.162-6.033-10.944-1.613-2.141-4.85-6.439-5.055-8.222,1.909-1.472,10.18-3.206,19.257-3.444,11.474.193,20.665-11.637,28.055-21.149,2.642-3.4,5.374-6.917,7.02-8.117a2.025,2.025,0,0,1,1.662-.438c2.364.391,5.309,3.618,6.365,5.12l.309.44.414.363c1.159,1.005,3.875,3.36-1.221,10.079Z" transform="translate(-769.081 -582.302)"/><path class="b" d="M831.831,600.073a39.865,39.865,0,0,1-6.323,6.343c-3.548,1.5-18.267,8.5-37.512,28.648-1.306-3.408-3.672-6.548-5.978-9.611-.964-1.279-1.718-2.317-2.306-3.159a73.084,73.084,0,0,1,13.034-1.489c13.612.165,23.52-12.589,31.486-22.841,1.593-2.051,3.836-4.937,5.256-6.437a14.638,14.638,0,0,1,2.747,2.832l.61.867.808.709c.088.076.192.166.267.237C833.877,596.529,833.6,597.741,831.831,600.073Z" transform="translate(-769.081 -582.302)"/></g><g transform="translate(1123.144 403.132)"><path class="b" d="M1284.264,466.308c6.707-3.394,6.84-21.43,11.625-26.453,0,0,14.375-14.253-8.531-14.514,0,0-36.881-3.194-53.487-13.423,0,0-30.106-8.212-30.841,9.746,0,0-4.544,15.152,5.341,17.863s41.721-3.839,51.752,9.375C1260.123,448.9,1277.556,469.7,1284.264,466.308Z" transform="translate(-1201.987 -410.044)"/><path class="b" d="M1218.889,415.391A54.477,54.477,0,0,1,1231.8,416.9c17.755,10.419,53.558,13.623,55.094,13.756l.2.017.2,0c4.924.057,6.943.815,7.641,1.187a12.79,12.79,0,0,1-2.821,4.215l-.093.094c-3.045,3.2-4.4,8.471-5.841,14.056-.815,3.162-2.45,9.509-3.992,11.057-2.852-.7-10.783-7.259-17.9-15.724-8.529-11.074-26.775-10.844-41.444-10.66-5.245.066-10.669.134-13.061-.522a2.466,2.466,0,0,1-1.68-1.25c-1.422-2.548-.585-7.8.044-9.949l.184-.628.031-.671c.077-1.867.257-6.241,10.526-6.491Z" transform="translate(-1201.987 -410.044)"/><path class="b" d="M1219.018,420.727a48.455,48.455,0,0,1,10.842,1.205c4.12,2.242,21.969,10.94,55.768,13.972-2.254,3.832-3.448,8.469-4.613,12.991-.487,1.89-.9,3.4-1.258,4.6a89.015,89.015,0,0,1-11.316-11.282c-10.178-13.089-29.849-12.841-45.661-12.642-3.163.039-7.615.1-10.122-.119a17.933,17.933,0,0,1,.611-4.767l.363-1.239.062-1.307c.006-.142.012-.31.023-.435C1214.089,421.469,1215.455,420.814,1219.018,420.727Z" transform="translate(-1201.987 -410.044)"/></g><g transform="translate(1150.747 86.542)"><path class="b" d="M1229.409,119.785s71.35-53.512,103.2-10.193c0,0,36.949,54.787,39.5,117.218,0,0,12.741,21.66,34.4,6.371,0,0,31.853-5.1,38.223,22.934,0,0,15.29,38.223,6.371,73.9,0,0-14.015,64.979,40.771,145.248" transform="translate(-1229.409 -92.668)"/><path class="b" d="M1358.094,98.125s29.305,42.046,35.675,81.543c0,0-5.1,24.208,6.371,26.756,0,0,10.193,1.274,17.837-2.548,0,0,35.675-8.919,44.594,17.838,0,0,24.208,66.253,17.837,101.928,0,0-14.015,76.447,66.254,216.6" transform="translate(-1229.409 -92.668)"/></g><g transform="translate(293.738 363.052)"><g transform="translate(0 6.982)"><path class="b" d="M415.981,377.164c-11.268-1.608-23.342,4.843-26.606,14.216-2.456,7.051-.3,14.667-1.408,21.963-1.39,9.163-7.759,17.127-11.723,25.721s-4.947,19.6,2.857,25.978c11.168,9.134,30.25,2.054,44.638,6.86,5.519,1.844,10.01,5.347,14.6,8.551s9.684,6.267,15.556,6.934,12.631-1.852,14.309-6.716a12.109,12.109,0,0,0-.127-6.8c-5.459-22.534-29.577-38.928-36.219-61.228-3.665-12.306-1.843-29.034-14.332-35.074Z" transform="translate(-373.231 -376.918)"/><path class="b" d="M455.791,483.259a11.024,11.024,0,0,1-1.244-.069c-4.673-.53-9.05-3.206-13.083-6.019-.609-.425-1.217-.856-1.826-1.287-4.221-2.99-8.586-6.083-14.1-7.925-5.736-1.916-11.976-2.174-17.324-2.174-1.462,0-2.929.019-4.391.04-1.4.019-2.791.038-4.171.038-7.648,0-13.182-.649-17.133-3.882-4.047-3.309-6.612-10.659-1.675-21.362,1.232-2.67,2.706-5.271,4.267-8.026,3.3-5.833,6.723-11.865,7.761-18.7a53.163,53.163,0,0,0,.3-9.839c-.136-4.105-.264-7.981.947-11.459,2.272-6.522,10.168-11.439,18.367-11.439a19.371,19.371,0,0,1,2.4.148l.652.169c6.495,3.467,7.819,11.862,9.219,20.74a89.5,89.5,0,0,0,2.325,11.477c3.429,11.515,11.116,21.4,18.55,30.954,7.714,9.918,15,19.287,17.618,30.088a9.024,9.024,0,0,1,.227,4.744c-.849,2.461-4.588,3.788-7.674,3.788Z" transform="translate(-373.231 -376.918)"/><path class="b" d="M455.792,479.026a5.227,5.227,0,0,1-.6-.032c-3.451-.392-7.138-2.685-10.608-5.1-.573-.4-1.146-.806-1.721-1.213l-.077-.054c-4.311-3.055-9.2-6.517-15.455-8.607-6.5-2.171-13.314-2.463-19.121-2.463-1.489,0-2.982.02-4.471.04l-.1,0c-1.338.018-2.671.036-3.992.036-7.586,0-11.3-.734-13.718-2.709-2.753-2.251-4.532-7.987-.492-16.747,1.164-2.524,2.6-5.054,4.117-7.733,3.478-6.137,7.074-12.484,8.216-20.008a56.038,56.038,0,0,0,.334-10.5c-.124-3.755-.242-7.3.743-10.13,1.644-4.719,7.63-8.416,13.629-8.416.346,0,.691.014,1.031.039,4.031,2.731,5.152,9.842,6.337,17.351a92.061,92.061,0,0,0,2.433,11.958c3.638,12.215,11.563,22.4,19.226,32.254,7.443,9.569,14.471,18.605,16.892,28.6a7.183,7.183,0,0,1,.343,2.618A5.276,5.276,0,0,1,455.792,479.026Z" transform="translate(-373.231 -376.918)"/><path class="b" d="M452.773,473.748a42.436,42.436,0,0,1-5.064-3.141c-.538-.375-1.078-.757-1.619-1.14l-.144-.1c-4.377-3.1-9.817-6.955-16.816-9.293-7.265-2.426-14.651-2.753-20.918-2.753-1.515,0-3.036.02-4.551.041l-.116,0c-1.3.018-2.605.036-3.9.036-7.423,0-9.373-.778-10.3-1.538s-2.78-4.6.692-12.132c1.1-2.375,2.49-4.835,3.966-7.439,3.65-6.442,7.425-13.1,8.67-21.311a58.929,58.929,0,0,0,.374-11.166c-.113-3.409-.219-6.626.539-8.8.918-2.637,4.322-4.9,7.771-5.324,1.847,2.611,2.8,8.661,3.588,13.654a95.123,95.123,0,0,0,2.543,12.439c3.845,12.912,12.006,23.4,19.9,33.55C443.854,457.641,449.995,465.536,452.773,473.748Z" transform="translate(-373.231 -376.918)"/><path class="b" d="M409.014,413.357A52.892,52.892,0,0,1,398.9,444.322a11.185,11.185,0,0,0-2.04,3.646,3.272,3.272,0,0,0,1.366,3.651c1.188.7,2.763.583,4.2.479a71.161,71.161,0,0,1,33.37,5.638A75.722,75.722,0,0,1,414.6,420.915c-.619-2.675-1.361-5.741-4.147-7.063" transform="translate(-373.231 -376.918)"/><path class="b" d="M410.848,438.027a16.965,16.965,0,0,0-.881,4.319,1.237,1.237,0,0,0,.217,1.064,1.785,1.785,0,0,0,.881.377l2.968.687a5.8,5.8,0,0,0,2.083.219,1.638,1.638,0,0,0,1.476-1.123c.189-1.208-1.76-1.671-2.77-2.53-1.09-.926-1.24-4.209-3.731-3.013Z" transform="translate(-373.231 -376.918)"/></g><g class="c" transform="translate(65.061)"><path class="d" d="M439.856,374.22c7.38-10.088,27.336-.913,45.721,12.539s27.305,32.534,19.924,42.622-16.117,29.56-34.5,16.108S432.475,384.307,439.856,374.22Z" transform="translate(-438.292 -369.936)"/><path class="d" d="M482.62,390.8c8.229,6.021,14.642,13.36,18.057,20.666,2.912,6.229,3.2,11.685.8,14.97-1.056,1.443-2.094,3-3.193,4.649-4.02,6.032-8.576,12.87-14.071,13.858-2.959.532-6.314-.612-10.257-3.5-7.617-5.574-16.882-19.254-23.6-34.853-7.767-18.023-7.7-27.757-6.472-29.431C448.072,371.434,463.641,376.914,482.62,390.8Z" transform="translate(-438.292 -369.936)"/><path class="d" d="M479.662,394.842c7.567,5.537,13.423,12.2,16.49,18.76,2.3,4.919,2.31,8.511,1.3,9.89-1.122,1.534-2.189,3.135-3.319,4.83-3.12,4.681-7.391,11.09-10.784,11.7-1.5.27-3.728-.634-6.436-2.616-6.847-5.01-15.679-18.194-21.976-32.808-6.043-14.021-6.809-22.083-6.665-24.649C450.734,379.262,461.158,381.3,479.662,394.842Z" transform="translate(-438.292 -369.936)"/><path class="d" d="M476.7,398.884c6.9,5.052,12.2,11.037,14.922,16.853A12.779,12.779,0,0,1,493.1,421c-1.062,1.475-2.061,2.974-3.114,4.553-1.653,2.481-5.39,8.089-7.388,9.416a12.043,12.043,0,0,1-2.727-1.606c-6.1-4.461-14.463-17.111-20.346-30.763-3.087-7.163-5.38-12.293-3.819-15.218C458.36,386.128,466.117,391.137,476.7,398.884Z" transform="translate(-438.292 -369.936)"/><path class="d" d="M467.514,404.458l5.945,9.031a51.951,51.951,0,0,0,6.48,8.506c.822.817,1.955,1.634,3.047,1.234a2.235,2.235,0,0,0,1.293-2.07,6.049,6.049,0,0,0-.64-2.485,54.6,54.6,0,0,0-12.29-17.834c-.68-.656-3.878-2.65-4.719-2.213-.8.415-.314,2.414-.076,3.282s1.207,1.681.96,2.549" transform="translate(-438.292 -369.936)"/></g></g></g></g></svg>