<svg xmlns="http://www.w3.org/2000/svg" xmlns:xlink="http://www.w3.org/1999/xlink" width="18" height="22" viewBox="0 0 18 22"><defs><clipPath id="b"><rect width="18" height="22"/></clipPath></defs><g id="a" clip-path="url(#b)"><g transform="translate(-845 -469)"><g transform="translate(845 469)"><path d="M1084.381,1632.713l1.509-1.342.426-.379,1.479-1.315v-.005h-12.154v10.307H1087.8v-.03l-1.465-1.3-.426-.379-1.524-1.355-.412-.367-1.949-1.733,1.935-1.721Z" transform="translate(-1070.795 -1627.212)" fill="#fff"/><path d="M1073.615,1629.639v17.166a.6.6,0,1,0,1.2,0v-17.166a1.291,1.291,0,1,0-1.2,0Z" transform="translate(-1070.988 -1627.212)" fill="#fff"/><path d="M1075.688,1645.761a.452.452,0,1,0-.24.871c.719.2,1.095.532,1.095.76,0,.374-.906.917-2.325.917s-2.326-.543-2.326-.917c0-.228.376-.562,1.1-.76a.452.452,0,0,0-.24-.871c-1.1.3-1.759.913-1.759,1.631,0,1.038,1.389,1.82,3.23,1.82s3.229-.782,3.229-1.82C1077.447,1646.674,1076.789,1646.064,1075.688,1645.761Z" transform="translate(-1070.988 -1627.212)" fill="#fff"/></g></g></g></svg>