<svg xmlns="http://www.w3.org/2000/svg" xmlns:xlink="http://www.w3.org/1999/xlink" width="1650" height="216" viewBox="0 0 1650 216"><defs><style>.a{clip-path:url(#bn);}.b{fill:#fff;opacity:0.2;}.c{filter:url(#bk);}.d{filter:url(#bi);}.e{filter:url(#bg);}.f{filter:url(#be);}.g{filter:url(#bc);}.h{filter:url(#ba);}.i{filter:url(#ay);}.j{filter:url(#aw);}.k{filter:url(#au);}.l{filter:url(#as);}.m{filter:url(#aq);}.n{filter:url(#ao);}.o{filter:url(#am);}.p{filter:url(#ak);}.q{filter:url(#ai);}.r{filter:url(#ag);}.s{filter:url(#ae);}.t{filter:url(#ac);}.u{filter:url(#aa);}.v{filter:url(#y);}.w{filter:url(#w);}.x{filter:url(#u);}.y{filter:url(#s);}.z{filter:url(#q);}.aa{filter:url(#o);}.ab{filter:url(#m);}.ac{filter:url(#k);}.ad{filter:url(#i);}.ae{filter:url(#g);}.af{filter:url(#e);}.ag{filter:url(#c);}.ah{filter:url(#a);}</style><filter id="a" x="1517.088" y="98.128" width="22.683" height="22.682" filterUnits="userSpaceOnUse"><feOffset input="SourceAlpha"/><feGaussianBlur stdDeviation="2.617" result="b"/><feFlood flood-color="#fff" flood-opacity="0.8"/><feComposite operator="in" in2="b"/><feComposite in="SourceGraphic"/></filter><filter id="c" x="1407.167" y="44.039" width="22.683" height="22.682" filterUnits="userSpaceOnUse"><feOffset input="SourceAlpha"/><feGaussianBlur stdDeviation="2.617" result="d"/><feFlood flood-color="#fff" flood-opacity="0.8"/><feComposite operator="in" in2="d"/><feComposite in="SourceGraphic"/></filter><filter id="e" x="1593.858" y="73.701" width="22.683" height="22.682" filterUnits="userSpaceOnUse"><feOffset input="SourceAlpha"/><feGaussianBlur stdDeviation="2.617" result="f"/><feFlood flood-color="#fff" flood-opacity="0.8"/><feComposite operator="in" in2="f"/><feComposite in="SourceGraphic"/></filter><filter id="g" x="1630.499" y="152.216" width="22.683" height="22.682" filterUnits="userSpaceOnUse"><feOffset input="SourceAlpha"/><feGaussianBlur stdDeviation="2.617" result="h"/><feFlood flood-color="#fff" flood-opacity="0.8"/><feComposite operator="in" in2="h"/><feComposite in="SourceGraphic"/></filter><filter id="i" x="1319.928" y="129.534" width="22.683" height="22.682" filterUnits="userSpaceOnUse"><feOffset input="SourceAlpha"/><feGaussianBlur stdDeviation="2.617" result="j"/><feFlood flood-color="#fff" flood-opacity="0.8"/><feComposite operator="in" in2="j"/><feComposite in="SourceGraphic"/></filter><filter id="k" x="1510.109" y="37.06" width="22.683" height="22.682" filterUnits="userSpaceOnUse"><feOffset input="SourceAlpha"/><feGaussianBlur stdDeviation="2.617" result="l"/><feFlood flood-color="#fff" flood-opacity="0.8"/><feComposite operator="in" in2="l"/><feComposite in="SourceGraphic"/></filter><filter id="m" x="1459.511" y="145.237" width="22.683" height="22.682" filterUnits="userSpaceOnUse"><feOffset input="SourceAlpha"/><feGaussianBlur stdDeviation="2.617" result="n"/><feFlood flood-color="#fff" flood-opacity="0.8"/><feComposite operator="in" in2="n"/><feComposite in="SourceGraphic"/></filter><filter id="o" x="1309.459" y="63.232" width="22.683" height="22.682" filterUnits="userSpaceOnUse"><feOffset input="SourceAlpha"/><feGaussianBlur stdDeviation="2.617" result="p"/><feFlood flood-color="#fff" flood-opacity="0.8"/><feComposite operator="in" in2="p"/><feComposite in="SourceGraphic"/></filter><filter id="q" x="1227.458" y="21.357" width="22.683" height="22.682" filterUnits="userSpaceOnUse"><feOffset input="SourceAlpha"/><feGaussianBlur stdDeviation="2.617" result="r"/><feFlood flood-color="#fff" flood-opacity="0.8"/><feComposite operator="in" in2="r"/><feComposite in="SourceGraphic"/></filter><filter id="s" x="1258.86" y="75.445" width="22.683" height="22.682" filterUnits="userSpaceOnUse"><feOffset input="SourceAlpha"/><feGaussianBlur stdDeviation="2.617" result="t"/><feFlood flood-color="#fff" flood-opacity="0.8"/><feComposite operator="in" in2="t"/><feComposite in="SourceGraphic"/></filter><filter id="u" x="1398.443" y="98.128" width="22.683" height="22.682" filterUnits="userSpaceOnUse"><feOffset input="SourceAlpha"/><feGaussianBlur stdDeviation="2.617" result="v"/><feFlood flood-color="#fff" flood-opacity="0.8"/><feComposite operator="in" in2="v"/><feComposite in="SourceGraphic"/></filter><filter id="w" x="314.933" y="91.148" width="22.682" height="22.682" filterUnits="userSpaceOnUse"><feOffset input="SourceAlpha"/><feGaussianBlur stdDeviation="2.617" result="x"/><feFlood flood-color="#fff" flood-opacity="0.8"/><feComposite operator="in" in2="x"/><feComposite in="SourceGraphic"/></filter><filter id="y" x="205.012" y="37.06" width="22.682" height="22.682" filterUnits="userSpaceOnUse"><feOffset input="SourceAlpha"/><feGaussianBlur stdDeviation="2.617" result="z"/><feFlood flood-color="#fff" flood-opacity="0.8"/><feComposite operator="in" in2="z"/><feComposite in="SourceGraphic"/></filter><filter id="aa" x="307.954" y="30.081" width="22.682" height="22.682" filterUnits="userSpaceOnUse"><feOffset input="SourceAlpha"/><feGaussianBlur stdDeviation="2.617" result="ab"/><feFlood flood-color="#fff" flood-opacity="0.8"/><feComposite operator="in" in2="ab"/><feComposite in="SourceGraphic"/></filter><filter id="ac" x="257.355" y="138.258" width="22.682" height="22.682" filterUnits="userSpaceOnUse"><feOffset input="SourceAlpha"/><feGaussianBlur stdDeviation="2.617" result="ad"/><feFlood flood-color="#fff" flood-opacity="0.8"/><feComposite operator="in" in2="ad"/><feComposite in="SourceGraphic"/></filter><filter id="ae" x="196.288" y="91.148" width="22.682" height="22.682" filterUnits="userSpaceOnUse"><feOffset input="SourceAlpha"/><feGaussianBlur stdDeviation="2.617" result="af"/><feFlood flood-color="#fff" flood-opacity="0.8"/><feComposite operator="in" in2="af"/><feComposite in="SourceGraphic"/></filter><filter id="ag" x="1518.833" y="98.128" width="22.683" height="22.682" filterUnits="userSpaceOnUse"><feOffset input="SourceAlpha"/><feGaussianBlur stdDeviation="2.617" result="ah"/><feFlood flood-color="#fff" flood-opacity="0.8"/><feComposite operator="in" in2="ah"/><feComposite in="SourceGraphic"/></filter><filter id="ai" x="1408.912" y="44.039" width="22.683" height="22.682" filterUnits="userSpaceOnUse"><feOffset input="SourceAlpha"/><feGaussianBlur stdDeviation="2.617" result="aj"/><feFlood flood-color="#fff" flood-opacity="0.8"/><feComposite operator="in" in2="aj"/><feComposite in="SourceGraphic"/></filter><filter id="ak" x="1595.604" y="73.701" width="22.683" height="22.682" filterUnits="userSpaceOnUse"><feOffset input="SourceAlpha"/><feGaussianBlur stdDeviation="2.617" result="al"/><feFlood flood-color="#fff" flood-opacity="0.8"/><feComposite operator="in" in2="al"/><feComposite in="SourceGraphic"/></filter><filter id="am" x="1632.244" y="152.216" width="22.683" height="22.682" filterUnits="userSpaceOnUse"><feOffset input="SourceAlpha"/><feGaussianBlur stdDeviation="2.617" result="an"/><feFlood flood-color="#fff" flood-opacity="0.8"/><feComposite operator="in" in2="an"/><feComposite in="SourceGraphic"/></filter><filter id="ao" x="1321.673" y="129.534" width="22.683" height="22.682" filterUnits="userSpaceOnUse"><feOffset input="SourceAlpha"/><feGaussianBlur stdDeviation="2.617" result="ap"/><feFlood flood-color="#fff" flood-opacity="0.8"/><feComposite operator="in" in2="ap"/><feComposite in="SourceGraphic"/></filter><filter id="aq" x="1511.854" y="37.06" width="22.683" height="22.682" filterUnits="userSpaceOnUse"><feOffset input="SourceAlpha"/><feGaussianBlur stdDeviation="2.617" result="ar"/><feFlood flood-color="#fff" flood-opacity="0.8"/><feComposite operator="in" in2="ar"/><feComposite in="SourceGraphic"/></filter><filter id="as" x="1461.255" y="145.237" width="22.683" height="22.682" filterUnits="userSpaceOnUse"><feOffset input="SourceAlpha"/><feGaussianBlur stdDeviation="2.617" result="at"/><feFlood flood-color="#fff" flood-opacity="0.8"/><feComposite operator="in" in2="at"/><feComposite in="SourceGraphic"/></filter><filter id="au" x="1311.204" y="63.232" width="22.683" height="22.682" filterUnits="userSpaceOnUse"><feOffset input="SourceAlpha"/><feGaussianBlur stdDeviation="2.617" result="av"/><feFlood flood-color="#fff" flood-opacity="0.8"/><feComposite operator="in" in2="av"/><feComposite in="SourceGraphic"/></filter><filter id="aw" x="1229.203" y="21.357" width="22.683" height="22.682" filterUnits="userSpaceOnUse"><feOffset input="SourceAlpha"/><feGaussianBlur stdDeviation="2.617" result="ax"/><feFlood flood-color="#fff" flood-opacity="0.8"/><feComposite operator="in" in2="ax"/><feComposite in="SourceGraphic"/></filter><filter id="ay" x="1260.605" y="75.445" width="22.683" height="22.682" filterUnits="userSpaceOnUse"><feOffset input="SourceAlpha"/><feGaussianBlur stdDeviation="2.617" result="az"/><feFlood flood-color="#fff" flood-opacity="0.8"/><feComposite operator="in" in2="az"/><feComposite in="SourceGraphic"/></filter><filter id="ba" x="1400.188" y="98.128" width="22.683" height="22.682" filterUnits="userSpaceOnUse"><feOffset input="SourceAlpha"/><feGaussianBlur stdDeviation="2.617" result="bb"/><feFlood flood-color="#fff" flood-opacity="0.8"/><feComposite operator="in" in2="bb"/><feComposite in="SourceGraphic"/></filter><filter id="bc" x="154.678" y="-7.852" width="22.682" height="22.682" filterUnits="userSpaceOnUse"><feOffset input="SourceAlpha"/><feGaussianBlur stdDeviation="2.617" result="bd"/><feFlood flood-color="#fff" flood-opacity="0.8"/><feComposite operator="in" in2="bd"/><feComposite in="SourceGraphic"/></filter><filter id="be" x="206.757" y="37.06" width="22.682" height="22.682" filterUnits="userSpaceOnUse"><feOffset input="SourceAlpha"/><feGaussianBlur stdDeviation="2.617" result="bf"/><feFlood flood-color="#fff" flood-opacity="0.8"/><feComposite operator="in" in2="bf"/><feComposite in="SourceGraphic"/></filter><filter id="bg" x="309.699" y="30.081" width="22.682" height="22.682" filterUnits="userSpaceOnUse"><feOffset input="SourceAlpha"/><feGaussianBlur stdDeviation="2.617" result="bh"/><feFlood flood-color="#fff" flood-opacity="0.8"/><feComposite operator="in" in2="bh"/><feComposite in="SourceGraphic"/></filter><filter id="bi" x="259.1" y="138.258" width="22.682" height="22.682" filterUnits="userSpaceOnUse"><feOffset input="SourceAlpha"/><feGaussianBlur stdDeviation="2.617" result="bj"/><feFlood flood-color="#fff" flood-opacity="0.8"/><feComposite operator="in" in2="bj"/><feComposite in="SourceGraphic"/></filter><filter id="bk" x="198.033" y="91.148" width="22.682" height="22.682" filterUnits="userSpaceOnUse"><feOffset input="SourceAlpha"/><feGaussianBlur stdDeviation="2.617" result="bl"/><feFlood flood-color="#fff" flood-opacity="0.8"/><feComposite operator="in" in2="bl"/><feComposite in="SourceGraphic"/></filter><clipPath id="bn"><rect width="1650" height="216"/></clipPath></defs><g id="bm" class="a"><g transform="translate(-30.327 7.57)"><circle class="b" cx="3.49" cy="3.49" r="3.49" transform="translate(1471.517 87.94)"/><circle class="b" cx="3.49" cy="3.49" r="3.49" transform="translate(1180.138 114.112)"/><circle class="b" cx="3.49" cy="3.49" r="3.49" transform="translate(1040.556 114.112)"/><g class="ah" transform="matrix(1, 0, 0, 1, 30.33, -7.57)"><circle class="b" cx="3.49" cy="3.49" r="3.49" transform="translate(1524.94 105.98)"/></g><g class="ag" transform="matrix(1, 0, 0, 1, 30.33, -7.57)"><circle class="b" cx="3.49" cy="3.49" r="3.49" transform="translate(1415.02 51.89)"/></g><g class="af" transform="matrix(1, 0, 0, 1, 30.33, -7.57)"><circle class="b" cx="3.49" cy="3.49" r="3.49" transform="translate(1601.71 81.55)"/></g><g class="ae" transform="matrix(1, 0, 0, 1, 30.33, -7.57)"><circle class="b" cx="3.49" cy="3.49" r="3.49" transform="translate(1638.35 160.07)"/></g><g class="ad" transform="matrix(1, 0, 0, 1, 30.33, -7.57)"><circle class="b" cx="3.49" cy="3.49" r="3.49" transform="translate(1327.78 137.39)"/></g><g class="ac" transform="matrix(1, 0, 0, 1, 30.33, -7.57)"><circle class="b" cx="3.49" cy="3.49" r="3.49" transform="translate(1517.96 44.91)"/></g><g class="ab" transform="matrix(1, 0, 0, 1, 30.33, -7.57)"><circle class="b" cx="3.49" cy="3.49" r="3.49" transform="translate(1467.36 153.09)"/></g><g class="aa" transform="matrix(1, 0, 0, 1, 30.33, -7.57)"><circle class="b" cx="3.49" cy="3.49" r="3.49" transform="translate(1317.31 71.08)"/></g><g class="z" transform="matrix(1, 0, 0, 1, 30.33, -7.57)"><circle class="b" cx="3.49" cy="3.49" r="3.49" transform="translate(1235.31 29.21)"/></g><g class="y" transform="matrix(1, 0, 0, 1, 30.33, -7.57)"><circle class="b" cx="3.49" cy="3.49" r="3.49" transform="translate(1266.71 83.3)"/></g><g class="x" transform="matrix(1, 0, 0, 1, 30.33, -7.57)"><circle class="b" cx="3.49" cy="3.49" r="3.49" transform="translate(1406.29 105.98)"/></g><circle class="b" cx="2.617" cy="2.617" r="2.617" transform="translate(1548.287 129.815)"/><circle class="b" cx="1.745" cy="1.745" r="1.745" transform="translate(1609.355 121.091)"/><circle class="b" cx="1.745" cy="1.745" r="1.745" transform="translate(1665.188 33.852)"/><circle class="b" cx="1.745" cy="1.745" r="1.745" transform="translate(1422.663 67.003)"/><circle class="b" cx="1.745" cy="1.745" r="1.745" transform="translate(1541.308 75.727)"/><circle class="b" cx="1.745" cy="1.745" r="1.745" transform="translate(1588.417 143.773)"/><circle class="b" cx="1.745" cy="1.745" r="1.745" transform="translate(1412.194 128.07)"/><circle class="b" cx="1.745" cy="1.745" r="1.745" transform="translate(1309.252 126.326)"/><circle class="b" cx="1.745" cy="1.745" r="1.745" transform="translate(1220.268 126.326)"/><circle class="b" cx="1.745" cy="1.745" r="1.745" transform="translate(1169.67 147.263)"/><circle class="b" cx="1.745" cy="1.745" r="1.745" transform="translate(1459.303 117.602)"/><circle class="b" cx="1.745" cy="1.745" r="1.745" transform="translate(1302.273 37.342)"/><circle class="b" cx="1.745" cy="1.745" r="1.745" transform="translate(1340.658 103.643)"/><circle class="b" cx="1.745" cy="1.745" r="1.745" transform="translate(1481.986 60.024)"/><circle class="b" cx="1.745" cy="1.745" r="1.745" transform="translate(1501.178 86.196)"/><circle class="b" cx="1.745" cy="1.745" r="1.745" transform="translate(1363.34 26.873)"/><circle class="b" cx="1.745" cy="1.745" r="1.745" transform="translate(1633.782 164.711)"/><circle class="b" cx="1.745" cy="1.745" r="1.745" transform="translate(1389.512 63.513)"/><circle class="b" cx="1.745" cy="1.745" r="1.745" transform="translate(1640.761 131.56)"/><circle class="b" cx="1.745" cy="1.745" r="1.745" transform="translate(1609.355 32.107)"/><circle class="b" cx="1.745" cy="1.745" r="1.745" transform="translate(1537.819 176.924)"/><circle class="b" cx="1.745" cy="1.745" r="1.745" transform="translate(1405.215 152.497)"/><circle class="b" cx="1.745" cy="1.745" r="1.745" transform="translate(1291.804 140.284)"/><circle class="b" cx="1.745" cy="1.745" r="1.745" transform="translate(1253.419 89.685)"/><circle class="b" cx="1.745" cy="1.745" r="1.745" transform="translate(1248.185 63.513)"/><circle class="b" cx="1.745" cy="1.745" r="1.745" transform="translate(1115.581 128.07)"/><circle class="b" cx="1.745" cy="1.745" r="1.745" transform="translate(878.291 23.383)"/><circle class="b" cx="1.745" cy="1.745" r="1.745" transform="translate(787.562 18.149)"/><circle class="b" cx="1.745" cy="1.745" r="1.745" transform="translate(1016.129 140.284)"/><circle class="b" cx="1.745" cy="1.745" r="1.745" transform="translate(963.785 133.305)"/><circle class="b" cx="2.617" cy="2.617" r="2.617" transform="translate(1565.735 173.435)"/><circle class="b" cx="2.617" cy="2.617" r="2.617" transform="translate(1457.559 149.008)"/><circle class="b" cx="2.617" cy="2.617" r="2.617" transform="translate(1284.825 108.878)"/><circle class="b" cx="2.617" cy="2.617" r="2.617" transform="translate(1518.626 65.258)"/><circle class="b" cx="2.617" cy="2.617" r="2.617" transform="translate(1504.668 30.363)"/><circle class="b" cx="2.617" cy="2.617" r="2.617" transform="translate(1567.48 68.748)"/><circle class="b" cx="1.745" cy="1.745" r="1.745" transform="translate(1597.141 56.534)"/><circle class="b" cx="1.745" cy="1.745" r="1.745" transform="translate(1600.631 98.409)"/><circle class="b" cx="1.745" cy="1.745" r="1.745" transform="translate(1384.278 94.92)"/><circle class="b" cx="1.745" cy="1.745" r="1.745" transform="translate(1654.719 108.878)"/><circle class="b" cx="1.745" cy="1.745" r="1.745" transform="translate(1611.099 162.966)"/><circle class="b" cx="1.745" cy="1.745" r="1.745" transform="translate(1659.953 204.841)"/><circle class="b" cx="2.617" cy="2.617" r="2.617" transform="translate(1511.647 107.133)"/><circle class="b" cx="3.49" cy="3.49" r="3.49" transform="translate(269.362 80.961)"/><g class="w" transform="matrix(1, 0, 0, 1, 30.33, -7.57)"><circle class="b" cx="3.49" cy="3.49" r="3.49" transform="translate(322.78 99)"/></g><g class="v" transform="matrix(1, 0, 0, 1, 30.33, -7.57)"><circle class="b" cx="3.49" cy="3.49" r="3.49" transform="translate(212.86 44.91)"/></g><g class="u" transform="matrix(1, 0, 0, 1, 30.33, -7.57)"><circle class="b" cx="3.49" cy="3.49" r="3.49" transform="translate(315.81 37.93)"/></g><g class="t" transform="matrix(1, 0, 0, 1, 30.33, -7.57)"><circle class="b" cx="3.49" cy="3.49" r="3.49" transform="translate(265.21 146.11)"/></g><g class="s" transform="matrix(1, 0, 0, 1, 30.33, -7.57)"><circle class="b" cx="3.49" cy="3.49" r="3.49" transform="translate(204.14 99)"/></g><circle class="b" cx="2.617" cy="2.617" r="2.617" transform="translate(346.132 122.836)"/><circle class="b" cx="1.745" cy="1.745" r="1.745" transform="translate(407.2 114.112)"/><circle class="b" cx="1.745" cy="1.745" r="1.745" transform="translate(220.508 60.024)"/><circle class="b" cx="1.745" cy="1.745" r="1.745" transform="translate(131.524 26.873)"/><circle class="b" cx="1.745" cy="1.745" r="1.745" transform="translate(339.153 68.748)"/><circle class="b" cx="1.745" cy="1.745" r="1.745" transform="translate(386.262 136.794)"/><circle class="b" cx="1.745" cy="1.745" r="1.745" transform="translate(210.039 121.091)"/><circle class="b" cx="1.745" cy="1.745" r="1.745" transform="translate(257.148 110.623)"/><circle class="b" cx="1.745" cy="1.745" r="1.745" transform="translate(279.831 53.045)"/><circle class="b" cx="1.745" cy="1.745" r="1.745" transform="translate(299.023 79.216)"/><circle class="b" cx="1.745" cy="1.745" r="1.745" transform="translate(187.357 56.534)"/><circle class="b" cx="1.745" cy="1.745" r="1.745" transform="translate(438.606 124.581)"/><circle class="b" cx="1.745" cy="1.745" r="1.745" transform="translate(407.2 25.128)"/><circle class="b" cx="1.745" cy="1.745" r="1.745" transform="translate(217.018 136.794)"/><circle class="b" cx="1.745" cy="1.745" r="1.745" transform="translate(154.206 169.945)"/><circle class="b" cx="1.745" cy="1.745" r="1.745" transform="translate(30.327 175.18)"/><circle class="b" cx="2.617" cy="2.617" r="2.617" transform="translate(316.471 58.279)"/><circle class="b" cx="2.617" cy="2.617" r="2.617" transform="translate(365.325 61.769)"/><circle class="b" cx="1.745" cy="1.745" r="1.745" transform="translate(394.986 49.555)"/><circle class="b" cx="1.745" cy="1.745" r="1.745" transform="translate(398.476 91.43)"/><circle class="b" cx="2.617" cy="2.617" r="2.617" transform="translate(309.492 100.154)"/><circle class="b" cx="3.49" cy="3.49" r="3.49" transform="translate(1473.262 87.94)"/><circle class="b" cx="3.49" cy="3.49" r="3.49" transform="translate(1181.883 114.112)"/><circle class="b" cx="3.49" cy="3.49" r="3.49" transform="translate(1042.3 114.112)"/><g class="r" transform="matrix(1, 0, 0, 1, 30.33, -7.57)"><circle class="b" cx="3.49" cy="3.49" r="3.49" transform="translate(1526.68 105.98)"/></g><g class="q" transform="matrix(1, 0, 0, 1, 30.33, -7.57)"><circle class="b" cx="3.49" cy="3.49" r="3.49" transform="translate(1416.76 51.89)"/></g><g class="p" transform="matrix(1, 0, 0, 1, 30.33, -7.57)"><circle class="b" cx="3.49" cy="3.49" r="3.49" transform="translate(1603.45 81.55)"/></g><g class="o" transform="matrix(1, 0, 0, 1, 30.33, -7.57)"><circle class="b" cx="3.49" cy="3.49" r="3.49" transform="translate(1640.1 160.07)"/></g><g class="n" transform="matrix(1, 0, 0, 1, 30.33, -7.57)"><circle class="b" cx="3.49" cy="3.49" r="3.49" transform="translate(1329.52 137.39)"/></g><g class="m" transform="matrix(1, 0, 0, 1, 30.33, -7.57)"><circle class="b" cx="3.49" cy="3.49" r="3.49" transform="translate(1519.71 44.91)"/></g><g class="l" transform="matrix(1, 0, 0, 1, 30.33, -7.57)"><circle class="b" cx="3.49" cy="3.49" r="3.49" transform="translate(1469.11 153.09)"/></g><g class="k" transform="matrix(1, 0, 0, 1, 30.33, -7.57)"><circle class="b" cx="3.49" cy="3.49" r="3.49" transform="translate(1319.06 71.08)"/></g><g class="j" transform="matrix(1, 0, 0, 1, 30.33, -7.57)"><circle class="b" cx="3.49" cy="3.49" r="3.49" transform="translate(1237.05 29.21)"/></g><g class="i" transform="matrix(1, 0, 0, 1, 30.33, -7.57)"><circle class="b" cx="3.49" cy="3.49" r="3.49" transform="translate(1268.46 83.3)"/></g><g class="h" transform="matrix(1, 0, 0, 1, 30.33, -7.57)"><circle class="b" cx="3.49" cy="3.49" r="3.49" transform="translate(1408.04 105.98)"/></g><circle class="b" cx="2.617" cy="2.617" r="2.617" transform="translate(1550.032 129.815)"/><circle class="b" cx="1.745" cy="1.745" r="1.745" transform="translate(1611.099 121.091)"/><circle class="b" cx="1.745" cy="1.745" r="1.745" transform="translate(1666.932 33.852)"/><circle class="b" cx="1.745" cy="1.745" r="1.745" transform="translate(1424.408 67.003)"/><circle class="b" cx="1.745" cy="1.745" r="1.745" transform="translate(1543.053 75.727)"/><circle class="b" cx="1.745" cy="1.745" r="1.745" transform="translate(1590.162 143.773)"/><circle class="b" cx="1.745" cy="1.745" r="1.745" transform="translate(1413.939 128.07)"/><circle class="b" cx="1.745" cy="1.745" r="1.745" transform="translate(1310.997 126.326)"/><circle class="b" cx="1.745" cy="1.745" r="1.745" transform="translate(1222.013 126.326)"/><circle class="b" cx="1.745" cy="1.745" r="1.745" transform="translate(1171.414 147.263)"/><circle class="b" cx="1.745" cy="1.745" r="1.745" transform="translate(1461.048 117.602)"/><circle class="b" cx="1.745" cy="1.745" r="1.745" transform="translate(1304.018 37.342)"/><circle class="b" cx="1.745" cy="1.745" r="1.745" transform="translate(1342.403 103.643)"/><circle class="b" cx="1.745" cy="1.745" r="1.745" transform="translate(1483.73 60.024)"/><circle class="b" cx="1.745" cy="1.745" r="1.745" transform="translate(1502.923 86.196)"/><circle class="b" cx="1.745" cy="1.745" r="1.745" transform="translate(1365.085 26.873)"/><circle class="b" cx="1.745" cy="1.745" r="1.745" transform="translate(1635.526 164.711)"/><circle class="b" cx="1.745" cy="1.745" r="1.745" transform="translate(1391.257 63.513)"/><circle class="b" cx="1.745" cy="1.745" r="1.745" transform="translate(1642.506 131.56)"/><circle class="b" cx="1.745" cy="1.745" r="1.745" transform="translate(1611.099 32.107)"/><circle class="b" cx="1.745" cy="1.745" r="1.745" transform="translate(1539.563 176.924)"/><circle class="b" cx="1.745" cy="1.745" r="1.745" transform="translate(1406.96 152.497)"/><circle class="b" cx="1.745" cy="1.745" r="1.745" transform="translate(1293.549 140.284)"/><circle class="b" cx="1.745" cy="1.745" r="1.745" transform="translate(1255.164 89.685)"/><circle class="b" cx="1.745" cy="1.745" r="1.745" transform="translate(1249.93 63.513)"/><circle class="b" cx="1.745" cy="1.745" r="1.745" transform="translate(1117.326 128.07)"/><circle class="b" cx="1.745" cy="1.745" r="1.745" transform="translate(880.036 23.383)"/><circle class="b" cx="1.745" cy="1.745" r="1.745" transform="translate(789.307 18.149)"/><circle class="b" cx="1.745" cy="1.745" r="1.745" transform="translate(1017.873 140.284)"/><circle class="b" cx="1.745" cy="1.745" r="1.745" transform="translate(965.53 133.305)"/><circle class="b" cx="2.617" cy="2.617" r="2.617" transform="translate(1567.48 173.435)"/><circle class="b" cx="2.617" cy="2.617" r="2.617" transform="translate(1459.303 149.008)"/><circle class="b" cx="2.617" cy="2.617" r="2.617" transform="translate(1286.57 108.878)"/><circle class="b" cx="2.617" cy="2.617" r="2.617" transform="translate(1520.371 65.258)"/><circle class="b" cx="2.617" cy="2.617" r="2.617" transform="translate(1506.413 30.363)"/><circle class="b" cx="2.617" cy="2.617" r="2.617" transform="translate(1569.225 68.748)"/><circle class="b" cx="1.745" cy="1.745" r="1.745" transform="translate(1598.886 56.534)"/><circle class="b" cx="1.745" cy="1.745" r="1.745" transform="translate(1602.376 98.409)"/><circle class="b" cx="1.745" cy="1.745" r="1.745" transform="translate(1386.023 94.92)"/><circle class="b" cx="1.745" cy="1.745" r="1.745" transform="translate(1656.464 108.878)"/><circle class="b" cx="1.745" cy="1.745" r="1.745" transform="translate(1612.844 162.966)"/><circle class="b" cx="1.745" cy="1.745" r="1.745" transform="translate(1661.698 204.841)"/><circle class="b" cx="2.617" cy="2.617" r="2.617" transform="translate(1513.392 107.133)"/><circle class="b" cx="3.49" cy="3.49" r="3.49" transform="translate(271.107 80.961)"/><g class="g" transform="matrix(1, 0, 0, 1, 30.33, -7.57)"><circle class="b" cx="3.49" cy="3.49" r="3.49" transform="translate(162.53 0)"/></g><g class="f" transform="matrix(1, 0, 0, 1, 30.33, -7.57)"><circle class="b" cx="3.49" cy="3.49" r="3.49" transform="translate(214.61 44.91)"/></g><g class="e" transform="matrix(1, 0, 0, 1, 30.33, -7.57)"><circle class="b" cx="3.49" cy="3.49" r="3.49" transform="translate(317.55 37.93)"/></g><g class="d" transform="matrix(1, 0, 0, 1, 30.33, -7.57)"><circle class="b" cx="3.49" cy="3.49" r="3.49" transform="translate(266.95 146.11)"/></g><g class="c" transform="matrix(1, 0, 0, 1, 30.33, -7.57)"><circle class="b" cx="3.49" cy="3.49" r="3.49" transform="translate(205.88 99)"/></g><circle class="b" cx="2.617" cy="2.617" r="2.617" transform="translate(347.877 122.836)"/><circle class="b" cx="1.745" cy="1.745" r="1.745" transform="translate(408.944 114.112)"/><circle class="b" cx="1.745" cy="1.745" r="1.745" transform="translate(222.253 60.024)"/><circle class="b" cx="1.745" cy="1.745" r="1.745" transform="translate(133.269 26.873)"/><circle class="b" cx="1.745" cy="1.745" r="1.745" transform="translate(340.898 68.748)"/><circle class="b" cx="1.745" cy="1.745" r="1.745" transform="translate(388.007 136.794)"/><circle class="b" cx="1.745" cy="1.745" r="1.745" transform="translate(211.784 121.091)"/><circle class="b" cx="1.745" cy="1.745" r="1.745" transform="translate(258.893 110.623)"/><circle class="b" cx="1.745" cy="1.745" r="1.745" transform="translate(281.575 53.045)"/><circle class="b" cx="1.745" cy="1.745" r="1.745" transform="translate(300.768 79.216)"/><circle class="b" cx="1.745" cy="1.745" r="1.745" transform="translate(189.102 56.534)"/><circle class="b" cx="1.745" cy="1.745" r="1.745" transform="translate(440.351 124.581)"/><circle class="b" cx="1.745" cy="1.745" r="1.745" transform="translate(408.944 25.128)"/><circle class="b" cx="1.745" cy="1.745" r="1.745" transform="translate(218.763 136.794)"/><circle class="b" cx="1.745" cy="1.745" r="1.745" transform="translate(155.951 169.945)"/><circle class="b" cx="1.745" cy="1.745" r="1.745" transform="translate(32.071 175.18)"/><circle class="b" cx="2.617" cy="2.617" r="2.617" transform="translate(318.216 58.279)"/><circle class="b" cx="2.617" cy="2.617" r="2.617" transform="translate(367.07 61.769)"/><circle class="b" cx="1.745" cy="1.745" r="1.745" transform="translate(396.731 49.555)"/><circle class="b" cx="1.745" cy="1.745" r="1.745" transform="translate(400.221 91.43)"/><circle class="b" cx="2.617" cy="2.617" r="2.617" transform="translate(311.237 100.154)"/></g></g></svg>