<svg xmlns="http://www.w3.org/2000/svg" xmlns:xlink="http://www.w3.org/1999/xlink" width="100" height="100" viewBox="0 0 100 100"><defs><clipPath id="a"><path d="M350,400a50,50,0,1,1,50,50h0A50,50,0,0,1,350,400Z" fill="none"/></clipPath><clipPath id="b"><path d="M399.639,366.672c16.673-.253,18.08,11.912,18.169,13.8,0,.12-.159,3.688-.163,3.8-.075,1.744-.8,17.863-2.363,20.964a48.178,48.178,0,0,1-8.1,10.069,3.925,3.925,0,0,1-2.547.985l-.8.012-3.837.059-.8.012a3.925,3.925,0,0,1-2.575-.908c-2.536-2.108-10.082-7.242-11.452-9.773-1.652-3.052-2.869-19.143-2.995-20.882-.008-.121-.012-.224-.011-.339C382.2,382.583,382.969,366.924,399.639,366.672Z" fill="none"/></clipPath><clipPath id="d"><rect width="100" height="100"/></clipPath></defs><g id="c" clip-path="url(#d)"><g transform="translate(-350 -350)"><circle cx="50" cy="50" r="50" transform="translate(350 350)" fill="#5bc0db"/><g clip-path="url(#a)"><path d="M495.105,502.984s18.6.874,19.036-.615a1.062,1.062,0,0,0-1.067-1.488s4.466-.948,4.9-2.676-3.767-1.889-3.767-1.889,7.326.509,6.558-1.542-5.485-2.892-5.485-2.892,9.7,1.071,8.005-1.489-16.247-2.278-16.247-2.278,11.536-8.519,8.387-8.743-21.487,14.95-21.487,14.95Z" fill="#f6b37a"/><path d="M513.71,490.739c.023,1.01,2.409,1.774,5.336,1.706s5.274-.945,5.25-1.957-2.409-1.775-5.336-1.705S513.686,489.726,513.71,490.739Z" fill="#e48051"/><path d="M510.4,495.06c.023,1.011,2.41,1.775,5.337,1.706s5.274-.944,5.25-1.956-2.409-1.774-5.337-1.7S510.378,494.052,510.4,495.06Z" fill="#e48051"/><path d="M504.716,501.763c.023,1.01,2.409,1.774,5.336,1.7s5.274-.944,5.25-1.955-2.409-1.775-5.337-1.7S504.692,500.752,504.716,501.763Z" fill="#e48051"/><path d="M508.054,498.781c.024,1.011,2.41,1.774,5.338,1.706s5.274-.945,5.25-1.956-2.409-1.774-5.337-1.706S508.03,497.77,508.054,498.781Z" fill="#e48051"/><path d="M458.916,470.58l35.023,23.734,1.166,8.667-40.58-7.626Z" fill="#292728"/><path d="M440.058,433.647l18.858,36.933-4.392,24.778L425.511,473.4Z" fill="#292728"/><path d="M426.718,476.747l-.957,4.786,1.675,1.915v6.7l3.288-.862S434.5,475,434.5,464.842,433.958,446,433.958,446l-8.977,21.888-.656,4.554Z" fill="#c3c0e0"/><path d="M384.124,412.614l9.277-13.578,11.128,1.795,5.445,15.852-.723,6.94-7.18-4.427-9.093-1.5-11.406,1.916Z" fill="#9390a6"/><path d="M387.47,403.52s0,16.747-3.35,23.691,22.025,14.6,22.025,14.6,10.767-6.94,6.221-13.4-5.505-32.005-5.505-32.005Z" fill="#f8b278"/><path d="M399.766,424.3c2.436,2.177,5.952,5.105,9.309,5.6,1.426.21,2.289-.784,2.833-2.182-4.157-6.645-5.051-50.25-5.051-50.25L387.47,403.52s0,1.187-.063,3.05C390.736,413.012,394.32,419.43,399.766,424.3Z" fill="#e58052"/><path d="M437.487,432.476c-1.2-1.106-26.083-12.683-26.083-12.683L407.1,435.347l-23.69-16.988s-24.14,14.566-25.605,16.033c-.934.933,6.312,20.675,11.7,34.889,3.07,8.1,2.782,6.015,5.534,14.406s1.18,29.208,1.18,29.208l41.3,6.209,11.726-2.155,1.914-15.314,2.984-52.169S438.684,433.583,437.487,432.476Z" fill="#dddaed"/><path d="M401.831,423.622l.57,8.495c-8.675-.648-20.73-12.711-20.73-12.711l2.453-6.792Z" fill="#9390a6"/><path d="M407.127,436.933a1.167,1.167,0,1,0,1.166,1.168h0A1.167,1.167,0,0,0,407.127,436.933Z" fill="#f1f1f1"/><path d="M407.246,460.424a1.166,1.166,0,1,0,1.166,1.166h0A1.166,1.166,0,0,0,407.246,460.424Z" fill="#f1f1f1"/><path d="M407.365,483.916a1.166,1.166,0,1,0,1.168,1.166,1.165,1.165,0,0,0-1.168-1.166Z" fill="#f1f1f1"/><path d="M410.964,507.406a1.167,1.167,0,1,0,1.166,1.169v0A1.167,1.167,0,0,0,410.964,507.406Z" fill="#f1f1f1"/><path d="M414.7,521.554c-9.248,0-37.38-3.824-37.38-3.824l-.386-4.836s30.722,3.636,37.766,3.636c8.77,0,15.752-.542,15.818-.547l.4,5.011C430.649,521.017,423.673,521.554,414.7,521.554Z" fill="#784f2c"/><rect width="7.84" height="2.154" transform="translate(393.898 523.001) rotate(-88.948)" fill="#c8bba9"/><path d="M423.684,523.4l-2.145-.189.639-7.229,2.169-.113Z" fill="#c8bba9"/><path d="M383.881,520.14,381.5,520.1l.241-6.818,2.2.565Z" fill="#c8bba9"/><path d="M413.508,522.739h-.153l-3.669-.174a3.165,3.165,0,0,1-3-3.3l.027-.531a3.169,3.169,0,0,1,3.3-3l3.671.176a3.16,3.16,0,0,1,3,3.3l-.025.53a3.162,3.162,0,0,1-3.149,3.005Zm-3.649-5.579a1.722,1.722,0,0,0-1.716,1.638l-.025.53a1.726,1.726,0,0,0,1.636,1.8l3.67.173a1.725,1.725,0,0,0,1.8-1.635l.025-.53a1.726,1.726,0,0,0-1.635-1.8h0l-3.67-.174Z" fill="#e3e4e3"/><path d="M374.693,529.295l-9.891,1.779s-.12-1.625,1.731,8.293l8.879-2.725Z" fill="#c3c0e0"/><path d="M374.693,530.2l-9.891,1.619s-.12-1.479,1.731,7.553l8.879-2.481Z" fill="#d4d5e6"/><path d="M366.024,537.92c.129.644.256,1.28.377,1.9,3.293-.241,6.627-.954,9.907-1.453l-.16-1.35C372.771,537.211,369.386,537.452,366.024,537.92Z" fill="#98999b"/><path d="M381.671,419.406l-24.978,15.181,12.168,53.442s-6.747,50.671-3.72,54.238,39.785,4.535,39.785,4.535l1.391-37.186s-5.591-49.4-7.525-57.14S381.671,419.406,381.671,419.406Z" fill="#313032"/><path d="M440.511,433.614l-30.294-14.7,4.052,50.973-2.651,38.274,5.395,36.514,21.4.49s-4.353-29.325-4.535-33.92,3.359-62.763,3.359-62.763Z" fill="#313032"/><path d="M418.924,448.128l5.08.361-6.971-26.265-6.816-3.306,4.05,50.972L413.119,486.4l9.977-33.012Z" fill="#444345"/><path d="M409.4,422.124s2.148,8,8.7,9.639L413.8,420.277l-3.829-3.589Z" fill="#9390a6"/><path d="M413.8,420.272l-5.144,9.452a43.535,43.535,0,0,0,1.615-7.059,29.208,29.208,0,0,0-.3-5.982Z" fill="#c3c0e0"/><path d="M378.381,394c1.219,3.151,3.818,5.084,5.8,4.315s2.606-3.947,1.386-7.1-3.818-5.082-5.8-4.314S377.16,390.843,378.381,394Z" fill="#de8250"/><path d="M399.639,366.672c16.673-.253,18.08,11.912,18.169,13.8,0,.12-.159,3.688-.163,3.8-.075,1.744-1.752,18.483-3.311,21.584a40.567,40.567,0,0,1-7.147,9.449,3.925,3.925,0,0,1-2.547.985l-.8.012-3.837.059-.8.012a3.925,3.925,0,0,1-2.575-.908c-2.536-2.108-10.082-7.242-11.452-9.773-1.652-3.052-2.869-19.143-2.995-20.882-.008-.121-.012-.224-.011-.339C382.2,382.583,382.969,366.924,399.639,366.672Z" fill="#f8b278"/><g clip-path="url(#b)"><path d="M383.267,392.94s1.852,9.921,4.646,12.118,4.06,2.248,5.5,1.073,1.907-4.892,6.249-4.739,4.511.473,5.736.421,3.83-1.2,5.3-.741,2.441,3.012,3.515,3.067.622-.839.827-.5-3.127,11.387-3.586,11.488-6.03,2.811-6.03,2.811l-12.771-1.566-7.972-5.746-3.012-4.241.5-11.957Z" fill="#4b3323"/></g><path d="M403.983,406.858c2.925.2,5.145-1.212,4.946-1.764a.235.235,0,0,0-.045-.082,17.283,17.283,0,0,1-9.445-.113A6.345,6.345,0,0,0,403.983,406.858Z" fill="#e58052"/><path d="M405.276,397.116c.311.777.3.642-.015,1.191a6.432,6.432,0,0,1-.963,1.016c-.631.66,1.827.678,2.31.171.4-.423,1.343-1.1,1.58-1.687.283-.7-.121-1.006-.514-1.473a9.027,9.027,0,0,1-1.987-4.82C405.594,390.774,404.217,394.469,405.276,397.116Z" fill="#e58052"/><path d="M394.976,524.311s74.532-5.43,78.94-.41,5.826,96.6,5.826,96.6c22.8,16.676,26.4,14.615,22.8,20.35s-42.248-7.516-42.248-7.516l-4.1-87.784-66.487.311Z" fill="#221f1f"/><path d="M448.033,521.807c-23.06.316-53.057,2.5-53.057,2.5l-5.268,21.552,30.464-.142C429.307,537.573,438.686,529.71,448.033,521.807Z" fill="#292627"/><path d="M467.63,627.455c4.06-2.18,8.266-4.9,12.586-6.609,22.365,16.294,25.9,14.311,22.324,20-3.6,5.736-42.248-7.517-42.248-7.517l-.327-2C462.518,630.042,465.1,628.812,467.63,627.455Z" fill="#3c2418"/><path d="M394.235,620.333l-1.513,19.291s2.4,3.109,18.341,3.109,15.942-2.961,15.942-2.961L412.7,620.333Z" fill="#3c2418"/><path d="M391.7,515.748c-2.8.316-24.324,15.234-24.324,15.234s-.775,7.8,3.086,12.913,38.959,0,38.959,0V521.157Z" fill="#292627"/><path d="M377.167,524.774s6.153-5.956,19.453-10.7c14.056-5.017,17.3,7.448,17.3,7.448l-1.514,98.814H393.948Z" fill="#221f1f"/><path d="M433.937,503.046c.338-.241,5.355.6,5.355.6s23.084-.534,23.453-2.042-8.162-1.826-8.162-1.826,11.428-.776,11.771-2.522-11.025-1.245-11.025-1.245,14.506-.311,13.635-2.319-13.416-1.959-13.416-1.959,17.534-.074,15.709-2.541-20.814-.986-20.814-.986,11.077-9.08,7.923-9.144-25.6,16.535-25.6,16.535S433.6,503.287,433.937,503.046Z" fill="#f8b47a"/><path d="M451.769,498.434c-.017-2.936.325-6.117-1.026-8.823a1.911,1.911,0,0,1-.2-.706q-1.952-1.613-4.021-3.054c-6.735,4.565-13.747,9.759-13.747,9.759s.823,7.688,1.16,7.447,5.355.6,5.355.6,6.349-.149,12.443-.506C451.763,501.566,451.778,500,451.769,498.434Z" fill="#e48051"/><path d="M432.771,495.6l-30.149-5.358v13.292l32.111-.706Z" fill="#e48051"/><path d="M356.592,434.569c-7.541,2.979-5.125,30.88-5.125,30.88l27.982,38.2,49.049.12-.392-10.743-37.639-7.841-11.512-30.16S361.89,432.476,356.592,434.569Z" fill="#444345"/><path d="M417.155,391.775" fill="#394042"/><path d="M416.97,392.154" fill="#394042"/><path d="M378.434,385.471" fill="#4b3323"/><path d="M415.038,368.093c-.829-4.54-6.739-8.374-15.963-8.374-10.932,0-22.1,6.627-22.232,18.03-.143.821.964,6.22,1.941,9.834l1.416-.8c-.03.283,1.593,5.554,1.593,5.554l1.158,1.518a8.625,8.625,0,0,0,.315-.913c-1.195-36.364,22.065-6.538,29.277-17.43,4.579,1.021,4.476,10.927,4.606,12.866a11.939,11.939,0,0,1-.146,2.011h0s.5-3.62.471-3.911l.761-6.747C418.106,375.564,417.6,371.519,415.038,368.093Z" fill="#4b3323"/><circle cx="1.386" cy="1.386" r="1.386" transform="translate(394.14 388.751)" fill="#643a19"/><path d="M400,387.907a22.127,22.127,0,0,0-4.448-.4c-1.687,0-3.929.163-5.019.94-1.194.853-.356,4.035.327,5.783a2.586,2.586,0,0,0,1.911,1.656,26.623,26.623,0,0,0,4.265.384h0a7.156,7.156,0,0,0,2.18-.241c1.742-.693,2.711-2.435,3.629-4.84a1.914,1.914,0,0,0-.121-1.687A4.132,4.132,0,0,0,400,387.907Z" fill="#fff" opacity="0.27" style="isolation:isolate"/><circle cx="1.213" cy="1.213" r="1.213" transform="translate(409.386 389.095)" fill="#643a19"/><path d="M413.041,387.617a15.122,15.122,0,0,0-3.647.395,3.352,3.352,0,0,0-2.233,1.566,2.229,2.229,0,0,0-.1,1.665c.753,2.374,1.547,4.1,2.976,4.779a4.918,4.918,0,0,0,1.786.241h0a15.974,15.974,0,0,0,3.494-.38,2.065,2.065,0,0,0,1.567-1.637c.56-1.723,1.248-4.865.268-5.707A7.064,7.064,0,0,0,413.041,387.617Z" fill="#fff" opacity="0.27" style="isolation:isolate"/><path d="M401.006,386.084a.76.76,0,0,1-.277-.015,12.448,12.448,0,0,0-9.077,1.044.793.793,0,0,1-.87-1.325,10.364,10.364,0,0,1,9.688-2.222C400.9,383.666,401.325,386.047,401.006,386.084Z" fill="#4b3323"/><path d="M415.026,386.6a.434.434,0,0,1-.2-.038,6.344,6.344,0,0,0-6.205.3c-.275.211-.631.071-.8-.313a3.774,3.774,0,0,1,.752-2.155c.12-.091,2.426-1.144,6.569.661a.9.9,0,0,1,.4,1A.62.62,0,0,1,415.026,386.6Z" fill="#4b3323"/><path d="M409.534,387.137a8.007,8.007,0,0,0-2.53.888,4.789,4.789,0,0,1-4.286,0,8.016,8.016,0,0,0-2.53-.888c-4.764-.937-16.868.008-16.868.008v1.325l4.441.828c1.833.944,1.928,6.351,3.875,7.049a26.87,26.87,0,0,0,7.93.3c1.557-.505,2.694-2.483,3.511-4.111a6.089,6.089,0,0,1,1.163-1.838,1.5,1.5,0,0,1,1.235,0,6.086,6.086,0,0,1,1.162,1.838c.817,1.628,1.9,3.715,3.452,4.217,1.205.392,4.91-.2,6.035-.482,1.942-.5,1.513-5.814,2.847-6.974V387.14A27.438,27.438,0,0,0,409.534,387.137Zm-6.693,4.046c-.918,2.41-1.887,4.147-3.629,4.84a7.155,7.155,0,0,1-2.179.241h0a26.646,26.646,0,0,1-4.266-.384,2.586,2.586,0,0,1-1.908-1.658c-.683-1.746-1.522-4.928-.328-5.783,1.085-.778,3.332-.94,5.02-.94a21.99,21.99,0,0,1,4.448.4,4.127,4.127,0,0,1,2.721,1.589A1.911,1.911,0,0,1,402.841,391.183Zm14.047,3.07a2.27,2.27,0,0,1-1.566,1.637,18.238,18.238,0,0,1-3.494.38h0a4.9,4.9,0,0,1-1.787-.241c-1.429-.683-2.223-2.41-2.976-4.778a2.229,2.229,0,0,1,.1-1.665,3.351,3.351,0,0,1,2.232-1.567,15.126,15.126,0,0,1,3.647-.4c1.385,0,3.353.031,4.116.929S417.448,392.53,416.888,394.253Z" fill="#231f20"/><path d="M404.661,362.229c-6.024-.867-12.442-.432-23.866,8.994a58.188,58.188,0,0,1,18.58-4.753s-7.906,2.035-10.78,4.5c10.722-.816,6.747.9,14.81,2.378a21.587,21.587,0,0,0,7.907-.435l1.715-4.475S409.893,363.341,404.661,362.229Z" fill="#694832"/><path d="M415.709,373.171a3.037,3.037,0,0,1,1.275,1.816c.137-1.8-2.327-4.99-2.327-4.99l-1.2,4.036s.727-.323,2.155,2.869a7.843,7.843,0,0,0-.476-3.257,8.541,8.541,0,0,1,1.7,4.588A9.716,9.716,0,0,0,415.709,373.171Z" fill="#694832"/><path d="M396.181,431.761l11.5,8.891,3.882-4.805,1.4,17.651-13.614,2.115-17.785-36Z" fill="#a7a6a7" fill-rule="evenodd"/><path d="M396.616,433.907l11.154,9.059,3.976-4.867,1.318,17.438-13.272,2.222-17.781-36Z" fill="#bfbebe" fill-rule="evenodd"/><path d="M384.124,412.614l17.711,11.008s-1.657,6.9-7.18,8.854l-12.98-13.07Z" fill="#c3c0e0"/><path d="M390.446,447.888l-4.535,7.255,15.709,32.446c-.722-14.295-1.768-31.1-2.831-35.348-1.935-7.74-17.118-32.835-17.118-32.835l-7.47,4.54,7.711,24.487Z" fill="#444345"/></g></g></g></svg>