<svg xmlns="http://www.w3.org/2000/svg" xmlns:xlink="http://www.w3.org/1999/xlink" width="100" height="100" viewBox="0 0 100 100"><defs><clipPath id="a"><path d="M0,50a50,50,0,1,1,50,50A50,50,0,0,1,0,50Z" fill="none"/></clipPath><clipPath id="c"><rect width="100" height="100"/></clipPath></defs><g id="b" clip-path="url(#c)"><g transform="translate(-349.901 -349.901)"><g transform="translate(349.901 349.901)"><circle cx="49.901" cy="49.901" r="49.901" transform="translate(0.099 0.099)" fill="#0abfc0"/><g clip-path="url(#a)"><g transform="translate(8.924 9.67)"><g transform="translate(95.168 115.19)"><g transform="translate(38.341 8.547)"><path d="M493.75,506.547s18.089.85,18.521-.6a1.034,1.034,0,0,0-1.039-1.447s4.344-.922,4.765-2.6-3.664-1.838-3.664-1.838,7.126.5,6.379-1.5-5.335-2.816-5.335-2.816,9.44,1.042,7.786-1.449-15.8-2.215-15.8-2.215,11.222-8.287,8.158-8.505-20.9,14.542-20.9,14.542Z" transform="translate(-492.616 -483.572)" fill="#f6b37a"/><path d="M511.885,494.652c.023.984,2.347,1.727,5.192,1.66s5.131-.919,5.108-1.9-2.348-1.727-5.192-1.66S511.862,493.669,511.885,494.652Z" transform="translate(-492.654 -483.59)" fill="#e48051"/><path d="M508.662,498.867c.023.983,2.347,1.727,5.191,1.66s5.131-.919,5.108-1.9-2.347-1.726-5.192-1.659S508.638,497.884,508.662,498.867Z" transform="translate(-492.648 -483.598)" fill="#e48051"/><path d="M503.119,505.4c.023.984,2.347,1.727,5.192,1.66s5.131-.919,5.108-1.9-2.348-1.727-5.193-1.66S503.1,504.414,503.119,505.4Z" transform="translate(-492.637 -483.611)" fill="#e48051"/><path d="M506.373,502.491c.024.984,2.348,1.727,5.192,1.66s5.131-.919,5.108-1.9-2.347-1.726-5.192-1.659S506.35,501.508,506.373,502.491Z" transform="translate(-492.643 -483.605)" fill="#e48051"/></g><path d="M458.47,475.008,492.54,498.1l1.134,8.43L454.2,499.112Z" transform="translate(-454.199 -475.008)" fill="#292728"/></g><path d="M440.07,439.01l18.344,35.927-4.272,24.1L425.92,477.683Z" transform="translate(-358.975 -359.747)" fill="#292728"/><g transform="translate(65.791 91.276)"><path d="M427.091,480.959l-.931,4.656,1.63,1.862v6.518l3.2-.839s3.67-13.9,3.67-23.777-.524-18.332-.524-18.332L425.4,472.338l-.638,4.431Z" transform="translate(-424.764 -451.047)" fill="#c3c0e0"/></g><g transform="translate(24.201 45.594)"><path d="M385.575,418.483l9.02-13.209,10.824,1.746,5.3,15.42-.7,6.75-6.983-4.306-8.846-1.455-11.1,1.864Z" transform="translate(-383.092 -405.275)" fill="#4c9ecf"/></g><g transform="translate(26.387 43.034)"><path d="M388.838,409.632s0,16.3-3.26,23.045,21.417,14.2,21.417,14.2,10.474-6.751,6.052-13.035-5.354-31.133-5.354-31.133Z" transform="translate(-385.282 -402.709)" fill="#f8b278"/></g><g transform="translate(29.881 24.618)"><path d="M400.8,429.81c2.369,2.119,5.791,4.967,9.055,5.45,1.387.206,2.224-.762,2.756-2.122-4.044-6.464-4.913-48.881-4.913-48.881L388.845,409.6s0,1.155-.062,2.966C392.018,418.829,395.5,425.072,400.8,429.81Z" transform="translate(-388.783 -384.257)" fill="#e58052"/></g><g transform="translate(0.998 64.39)"><path d="M437.438,437.841c-1.164-1.076-25.373-12.337-25.373-12.337l-4.191,15.13-23.044-16.527s-23.482,14.171-24.908,15.6c-.908.908,6.14,20.113,11.378,33.94,2.985,7.88,2.706,5.851,5.382,14.013s1.148,28.413,1.148,28.413l40.178,6.039,11.405-2.095,1.863-14.9,2.9-50.747S438.6,438.918,437.438,437.841Z" transform="translate(-359.843 -424.107)" fill="#88d6f7"/></g><g transform="translate(24.298 58.803)"><path d="M402.8,429.218l.555,8.264c-8.436-.631-20.166-12.365-20.166-12.365l2.385-6.608Z" transform="translate(-383.189 -418.509)" fill="#3fabd9"/></g><g transform="translate(47.925 82.46)"><path d="M408,442.213a1.135,1.135,0,1,0,1.135,1.135A1.135,1.135,0,0,0,408,442.213Z" transform="translate(-406.863 -442.213)" fill="#a9abad"/></g><g transform="translate(48.041 105.311)"><path d="M408.114,465.109a1.135,1.135,0,1,0,1.135,1.135A1.135,1.135,0,0,0,408.114,465.109Z" transform="translate(-406.979 -465.109)" fill="#a9abad"/></g><g transform="translate(48.158 128.162)"><path d="M408.231,488.006a1.135,1.135,0,1,0,1.135,1.135A1.135,1.135,0,0,0,408.231,488.006Z" transform="translate(-407.096 -488.006)" fill="#f1f1f1"/></g><g transform="translate(51.656 151.013)"><path d="M411.737,510.9a1.135,1.135,0,1,0,1.135,1.135A1.136,1.136,0,0,0,411.737,510.9Z" transform="translate(-410.601 -510.902)" fill="#f1f1f1"/></g><g transform="translate(19.691 156.352)"><path d="M415.31,524.676c-9,0-36.362-3.721-36.362-3.721l-.375-4.7s29.883,3.537,36.737,3.537c8.531,0,15.323-.527,15.387-.532l.4,4.875C430.824,524.153,424.038,524.676,415.31,524.676Z" transform="translate(-378.573 -516.251)" fill="#784f2c"/></g><g transform="translate(36.191 158.559)"><g transform="translate(0 0)"><rect width="7.626" height="2.095" transform="translate(0 7.625) rotate(-88.948)" fill="#c8bba9"/></g></g><g transform="translate(63.079 159.247)"><path d="M424.134,526.477l-2.087-.184.623-7.031,2.113-.11Z" transform="translate(-422.047 -519.152)" fill="#c8bba9"/></g><g transform="translate(24.13 156.734)"><path d="M385.338,523.3l-2.317-.035.237-6.632,2.136.55Z" transform="translate(-383.021 -516.634)" fill="#c8bba9"/></g><g transform="translate(48.625 159.107)"><path d="M414.207,525.832l-.148,0-3.571-.17a3.077,3.077,0,0,1-2.92-3.211l.025-.516a3.083,3.083,0,0,1,3.212-2.919l3.571.17a3.075,3.075,0,0,1,2.919,3.211l-.025.516a3.073,3.073,0,0,1-3.063,2.922Zm-3.55-5.425A1.674,1.674,0,0,0,408.988,522l-.024.516a1.678,1.678,0,0,0,1.591,1.749l3.57.17a1.678,1.678,0,0,0,1.75-1.591l.025-.516a1.678,1.678,0,0,0-1.591-1.749h0l-3.571-.17Z" transform="translate(-407.565 -519.011)" fill="#e3e4e3"/></g><path d="M376.368,532.237l-9.621,1.73s-.112-1.58,1.684,8.069l8.637-2.651Z" transform="translate(-358.859 -359.931)" fill="#c3c0e0"/><path d="M376.368,533.114l-9.621,1.575s-.112-1.438,1.684,7.348l8.637-2.414Z" transform="translate(-358.859 -359.933)" fill="#d4d5e6"/><path d="M367.94,540.643c.125.626.248,1.243.367,1.845,3.2-.233,6.442-.928,9.637-1.413l-.156-1.314C374.5,539.953,371.208,540.186,367.94,540.643Z" transform="translate(-358.861 -359.946)" fill="#98999b"/><path d="M382.842,425.311l-24,14.591,11.835,51.987s-6.56,49.289-3.62,52.76,38.7,4.412,38.7,4.412l1.353-36.174s-5.438-48.054-7.321-55.583S382.842,425.311,382.842,425.311Z" transform="translate(-358.843 -359.72)" fill="#313032"/><path d="M440.481,438.951l-29.468-14.293,3.94,49.584-2.575,37.232,5.25,35.52,20.822.477s-4.236-28.527-4.412-33S437.3,453.42,437.3,453.42Z" transform="translate(-358.946 -359.718)" fill="#313032"/><g transform="translate(24.298 58.803)"><path d="M385.574,418.509,402.8,429.218s-1.612,6.711-6.983,8.612l-12.628-12.713Z" transform="translate(-383.189 -418.509)" fill="#6ec0eb"/></g><g transform="translate(16.98 65.591)"><path d="M391.71,453.069l-4.411,7.058,15.283,31.562c-.707-13.905-1.721-30.251-2.755-34.385-1.882-7.529-16.95-31.993-16.95-31.993l-7.019,4.294,7.559,23.993Z" transform="translate(-375.857 -425.311)" fill="#444345"/></g><g transform="translate(52.066 64.939)"><path d="M419.482,453.067l4.941.353-6.781-25.547-6.63-3.216,3.941,49.584L413.836,490.3l9.7-32.115Z" transform="translate(-411.012 -424.658)" fill="#444345"/></g><g transform="translate(51.277 62.761)"><path d="M410.221,427.768s2.089,7.787,8.461,9.372l-4.19-11.173-3.725-3.492Z" transform="translate(-410.221 -422.475)" fill="#3fabd9"/></g><g transform="translate(50.543 62.761)"><path d="M414.491,425.967l-5.005,9.194a42.307,42.307,0,0,0,1.572-6.866,28.462,28.462,0,0,0-.291-5.819Z" transform="translate(-409.486 -422.475)" fill="#6ec0eb"/></g><path d="M385.066,373.3s-5.319-1.441-7.272.563-.843,13.976,7.391,28.412Z" transform="translate(-358.879 -359.616)" fill="#f8eeab"/><path d="M379.981,396.365c1.187,3.066,3.715,4.944,5.646,4.2s2.534-3.838,1.347-6.9-3.714-4.943-5.646-4.2S378.794,393.3,379.981,396.365Z" transform="translate(-358.884 -359.649)" fill="#f6a874"/><g transform="translate(22.378 13.012)"><path d="M418.662,375.23a40.277,40.277,0,0,1-5.143,28.473s-6.659-12.649-7.63-20.774.63-9.7,5.336-10.22A9.074,9.074,0,0,1,418.662,375.23Z" transform="translate(-381.313 -372.628)" fill="#eee5a5"/><path d="M382.149,378.458c-2.881,16.326,2.2,16.52,2.2,16.52s11.441-3.759,12.165-11.909-.647-9.98-5.955-10.419S382.149,378.458,382.149,378.458Z" transform="translate(-381.265 -372.628)" fill="#eee5a5"/></g><path d="M400.67,369.746c16.22-.245,17.428,14.957,17.515,16.792,0,.112,0,.218,0,.329-.073,1.7-.781,17.377-2.3,20.393a46.871,46.871,0,0,1-7.875,9.8,3.825,3.825,0,0,1-2.477.958l-.781.012-3.732.057-.781.011a3.823,3.823,0,0,1-2.505-.882c-2.466-2.052-9.808-7.046-11.139-9.508-1.607-2.969-2.79-18.62-2.914-20.313-.008-.112-.012-.219-.01-.329C383.7,385.224,384.452,369.993,400.67,369.746Z" transform="translate(-358.892 -359.61)" fill="#fabd7c"/><g transform="translate(10.334 156.339)"><g transform="translate(21.783 8.648)"><path d="M396.147,527.374s72.5-5.283,76.79-.4,5.668,93.971,5.668,93.971c22.177,16.221,25.681,14.215,22.177,19.795s-41.1-7.312-41.1-7.312L455.7,548.036l-64.676.3Z" transform="translate(-391.023 -524.904)" fill="#221f1f"/></g><g transform="translate(21.783 8.685)"><path d="M447.759,524.941c-22.431.307-51.612,2.433-51.612,2.433l-5.124,20.965,29.634-.14C429.543,540.277,438.666,532.627,447.759,524.941Z" transform="translate(-391.023 -524.941)" fill="#292627"/></g><g transform="translate(90.127 105.024)"><path d="M466.957,627.9c3.95-2.122,8.042-4.766,12.244-6.43,21.756,15.85,25.2,13.921,21.716,19.461-3.505,5.579-41.1-7.312-41.1-7.312l-.316-1.943C461.984,630.416,464.5,629.22,466.957,627.9Z" transform="translate(-459.502 -621.471)" fill="#3c2418"/></g><path d="M395.432,620.97l-1.472,18.766s2.334,3.025,17.842,3.025,15.507-2.879,15.507-2.879L413.393,620.97Z" transform="translate(-369.246 -516.446)" fill="#3c2418"/><path d="M392.92,519.033c-2.719.307-23.661,14.82-23.661,14.82s-.754,7.591,3,12.561,37.9,0,37.9,0V524.295Z" transform="translate(-369.197 -516.244)" fill="#292627"/><path d="M378.8,527.807s5.986-5.793,18.924-10.41c13.672-4.88,16.833,7.245,16.833,7.245l-1.472,96.122h-17.96Z" transform="translate(-369.216 -516.239)" fill="#221f1f"/></g><g transform="translate(1.078 79.986)"><g transform="translate(44.776 43.278)"><g transform="translate(29.334)"><path d="M435.31,506.432c.327-.234,5.208.581,5.208.581s22.457-.519,22.814-1.986-7.938-1.777-7.938-1.777,11.117-.754,11.45-2.452-10.726-1.211-10.726-1.211,14.111-.3,13.265-2.257-13.051-1.906-13.051-1.906,17.056-.071,15.281-2.471-20.246-.958-20.246-.958,10.775-8.833,7.708-8.9-24.894,16.09-24.894,16.09S434.981,506.665,435.31,506.432Z" transform="translate(-434.18 -483.098)" fill="#f8b47a"/><g transform="translate(0 6.601)"><path d="M452.654,501.953c-.016-2.856.317-5.95-1-8.582a1.911,1.911,0,0,1-.194-.688q-1.9-1.569-3.911-2.971C441,494.153,434.18,499.2,434.18,499.2s.8,7.477,1.13,7.244,5.208.581,5.208.581,6.177-.145,12.105-.492C452.649,505.009,452.664,503.485,452.654,501.953Z" transform="translate(-434.18 -489.712)" fill="#e48051"/></g></g><path d="M434.122,499.209,404.788,494V506.93l31.236-.686Z" transform="translate(-404.788 -483.119)" fill="#e48051"/></g><path d="M359.923,439.734l.306,31.543,21.93,35.66,47.713.115-.382-10.45-36.613-7.628-10.069-31.121S378.533,448.161,359.923,439.734Z" transform="translate(-359.923 -439.734)" fill="#444345"/></g><g transform="translate(34.771 31.433)"><circle cx="1.55" cy="1.55" r="1.55" transform="translate(0 0.28)" fill="#643a19"/><circle cx="1.55" cy="1.55" r="1.55" transform="translate(16.23)" fill="#643a19"/></g><g transform="translate(46.188 31.713)"><path d="M405.122,391.382a18.26,18.26,0,0,0,.939,3.428q.323.832.724,1.636c.269.534.569,1.053.889,1.558.078.129.16.255.244.379s.164.251.251.373l.255.368a1.634,1.634,0,0,1,.186.311.442.442,0,0,1,.036.237.959.959,0,0,1-.087.289,3.3,3.3,0,0,1-.18.344c-.07.123-.143.249-.217.365a2.342,2.342,0,0,1-1.056,1.074,3.169,3.169,0,0,1-.808.128,1.611,1.611,0,0,0-.883.29l.037.068c.562-.178,1.075.15,1.787.041a1.977,1.977,0,0,0,.923-.454,4.2,4.2,0,0,0,.643-.72,4.951,4.951,0,0,0,.49-.816,1.642,1.642,0,0,0,.141-.559,1.219,1.219,0,0,0-.139-.62,2.3,2.3,0,0,0-.3-.423l-.279-.334c-.093-.111-.18-.227-.268-.34s-.178-.23-.262-.347c-.338-.47-.658-.955-.95-1.458s-.569-1.015-.818-1.542a19.7,19.7,0,0,1-1.22-3.292Z" transform="translate(-405.122 -391.366)" fill="#e88252"/></g><g transform="translate(30.473 25.508)"><path d="M399.563,387.619a.76.76,0,0,1-.27.014,12.092,12.092,0,0,0-8.656,1.99.772.772,0,0,1-.984-1.189,10.082,10.082,0,0,1,9.119-3.192C399.2,385.295,399.868,387.547,399.563,387.619Z" transform="translate(-389.376 -385.148)" fill="#eee5a5"/></g><g transform="translate(49.35 26.901)"><path d="M415.318,389.067a.428.428,0,0,1-.2-.036,6.164,6.164,0,0,0-6.031.288c-.268.206-.615.069-.774-.3a3.651,3.651,0,0,1,.731-2.094c.116-.09,2.358-1.114,6.384.641a.875.875,0,0,1,.388.97A.6.6,0,0,1,415.318,389.067Z" transform="translate(-408.291 -386.544)" fill="#eee5a5"/></g><g transform="translate(37.993 46.568)"><path d="M404.016,408.765a17.836,17.836,0,0,1-6.951-1.928.322.322,0,0,1-.129-.4.257.257,0,0,1,.351-.158,17.267,17.267,0,0,0,11.855,1.457.262.262,0,0,1,.308.238.315.315,0,0,1-.212.362A17.557,17.557,0,0,1,404.016,408.765Z" transform="translate(-396.911 -406.251)" fill="#e88252"/></g><path d="M384.8,374.821s3.37-2.942,7-1.943c1.653.455,10.613,1.968,14.364,2.281,2.755-.213,9.083-1.487,13.13,5.545,0-1.172-.684-5.5-.684-5.5s-.43-10.358-3.132-13.125c-.418,2.841-1.749,3.163-1.749,3.163s-.981-4.646-4.485-5.652c1.194,3.354.143,4.287.143,4.287s-9.386-8.5-24.2-1.044c-7.8,3.925-5.817,11.034-5.817,11.034Z" transform="translate(-358.883 -359.59)" fill="#f8eeab"/><path d="M375.82,372.718c1.141.765,3,3.71,3,3.71l1.156-2.833S376.827,372.383,375.82,372.718Z" transform="translate(-358.877 -359.616)" fill="#f8eeab"/><path d="M376.888,370.888c1.2,1.2,2.311,4.4,2.311,4.4l1.155-1.267S378.285,371.391,376.888,370.888Z" transform="translate(-358.879 -359.612)" fill="#f8eeab"/><path d="M400.338,362.981a31.009,31.009,0,0,1,3.074,1.452s-4.3,1.115-5.081,1.268c0,0,6.89,1.647,9.84,1.678l-.015.069c-3.808,1.149-6.623.04-10.86-.411-8.023-.857-15.967,1.925-16.935,5.527C380.361,372.564,381.231,362.268,400.338,362.981Z" transform="translate(-358.885 -359.597)" fill="#eee5a5"/></g></g></g></g></g></svg>