<svg xmlns="http://www.w3.org/2000/svg" xmlns:xlink="http://www.w3.org/1999/xlink" width="37" height="24" viewBox="0 0 37 24">
  <defs>
    <clipPath id="clip-dashboard_icon">
      <rect width="37" height="24"/>
    </clipPath>
  </defs>
  <g id="dashboard_icon" clip-path="url(#clip-dashboard_icon)">
    <g id="Group_124" data-name="Group 124" transform="translate(-24.408 -170.315)">
      <path id="Path_191" data-name="Path 191" d="M51.21,178.669c-1.691.754-10.2,4.589-11.668,6.06a4.638,4.638,0,1,0,6.56,6.559c1.484-1.483,5.936-10.227,6.439-11.219a1.025,1.025,0,0,0-1.331-1.4Zm-6.558,11.17a2.589,2.589,0,0,1-3.661-3.661c.732-.732,4.816-2.759,8.365-4.411C47.565,185.178,45.392,189.1,44.652,189.839Z" transform="translate(0.107 -0.343)" fill="#fff"/>
      <path id="Path_192" data-name="Path 192" d="M42.822,189.5a1.333,1.333,0,1,0-1.334-1.334A1.333,1.333,0,0,0,42.822,189.5Z" transform="translate(0.087 -0.262)" fill="#fff"/>
      <path id="Path_193" data-name="Path 193" d="M43.847,178.421v-2.942a1.025,1.025,0,1,0-2.05,0v2.942a1.025,1.025,0,0,0,2.05,0Z" transform="translate(0.087 -0.073)" fill="#fff"/>
      <path id="Path_194" data-name="Path 194" d="M34.358,178.529a1.025,1.025,0,1,0-1.45,1.449l2.081,2.08a1.025,1.025,0,0,0,1.449-1.449Z" transform="translate(0.043 -0.134)" fill="#fff"/>
      <path id="Path_195" data-name="Path 195" d="M31.535,187.146H28.593a1.025,1.025,0,1,0,0,2.049h2.942a1.025,1.025,0,1,0,0-2.049Z" transform="translate(0 -0.259)" fill="#fff"/>
      <path id="Path_196" data-name="Path 196" d="M57.051,187.145H54.109a1.025,1.025,0,1,0,0,2.05h2.942a1.025,1.025,0,0,0,0-2.05Z" transform="translate(0.173 -0.259)" fill="#fff"/>
      <path id="Path_197" data-name="Path 197" d="M42.908,170.315a18.35,18.35,0,0,0-18.5,18.154,17.784,17.784,0,0,0,.757,5.121,1.032,1.032,0,0,0,1.279.683,1.008,1.008,0,0,0,.7-1.255,15.809,15.809,0,0,1-.672-4.549,16.443,16.443,0,0,1,32.881,0,15.8,15.8,0,0,1-.672,4.549,1.008,1.008,0,0,0,.7,1.255,1.037,1.037,0,0,0,.292.041,1.026,1.026,0,0,0,.987-.725,17.809,17.809,0,0,0,.757-5.121A18.351,18.351,0,0,0,42.908,170.315Z" fill="#fff"/>
    </g>
  </g>
</svg>
