<svg xmlns="http://www.w3.org/2000/svg" xmlns:xlink="http://www.w3.org/1999/xlink" width="92" height="92" viewBox="0 0 92 92"><defs><clipPath id="a"><circle cx="42" cy="42" r="42" transform="translate(0 0)" fill="#fff" stroke="#707070" stroke-width="1"/></clipPath><clipPath id="c"><rect width="92" height="92"/></clipPath></defs><g id="b" clip-path="url(#c)"><g transform="translate(21005.203 14038.204)"><g transform="translate(-21001.203 -14034.204)" fill="#8a2047" stroke="#707070" stroke-width="1"><circle cx="42" cy="42" r="42" stroke="none"/><circle cx="42" cy="42" r="41.5" fill="none"/></g><g transform="translate(-21001.203 -14034.204)" clip-path="url(#a)"><g transform="translate(5.597 8.737)"><path d="M305.778,424c2.865-26.054,9.228-41.651,9.228-41.651,2.636-2.242,7.466.047,10.014-2.553,7.14,2.727,11.155,2.394,16.59,2.413l-1.495-3.054s6.727-5.569,9.932,2.49c.154.388.273.766.39,1.143h.009a98.362,98.362,0,0,1,6.393,46.826c-2.893,26.3-31.854,20.13-31.854,20.13S302.912,450.057,305.778,424Z" transform="translate(-296.921 -368.332)" fill="#b44626"/><path d="M316.251,423.512c-.094-12.658,1.137-24.8,6.6-36.443,1.943-.566,7.451-3.375,8.663-4.613,10.422,3.981,10.054-1.7,21.3-.144-.514-2.075,3.34.707,5.877,11.167,2.008,10.917-.192,21.584-3.7,31.91a168.54,168.54,0,0,1-7.557,19.229c-1.34,2.766-2.828,5.452-4.317,8.139a39.332,39.332,0,0,1-11.628-.352,22.145,22.145,0,0,1-8.815-2.095C320.486,441.369,316.318,432.45,316.251,423.512Z" transform="translate(-303.413 -370.989)" fill="#68210f"/><g transform="translate(7.617 133.742)"><path d="M372.39,816.116c-1.686-14.828,1.808-23.253,2.6-31.464l-7.2-66.215,6.046-25.047h23.319l-4.607,77.443-4.03,13.818h-.165c-2.232,18.162-4.739,57.894-4.942,66.561-.249,10.626,9.65,19.634,11.391,21.4s7.593,3.042,7.593,5.892H387.522l-9.492-11.785.949,11.785h-.949s-8.227-14.267-8.227-18.3,4.746-8.994,4.746-8.994S373.026,821.711,372.39,816.116Z" transform="translate(-342.224 -693.39)" fill="#fab57a"/><path d="M405.483,1133.348c0-2.85-5.853-4.128-7.593-5.893-.141-.142-.349-.348-.586-.581-4.7.839-8.31-.942-11.693-4.916-3.434-4.034-12.717-9.27-12.717-6.909,0,4.031,8.227,18.3,8.227,18.3h.949l-.949-11.785,9.492,11.785Z" transform="translate(-345.313 -948.234)" fill="#404041"/><path d="M332.7,771.7s-5.348,14-6.334,17.561-1.727,16.41-1.727,16.41-6.284,31.59-8.925,44.335,5.52,18.852,4.894,28.5H306.214c-3.061-8.056,2.879-29.365,2.879-29.365s-.72-40.99,1.389-48.182a100.031,100.031,0,0,0,2.929-16.017s-11.853-54.785-10.076-62.473c1.965-24.393,6.622-29.077,6.622-29.077h24.759Z" transform="translate(-303.105 -693.39)" fill="#fab57a"/><path d="M351.639,776.714c-2.443.2-4.879.5-7.338.758-4.085.428-27.937.461-34.032.325-3.048-16.458-8.411-49.261-7.008-55.33,1.965-24.393,6.621-29.077,6.621-29.077h48.078l-4.607,77.443Z" transform="translate(-303.031 -693.39)" fill="#414141"/><path d="M360.827,802.458c-2.443.2-36.385-5.335-36.385-5.335l-6.229-45.936,9.674-11.551,32.642-3.71Z" transform="translate(-312.22 -719.134)" fill="#313032"/><path d="M348.5,709.75a140.24,140.24,0,0,1-16.406.374,123.627,123.627,0,0,1-23.907-2.161C310.336,696.081,313,693.39,313,693.39h48.078l-.791,13.3C356.369,707.734,352.585,709.3,348.5,709.75Z" transform="translate(-306.152 -693.39)" fill="#231f20"/><path d="M323.231,1143.982a18.348,18.348,0,0,1,.728,6.188H309.564a21.294,21.294,0,0,1-.843-7.914C312.34,1145.419,318.414,1145.861,323.231,1143.982Z" transform="translate(-306.455 -965.056)" fill="#404041"/></g><g transform="translate(61.227 62.781)"><path d="M441.25,513.638s13.7,50.522,8.064,57.65l-10.157-14.978-.326-31.863C440.226,515.581,441.25,513.638,441.25,513.638Z" transform="translate(-438.831 -513.638)" fill="#434244"/></g><g transform="translate(26.746 46.758)"><path d="M370.927,475.68l-.252-.071-9.109-2.56-9.823,2.631-.257,5.547,19.44-.514Z" transform="translate(-351.487 -473.049)" fill="#b4b4b5"/></g><g transform="translate(23.284 35.797)"><path d="M347.793,445.286s3.474,14.918-2.351,16.73-.5,41.776-.5,41.776l22.636-.694.865-37.571s.854-1.755-3.186-3.511-2.836-14.833-2.836-14.833Z" transform="translate(-342.718 -445.286)" fill="#fab379"/></g><g transform="translate(25.244 35.797)"><path d="M366.19,459.171c-1.586,3.6-3.579,7.516-6.267,8.881-4.038,2.051-9.081-1.835-12.241-5.485a1.783,1.783,0,0,1,.764-.55c5.824-1.812,2.351-16.73,2.351-16.73l14.632,1.9S364.733,454.781,366.19,459.171Z" transform="translate(-347.682 -445.286)" fill="#e68050"/></g><g transform="translate(9.14 52.528)"><path d="M321.8,519.049c1.484-8.457.574-15.656-1.02-24a59.1,59.1,0,0,0-1.3-5.794c2.455-1,4.279-1.588,4.279-1.588l5.085,16.354,6.457,3.951,4.779-4.32,3.5-15.984s16.1,5.37,17.264,9.914c.624,2.436-5.873,23.639-5.193,42.665a170.9,170.9,0,0,0,4.28,31.256s-9.124,5.376-23.205,5.376c-6.839,0-25.093-2.735-29.833-3.647l3.924-26.26S320.353,527.276,321.8,519.049Z" transform="translate(-306.889 -487.666)" fill="#d2edf6"/></g><g transform="translate(36.743 93.096)"><g transform="translate(0 0)"><path d="M378.02,590.429a1.208,1.208,0,1,1-1.208,1.208A1.208,1.208,0,0,1,378.02,590.429Z" transform="translate(-376.812 -590.429)" fill="#b4b4b5"/></g><g transform="translate(0.746 19.505)"><path d="M379.909,639.837a1.208,1.208,0,1,1-1.208,1.208A1.208,1.208,0,0,1,379.909,639.837Z" transform="translate(-378.701 -639.837)" fill="#b4b4b5"/></g></g><g transform="translate(18.142 90.02)" opacity="0.1"><g transform="translate(0 0)"><path d="M359.867,616.725a84.584,84.584,0,0,0,5.151-7.529,47.4,47.4,0,0,0,4.318-8.576c2.349-6.765.028-14.884-6.077-17.842-.381-.017-.77-.025-1.173-.02-2.511.028-4.938,1.024-7.444.884-4.8-.271-13.425-2.177-17.384.1a16.744,16.744,0,0,0-7.193,7.961c-1.365,3.647,1.344,7.467,2.918,10.9,1.512,3.3,5.571,6.769,7.062,10.074,1.667,3.695,4.195,6.307,9.831,8.707C354.506,623.356,357.874,619.262,359.867,616.725Z" transform="translate(-329.692 -582.637)" fill="#211e1f"/></g></g><path d="M390.52,487.666s16.785,5.671,17.949,10.214c.387,1.51-1.043.692-2.268,11.517l1.486,16.177-2.905,9.469c-.02,1.7-.006,3.39.054,5.072.588,16.459,4.981,36.667,4.981,36.667s-6.913,4.274-20.69,4.407c.139-9.8-4.659-23.92-4.675-33.718C384.425,530.617,390.52,487.666,390.52,487.666Z" transform="translate(-344.692 -435.138)" fill="#313032"/><g transform="translate(4.115 52.528)"><path d="M298.733,524.336s-6.095-24.977-4.209-27.856c4.676-4.474,21.531-8.815,21.531-8.815s12.078,42.975,12.106,59.805c.016,9.794-1.768,23.913-1.908,33.705-7.3-.252-25.806-.355-31.314-3.967l8.171-30.242Z" transform="translate(-294.162 -487.666)" fill="#313032"/></g><g transform="translate(39.784 52.528)"><g transform="translate(0.043 34.231)"><path d="M386.384,574.376l-1.762,22.04C384.835,590.41,385.534,582.433,386.384,574.376Z" transform="translate(-384.622 -574.376)" fill="#313032"/></g><g transform="translate(0 56.271)"><path d="M384.513,630.747l.043-.542c-.005.163-.009.315-.014.474Z" transform="translate(-384.513 -630.205)" fill="#313032"/></g><g transform="translate(0.029)"><path d="M391.929,511.415l4.987,4.445-12.329,28.551c0-.159.008-.312.014-.475l1.762-22.04c1.786-16.944,4.239-34.231,4.239-34.231s2.494.989,5.482,2.471l1.266,18.46Z" transform="translate(-384.587 -487.666)" fill="#434244"/></g></g><g transform="translate(44.136 49.388)"><path d="M397.587,479.713c3.707,7.115,2.186,16.963,2.186,16.963l-4.236-1.192Z" transform="translate(-395.537 -479.713)" fill="#d2edf6"/></g><g transform="translate(19.839 52.528)"><path d="M340.385,511.957l-4.77-1.193-1.624-20.7c3.355-1.491,6.169-2.394,6.169-2.394s10.394,36.991,11.915,55.773l-15.918-26.5Z" transform="translate(-333.991 -487.666)" fill="#434244"/></g><g transform="translate(25.467 49.388)"><path d="M349.784,479.713l5.773,16.048-5.3,1.584S346.075,484.123,349.784,479.713Z" transform="translate(-348.249 -479.713)" fill="#d2edf6"/></g><g transform="translate(29.685 65.436)"><path d="M362.023,520.364l-1.545,3.693-1.545-2.778Z" transform="translate(-358.932 -520.364)" fill="#b4b4b5"/></g><g transform="translate(42.329 49.388)"><path d="M390.96,498.837l1.807-3.353,2.05-15.771Z" transform="translate(-390.96 -479.713)" fill="#b4b4b5"/></g><g transform="translate(35.998 73.591)"><path d="M376.132,541.021a1.208,1.208,0,1,1-1.208,1.208A1.208,1.208,0,0,1,376.132,541.021Z" transform="translate(-374.924 -541.021)" fill="#b4b4b5"/></g><g transform="translate(38.234 132.106)"><path d="M381.8,689.245a1.208,1.208,0,1,1-1.208,1.208A1.208,1.208,0,0,1,381.8,689.245Z" transform="translate(-380.589 -689.245)" fill="#b4b4b5"/></g><g transform="translate(16.505 25.418)"><g transform="translate(33.415)"><path d="M410.5,422.947c.767-2.723,2.239-4.439,3.289-3.832s1.279,3.306.512,6.029a6.58,6.58,0,0,1-1.32,2.629c-.623.781-.848,1.65-1.445,1.649C410.511,429.422,409.732,425.671,410.5,422.947Z" transform="translate(-410.19 -418.993)" fill="#e68050"/></g><path d="M329.8,422.947c-.767-2.723-2.239-4.439-3.289-3.832s-1.279,3.306-.512,6.029a6.573,6.573,0,0,0,1.32,2.629c.623.781.848,1.65,1.445,1.649C329.788,429.422,330.567,425.671,329.8,422.947Z" transform="translate(-325.546 -418.993)" fill="#e68050"/></g><g transform="translate(19.435 5.257)"><path d="M349.027,367.925c16.059,0,16.059,16.034,16.059,16.034s-.9,16.132-2.433,19.076-8.743,9.858-13.627,9.858-12.091-6.914-13.627-9.858-2.433-19.076-2.433-19.076S332.967,367.925,349.027,367.925Z" transform="translate(-332.967 -367.925)" fill="#fbbe7d"/></g><g transform="translate(19.435 5.257)"><path d="M333.006,384.626c-.026-.421-.039-.667-.039-.667s0-16.034,16.059-16.034,16.06,16.034,16.06,16.034-.011.2-.03.511C354.5,386.285,343.677,384.9,333.006,384.626Z" transform="translate(-332.967 -367.925)" fill="#e68050"/></g><g transform="translate(29.782 39.308)"><path d="M365.172,456.333c-3.515.263-6.211-1.2-5.98-1.794a.234.234,0,0,1,.052-.088,23.443,23.443,0,0,0,11.359-.272C370.13,454.907,368.012,456.142,365.172,456.333Z" transform="translate(-359.178 -454.18)" fill="#e58052"/></g><g transform="translate(32.076 31.922)"><path d="M367,438.72c-.259.426-.244.35-.072.677a3.69,3.69,0,0,0,.57.623c.371.4-1.256.3-1.54-.013-.237-.259-.812-.685-.928-1.031-.139-.411.152-.565.441-.812a5.084,5.084,0,0,0,1.646-2.643C367.221,435.1,367.879,437.268,367,438.72Z" transform="translate(-364.989 -435.469)" fill="#e58052"/></g><g transform="translate(17.98 74.008)"><path d="M368.575,590.46l-33.145,4.431-6.148-48.382,33.145-4.431Z" transform="translate(-329.281 -542.077)" fill="#0b1f2e"/></g><path d="M416.7,543.8l-3.455-1.727,6.148,48.382,3.455,1.727Z" transform="translate(-362.117 -468.069)" fill="#1c77ba"/><path d="M366.057,545.654l-3.131-1.573-31.9,4.38,5.953,47.577,1.668,1.221,33.458-4.534Z" transform="translate(-312.356 -469.282)" fill="#e5e6e6"/><g transform="translate(19.707 75.735)"><rect width="35.153" height="48.771" transform="translate(0 4.431) rotate(-7.242)" fill="#1c77ba"/></g><g transform="translate(22.119 78.564)"><path d="M376.985,597.476l-32.514,2.7-4.7-44.22,30.836-2.337Z" transform="translate(-339.767 -553.617)" fill="#11426d"/></g><g transform="translate(0 61.889)"><path d="M288.455,511.378s-7.665,12.91-3.455,59.964l53.763-9.048-2.451-10-38.424,6.731-2.906-21.081C295.477,526.472,288.455,511.378,288.455,511.378Z" transform="translate(-283.737 -511.378)" fill="#434244"/></g><g transform="translate(47.721 99.663)"><g transform="translate(0 2.778)"><path d="M405.824,615l4.03-.894,1.5,10.61-6.732.612Z" transform="translate(-404.62 -614.102)" fill="#d2edf6"/></g><g transform="translate(5.234)"><path d="M417.878,609.843s4.735-3.949,5.732-2.429c1.4,2.13-1.634,2.462-1.634,2.462s4.39-.183,5.324,1.383.436,9.133-1.626,9.529-6.3-.334-6.3-.334Z" transform="translate(-417.878 -607.065)" fill="#fab379"/></g></g><g transform="translate(19.826 103.258)"><g transform="translate(8.823 2.712)"><path d="M361.155,623.654l-4.082-.615-.765,10.688,6.758.148Z" transform="translate(-356.307 -623.038)" fill="#d2edf6"/></g><path d="M343.547,618.881s-7.676-3.994-8.3-2.287c-.647,1.771,2.331,2.9,2.331,2.9s-2.51-.182-3.334,1.444.192,9.141,2.277,9.395,6.26-.766,6.26-.766Z" transform="translate(-333.959 -616.17)" fill="#fab379"/></g><g transform="translate(31.268 105.423)"><path d="M403.384,636.664l-40.443-3.077.068-11.56,32.89-.37S409.015,629.535,403.384,636.664Z" transform="translate(-362.941 -621.656)" fill="#434244"/></g><path d="M357.889,362.229s-4.8-2.364-6.879-2.665-9.949,2.31-13.537,4.6-6.224,12.221-6.224,12.221,4.905-8.829,7.054-10.533,12.189-4.292,13.422-4.181Z" transform="translate(-312.493 -357.593)" fill="#bf6741"/><path d="M342.95,355.472c15.069-4.135,16.435,7.92,16.435,7.92l2.144,2.173c1.944,3.034,3.856,6.041,3.856,9.7a122.806,122.806,0,0,1-25.106.861s-6.706-.291-11.527-.7C327.962,368.929,329.31,359.215,342.95,355.472Z" transform="translate(-310.874 -354.608)" fill="#b44626"/><g transform="translate(21.897 19.592)"><g transform="translate(16.933)"><path d="M382.287,405.488a2.761,2.761,0,0,0,.292-.056c5.836-1.264,8.8,1.813,8.725,1.674a1.538,1.538,0,0,0,.894.4c.227-.017.215-.239-.052-.5-.007.143-2.6-3.8-9.575-2.512C382.093,404.607,381.936,405.541,382.287,405.488Z" transform="translate(-382.096 -404.238)" fill="#682b1c"/></g><g transform="translate(0 1.222)"><path d="M348.855,408.636a2.21,2.21,0,0,1-.262-.056,9.744,9.744,0,0,0-8.325,1.315,1.534,1.534,0,0,1-.914.345c-.226-.03-.195-.253.092-.494-.028.1,2.98-3.526,9.28-2.067C349.15,407.8,349.169,408.688,348.855,408.636Z" transform="translate(-339.205 -407.332)" fill="#682b1c"/></g></g><path d="M358.271,375.638s-8.3-3.091-10.377-3.392-6.508.512-9.9,1.467-5.316,5.977-5.316,5.977a52.488,52.488,0,0,0,7.274,1.086c2.715.19,16.274.747,17.5.891S358.271,375.638,358.271,375.638Z" transform="translate(-313.356 -365.244)" fill="#bf6741"/><circle cx="1.313" cy="1.313" r="1.313" transform="translate(27.348 26.16)" fill="#643a19"/><circle cx="1.313" cy="1.313" r="1.313" transform="translate(41.097 25.923)" fill="#643a19"/></g></g><g transform="translate(-21001.203 -14034.204)" fill="none" stroke="#fff" stroke-width="1.5"><circle cx="42" cy="42" r="42" stroke="none"/><circle cx="42" cy="42" r="41.25" fill="none"/></g><g transform="translate(-21004.203 -14037.204)" fill="none" stroke="#fff" stroke-width="1" opacity="0.3"><circle cx="45" cy="45" r="45" stroke="none"/><circle cx="45" cy="45" r="44.5" fill="none"/></g></g></g></svg>