<svg xmlns="http://www.w3.org/2000/svg" xmlns:xlink="http://www.w3.org/1999/xlink" width="56" height="56" viewBox="0 0 56 56">
  <defs>
    <clipPath id="clip-audio_icon">
      <rect width="56" height="56"/>
    </clipPath>
  </defs>
  <g id="audio_icon" clip-path="url(#clip-audio_icon)">
    <g id="Group_1017" data-name="Group 1017" transform="translate(5 11)">
      <path id="Path_1731" data-name="Path 1731" d="M398.374,245.3l-11.189,7.7c-1.016.7-1.847,1.276-1.847,1.285s-1.006.013-2.236.013h-4.394a2.253,2.253,0,0,0-2.236,2.256v11.13a2.253,2.253,0,0,0,2.236,2.256h4.421a8.463,8.463,0,0,1,4.083,1.272l11.162,7.688c1.016.7,1.847.257,1.847-.984V246.282C400.221,245.041,399.39,244.6,398.374,245.3Z" transform="translate(-376.472 -244.965)" fill="#fff"/>
      <path id="Path_1732" data-name="Path 1732" d="M413.567,262.817a10.3,10.3,0,0,0-5.125-8.875,1.973,1.973,0,0,0-1.979,3.413,6.3,6.3,0,0,1,0,10.924,1.972,1.972,0,0,0,1.977,3.413A10.291,10.291,0,0,0,413.567,262.817Z" transform="translate(-376.168 -244.802)" fill="#fff"/>
      <path id="Path_1733" data-name="Path 1733" d="M413,246.3a2.355,2.355,0,0,0-3.234.87,2.4,2.4,0,0,0,.862,3.262,14.535,14.535,0,0,1,0,25.08,2.4,2.4,0,0,0-.862,3.263,2.352,2.352,0,0,0,3.234.87,19.333,19.333,0,0,0,0-33.344Z" transform="translate(-376.074 -244.965)" fill="#fff"/>
    </g>
  </g>
</svg>
