<svg xmlns="http://www.w3.org/2000/svg" width="780.78" height="388.76" viewBox="0 0 780.78 388.76">
  <title>bars</title>
  <g id="Layer_2" data-name="Layer 2">
    <g id="settings">
      <g id="bars">
        <g style="opacity: 0.15">
          <g>
            <path d="M747.7,286.13H651.93V276H747.7Zm-95-.75H747v-8.62H652.68Z" style="fill: #fff"/>
            <g style="opacity: 0.8">
              <rect x="653.15" y="277.18" width="74.1" height="7.76" style="fill: #fff"/>
            </g>
          </g>
          <g>
            <polygon points="747.7 324.14 651.93 324.14 651.93 321.42 652.68 321.42 652.68 323.39 746.95 323.39 746.95 321.42 747.7 321.42 747.7 324.14" style="fill: #fff"/>
            <polygon points="747.7 316.74 746.95 316.74 746.95 314.77 652.68 314.77 652.68 316.74 651.93 316.74 651.93 314.02 747.7 314.02 747.7 316.74" style="fill: #fff"/>
            <g style="opacity: 0.8">
              <rect x="653.15" y="315.2" width="4.5" height="7.76" style="fill: #fff"/>
            </g>
            <g style="opacity: 0.7000000000000001">
              <rect x="658.8" y="315.2" width="4.5" height="7.76" style="fill: #fff"/>
            </g>
            <g style="opacity: 0.6000000000000001">
              <rect x="664.45" y="315.2" width="4.5" height="7.76" style="fill: #fff"/>
            </g>
            <g style="opacity: 0.5">
              <rect x="670.1" y="315.2" width="4.5" height="7.76" style="fill: #fff"/>
            </g>
            <g style="opacity: 0.4">
              <rect x="675.75" y="315.2" width="4.5" height="7.76" style="fill: #fff"/>
            </g>
            <g style="opacity: 0.30000000000000004">
              <rect x="681.4" y="315.2" width="4.5" height="7.76" style="fill: #fff"/>
            </g>
            <g style="opacity: 0.2">
              <rect x="687.06" y="315.2" width="4.5" height="7.76" style="fill: #fff"/>
            </g>
            <g style="opacity: 0.1">
              <rect x="692.71" y="315.2" width="4.5" height="7.76" style="fill: #fff"/>
            </g>
          </g>
          <g>
            <path d="M742.64,305.13H657A5.06,5.06,0,0,1,657,295h85.65a5.06,5.06,0,1,1,0,10.12ZM657,295.76a4.31,4.31,0,0,0,0,8.62h85.65a4.31,4.31,0,1,0,0-8.62Z" style="fill: #fff"/>
            <g style="opacity: 0.8">
              <path d="M713,296.19H657a3.89,3.89,0,0,0,0,7.77h63.53Z" style="fill: #fff"/>
            </g>
          </g>
          <g>
            <path d="M742.64,343.15H657A5.06,5.06,0,0,1,657,333h85.65a5.06,5.06,0,1,1,0,10.12ZM657,333.78a4.31,4.31,0,0,0,0,8.62h85.65a4.31,4.31,0,1,0,0-8.62Z" style="fill: #fff"/>
            <g style="opacity: 0.8">
              <path d="M713.37,334.21H657a3.88,3.88,0,1,0,0,7.76h56.34Z" style="fill: #fff"/>
            </g>
            <circle cx="713.37" cy="338.09" r="3.88" style="fill: #fff"/>
          </g>
        </g>
        <g style="opacity: 0.15">
          <path d="M10.12,382.31,13.06,379a1.07,1.07,0,0,0,.12-.77c0-.3-.19-.44-.31-.3L9,382.31Z" style="fill: #fff"/>
          <path d="M6.21,382.31l6.85-7.74a1.09,1.09,0,0,0,.12-.78c0-.29-.19-.43-.31-.29l-7.8,8.81Z" style="fill: #fff"/>
          <path d="M2.69,381.82c-.08,0-.17-.13-.21-.35a1.07,1.07,0,0,1,.12-.77l10.27-11.61c.12-.14.26,0,.31.29a1.09,1.09,0,0,1-.12.78L2.79,381.77A.11.11,0,0,1,2.69,381.82Z" style="fill: #fff"/>
          <path d="M2.69,377.41c-.08,0-.17-.13-.21-.35a1.11,1.11,0,0,1,.12-.78l10.27-11.61c.12-.13.26,0,.31.3a1.11,1.11,0,0,1-.12.78L2.79,377.36A.14.14,0,0,1,2.69,377.41Z" style="fill: #fff"/>
          <path d="M2.69,373c-.08,0-.17-.13-.21-.35a1.1,1.1,0,0,1,.12-.78l10.27-11.61c.12-.13.26,0,.31.3a1.07,1.07,0,0,1-.12.77L2.79,373A.14.14,0,0,1,2.69,373Z" style="fill: #fff"/>
          <path d="M2.69,368.59c-.08,0-.17-.13-.21-.35a1.09,1.09,0,0,1,.12-.78l10.27-11.61c.12-.14.26,0,.31.29a1.09,1.09,0,0,1-.12.78L2.79,368.53A.12.12,0,0,1,2.69,368.59Z" style="fill: #fff"/>
          <path d="M2.69,364.17c-.08,0-.17-.13-.21-.34a1.09,1.09,0,0,1,.12-.78l10.27-11.61c.12-.14.26,0,.31.29a1.09,1.09,0,0,1-.12.78L2.79,364.12A.11.11,0,0,1,2.69,364.17Z" style="fill: #fff"/>
          <path d="M2.69,359.76c-.08,0-.17-.13-.21-.35a1.07,1.07,0,0,1,.12-.77L12.87,347c.12-.13.26,0,.31.3a1.1,1.1,0,0,1-.12.78L2.79,359.71A.11.11,0,0,1,2.69,359.76Z" style="fill: #fff"/>
          <path d="M2.69,355.35c-.08,0-.17-.13-.21-.35a1.11,1.11,0,0,1,.12-.78l10.27-11.61c.12-.13.26,0,.31.3a1.07,1.07,0,0,1-.12.77L2.79,355.3A.14.14,0,0,1,2.69,355.35Z" style="fill: #fff"/>
          <path d="M2.69,350.94c-.08,0-.17-.13-.21-.35a1.1,1.1,0,0,1,.12-.78L12.87,338.2c.12-.14.26,0,.31.29a1.09,1.09,0,0,1-.12.78L2.79,350.88A.12.12,0,0,1,2.69,350.94Z" style="fill: #fff"/>
          <path d="M2.69,346.52c-.08,0-.17-.12-.21-.34a1.09,1.09,0,0,1,.12-.78l10.27-11.61c.12-.14.26,0,.31.29a1.09,1.09,0,0,1-.12.78L2.79,346.47A.11.11,0,0,1,2.69,346.52Z" style="fill: #fff"/>
          <path d="M2.69,342.11c-.08,0-.17-.13-.21-.34A1.09,1.09,0,0,1,2.6,341l10.27-11.62c.12-.13.26,0,.31.3a1.1,1.1,0,0,1-.12.78L2.79,342.06A.11.11,0,0,1,2.69,342.11Z" style="fill: #fff"/>
          <path d="M2.69,337.7c-.08,0-.17-.13-.21-.35a1.07,1.07,0,0,1,.12-.77L12.87,325c.12-.13.26,0,.31.3a1.11,1.11,0,0,1-.12.78L2.79,337.65A.14.14,0,0,1,2.69,337.7Z" style="fill: #fff"/>
          <path d="M2.69,333.29c-.08,0-.17-.13-.21-.35a1.1,1.1,0,0,1,.12-.78l10.27-11.61c.12-.13.26,0,.31.3a1.07,1.07,0,0,1-.12.77L2.79,333.24A.14.14,0,0,1,2.69,333.29Z" style="fill: #fff"/>
          <path d="M2.69,328.88c-.08,0-.17-.13-.21-.35a1.09,1.09,0,0,1,.12-.78l10.27-11.61c.12-.14.26,0,.31.29a1.09,1.09,0,0,1-.12.78L2.79,328.82A.12.12,0,0,1,2.69,328.88Z" style="fill: #fff"/>
          <path d="M2.69,324.46c-.08,0-.17-.13-.21-.34a1.09,1.09,0,0,1,.12-.78l10.27-11.61c.12-.14.26,0,.31.29a1.09,1.09,0,0,1-.12.78L2.79,324.41A.11.11,0,0,1,2.69,324.46Z" style="fill: #fff"/>
          <path d="M2.69,320.05c-.08,0-.17-.13-.21-.35a1.07,1.07,0,0,1,.12-.77l10.27-11.62c.12-.13.26,0,.31.3a1.1,1.1,0,0,1-.12.78L2.79,320A.14.14,0,0,1,2.69,320.05Z" style="fill: #fff"/>
          <path d="M2.69,315.64c-.08,0-.17-.13-.21-.35a1.1,1.1,0,0,1,.12-.78L12.87,302.9c.12-.13.26,0,.31.3a1.11,1.11,0,0,1-.12.78L2.79,315.59A.14.14,0,0,1,2.69,315.64Z" style="fill: #fff"/>
          <path d="M2.69,311.23c-.08,0-.17-.13-.21-.35a1.1,1.1,0,0,1,.12-.78l10.27-11.61c.12-.13.26,0,.31.3a1.07,1.07,0,0,1-.12.77L2.79,311.18A.14.14,0,0,1,2.69,311.23Z" style="fill: #fff"/>
          <path d="M2.69,306.81c-.08,0-.17-.12-.21-.34a1.09,1.09,0,0,1,.12-.78l10.27-11.61c.12-.14.26,0,.31.29a1.09,1.09,0,0,1-.12.78L2.79,306.76A.11.11,0,0,1,2.69,306.81Z" style="fill: #fff"/>
          <path d="M2.69,302.4c-.08,0-.17-.13-.21-.34a1.09,1.09,0,0,1,.12-.78l10.27-11.61c.12-.14.26,0,.31.29a1.1,1.1,0,0,1-.12.78L2.79,302.35A.11.11,0,0,1,2.69,302.4Z" style="fill: #fff"/>
          <path d="M2.69,298c-.08,0-.17-.13-.21-.35a1.07,1.07,0,0,1,.12-.77l10.27-11.62c.12-.13.26,0,.31.3a1.11,1.11,0,0,1-.12.78L2.79,297.94A.14.14,0,0,1,2.69,298Z" style="fill: #fff"/>
          <path d="M2.69,293.58c-.08,0-.17-.13-.21-.35a1.1,1.1,0,0,1,.12-.78l10.27-11.61c.12-.13.26,0,.31.3a1.07,1.07,0,0,1-.12.77L2.79,293.53A.14.14,0,0,1,2.69,293.58Z" style="fill: #fff"/>
          <path d="M2.69,289.17c-.08,0-.17-.13-.21-.35A1.09,1.09,0,0,1,2.6,288l10.27-11.61c.12-.13.26,0,.31.29a1.09,1.09,0,0,1-.12.78L2.79,289.11A.12.12,0,0,1,2.69,289.17Z" style="fill: #fff"/>
          <path d="M2.69,284.75c-.08,0-.17-.13-.21-.34a1.09,1.09,0,0,1,.12-.78L12.87,272c.12-.14.26,0,.31.29a1.09,1.09,0,0,1-.12.78L2.79,284.7A.11.11,0,0,1,2.69,284.75Z" style="fill: #fff"/>
          <path d="M2.69,280.34c-.08,0-.17-.13-.21-.35a1.07,1.07,0,0,1,.12-.77L12.87,267.6c.12-.13.26,0,.31.3a1.1,1.1,0,0,1-.12.78L2.79,280.29A.14.14,0,0,1,2.69,280.34Z" style="fill: #fff"/>
          <path d="M2.69,275.93c-.08,0-.17-.13-.21-.35a1.11,1.11,0,0,1,.12-.78l10.27-11.61c.12-.13.26,0,.31.3a1.07,1.07,0,0,1-.12.77L2.79,275.88A.14.14,0,0,1,2.69,275.93Z" style="fill: #fff"/>
          <path d="M2.69,271.52c-.08,0-.17-.13-.21-.35a1.09,1.09,0,0,1,.12-.78l10.27-11.61c.12-.13.26,0,.31.29a1.09,1.09,0,0,1-.12.78L2.79,271.46A.12.12,0,0,1,2.69,271.52Z" style="fill: #fff"/>
          <path d="M2.69,267.1c-.08,0-.17-.12-.21-.34A1.09,1.09,0,0,1,2.6,266l10.27-11.61c.12-.14.26,0,.31.29a1.09,1.09,0,0,1-.12.78L2.79,267.05A.11.11,0,0,1,2.69,267.1Z" style="fill: #fff"/>
          <path d="M2.69,262.69c-.08,0-.17-.13-.21-.34a1.09,1.09,0,0,1,.12-.78L12.87,250c.12-.14.26,0,.31.29a1.1,1.1,0,0,1-.12.78L2.79,262.64A.11.11,0,0,1,2.69,262.69Z" style="fill: #fff"/>
          <path d="M2.69,258.28c-.08,0-.17-.13-.21-.35a1.07,1.07,0,0,1,.12-.77l10.27-11.62c.12-.13.26,0,.31.3a1.11,1.11,0,0,1-.12.78L2.79,258.23A.14.14,0,0,1,2.69,258.28Z" style="fill: #fff"/>
          <path d="M2.69,253.87c-.08,0-.17-.13-.21-.35a1.1,1.1,0,0,1,.12-.78l10.27-11.61c.12-.13.26,0,.31.3a1.07,1.07,0,0,1-.12.77L2.79,253.82A.14.14,0,0,1,2.69,253.87Z" style="fill: #fff"/>
          <path d="M2.69,249.46c-.08,0-.17-.13-.21-.35a1.09,1.09,0,0,1,.12-.78l10.27-11.61c.12-.14.26,0,.31.29a1.09,1.09,0,0,1-.12.78L2.79,249.4A.12.12,0,0,1,2.69,249.46Z" style="fill: #fff"/>
          <path d="M2.69,245c-.08,0-.17-.13-.21-.34a1.09,1.09,0,0,1,.12-.78l10.27-11.61c.12-.14.26,0,.31.29a1.09,1.09,0,0,1-.12.78L2.79,245A.11.11,0,0,1,2.69,245Z" style="fill: #fff"/>
          <path d="M2.69,240.63c-.08,0-.17-.13-.21-.35a1.07,1.07,0,0,1,.12-.77l10.27-11.62c.12-.13.26,0,.31.3a1.1,1.1,0,0,1-.12.78L2.79,240.58A.14.14,0,0,1,2.69,240.63Z" style="fill: #fff"/>
          <path d="M2.69,236.22c-.08,0-.17-.13-.21-.35a1.11,1.11,0,0,1,.12-.78l10.27-11.61c.12-.13.26,0,.31.3a1.07,1.07,0,0,1-.12.77L2.79,236.17A.14.14,0,0,1,2.69,236.22Z" style="fill: #fff"/>
          <path d="M2.69,231.81c-.08,0-.17-.13-.21-.35a1.1,1.1,0,0,1,.12-.78l10.27-11.61c.12-.13.26,0,.31.29a1.09,1.09,0,0,1-.12.78L2.79,231.76A.14.14,0,0,1,2.69,231.81Z" style="fill: #fff"/>
          <path d="M2.69,227.39c-.08,0-.17-.12-.21-.34a1.09,1.09,0,0,1,.12-.78l10.27-11.61c.12-.13.26,0,.31.29a1.09,1.09,0,0,1-.12.78L2.79,227.34A.11.11,0,0,1,2.69,227.39Z" style="fill: #fff"/>
          <path d="M2.69,223c-.08,0-.17-.13-.21-.34a1.09,1.09,0,0,1,.12-.78l10.27-11.61c.12-.14.26,0,.31.29a1.09,1.09,0,0,1-.12.78L2.79,222.93A.11.11,0,0,1,2.69,223Z" style="fill: #fff"/>
          <path d="M2.69,218.57c-.08,0-.17-.13-.21-.35a1.07,1.07,0,0,1,.12-.77l10.27-11.62c.12-.13.26,0,.31.3a1.11,1.11,0,0,1-.12.78L2.79,218.52A.14.14,0,0,1,2.69,218.57Z" style="fill: #fff"/>
          <path d="M2.69,214.16c-.08,0-.17-.13-.21-.35A1.1,1.1,0,0,1,2.6,213l10.27-11.61c.12-.13.26,0,.31.3a1.07,1.07,0,0,1-.12.77L2.79,214.11A.14.14,0,0,1,2.69,214.16Z" style="fill: #fff"/>
          <path d="M2.69,209.75c-.08,0-.17-.13-.21-.35a1.09,1.09,0,0,1,.12-.78L12.87,197c.12-.13.26,0,.31.29a1.09,1.09,0,0,1-.12.78L2.79,209.69A.12.12,0,0,1,2.69,209.75Z" style="fill: #fff"/>
          <path d="M25.87,382.31,28.81,379a1.07,1.07,0,0,0,.12-.77c-.05-.3-.19-.44-.31-.3l-3.89,4.4Z" style="fill: #fff"/>
          <path d="M22,382.31l6.85-7.74a1.09,1.09,0,0,0,.12-.78c-.05-.29-.19-.43-.31-.29l-7.8,8.81Z" style="fill: #fff"/>
          <path d="M18.44,381.82c-.08,0-.17-.13-.21-.35a1.07,1.07,0,0,1,.12-.77l10.27-11.61c.12-.14.26,0,.31.29a1.09,1.09,0,0,1-.12.78L18.54,381.77A.11.11,0,0,1,18.44,381.82Z" style="fill: #fff"/>
          <path d="M18.44,377.41c-.08,0-.17-.13-.21-.35a1.11,1.11,0,0,1,.12-.78l10.27-11.61c.12-.13.26,0,.31.3a1.11,1.11,0,0,1-.12.78L18.54,377.36A.14.14,0,0,1,18.44,377.41Z" style="fill: #fff"/>
          <path d="M18.44,373c-.08,0-.17-.13-.21-.35a1.1,1.1,0,0,1,.12-.78l10.27-11.61c.12-.13.26,0,.31.3a1.07,1.07,0,0,1-.12.77L18.54,373A.14.14,0,0,1,18.44,373Z" style="fill: #fff"/>
          <path d="M18.44,368.59c-.08,0-.17-.13-.21-.35a1.09,1.09,0,0,1,.12-.78l10.27-11.61c.12-.14.26,0,.31.29a1.09,1.09,0,0,1-.12.78L18.54,368.53A.12.12,0,0,1,18.44,368.59Z" style="fill: #fff"/>
          <path d="M18.44,364.17c-.08,0-.17-.13-.21-.34a1.09,1.09,0,0,1,.12-.78l10.27-11.61c.12-.14.26,0,.31.29a1.09,1.09,0,0,1-.12.78L18.54,364.12A.11.11,0,0,1,18.44,364.17Z" style="fill: #fff"/>
          <path d="M18.44,359.76c-.08,0-.17-.13-.21-.35a1.07,1.07,0,0,1,.12-.77L28.62,347c.12-.13.26,0,.31.3a1.1,1.1,0,0,1-.12.78L18.54,359.71A.11.11,0,0,1,18.44,359.76Z" style="fill: #fff"/>
          <path d="M18.44,355.35c-.08,0-.17-.13-.21-.35a1.11,1.11,0,0,1,.12-.78l10.27-11.61c.12-.13.26,0,.31.3a1.07,1.07,0,0,1-.12.77L18.54,355.3A.14.14,0,0,1,18.44,355.35Z" style="fill: #fff"/>
          <path d="M18.44,350.94c-.08,0-.17-.13-.21-.35a1.1,1.1,0,0,1,.12-.78L28.62,338.2c.12-.14.26,0,.31.29a1.09,1.09,0,0,1-.12.78L18.54,350.88A.12.12,0,0,1,18.44,350.94Z" style="fill: #fff"/>
          <path d="M18.44,346.52c-.08,0-.17-.12-.21-.34a1.09,1.09,0,0,1,.12-.78l10.27-11.61c.12-.14.26,0,.31.29a1.09,1.09,0,0,1-.12.78L18.54,346.47A.11.11,0,0,1,18.44,346.52Z" style="fill: #fff"/>
          <path d="M18.44,342.11c-.08,0-.17-.13-.21-.34a1.09,1.09,0,0,1,.12-.78l10.27-11.62c.12-.13.26,0,.31.3a1.1,1.1,0,0,1-.12.78L18.54,342.06A.11.11,0,0,1,18.44,342.11Z" style="fill: #fff"/>
          <path d="M18.44,337.7c-.08,0-.17-.13-.21-.35a1.07,1.07,0,0,1,.12-.77L28.62,325c.12-.13.26,0,.31.3a1.11,1.11,0,0,1-.12.78L18.54,337.65A.14.14,0,0,1,18.44,337.7Z" style="fill: #fff"/>
          <path d="M18.44,333.29c-.08,0-.17-.13-.21-.35a1.1,1.1,0,0,1,.12-.78l10.27-11.61c.12-.13.26,0,.31.3a1.07,1.07,0,0,1-.12.77L18.54,333.24A.14.14,0,0,1,18.44,333.29Z" style="fill: #fff"/>
          <path d="M18.44,328.88c-.08,0-.17-.13-.21-.35a1.09,1.09,0,0,1,.12-.78l10.27-11.61c.12-.14.26,0,.31.29a1.09,1.09,0,0,1-.12.78L18.54,328.82A.12.12,0,0,1,18.44,328.88Z" style="fill: #fff"/>
          <path d="M18.44,324.46c-.08,0-.17-.13-.21-.34a1.09,1.09,0,0,1,.12-.78l10.27-11.61c.12-.14.26,0,.31.29a1.09,1.09,0,0,1-.12.78L18.54,324.41A.11.11,0,0,1,18.44,324.46Z" style="fill: #fff"/>
          <path d="M18.44,320.05c-.08,0-.17-.13-.21-.35a1.07,1.07,0,0,1,.12-.77l10.27-11.62c.12-.13.26,0,.31.3a1.1,1.1,0,0,1-.12.78L18.54,320A.14.14,0,0,1,18.44,320.05Z" style="fill: #fff"/>
          <path d="M18.44,315.64c-.08,0-.17-.13-.21-.35a1.1,1.1,0,0,1,.12-.78L28.62,302.9c.12-.13.26,0,.31.3a1.11,1.11,0,0,1-.12.78L18.54,315.59A.14.14,0,0,1,18.44,315.64Z" style="fill: #fff"/>
          <path d="M18.44,311.23c-.08,0-.17-.13-.21-.35a1.1,1.1,0,0,1,.12-.78l10.27-11.61c.12-.13.26,0,.31.3a1.07,1.07,0,0,1-.12.77L18.54,311.18A.14.14,0,0,1,18.44,311.23Z" style="fill: #fff"/>
          <path d="M18.44,306.81c-.08,0-.17-.12-.21-.34a1.09,1.09,0,0,1,.12-.78l10.27-11.61c.12-.14.26,0,.31.29a1.09,1.09,0,0,1-.12.78L18.54,306.76A.11.11,0,0,1,18.44,306.81Z" style="fill: #fff"/>
          <path d="M18.44,302.4c-.08,0-.17-.13-.21-.34a1.09,1.09,0,0,1,.12-.78l10.27-11.61c.12-.14.26,0,.31.29a1.1,1.1,0,0,1-.12.78L18.54,302.35A.11.11,0,0,1,18.44,302.4Z" style="fill: #fff"/>
          <path d="M18.44,298c-.08,0-.17-.13-.21-.35a1.07,1.07,0,0,1,.12-.77l10.27-11.62c.12-.13.26,0,.31.3a1.11,1.11,0,0,1-.12.78L18.54,297.94A.14.14,0,0,1,18.44,298Z" style="fill: #fff"/>
          <path d="M18.44,293.58c-.08,0-.17-.13-.21-.35a1.1,1.1,0,0,1,.12-.78l10.27-11.61c.12-.13.26,0,.31.3a1.07,1.07,0,0,1-.12.77L18.54,293.53A.14.14,0,0,1,18.44,293.58Z" style="fill: #fff"/>
          <path d="M18.44,289.17c-.08,0-.17-.13-.21-.35a1.09,1.09,0,0,1,.12-.78l10.27-11.61c.12-.13.26,0,.31.29a1.09,1.09,0,0,1-.12.78L18.54,289.11A.12.12,0,0,1,18.44,289.17Z" style="fill: #fff"/>
          <path d="M18.44,284.75c-.08,0-.17-.13-.21-.34a1.09,1.09,0,0,1,.12-.78L28.62,272c.12-.14.26,0,.31.29a1.09,1.09,0,0,1-.12.78L18.54,284.7A.11.11,0,0,1,18.44,284.75Z" style="fill: #fff"/>
          <path d="M18.44,280.34c-.08,0-.17-.13-.21-.35a1.07,1.07,0,0,1,.12-.77L28.62,267.6c.12-.13.26,0,.31.3a1.1,1.1,0,0,1-.12.78L18.54,280.29A.14.14,0,0,1,18.44,280.34Z" style="fill: #fff"/>
          <path d="M18.44,275.93c-.08,0-.17-.13-.21-.35a1.11,1.11,0,0,1,.12-.78l10.27-11.61c.12-.13.26,0,.31.3a1.07,1.07,0,0,1-.12.77L18.54,275.88A.14.14,0,0,1,18.44,275.93Z" style="fill: #fff"/>
          <path d="M18.44,271.52c-.08,0-.17-.13-.21-.35a1.09,1.09,0,0,1,.12-.78l10.27-11.61c.12-.13.26,0,.31.29a1.09,1.09,0,0,1-.12.78L18.54,271.46A.12.12,0,0,1,18.44,271.52Z" style="fill: #fff"/>
          <path d="M18.44,267.1c-.08,0-.17-.12-.21-.34a1.09,1.09,0,0,1,.12-.78l10.27-11.61c.12-.14.26,0,.31.29a1.09,1.09,0,0,1-.12.78L18.54,267.05A.11.11,0,0,1,18.44,267.1Z" style="fill: #fff"/>
          <path d="M41.62,382.31,44.56,379a1.07,1.07,0,0,0,.12-.77c0-.3-.19-.44-.31-.3l-3.89,4.4Z" style="fill: #fff"/>
          <path d="M37.71,382.31l6.85-7.74a1.09,1.09,0,0,0,.12-.78c0-.29-.19-.43-.31-.29l-7.8,8.81Z" style="fill: #fff"/>
          <path d="M34.19,381.82c-.09,0-.17-.13-.21-.35a1.07,1.07,0,0,1,.12-.77l10.27-11.61c.12-.14.26,0,.31.29a1.09,1.09,0,0,1-.12.78L34.29,381.77A.11.11,0,0,1,34.19,381.82Z" style="fill: #fff"/>
          <path d="M34.19,377.41c-.09,0-.17-.13-.21-.35a1.11,1.11,0,0,1,.12-.78l10.27-11.61c.12-.13.26,0,.31.3a1.11,1.11,0,0,1-.12.78L34.29,377.36A.14.14,0,0,1,34.19,377.41Z" style="fill: #fff"/>
          <path d="M34.19,373c-.09,0-.17-.13-.21-.35a1.1,1.1,0,0,1,.12-.78l10.27-11.61c.12-.13.26,0,.31.3a1.07,1.07,0,0,1-.12.77L34.29,373A.14.14,0,0,1,34.19,373Z" style="fill: #fff"/>
          <path d="M34.19,368.59c-.09,0-.17-.13-.21-.35a1.09,1.09,0,0,1,.12-.78l10.27-11.61c.12-.14.26,0,.31.29a1.09,1.09,0,0,1-.12.78L34.29,368.53A.12.12,0,0,1,34.19,368.59Z" style="fill: #fff"/>
          <path d="M34.19,364.17c-.09,0-.17-.13-.21-.34a1.09,1.09,0,0,1,.12-.78l10.27-11.61c.12-.14.26,0,.31.29a1.09,1.09,0,0,1-.12.78L34.29,364.12A.11.11,0,0,1,34.19,364.17Z" style="fill: #fff"/>
          <path d="M34.19,359.76c-.09,0-.17-.13-.21-.35a1.07,1.07,0,0,1,.12-.77L44.37,347c.12-.13.26,0,.31.3a1.1,1.1,0,0,1-.12.78L34.29,359.71A.11.11,0,0,1,34.19,359.76Z" style="fill: #fff"/>
          <path d="M34.19,355.35c-.09,0-.17-.13-.21-.35a1.11,1.11,0,0,1,.12-.78l10.27-11.61c.12-.13.26,0,.31.3a1.07,1.07,0,0,1-.12.77L34.29,355.3A.14.14,0,0,1,34.19,355.35Z" style="fill: #fff"/>
          <path d="M34.19,350.94c-.09,0-.17-.13-.21-.35a1.1,1.1,0,0,1,.12-.78L44.37,338.2c.12-.14.26,0,.31.29a1.09,1.09,0,0,1-.12.78L34.29,350.88A.12.12,0,0,1,34.19,350.94Z" style="fill: #fff"/>
          <path d="M34.19,346.52c-.09,0-.17-.12-.21-.34a1.09,1.09,0,0,1,.12-.78l10.27-11.61c.12-.14.26,0,.31.29a1.09,1.09,0,0,1-.12.78L34.29,346.47A.11.11,0,0,1,34.19,346.52Z" style="fill: #fff"/>
          <path d="M34.19,342.11c-.09,0-.17-.13-.21-.34a1.09,1.09,0,0,1,.12-.78l10.27-11.62c.12-.13.26,0,.31.3a1.1,1.1,0,0,1-.12.78L34.29,342.06A.11.11,0,0,1,34.19,342.11Z" style="fill: #fff"/>
          <path d="M34.19,337.7c-.09,0-.17-.13-.21-.35a1.07,1.07,0,0,1,.12-.77L44.37,325c.12-.13.26,0,.31.3a1.11,1.11,0,0,1-.12.78L34.29,337.65A.14.14,0,0,1,34.19,337.7Z" style="fill: #fff"/>
          <path d="M34.19,333.29c-.09,0-.17-.13-.21-.35a1.1,1.1,0,0,1,.12-.78l10.27-11.61c.12-.13.26,0,.31.3a1.07,1.07,0,0,1-.12.77L34.29,333.24A.14.14,0,0,1,34.19,333.29Z" style="fill: #fff"/>
          <path d="M34.19,328.88c-.09,0-.17-.13-.21-.35a1.09,1.09,0,0,1,.12-.78l10.27-11.61c.12-.14.26,0,.31.29a1.09,1.09,0,0,1-.12.78L34.29,328.82A.12.12,0,0,1,34.19,328.88Z" style="fill: #fff"/>
          <path d="M34.19,324.46c-.09,0-.17-.13-.21-.34a1.09,1.09,0,0,1,.12-.78l10.27-11.61c.12-.14.26,0,.31.29a1.09,1.09,0,0,1-.12.78L34.29,324.41A.11.11,0,0,1,34.19,324.46Z" style="fill: #fff"/>
          <path d="M34.19,320.05c-.09,0-.17-.13-.21-.35a1.07,1.07,0,0,1,.12-.77l10.27-11.62c.12-.13.26,0,.31.3a1.1,1.1,0,0,1-.12.78L34.29,320A.14.14,0,0,1,34.19,320.05Z" style="fill: #fff"/>
          <path d="M34.19,315.64c-.09,0-.17-.13-.21-.35a1.1,1.1,0,0,1,.12-.78L44.37,302.9c.12-.13.26,0,.31.3a1.11,1.11,0,0,1-.12.78L34.29,315.59A.14.14,0,0,1,34.19,315.64Z" style="fill: #fff"/>
          <path d="M34.19,311.23c-.09,0-.17-.13-.21-.35a1.1,1.1,0,0,1,.12-.78l10.27-11.61c.12-.13.26,0,.31.3a1.07,1.07,0,0,1-.12.77L34.29,311.18A.14.14,0,0,1,34.19,311.23Z" style="fill: #fff"/>
          <path d="M34.19,306.81c-.09,0-.17-.12-.21-.34a1.09,1.09,0,0,1,.12-.78l10.27-11.61c.12-.14.26,0,.31.29a1.09,1.09,0,0,1-.12.78L34.29,306.76A.11.11,0,0,1,34.19,306.81Z" style="fill: #fff"/>
          <path d="M34.19,302.4c-.09,0-.17-.13-.21-.34a1.09,1.09,0,0,1,.12-.78l10.27-11.61c.12-.14.26,0,.31.29a1.1,1.1,0,0,1-.12.78L34.29,302.35A.11.11,0,0,1,34.19,302.4Z" style="fill: #fff"/>
          <path d="M34.19,298c-.09,0-.17-.13-.21-.35a1.07,1.07,0,0,1,.12-.77l10.27-11.62c.12-.13.26,0,.31.3a1.11,1.11,0,0,1-.12.78L34.29,297.94A.14.14,0,0,1,34.19,298Z" style="fill: #fff"/>
          <path d="M34.19,293.58c-.09,0-.17-.13-.21-.35a1.1,1.1,0,0,1,.12-.78l10.27-11.61c.12-.13.26,0,.31.3a1.07,1.07,0,0,1-.12.77L34.29,293.53A.14.14,0,0,1,34.19,293.58Z" style="fill: #fff"/>
          <path d="M34.19,289.17c-.09,0-.17-.13-.21-.35a1.09,1.09,0,0,1,.12-.78l10.27-11.61c.12-.13.26,0,.31.29a1.09,1.09,0,0,1-.12.78L34.29,289.11A.12.12,0,0,1,34.19,289.17Z" style="fill: #fff"/>
          <path d="M34.19,284.75c-.09,0-.17-.13-.21-.34a1.09,1.09,0,0,1,.12-.78L44.37,272c.12-.14.26,0,.31.29a1.09,1.09,0,0,1-.12.78L34.29,284.7A.11.11,0,0,1,34.19,284.75Z" style="fill: #fff"/>
          <path d="M34.19,280.34c-.09,0-.17-.13-.21-.35a1.07,1.07,0,0,1,.12-.77L44.37,267.6c.12-.13.26,0,.31.3a1.1,1.1,0,0,1-.12.78L34.29,280.29A.14.14,0,0,1,34.19,280.34Z" style="fill: #fff"/>
          <path d="M34.19,275.93c-.09,0-.17-.13-.21-.35a1.11,1.11,0,0,1,.12-.78l10.27-11.61c.12-.13.26,0,.31.3a1.07,1.07,0,0,1-.12.77L34.29,275.88A.14.14,0,0,1,34.19,275.93Z" style="fill: #fff"/>
          <path d="M34.19,271.52c-.09,0-.17-.13-.21-.35a1.09,1.09,0,0,1,.12-.78l10.27-11.61c.12-.13.26,0,.31.29a1.09,1.09,0,0,1-.12.78L34.29,271.46A.12.12,0,0,1,34.19,271.52Z" style="fill: #fff"/>
          <path d="M34.19,267.1c-.09,0-.17-.12-.21-.34a1.09,1.09,0,0,1,.12-.78l10.27-11.61c.12-.14.26,0,.31.29a1.09,1.09,0,0,1-.12.78L34.29,267.05A.11.11,0,0,1,34.19,267.1Z" style="fill: #fff"/>
          <path d="M34.19,262.69c-.09,0-.17-.13-.21-.34a1.09,1.09,0,0,1,.12-.78L44.37,250c.12-.14.26,0,.31.29a1.1,1.1,0,0,1-.12.78L34.29,262.64A.11.11,0,0,1,34.19,262.69Z" style="fill: #fff"/>
          <path d="M34.19,258.28c-.09,0-.17-.13-.21-.35a1.07,1.07,0,0,1,.12-.77l10.27-11.62c.12-.13.26,0,.31.3a1.11,1.11,0,0,1-.12.78L34.29,258.23A.14.14,0,0,1,34.19,258.28Z" style="fill: #fff"/>
          <path d="M34.19,253.87c-.09,0-.17-.13-.21-.35a1.1,1.1,0,0,1,.12-.78l10.27-11.61c.12-.13.26,0,.31.3a1.07,1.07,0,0,1-.12.77L34.29,253.82A.14.14,0,0,1,34.19,253.87Z" style="fill: #fff"/>
          <path d="M34.19,249.46c-.09,0-.17-.13-.21-.35a1.09,1.09,0,0,1,.12-.78l10.27-11.61c.12-.14.26,0,.31.29a1.09,1.09,0,0,1-.12.78L34.29,249.4A.12.12,0,0,1,34.19,249.46Z" style="fill: #fff"/>
          <path d="M34.19,245c-.09,0-.17-.13-.21-.34a1.09,1.09,0,0,1,.12-.78l10.27-11.61c.12-.14.26,0,.31.29a1.09,1.09,0,0,1-.12.78L34.29,245A.11.11,0,0,1,34.19,245Z" style="fill: #fff"/>
          <path d="M57.37,382.31,60.31,379a1.07,1.07,0,0,0,.12-.77c-.06-.3-.19-.44-.31-.3l-3.89,4.4Z" style="fill: #fff"/>
          <path d="M53.46,382.31l6.85-7.74a1.09,1.09,0,0,0,.12-.78c-.06-.29-.19-.43-.31-.29l-7.8,8.81Z" style="fill: #fff"/>
          <path d="M49.94,381.82c-.09,0-.17-.13-.21-.35a1.07,1.07,0,0,1,.12-.77l10.27-11.61c.12-.14.25,0,.31.29a1.09,1.09,0,0,1-.12.78L50,381.77A.11.11,0,0,1,49.94,381.82Z" style="fill: #fff"/>
          <path d="M49.94,377.41c-.09,0-.17-.13-.21-.35a1.11,1.11,0,0,1,.12-.78l10.27-11.61c.12-.13.25,0,.31.3a1.11,1.11,0,0,1-.12.78L50,377.36A.14.14,0,0,1,49.94,377.41Z" style="fill: #fff"/>
          <path d="M49.94,373c-.09,0-.17-.13-.21-.35a1.1,1.1,0,0,1,.12-.78l10.27-11.61c.12-.13.25,0,.31.3a1.07,1.07,0,0,1-.12.77L50,373A.14.14,0,0,1,49.94,373Z" style="fill: #fff"/>
          <path d="M49.94,368.59c-.09,0-.17-.13-.21-.35a1.09,1.09,0,0,1,.12-.78l10.27-11.61c.12-.14.25,0,.31.29a1.09,1.09,0,0,1-.12.78L50,368.53A.12.12,0,0,1,49.94,368.59Z" style="fill: #fff"/>
          <path d="M49.94,364.17c-.09,0-.17-.13-.21-.34a1.09,1.09,0,0,1,.12-.78l10.27-11.61c.12-.14.25,0,.31.29a1.09,1.09,0,0,1-.12.78L50,364.12A.11.11,0,0,1,49.94,364.17Z" style="fill: #fff"/>
          <path d="M49.94,359.76c-.09,0-.17-.13-.21-.35a1.07,1.07,0,0,1,.12-.77L60.12,347c.12-.13.25,0,.31.3a1.1,1.1,0,0,1-.12.78L50,359.71A.11.11,0,0,1,49.94,359.76Z" style="fill: #fff"/>
          <path d="M49.94,355.35c-.09,0-.17-.13-.21-.35a1.11,1.11,0,0,1,.12-.78l10.27-11.61c.12-.13.25,0,.31.3a1.07,1.07,0,0,1-.12.77L50,355.3A.14.14,0,0,1,49.94,355.35Z" style="fill: #fff"/>
          <path d="M49.94,350.94c-.09,0-.17-.13-.21-.35a1.1,1.1,0,0,1,.12-.78L60.12,338.2c.12-.14.25,0,.31.29a1.09,1.09,0,0,1-.12.78L50,350.88A.12.12,0,0,1,49.94,350.94Z" style="fill: #fff"/>
          <path d="M49.94,346.52c-.09,0-.17-.12-.21-.34a1.09,1.09,0,0,1,.12-.78l10.27-11.61c.12-.14.25,0,.31.29a1.09,1.09,0,0,1-.12.78L50,346.47A.11.11,0,0,1,49.94,346.52Z" style="fill: #fff"/>
          <path d="M49.94,342.11c-.09,0-.17-.13-.21-.34a1.09,1.09,0,0,1,.12-.78l10.27-11.62c.12-.13.25,0,.31.3a1.1,1.1,0,0,1-.12.78L50,342.06A.11.11,0,0,1,49.94,342.11Z" style="fill: #fff"/>
          <path d="M49.94,337.7c-.09,0-.17-.13-.21-.35a1.07,1.07,0,0,1,.12-.77L60.12,325c.12-.13.25,0,.31.3a1.11,1.11,0,0,1-.12.78L50,337.65A.14.14,0,0,1,49.94,337.7Z" style="fill: #fff"/>
          <path d="M49.94,333.29c-.09,0-.17-.13-.21-.35a1.1,1.1,0,0,1,.12-.78l10.27-11.61c.12-.13.25,0,.31.3a1.07,1.07,0,0,1-.12.77L50,333.24A.14.14,0,0,1,49.94,333.29Z" style="fill: #fff"/>
          <path d="M49.94,328.88c-.09,0-.17-.13-.21-.35a1.09,1.09,0,0,1,.12-.78l10.27-11.61c.12-.14.25,0,.31.29a1.09,1.09,0,0,1-.12.78L50,328.82A.12.12,0,0,1,49.94,328.88Z" style="fill: #fff"/>
          <path d="M49.94,324.46c-.09,0-.17-.13-.21-.34a1.09,1.09,0,0,1,.12-.78l10.27-11.61c.12-.14.25,0,.31.29a1.09,1.09,0,0,1-.12.78L50,324.41A.11.11,0,0,1,49.94,324.46Z" style="fill: #fff"/>
          <path d="M49.94,320.05c-.09,0-.17-.13-.21-.35a1.07,1.07,0,0,1,.12-.77l10.27-11.62c.12-.13.25,0,.31.3a1.1,1.1,0,0,1-.12.78L50,320A.14.14,0,0,1,49.94,320.05Z" style="fill: #fff"/>
          <path d="M49.94,315.64c-.09,0-.17-.13-.21-.35a1.1,1.1,0,0,1,.12-.78L60.12,302.9c.12-.13.25,0,.31.3a1.11,1.11,0,0,1-.12.78L50,315.59A.14.14,0,0,1,49.94,315.64Z" style="fill: #fff"/>
          <path d="M49.94,311.23c-.09,0-.17-.13-.21-.35a1.1,1.1,0,0,1,.12-.78l10.27-11.61c.12-.13.25,0,.31.3a1.07,1.07,0,0,1-.12.77L50,311.18A.14.14,0,0,1,49.94,311.23Z" style="fill: #fff"/>
          <path d="M49.94,306.81c-.09,0-.17-.12-.21-.34a1.09,1.09,0,0,1,.12-.78l10.27-11.61c.12-.14.25,0,.31.29a1.09,1.09,0,0,1-.12.78L50,306.76A.11.11,0,0,1,49.94,306.81Z" style="fill: #fff"/>
          <path d="M49.94,302.4c-.09,0-.17-.13-.21-.34a1.09,1.09,0,0,1,.12-.78l10.27-11.61c.12-.14.25,0,.31.29a1.1,1.1,0,0,1-.12.78L50,302.35A.11.11,0,0,1,49.94,302.4Z" style="fill: #fff"/>
          <path d="M49.94,298c-.09,0-.17-.13-.21-.35a1.07,1.07,0,0,1,.12-.77l10.27-11.62c.12-.13.25,0,.31.3a1.11,1.11,0,0,1-.12.78L50,297.94A.14.14,0,0,1,49.94,298Z" style="fill: #fff"/>
          <path d="M49.94,293.58c-.09,0-.17-.13-.21-.35a1.1,1.1,0,0,1,.12-.78l10.27-11.61c.12-.13.25,0,.31.3a1.07,1.07,0,0,1-.12.77L50,293.53A.14.14,0,0,1,49.94,293.58Z" style="fill: #fff"/>
          <path d="M49.94,289.17c-.09,0-.17-.13-.21-.35a1.09,1.09,0,0,1,.12-.78l10.27-11.61c.12-.13.25,0,.31.29a1.09,1.09,0,0,1-.12.78L50,289.11A.12.12,0,0,1,49.94,289.17Z" style="fill: #fff"/>
          <path d="M49.94,284.75c-.09,0-.17-.13-.21-.34a1.09,1.09,0,0,1,.12-.78L60.12,272c.12-.14.25,0,.31.29a1.09,1.09,0,0,1-.12.78L50,284.7A.11.11,0,0,1,49.94,284.75Z" style="fill: #fff"/>
          <path d="M60.45,386.54h-58c-.1,0-.18-.21-.18-.46s.08-.46.18-.46h58c.1,0,.18.21.18.46S60.55,386.54,60.45,386.54Z" style="fill: #fff"/>
        </g>
        <g style="opacity: 0.15">
          <polygon points="567.36 387.37 778.08 387.37 778.08 303.99 776.88 303.99 776.88 386.18 567.36 386.18 567.36 387.37" style="fill: #fff"/>
          <path d="M707.44,388.76h72V370.22a2,2,0,0,0-4,0v14.57h-68a2,2,0,0,0,0,4Z" style="fill: #fff"/>
          <polygon points="777.6 312.55 777.6 344.42 772.83 341.68 772.83 315.28 777.6 312.55" style="fill: #fff"/>
          <polygon points="645.46 386.78 584.9 386.78 590.09 382.01 640.26 382.01 645.46 386.78" style="fill: #fff"/>
        </g>
        <g>
          <g style="opacity: 0.15">
            <rect x="369.09" y="385.02" width="55.62" height="0.97" style="fill: #fff"/>
          </g>
          <g style="opacity: 0.15">
            <rect x="490.11" y="385.02" width="55.62" height="0.97" style="fill: #fff"/>
          </g>
          <g style="opacity: 0.15">
            <path d="M486.1,387.94H427.59a2.43,2.43,0,1,1,0-4.86H486.1a2.43,2.43,0,0,1,0,4.86Z" style="fill: #fff"/>
          </g>
        </g>
        <g>
          <g style="opacity: 0.15">
            <rect x="777.86" y="121.02" width="0.97" height="55.62" style="fill: #fff"/>
          </g>
          <g style="opacity: 0.15">
            <rect x="777.86" width="0.97" height="55.62" style="fill: #fff"/>
          </g>
          <g style="opacity: 0.15">
            <path d="M780.78,59.63v58.51a2.44,2.44,0,0,1-4.87,0V59.63a2.44,2.44,0,0,1,4.87,0Z" style="fill: #fff"/>
          </g>
        </g>
        <g>
          <g style="opacity: 0.15">
            <rect x="1.95" y="121.02" width="0.97" height="55.62" style="fill: #fff"/>
          </g>
          <g style="opacity: 0.15">
            <rect x="1.95" width="0.97" height="55.62" style="fill: #fff"/>
          </g>
          <g style="opacity: 0.15">
            <path d="M4.87,59.63v58.51a2.44,2.44,0,0,1-4.87,0V59.63a2.44,2.44,0,0,1,4.87,0Z" style="fill: #fff"/>
          </g>
        </g>
        <g>
          <g style="opacity: 0.15">
            <rect x="102.54" y="385.02" width="55.62" height="0.97" style="fill: #fff"/>
          </g>
          <g style="opacity: 0.15">
            <rect x="223.56" y="385.02" width="55.62" height="0.97" style="fill: #fff"/>
          </g>
          <g style="opacity: 0.15">
            <path d="M219.54,387.94H161a2.43,2.43,0,1,1,0-4.86h58.5a2.43,2.43,0,1,1,0,4.86Z" style="fill: #fff"/>
          </g>
        </g>
      </g>
    </g>
  </g>
</svg>
