<svg xmlns="http://www.w3.org/2000/svg" width="44" height="44" viewBox="0 0 44 44">
  <title>cog</title>
  <g id="Layer_2" data-name="Layer 2">
    <g id="settings">
      <g id="cog">
        <g>
          <path d="M43.32,17.55l-4-.76a18,18,0,0,0-1.42-3.42L40.17,10a.83.83,0,0,0-.1-1L35,3.87a.79.79,0,0,0-1-.1L30.55,6.09a17.79,17.79,0,0,0-3.43-1.41l-.77-4a.81.81,0,0,0-.8-.65L18.34,0a.8.8,0,0,0-.79.66l-.76,4a18,18,0,0,0-3.42,1.42L10,3.83a.83.83,0,0,0-1,.1L3.87,9.05a.79.79,0,0,0-.1,1l2.32,3.38a17.79,17.79,0,0,0-1.41,3.43l-4,.77a.81.81,0,0,0-.65.8l0,7.21a.8.8,0,0,0,.66.79l4,.76a18,18,0,0,0,1.42,3.42L3.83,34a.83.83,0,0,0,.1,1l5.12,5.08a.79.79,0,0,0,1,.1l3.38-2.32a17.79,17.79,0,0,0,3.43,1.41l.77,4a.81.81,0,0,0,.8.65l7.21,0a.8.8,0,0,0,.79-.66l.76-4a18,18,0,0,0,3.42-1.42L34,40.17a.83.83,0,0,0,1-.1L40.13,35a.79.79,0,0,0,.1-1l-2.32-3.38a17.79,17.79,0,0,0,1.41-3.43l4-.78a.8.8,0,0,0,.65-.79l0-7.21A.8.8,0,0,0,43.32,17.55ZM22,35.12A13.12,13.12,0,1,1,35.12,22,13.13,13.13,0,0,1,22,35.12Z" style="fill: #fff"/>
          <path d="M22,11.11A10.89,10.89,0,1,0,32.89,22,10.9,10.9,0,0,0,22,11.11Zm0,16.78A5.89,5.89,0,1,1,27.89,22,5.9,5.9,0,0,1,22,27.89Z" style="fill: #fff"/>
        </g>
      </g>
    </g>
  </g>
</svg>
