<svg xmlns="http://www.w3.org/2000/svg" xmlns:xlink="http://www.w3.org/1999/xlink" width="56" height="56" viewBox="0 0 56 56">
  <defs>
    <clipPath id="clip-tool_tips_icon">
      <rect width="56" height="56"/>
    </clipPath>
  </defs>
  <g id="tool_tips_icon" clip-path="url(#clip-tool_tips_icon)">
    <path id="Path_1736" data-name="Path 1736" d="M416.059,564.294a3.331,3.331,0,1,0-6.647,0H408.6v-2.31a3.331,3.331,0,1,0-6.647,0v2.31h-.806v-4.253a3.332,3.332,0,1,0-6.648,0v4.253h-.811l-.113-17.864a3.332,3.332,0,1,0-6.648.038l.087,13.7-.085,9.94-3.578-7.4a3.176,3.176,0,0,0-4.426-1.589,3.737,3.737,0,0,0-1.537,4.794l8.614,17.823.924,2.049s2.064,6.107,13.218,6.107c5.39,0,10.122-1.884,12.644-4.841,2.694-3.168,2.984-7.506,3.1-10.261.075-1.76.117-3.718.139-5.554.006-.088.024-.171.024-.26Z" transform="translate(-368.059 -538.892)" fill="#fff"/>
  </g>
</svg>
