<svg xmlns="http://www.w3.org/2000/svg" xmlns:xlink="http://www.w3.org/1999/xlink" width="100" height="100" viewBox="0 0 100 100"><defs><clipPath id="a"><path d="M-699.544,1063.237a50.1,50.1,0,0,1,50.1-50.1,50.1,50.1,0,0,1,50.1,50.1,50.1,50.1,0,0,1-50.1,50.1h0a50.1,50.1,0,0,1-50.1-50.1Z" fill="none"/></clipPath><clipPath id="c"><rect width="100" height="100"/></clipPath></defs><g id="b" clip-path="url(#c)"><g transform="translate(699.544 -1013.137)"><circle cx="50" cy="50" r="50" transform="translate(-699.444 1013.237)" fill="#9bc2df"/><g clip-path="url(#a)"><rect width="22.786" height="17.99" transform="translate(-660.826 1068.863)" fill="#e6916a"/><path d="M-633.474,1078.719l-16.37,3.983-16.11-3.983-21.368,9.624,2.63,97.126h69.962l2.627-97.122Z" fill="#e1e1e1"/><path d="M-618.491,1149.192c-14.124,3.559-28.916,3.844-43.339,2.18-6.656-.767-13.411-1.831-19.621-4.45a36.452,36.452,0,0,1-4.353-2.224l1.1,40.768h69.96l1.02-37.63C-615.295,1148.328-616.885,1148.788-618.491,1149.192Z" fill="#a6a5b3"/><path d="M-648.244,1082.854h-2.94l-3.252,5.159,2.559,7.013h4.155l3.131-7.013Z" fill="#df5a27"/><path d="M-649.8,1160.692l-6.677-7.543,4.6-58.123h4.154l5.174,58.123Z" fill="#f85901"/><path d="M-664.844,1079.244l3.4-6.667,11.6,10.127-6.217,9.863Z" fill="#f4f4f4"/><path d="M-634.595,1079.244l-3.4-6.667-11.859,10.127,6.479,9.863Z" fill="#f4f4f4"/><path d="M-653.689,1126.417l-11.02-47.7h-1.247l-21.368,9.624,2.63,113.434h30.35l.658-2.245Z" fill="#00043e"/><path d="M-633.474,1078.719h-1.242l-11.076,47.94v72.678l.713,2.435h30.35l2.625-113.425Z" fill="#00043e"/><path d="M-664.708,1078.719h-1.247l-4.96,2.323-1.249,14.137,5.523,1.513-4.668,7.3,16.5,17.577Z" fill="#172950"/><path d="M-634.69,1078.719h1.246l4.959,2.323,1.249,14.137-5.523,1.513,4.669,7.3-16.5,17.577Z" fill="#172950"/><path d="M-638.022,1128.471l-6.8,1.435c.226,3.856.274,7.726.473,11.58a42.206,42.206,0,0,0,6.324-1.881Z" fill="#dddcee"/><path d="M-674.752,1136.227l-12.574-47.88s-12.434,64.89-7.941,70.243c3.482,4.147,36.526-7.743,51.228-13.307-.121-1.006-.214-2.016-.272-3.038-.014-.251-.023-.5-.035-.753-.2-3.857-.241-7.726-.473-11.58Z" fill="#171f4a"/><path d="M-637.27,1127.944c2.379-1.46,9.006-6.1,9.006-6.1l6.866-.447,5.155-.129,5.04.362s.307,1.46-.454,1.944-4.719.025-4.719.025l-5.394.279-3.341.706h3.28l5.034-.054,4,1.753s.412,1.449-.408,1.749-4.467-.632-4.467-.632h-4.4l-3.885.836,4.03.735,4.316.393,3.654,1.468s.216,1.613-1.043,1.4l-3.35-.577-3.754-.158-1.954.466,2.818.658,3.4.793a1.317,1.317,0,0,1-.438,1.436c-.737.531-4.062.281-4.062.281l-4.082-.953-6.706,2.822-5.116-.058S-639.651,1129.393-637.27,1127.944Z" fill="#e88252"/><path d="M-626.038,1131.788c.391-1.128.949-2.208,1.354-3.333l-1.278-.233,1.459-.314c.025-.078.051-.154.073-.233a5.437,5.437,0,0,0-.092-3.1h-.589l.549-.12a4.1,4.1,0,0,0-2.665-2.686l-1.037.067s-6.627,4.636-9.006,6.1-.973,8.995-.973,8.995l5.109.065,6.13-2.6C-626.644,1133.556-626.344,1132.674-626.038,1131.788Z" fill="#fbb57a"/><line x2="3.636" y2="1.461" transform="translate(-617.6 1129.357)" fill="none"/><path d="M-667.583,1131.515l-3.315,11.653s4.041,1.241,10.1,2.984v-14.6Z" fill="#dddcee"/><path d="M-606.985,1156.655l.044-.022Z" fill="#dddcee"/><path d="M-606.606,1156.428c-.021.017-.047.032-.07.049Z" fill="#dddcee"/><path d="M-606.676,1156.477c.023-.017.049-.032.071-.049a1.614,1.614,0,0,0,.241-.211c4.708-5.339-5.736-67.876-5.736-67.876l-13.727,43.415-34.969-.483v15.3c16.524,4.754,48.082,12.858,53.816,10.08l.044-.022A2.337,2.337,0,0,0-606.676,1156.477Z" fill="#171f4a"/><path d="M-667.583,1131.515l-9.869-6.709-6.157-.447-4.626-.129-4.523.362s-.275,1.46.407,1.944,4.236.026,4.236.026l4.841.278,3,.706h-2.944l-4.518-.055-3.588,1.752s-.368,1.449.362,1.75,4.006-.632,4.006-.632H-683l3.486.836-3.622.735-3.872.392-3.28,1.468s-.194,1.613.937,1.4l3.006-.576,3.37-.159,1.752.466-2.535.658-3.053.794a1.421,1.421,0,0,0,.393,1.434c.661.531,3.645.283,3.645.283l3.664-.953,6.021,2.841,3.108-.045Z" fill="#fbb57a"/><path d="M-686.135,1134.584a5.165,5.165,0,0,1-.954-2.24l-3.2,1.431s-.194,1.613.937,1.4l3.006-.576Z" fill="#e88252"/><path d="M-687.683,1128.717q-.12-.576-.241-1.15l-3.41,1.664s-.368,1.449.363,1.75a10.684,10.684,0,0,0,3.632-.53C-687.444,1129.876-687.56,1129.293-687.683,1128.717Z" fill="#e88252"/><path d="M-688.121,1126.553h0c-.144-.766-.266-1.534-.354-2.309l-4.29.338s-.276,1.46.406,1.944S-688.121,1126.553-688.121,1126.553Z" fill="#e88252"/><line x1="3.263" y2="1.461" transform="translate(-690.287 1132.316)" fill="none"/><path d="M-684.059,1135.944c-.121-.07-.249-.138-.374-.206l-2.371.617a1.421,1.421,0,0,0,.392,1.434c.662.532,3.646.283,3.646.283l.273-.071A3.039,3.039,0,0,0-684.059,1135.944Z" fill="#e88252"/><path d="M-664.015,1051.581c0,3.4-1.737,6.157-3.881,6.157s-3.882-2.758-3.882-6.157,1.737-6.157,3.882-6.157S-664.015,1048.179-664.015,1051.581Z" fill="#fbb57a"/><path d="M-627.652,1051.581c0,3.4-1.738,6.157-3.882,6.157s-3.881-2.758-3.881-6.157,1.737-6.157,3.881-6.157S-627.652,1048.179-627.652,1051.581Z" fill="#fbb57a"/><path d="M-642.717,1030.5a59.061,59.061,0,0,1-14,0c-9.358,3.57-9.658,14.089-9.671,14.92.4,6.9,1.407,17.9,2.57,20.065l.067.124c1.725,3.208,5.312,9.884,14.031,9.884s12.314-6.676,14.033-9.884l.067-.124c1.163-2.163,2.173-13.17,2.57-20.065C-633.053,1044.6-633.353,1034.068-642.717,1030.5Z" fill="#fbb57a"/><path d="M-636.56,1043.123a16.858,16.858,0,0,0-10.464-.935c-.4.09-.816,1.94-.5,1.963a1.081,1.081,0,0,0,.284-.02,22.032,22.032,0,0,1,9.854.133,1.2,1.2,0,0,0,1.245-.317C-635.907,1043.629-636.1,1043.261-636.56,1043.123Z" fill="#af8737"/><path d="M-662.87,1042.956a16.835,16.835,0,0,1,10.463-.936c.4.089.817,1.939.5,1.962a1.126,1.126,0,0,1-.284-.018,22.027,22.027,0,0,0-9.856.132,1.2,1.2,0,0,1-1.243-.318C-663.523,1043.458-663.327,1043.091-662.87,1042.956Z" fill="#af8737"/><g opacity="0.7"><path d="M-650.444,1055.38c-.3.71-.284.583-.067,1.138a6.374,6.374,0,0,0,.71,1.066c.461.692-1.511.462-1.865-.071a7.484,7.484,0,0,1-1.155-1.762c-.181-.7.166-.948.508-1.353a9.056,9.056,0,0,0,1.912-4.4C-650.281,1049.3-649.417,1052.965-650.444,1055.38Z" fill="#e88252"/></g><circle cx="1.169" cy="1.169" r="1.169" transform="translate(-659.299 1048.12)" fill="#643a19"/><circle cx="1.206" cy="1.206" r="1.206" transform="translate(-643.043 1047.996)" fill="#643a19"/><path d="M-637.212,1046.182a5.479,5.479,0,0,0-1.939-1c-.121-.035-.242-.066-.362-.1a7.887,7.887,0,0,0-1.843-.215,6.647,6.647,0,0,0-4.033,1.225l-.1.082c-.035.029-.081.07-.121.1a4.325,4.325,0,0,0-.4,6.1,4.323,4.323,0,0,0,.52.5,6.851,6.851,0,0,0,8.277,0,4.367,4.367,0,0,0,1.51-3.355A3.937,3.937,0,0,0-637.212,1046.182Z" fill="#fff" opacity="0.24" style="isolation:isolate"/><path d="M-665.909,1034.886a6.455,6.455,0,0,1,2.276-2.343,7.405,7.405,0,0,1,3.564-1.014c3.817-.158,6.529,2.415,11.019,2.261s5.221-1.7,7.88-2.261,5.5,1.48,5.5,1.48v-.032c-.017-.145-.1-.786-.352-1.971-.043-.2-.1-.47-.164-.759-.362-1.626-1.154-4.346-3.562-5.687-2.836-1.57-5.341-1.061-10.382-.871a77.89,77.89,0,0,1-11.143-.627c2.391.071,16.026-2.053,19.628-.851,4.04,1.348,8.165,5.639,7.227,9.016,4.376,3.381,3.33,16.957,3.329,16.978h0s-1.047,5.266-1.774,6.384a2,2,0,0,1-.78.8.67.67,0,0,1-.205.057.585.585,0,0,0,.192-.051,1.977,1.977,0,0,0,.793-.8c.724-1.118,1.785-6.384,1.785-6.384h0c0-.04,1.044-13.6-3.33-16.976.94-3.381-3.185-7.669-7.226-9.017-4.008-1.338-20.05.845-20.05.845a3.8,3.8,0,0,0-.179,2.326c-1.747-.885-1.665-.5-1.665-.5a5.851,5.851,0,0,0-.74,2.678c-.693-.5-1.135-.318-1.135-.318a16.616,16.616,0,0,0-.285,3.477c-2.676,4.269-2.99,10.094-2.873,13.724.1-.38,1.246-4.656,1.838-7.423A7.413,7.413,0,0,1-665.909,1034.886Z" fill="#be9349"/><path d="M-666.034,1055.49a1,1,0,0,0,.317.121l.206,2.453c0-.024-.724-8.828-.085-10.453s1.244-2.061,1.52-4.174-.352-8.571,2.964-9.647a3.662,3.662,0,0,1,1.207-.184c2.7.041,4.909,3.076,9.3,3.272q.471.022.924,0c4.225-.165,7.284-2.688,10.172-2.548a4.536,4.536,0,0,1,.614.072c3.277.623,3.522,7.553,3.58,8.87a14.328,14.328,0,0,0,1.113,3.722c.378,1.155.36,8.449.36,8.449a.293.293,0,0,0,.174.035.6.6,0,0,0,.193-.057,2.014,2.014,0,0,0,.78-.8c.724-1.118,1.613-6.417,1.613-6.417h0c0-.021,1.047-13.6-3.329-16.977.938-3.381-3.187-7.669-7.227-9.017-3.6-1.207-17.236.922-19.628.851a78.024,78.024,0,0,0,11.143.628c5.04-.191,7.545-.7,10.382.87,2.408,1.338,3.2,4.061,3.562,5.687.064.289.121.555.165.76.252,1.184.334,1.825.351,1.97v.033s-2.842-2.038-5.5-1.481-3.392,2.113-7.881,2.262-7.2-2.415-11.019-2.262a7.4,7.4,0,0,0-3.563,1.015,6.435,6.435,0,0,0-2.277,2.343,7.41,7.41,0,0,0-.814,2.131c-.593,2.767-1.736,7.043-1.838,7.423l-.01.037a32.635,32.635,0,0,0,.264,3.335s.022.149.056.393a52.313,52.313,0,0,0,1.2,5.854A2.3,2.3,0,0,0-666.034,1055.49Z" fill="#b38a39"/><g opacity="0.86"><path d="M-649.415,1065.229c-3,.224-5.3-1.025-5.107-1.532a.2.2,0,0,1,.044-.075,20.041,20.041,0,0,0,9.7-.233A6.864,6.864,0,0,1-649.415,1065.229Z" fill="#e88252"/></g><path d="M-635.115,1046.609c-.341-.177-.655-.4-.978-.6a12.815,12.815,0,0,0-1.614-.884c-.069-.031-.139-.062-.21-.091l-.039-.017a8.174,8.174,0,0,0-3.39-.7,7.826,7.826,0,0,0-4.33,1.246l-.131.089-.042.029a7.469,7.469,0,0,1-8.088,0l-.043-.029-.129-.089a7.824,7.824,0,0,0-4.335-1.247,8.169,8.169,0,0,0-3.389.7l-.04.017c-.07.029-.14.06-.21.091a12.884,12.884,0,0,0-1.614.884c-.322.2-.636.425-.977.6a2.591,2.591,0,0,1-1.1.32v1.4a1.776,1.776,0,0,1,.781.879,4.287,4.287,0,0,1,.315,1.081,4.519,4.519,0,0,0,1.6,2.994,7.67,7.67,0,0,0,9.255,0,4.8,4.8,0,0,0,1.709-2.9,5.963,5.963,0,0,1,.515-1.743,2.488,2.488,0,0,1,3.4,0,5.931,5.931,0,0,1,.514,1.743,4.812,4.812,0,0,0,1.709,2.9,7.67,7.67,0,0,0,9.255,0,4.519,4.519,0,0,0,1.6-2.994,4.284,4.284,0,0,1,.315-1.081,1.779,1.779,0,0,1,.78-.879v-1.4A2.606,2.606,0,0,1-635.115,1046.609Zm-19.186,6.277a6.85,6.85,0,0,1-8.276,0,4.376,4.376,0,0,1-1.511-3.355,3.942,3.942,0,0,1,1.511-3.355,5.515,5.515,0,0,1,1.938-1c.121-.035.242-.066.363-.1a7.871,7.871,0,0,1,1.841-.215,6.647,6.647,0,0,1,4.033,1.225c.035.027.071.054.1.082l.121.106a4.322,4.322,0,0,1,.4,6.1,4.323,4.323,0,0,1-.52.5Zm18.6-3.355a4.369,4.369,0,0,1-1.51,3.355,6.851,6.851,0,0,1-8.277,0,4.331,4.331,0,0,1-.608-6.095,4.305,4.305,0,0,1,.487-.505c.04-.035.08-.071.121-.1l.1-.082a6.647,6.647,0,0,1,4.033-1.225,7.887,7.887,0,0,1,1.843.215c.12.029.241.06.362.1a5.468,5.468,0,0,1,1.938,1,3.94,3.94,0,0,1,1.506,3.361Z" fill="#6f6966"/><path d="M-654.18,1046.287a1.531,1.531,0,0,0-.121-.1l-.1-.082a6.647,6.647,0,0,0-4.033-1.225,7.877,7.877,0,0,0-1.841.215c-.121.029-.242.06-.362.1a5.513,5.513,0,0,0-1.939,1,3.939,3.939,0,0,0-1.51,3.355,4.372,4.372,0,0,0,1.51,3.355,6.851,6.851,0,0,0,8.277,0,4.319,4.319,0,0,0,.629-6.077,4.3,4.3,0,0,0-.509-.528Z" fill="#fff" opacity="0.24" style="isolation:isolate"/><path d="M-664.844,1062.637" fill="#b38a39"/></g></g></g></svg>