<svg xmlns="http://www.w3.org/2000/svg" xmlns:xlink="http://www.w3.org/1999/xlink" width="100" height="100" viewBox="0 0 100 100"><defs><clipPath id="a"><circle cx="50" cy="50" r="50" transform="translate(306.881 227.145)" fill="none"/></clipPath><clipPath id="c"><rect width="100" height="100"/></clipPath></defs><g id="b" clip-path="url(#c)"><g transform="translate(-306.881 -227.145)"><circle cx="49.901" cy="49.901" r="49.901" transform="translate(306.98 227.244)" fill="#649fd5"/><g clip-path="url(#a)"><path d="M323.23,309.859l-13.708,49.714L278.336,368.7l1.534,9.242,38.44-.5,7.646-25.6Z" fill="#00043e"/><path d="M392.5,316.435l-10.1-5.5c-7.693,2.382-18.89,4.535-27.9,3.69-8.712-.817-17.27-6.943-18.587-9.48l-12.825,4.584a89.916,89.916,0,0,0-.108,13.414C323.241,329.371,318.9,346,318.9,346l6.6,20.968a146.838,146.838,0,0,1-11.057,38.545s11.016,6.678,28.824,8.348c4.878.457,13.531-1.156,21.245-2.757,10.268-2.12,14.04-2.725,14.04-2.725l-6.323-28.317L382.819,357.3Z" fill="#d38957"/><path d="M369.109,282.8s-6.164,18.448.987,21.431c2.328.97,12.608,7.179,12.608,7.179l-16.17,9.344-22.813-3.192L335.488,305.5l9.54-3.618,5.347-18.416Z" fill="#d38957"/><path d="M370.1,304.227l12.607,7.179S362.85,347.762,342.1,343.5s-6.611-38-6.611-38l9.54-3.618.661,24.557Z" fill="#d5d6d7"/><path d="M347.6,299.339a12.288,12.288,0,0,0,3.325,4.6c3.3,2.419,7.68.2,10.958-1.256a31.974,31.974,0,0,0,5.076-2.9c-1.372-6.433,2.147-16.98,2.147-16.98l-18.73.665S350.355,294.2,347.6,299.339Z" fill="#a56b44"/><path d="M382.82,357.3l9.684-40.86L370.663,304.44C362.97,306.82,339.807,340,339.807,340s.583-30.71-.045-36.188l-16.676,5.916a89.769,89.769,0,0,0-.108,13.413C323.24,329.37,318.9,346,318.9,346l6.6,20.968a146.85,146.85,0,0,1-11.057,38.545s11.016,6.678,28.824,8.348c8.65.811,29.182-4.892,35.285-5.489l-6.324-28.316Z" fill="#18214c"/><path d="M391.775,319.548c-2.227,5.974-5.269,11.784-7.051,17.838-2.294,7.781-10.817,10-16.269,16.453-2.173,2.57,3.2,14.245,1.078,16.433-4.759,4.9-3.887,12.293-4.339,18.731a210.6,210.6,0,0,1-2.47,22.477c6.662-1.353,12.91-2.81,15.843-3.093l-6.324-28.317,10.59-22.766Z" fill="#00043e"/><path d="M368.152,333.084l-6.827-7.723,11.139,1.437,3.472-19.46-5.269-2.894c-5.626,1.746-19.52,19.945-26.583,29.605l-4.5,8.557Z" fill="#00043e"/><path d="M366.8,298.782s4.435,4.478,4.941,6.016c.65,1.979.18,14.995.18,14.995l-6.917-5.3-5.839,3.772-13.472,8.17S365.187,305.607,366.8,298.782Z" fill="#f4f4f4"/><path d="M336.26,322.673l-6.646,3.142,9.971,16.791.235-3.218c.078-4.3.52-30.547-.056-35.573l-8.732,3.1-1.956,14.86Z" fill="#00043e"/><path d="M345.828,298.872s-8.761,3.713-14.374,16.073c-3.1,6.824.624.763.624.763l2.336-4.085s10.24,8.305,11.139,10.191l-.421-19.472Z" fill="#f4f4f4"/><path d="M338.8,344.228a2.512,2.512,0,0,0-2.515,2.51v0h0a2.513,2.513,0,0,0,2.512,2.515h0a2.515,2.515,0,0,0,2.516-2.513h0a2.514,2.514,0,0,0-2.516-2.514Z" fill="#00043e"/><path d="M337.726,367.036a2.511,2.511,0,0,0-2.515,2.51v0h0a2.518,2.518,0,0,0,5.035,0h0a2.517,2.517,0,0,0-2.516-2.513Z" fill="#292728"/><path d="M337.726,389.843a2.515,2.515,0,1,0,2.52,2.517h0a2.516,2.516,0,0,0-2.518-2.515h0Z" fill="#00043e"/><path d="M326,377.043l-8.76-9.564c-2.495-1.861-18.711-1.133-18.961-1.113-3.1.242-17.55-3.617-17.55-3.617s-11.138,4.878-9.843,6.185,8.915-2.307,8.915-2.307l4.954,1.122-7.375,2.857s-8.042,6.9-6.7,7.8,9.025-4.479,9.025-4.479l7.881-2.581-5.862,3.879s-6.669,7.714-5.544,8.753,8.44-5.322,9.3-6.579l5.6-2.451-4.081,2.943s-6.255,7.225-4.657,7.751,7.632-5.349,7.632-5.349l6.756-2.555s2.567,1.679,6.72-1.908Z" fill="#f8b47a"/><path d="M312.066,365.533l43.171.959s17.714-38.75,21.553-42.233,15.718-7.824,15.718-7.824.267,13-2.332,19.925-26.854,45.4-26.854,45.4l-54.429-2.505Z" fill="#00043e"/><path d="M355.523,289.59c3.992.3,7.042-1.373,6.781-2.035a.252.252,0,0,0-.059-.1,26.6,26.6,0,0,1-12.881-.309C349.9,287.972,352.3,289.366,355.523,289.59Z" fill="#e88252"/><path d="M338.9,275.885c.874,3.087-.013,7.339-1.173,7.339-.678,0-.932-.984-1.641-1.871a7.437,7.437,0,0,1-1.5-2.98c-.873-3.088-.608-6.148.58-6.835S338.028,272.792,338.9,275.885Z" fill="#a56b44"/><path d="M371.152,276.326c-.825,3.092.034,7.338,1.147,7.332.65,0,.891-.99,1.568-1.88a7.628,7.628,0,0,0,1.428-2.994c.824-3.092.566-6.151-.577-6.83S371.976,273.233,371.152,276.326Z" fill="#a56b44"/><path d="M365.108,233.392l1.082.224a13.019,13.019,0,0,1,10.092,15.4h0l-1.884,9.051A13.021,13.021,0,0,1,359,268.15l-1.083-.226a13.014,13.014,0,0,1-10.092-15.391v0h0l1.885-9.052A13.021,13.021,0,0,1,365.108,233.392Z" fill="#1e1403"/><path d="M354.617,245.62c-16.466.367-17.862,21.845-17.862,21.845s1.43,15.91,4.411,20.624,9.633,9.87,14.544,10.189,12.757-6.565,14.172-9.348,4.09-18.633,4.316-22.111S371.076,245.252,354.617,245.62Z" fill="#d38957"/><path d="M343.115,273.122a32.209,32.209,0,0,0,7.338-3.9c4.157-2.945,10.381-10.964,10.381-10.964s4.1,10.081,5.443,12.28a10.639,10.639,0,0,0,6.712,4.793c.639-3.731,1.123-7.111,1.214-8.508.227-3.478-3.119-21.567-19.585-21.2s-17.865,21.845-17.865,21.845.278,3.091.843,6.952A29.688,29.688,0,0,0,343.115,273.122Z" fill="#a56b44"/><path d="M356.224,282.459c-.252.483-.237.4-.071.768a4.015,4.015,0,0,0,.556.706c.361.459-1.222.338-1.5-.015-.23-.294-.79-.778-.9-1.168-.135-.467.147-.641.428-.921a5.953,5.953,0,0,0,1.606-2.993C356.443,278.362,357.084,280.813,356.224,282.459Z" fill="#a56b44"/><path d="M351.328,266.217a2.867,2.867,0,0,1-.332-.064c-6.618-1.433-9.979,2.056-9.893,1.9a1.751,1.751,0,0,1-1.013.452c-.257-.019-.25-.271.06-.563.007.164,2.947-4.3,10.852-2.846C351.547,265.219,351.723,266.277,351.328,266.217Z" fill="#281905"/><path d="M359.8,267.66a2.685,2.685,0,0,0,.3-.065,11.061,11.061,0,0,1,9.441,1.5,1.731,1.731,0,0,0,1.037.392c.255-.035.22-.287-.1-.559.032.107-3.38-4-10.524-2.344C359.465,266.708,359.446,267.72,359.8,267.66Z" fill="#281905"/><path d="M373.27,275.33c2.383-4.442,8.482-11.18,5.172-19.257-5.04-12.294-15.154-12.69-17.438-12.618C362.023,255.453,362.749,270.322,373.27,275.33Z" fill="#281905"/><path d="M370.412,249.6c-2.8.125-1.9,3.169-1.247,4.845a27.856,27.856,0,0,1,1.267,4.059c.686,3.04,1.06,6.694,3.216,9.12a5.842,5.842,0,0,0,3.16,1.82c2.087-3.774,3.707-8.31,1.634-13.373-.287-.7-.593-1.356-.91-1.981C375.752,251.737,372.947,249.492,370.412,249.6Z" fill="#3d2707"/><path d="M368.214,244.913a17.264,17.264,0,0,0-7.21-1.458c.384,4.523.727,9.453,1.569,14.11C366.279,254.607,368.049,249.672,368.214,244.913Z" fill="#0f0902"/><path d="M366.316,247.687c-.773-8.526-8.608-15.13-21.175-8.178-13.69,7.571-10.255,23.641-8.139,33.38C343.578,270.974,359.35,262.584,366.316,247.687Z" fill="#281905"/><path d="M347.664,257.175a28.364,28.364,0,0,1,5.673-4.366c2.027-1.247,4.4-2.536,5.535-4.73,2.152-4.153-2.087-7.146-5.528-8.338a20.26,20.26,0,0,0-6.311-1.185c-.624.286-1.248.6-1.889.952-11.437,6.326-10.921,18.587-9.206,28.124C341.173,266.641,344.216,260.752,347.664,257.175Z" fill="#3d2707"/><circle cx="1.605" cy="1.605" r="1.605" transform="translate(346.057 272.668)" fill="#643a19"/><circle cx="1.605" cy="1.605" r="1.605" transform="translate(362.863 272.379)" fill="#643a19"/><path d="M357.156,290.742c-4.3.322-7.643-2.525-7.36-3.251a.286.286,0,0,1,.064-.107,28.65,28.65,0,0,0,13.883-.333A9.5,9.5,0,0,1,357.156,290.742Z" fill="#643a19"/><circle cx="0.78" cy="0.78" r="0.78" transform="translate(336.502 281.858)" fill="#feea8a"/><circle cx="0.78" cy="0.78" r="0.78" transform="translate(371.711 282.88)" fill="#feea8a"/></g></g></g></svg>