<svg xmlns="http://www.w3.org/2000/svg" xmlns:xlink="http://www.w3.org/1999/xlink" width="66" height="70" viewBox="0 0 66 70"><defs><clipPath id="b"><rect width="66" height="70"/></clipPath></defs><g id="a" clip-path="url(#b)"><g transform="translate(-367 -365)"><path d="M400,400V367a33,33,0,1,0,19.4,59.7Z" fill="#8a2047"/><path d="M431.391,389.8A33.018,33.018,0,0,0,400,367v33l19.4,26.7a33.03,33.03,0,0,0,11.995-36.9Z" fill="#a5234e"/><path d="M431.391,389.8A33.018,33.018,0,0,0,400,367v33l13.2,30.251a33.031,33.031,0,0,0,18.194-40.45Z" fill="#a5234e"/><g style="isolation:isolate"><text transform="translate(381.846 405.273)" fill="#fff" font-size="18" font-family="OpenSans, Open Sans" letter-spacing="0.05em" style="isolation:isolate"><tspan x="0" y="0">45</tspan></text></g><g style="isolation:isolate"><text transform="translate(404.23 405.273)" fill="#fff" font-size="18" font-family="OpenSans, Open Sans" letter-spacing="0.05em" style="isolation:isolate"><tspan x="0" y="0">%</tspan></text></g></g></g></svg>