<svg xmlns="http://www.w3.org/2000/svg" xmlns:xlink="http://www.w3.org/1999/xlink" width="88" height="88" viewBox="0 0 88 88">
  <defs>
    <clipPath id="clip-lv1_client1_n">
      <rect width="88" height="88"/>
    </clipPath>
  </defs>
  <g id="lv1_client1_n" clip-path="url(#clip-lv1_client1_n)">
    <g id="Group_534" data-name="Group 534" transform="translate(-468.229 -169.33)" opacity="0.89">
      <path id="Path_406" data-name="Path 406" d="M506.882,185.639a3.621,3.621,0,1,1-2.848,4.255,3.622,3.622,0,0,1,2.848-4.255Z" transform="translate(-0.148 -0.067)" fill="#ffca00" fill-rule="evenodd"/>
      <path id="Path_407" data-name="Path 407" d="M516.505,234.251a3.621,3.621,0,1,1-2.849,4.256,3.622,3.622,0,0,1,2.849-4.256Z" transform="translate(-0.187 -0.268)" fill="#ffca00" fill-rule="evenodd"/>
      <path id="Path_408" data-name="Path 408" d="M484.539,219.012a3.621,3.621,0,1,1,4.255,2.848,3.621,3.621,0,0,1-4.255-2.848Z" transform="translate(-0.067 -0.187)" fill="#ffca00" fill-rule="evenodd"/>
      <path id="Path_409" data-name="Path 409" d="M533.151,209.389a3.621,3.621,0,1,1,4.255,2.849,3.62,3.62,0,0,1-4.255-2.849Z" transform="translate(-0.268 -0.148)" fill="#ffca00" fill-rule="evenodd"/>
      <path id="Path_410" data-name="Path 410" d="M496.642,189.87a3.621,3.621,0,1,1-1,5.021,3.62,3.62,0,0,1,1-5.021Z" transform="translate(-0.111 -0.082)" fill="#ffca00" fill-rule="evenodd"/>
      <path id="Path_411" data-name="Path 411" d="M524.134,231.1a3.621,3.621,0,1,1-1,5.022,3.622,3.622,0,0,1,1-5.022Z" transform="translate(-0.224 -0.253)" fill="#ffca00" fill-rule="evenodd"/>
      <path id="Path_412" data-name="Path 412" d="M488.77,229.253a3.621,3.621,0,1,1,5.021,1,3.621,3.621,0,0,1-5.021-1Z" transform="translate(-0.082 -0.224)" fill="#ffca00" fill-rule="evenodd"/>
      <path id="Path_413" data-name="Path 413" d="M530,201.76a3.621,3.621,0,1,1,5.021,1,3.621,3.621,0,0,1-5.021-1Z" transform="translate(-0.253 -0.111)" fill="#ffca00" fill-rule="evenodd"/>
      <path id="Path_414" data-name="Path 414" d="M517.963,185.65a3.621,3.621,0,1,1-4.261,2.84,3.621,3.621,0,0,1,4.261-2.84Z" transform="translate(-0.188 -0.067)" fill="#ffca00" fill-rule="evenodd"/>
      <path id="Path_415" data-name="Path 415" d="M508.25,234.243a3.621,3.621,0,1,1-4.261,2.841,3.622,3.622,0,0,1,4.261-2.841Z" transform="translate(-0.148 -0.268)" fill="#ffca00" fill-rule="evenodd"/>
      <path id="Path_416" data-name="Path 416" d="M484.549,207.931a3.621,3.621,0,1,1,2.841,4.26,3.621,3.621,0,0,1-2.841-4.26Z" transform="translate(-0.067 -0.148)" fill="#ffca00" fill-rule="evenodd"/>
      <path id="Path_417" data-name="Path 417" d="M533.143,217.644a3.621,3.621,0,1,1,2.841,4.26,3.621,3.621,0,0,1-2.841-4.26Z" transform="translate(-0.268 -0.188)" fill="#ffca00" fill-rule="evenodd"/>
      <path id="Path_418" data-name="Path 418" d="M488.8,197.7a3.621,3.621,0,1,1,.994,5.023,3.62,3.62,0,0,1-.994-5.023Z" transform="translate(-0.082 -0.111)" fill="#ffca00" fill-rule="evenodd"/>
      <path id="Path_419" data-name="Path 419" d="M529.977,225.268a3.621,3.621,0,1,1,.994,5.023,3.621,3.621,0,0,1-.994-5.023Z" transform="translate(-0.253 -0.225)" fill="#ffca00" fill-rule="evenodd"/>
      <path id="Path_420" data-name="Path 420" d="M496.6,237.1a3.621,3.621,0,1,1,5.023-.994,3.622,3.622,0,0,1-5.023.994Z" transform="translate(-0.111 -0.253)" fill="#ffca00" fill-rule="evenodd"/>
      <path id="Path_421" data-name="Path 421" d="M524.167,195.917a3.621,3.621,0,1,1,5.023-.994,3.621,3.621,0,0,1-5.023.994Z" transform="translate(-0.225 -0.082)" fill="#ffca00" fill-rule="evenodd"/>
      <path id="Path_422" data-name="Path 422" d="M504.663,174.617a2.739,2.739,0,1,1-2.151,3.221,2.74,2.74,0,0,1,2.151-3.221Z" transform="translate(-0.138)" fill="#ffca00" fill-rule="evenodd"/>
      <path id="Path_423" data-name="Path 423" d="M519.062,247.005a2.739,2.739,0,1,1-2.152,3.22,2.739,2.739,0,0,1,2.152-3.22Z" transform="translate(-0.197 -0.335)" fill="#ffca00" fill-rule="evenodd"/>
      <path id="Path_424" data-name="Path 424" d="M473.517,221.231a2.739,2.739,0,1,1,3.22,2.151,2.739,2.739,0,0,1-3.22-2.151Z" transform="translate(0 -0.197)" fill="#ffca00" fill-rule="evenodd"/>
      <path id="Path_425" data-name="Path 425" d="M545.905,206.832a2.739,2.739,0,1,1,3.22,2.152,2.738,2.738,0,0,1-3.22-2.152Z" transform="translate(-0.335 -0.138)" fill="#ffca00" fill-rule="evenodd"/>
      <path id="Path_426" data-name="Path 426" d="M490.373,180.536a2.739,2.739,0,1,1-.755,3.8,2.739,2.739,0,0,1,.755-3.8Z" transform="translate(-0.085)" fill="#ffca00" fill-rule="evenodd"/>
      <path id="Path_427" data-name="Path 427" d="M531.378,241.9a2.738,2.738,0,1,1-.756,3.8,2.738,2.738,0,0,1,.756-3.8Z" transform="translate(-0.251 -0.335)" fill="#ffca00" fill-rule="evenodd"/>
      <path id="Path_428" data-name="Path 428" d="M479.436,235.521a2.739,2.739,0,1,1,3.8.755,2.738,2.738,0,0,1-3.8-.755Z" transform="translate(0 -0.251)" fill="#ffca00" fill-rule="evenodd"/>
      <path id="Path_429" data-name="Path 429" d="M540.8,194.517a2.739,2.739,0,1,1,3.8.755,2.739,2.739,0,0,1-3.8-.755Z" transform="translate(-0.335 -0.085)" fill="#ffca00" fill-rule="evenodd"/>
      <path id="Path_430" data-name="Path 430" d="M520.131,174.618a2.738,2.738,0,1,1-3.22,2.151,2.739,2.739,0,0,1,3.22-2.151Z" transform="translate(-0.197)" fill="#ffca00" fill-rule="evenodd"/>
      <path id="Path_431" data-name="Path 431" d="M505.731,247.005a2.739,2.739,0,1,1-3.22,2.152,2.738,2.738,0,0,1,3.22-2.152Z" transform="translate(-0.138 -0.335)" fill="#ffca00" fill-rule="evenodd"/>
      <path id="Path_432" data-name="Path 432" d="M473.517,205.763a2.739,2.739,0,1,1,2.151,3.221,2.738,2.738,0,0,1-2.151-3.221Z" transform="translate(0 -0.138)" fill="#ffca00" fill-rule="evenodd"/>
      <path id="Path_433" data-name="Path 433" d="M545.905,220.163a2.739,2.739,0,1,1,2.151,3.22,2.738,2.738,0,0,1-2.151-3.22Z" transform="translate(-0.335 -0.197)" fill="#ffca00" fill-rule="evenodd"/>
      <path id="Path_434" data-name="Path 434" d="M479.436,191.473a2.739,2.739,0,1,1,.756,3.8,2.739,2.739,0,0,1-.756-3.8Z" transform="translate(0 -0.085)" fill="#ffca00" fill-rule="evenodd"/>
      <path id="Path_435" data-name="Path 435" d="M540.8,232.478a2.739,2.739,0,1,1,.756,3.8,2.739,2.739,0,0,1-.756-3.8Z" transform="translate(-0.335 -0.251)" fill="#ffca00" fill-rule="evenodd"/>
      <path id="Path_436" data-name="Path 436" d="M490.373,246.458a2.739,2.739,0,1,1,3.8-.756,2.739,2.739,0,0,1-3.8.756Z" transform="translate(-0.085 -0.335)" fill="#ffca00" fill-rule="evenodd"/>
      <path id="Path_437" data-name="Path 437" d="M531.378,185.091a2.739,2.739,0,1,1,3.8-.756,2.739,2.739,0,0,1-3.8.756Z" transform="translate(-0.251)" fill="#ffca00" fill-rule="evenodd"/>
      <path id="Path_438" data-name="Path 438" d="M512.4,171.834a1.817,1.817,0,1,1-1.817,1.818,1.818,1.818,0,0,1,1.817-1.818Z" transform="translate(-0.168)" fill="#ffca00" fill-rule="evenodd"/>
      <path id="Path_439" data-name="Path 439" d="M512.4,251.525a1.818,1.818,0,1,1-1.817,1.818,1.818,1.818,0,0,1,1.817-1.818Z" transform="translate(-0.168 -0.335)" fill="#ffca00" fill-rule="evenodd"/>
      <path id="Path_440" data-name="Path 440" d="M470.734,213.5a1.817,1.817,0,1,1,1.817,1.818,1.818,1.818,0,0,1-1.817-1.818Z" transform="translate(0 -0.168)" fill="#ffca00" fill-rule="evenodd"/>
      <path id="Path_441" data-name="Path 441" d="M550.425,213.5a1.818,1.818,0,1,1,1.818,1.818,1.818,1.818,0,0,1-1.818-1.818Z" transform="translate(-0.335 -0.168)" fill="#ffca00" fill-rule="evenodd"/>
      <path id="Path_442" data-name="Path 442" d="M496.453,175.006a1.817,1.817,0,1,1-.984,2.374,1.818,1.818,0,0,1,.984-2.374Z" transform="translate(-0.107)" fill="#ffca00" fill-rule="evenodd"/>
      <path id="Path_443" data-name="Path 443" d="M526.95,248.631a1.817,1.817,0,1,1-.984,2.374,1.817,1.817,0,0,1,.984-2.374Z" transform="translate(-0.228 -0.335)" fill="#ffca00" fill-rule="evenodd"/>
      <path id="Path_444" data-name="Path 444" d="M473.9,229.441a1.817,1.817,0,1,1,2.375.983,1.817,1.817,0,0,1-2.375-.983Z" transform="translate(0 -0.228)" fill="#ffca00" fill-rule="evenodd"/>
      <path id="Path_445" data-name="Path 445" d="M547.53,198.944a1.817,1.817,0,1,1,2.375.984,1.817,1.817,0,0,1-2.375-.984Z" transform="translate(-0.335 -0.107)" fill="#ffca00" fill-rule="evenodd"/>
      <path id="Path_446" data-name="Path 446" d="M528.341,175.006a1.817,1.817,0,1,1-2.375.983,1.817,1.817,0,0,1,2.375-.983Z" transform="translate(-0.228)" fill="#ffca00" fill-rule="evenodd"/>
      <path id="Path_447" data-name="Path 447" d="M497.844,248.631a1.817,1.817,0,1,1-2.375.983,1.817,1.817,0,0,1,2.375-.983Z" transform="translate(-0.107 -0.335)" fill="#ffca00" fill-rule="evenodd"/>
      <path id="Path_448" data-name="Path 448" d="M473.9,197.554a1.817,1.817,0,1,1,.984,2.374,1.817,1.817,0,0,1-.984-2.374Z" transform="translate(0 -0.107)" fill="#ffca00" fill-rule="evenodd"/>
      <path id="Path_449" data-name="Path 449" d="M547.53,228.05a1.817,1.817,0,1,1,.984,2.374,1.818,1.818,0,0,1-.984-2.374Z" transform="translate(-0.335 -0.228)" fill="#ffca00" fill-rule="evenodd"/>
      <path id="Path_450" data-name="Path 450" d="M482.937,184.037a1.817,1.817,0,1,1,0,2.57,1.817,1.817,0,0,1,0-2.57Z" transform="translate(-0.056 -0.056)" fill="#ffca00" fill-rule="evenodd"/>
      <path id="Path_451" data-name="Path 451" d="M539.286,240.387a1.818,1.818,0,1,1,0,2.57,1.82,1.82,0,0,1,0-2.57Z" transform="translate(-0.279 -0.279)" fill="#ffca00" fill-rule="evenodd"/>
      <path id="Path_452" data-name="Path 452" d="M482.937,242.957a1.817,1.817,0,1,1,2.57,0,1.817,1.817,0,0,1-2.57,0Z" transform="translate(-0.056 -0.279)" fill="#ffca00" fill-rule="evenodd"/>
      <path id="Path_453" data-name="Path 453" d="M539.286,186.607a1.818,1.818,0,1,1,2.571,0,1.819,1.819,0,0,1-2.571,0Z" transform="translate(-0.279 -0.056)" fill="#ffca00" fill-rule="evenodd"/>
      <path id="Path_454" data-name="Path 454" d="M512.4,178.345a3.909,3.909,0,1,1-3.908,3.909,3.909,3.909,0,0,1,3.908-3.909Z" transform="translate(-0.168)" fill="#ffca00" fill-rule="evenodd"/>
      <path id="Path_455" data-name="Path 455" d="M512.4,240.832a3.909,3.909,0,1,1-3.908,3.909,3.909,3.909,0,0,1,3.908-3.909Z" transform="translate(-0.168 -0.335)" fill="#ffca00" fill-rule="evenodd"/>
      <path id="Path_456" data-name="Path 456" d="M477.245,213.5a3.909,3.909,0,1,1,3.908,3.909,3.908,3.908,0,0,1-3.908-3.909Z" transform="translate(0 -0.168)" fill="#ffca00" fill-rule="evenodd"/>
      <path id="Path_457" data-name="Path 457" d="M539.732,213.5a3.909,3.909,0,1,1,3.908,3.909,3.908,3.908,0,0,1-3.908-3.909Z" transform="translate(-0.335 -0.168)" fill="#ffca00" fill-rule="evenodd"/>
      <path id="Path_458" data-name="Path 458" d="M498.945,181.021a3.908,3.908,0,1,1-2.116,5.107,3.908,3.908,0,0,1,2.116-5.107Z" transform="translate(-0.118)" fill="#ffca00" fill-rule="evenodd"/>
      <path id="Path_459" data-name="Path 459" d="M522.857,238.751a3.909,3.909,0,1,1-2.115,5.107,3.909,3.909,0,0,1,2.115-5.107Z" transform="translate(-0.217 -0.335)" fill="#ffca00" fill-rule="evenodd"/>
      <path id="Path_460" data-name="Path 460" d="M479.921,226.949a3.908,3.908,0,1,1,5.106,2.115,3.908,3.908,0,0,1-5.106-2.115Z" transform="translate(0 -0.217)" fill="#ffca00" fill-rule="evenodd"/>
      <path id="Path_461" data-name="Path 461" d="M537.651,203.037a3.909,3.909,0,1,1,5.106,2.115,3.909,3.909,0,0,1-5.106-2.115Z" transform="translate(-0.335 -0.118)" fill="#ffca00" fill-rule="evenodd"/>
      <path id="Path_462" data-name="Path 462" d="M525.849,181.021a3.909,3.909,0,1,1-5.107,2.115,3.909,3.909,0,0,1,5.107-2.115Z" transform="translate(-0.217)" fill="#ffca00" fill-rule="evenodd"/>
      <path id="Path_463" data-name="Path 463" d="M501.936,238.751a3.908,3.908,0,1,1-5.107,2.116,3.909,3.909,0,0,1,5.107-2.116Z" transform="translate(-0.118 -0.335)" fill="#ffca00" fill-rule="evenodd"/>
      <path id="Path_464" data-name="Path 464" d="M479.921,200.045a3.908,3.908,0,1,1,2.115,5.107,3.908,3.908,0,0,1-2.115-5.107Z" transform="translate(0 -0.118)" fill="#ffca00" fill-rule="evenodd"/>
      <path id="Path_465" data-name="Path 465" d="M537.651,223.958a3.908,3.908,0,1,1,2.115,5.106,3.907,3.907,0,0,1-2.115-5.106Z" transform="translate(-0.335 -0.217)" fill="#ffca00" fill-rule="evenodd"/>
      <path id="Path_466" data-name="Path 466" d="M487.541,188.641a3.908,3.908,0,1,1,0,5.527,3.909,3.909,0,0,1,0-5.527Z" transform="translate(-0.076 -0.076)" fill="#ffca00" fill-rule="evenodd"/>
      <path id="Path_467" data-name="Path 467" d="M531.725,232.826a3.909,3.909,0,1,1,0,5.527,3.91,3.91,0,0,1,0-5.527Z" transform="translate(-0.26 -0.26)" fill="#ffca00" fill-rule="evenodd"/>
      <path id="Path_468" data-name="Path 468" d="M487.541,238.353a3.908,3.908,0,1,1,5.527,0,3.909,3.909,0,0,1-5.527,0Z" transform="translate(-0.076 -0.26)" fill="#ffca00" fill-rule="evenodd"/>
      <path id="Path_469" data-name="Path 469" d="M531.725,194.168a3.909,3.909,0,1,1,5.528,0,3.909,3.909,0,0,1-5.528,0Z" transform="translate(-0.26 -0.076)" fill="#ffca00" fill-rule="evenodd"/>
      <path id="Path_470" data-name="Path 470" d="M503.617,169.359a1.5,1.5,0,1,1-1.177,1.761,1.5,1.5,0,0,1,1.177-1.761Z" transform="translate(-0.134)" fill="#ffca00" fill-rule="evenodd"/>
      <path id="Path_471" data-name="Path 471" d="M520.592,254.7a1.5,1.5,0,1,1-1.177,1.762,1.5,1.5,0,0,1,1.177-1.762Z" transform="translate(-0.201 -0.335)" fill="#ffca00" fill-rule="evenodd"/>
      <path id="Path_472" data-name="Path 472" d="M468.258,222.276a1.5,1.5,0,1,1,1.762,1.178,1.5,1.5,0,0,1-1.762-1.178Z" transform="translate(0 -0.201)" fill="#ffca00" fill-rule="evenodd"/>
      <path id="Path_473" data-name="Path 473" d="M553.6,205.3a1.5,1.5,0,1,1,1.762,1.177A1.5,1.5,0,0,1,553.6,205.3Z" transform="translate(-0.335 -0.134)" fill="#ffca00" fill-rule="evenodd"/>
      <path id="Path_474" data-name="Path 474" d="M487.395,176.078a1.5,1.5,0,1,1-.414,2.078,1.5,1.5,0,0,1,.414-2.078Z" transform="translate(-0.073)" fill="#ffca00" fill-rule="evenodd"/>
      <path id="Path_475" data-name="Path 475" d="M535.735,248.425a1.5,1.5,0,1,1-.414,2.078,1.5,1.5,0,0,1,.414-2.078Z" transform="translate(-0.263 -0.335)" fill="#ffca00" fill-rule="evenodd"/>
      <path id="Path_476" data-name="Path 476" d="M474.978,238.5a1.5,1.5,0,1,1,2.078.414,1.5,1.5,0,0,1-2.078-.414Z" transform="translate(0 -0.263)" fill="#ffca00" fill-rule="evenodd"/>
      <path id="Path_477" data-name="Path 477" d="M547.325,190.16a1.5,1.5,0,1,1,2.078.413,1.5,1.5,0,0,1-2.078-.413Z" transform="translate(-0.335 -0.073)" fill="#ffca00" fill-rule="evenodd"/>
      <path id="Path_478" data-name="Path 478" d="M521.177,169.359a1.5,1.5,0,1,1-1.762,1.177,1.5,1.5,0,0,1,1.762-1.177Z" transform="translate(-0.201)" fill="#ffca00" fill-rule="evenodd"/>
      <path id="Path_479" data-name="Path 479" d="M504.2,254.7a1.5,1.5,0,1,1-1.761,1.177A1.5,1.5,0,0,1,504.2,254.7Z" transform="translate(-0.134 -0.335)" fill="#ffca00" fill-rule="evenodd"/>
      <path id="Path_480" data-name="Path 480" d="M468.258,204.717a1.5,1.5,0,1,1,1.177,1.762,1.5,1.5,0,0,1-1.177-1.762Z" transform="translate(0 -0.134)" fill="#ffca00" fill-rule="evenodd"/>
      <path id="Path_481" data-name="Path 481" d="M553.6,221.693a1.5,1.5,0,1,1,1.177,1.761,1.5,1.5,0,0,1-1.177-1.761Z" transform="translate(-0.335 -0.201)" fill="#ffca00" fill-rule="evenodd"/>
      <path id="Path_482" data-name="Path 482" d="M474.978,188.494a1.5,1.5,0,1,1,.413,2.078,1.5,1.5,0,0,1-.413-2.078Z" transform="translate(0 -0.073)" fill="#ffca00" fill-rule="evenodd"/>
      <path id="Path_483" data-name="Path 483" d="M547.324,236.835a1.5,1.5,0,1,1,.414,2.078,1.5,1.5,0,0,1-.414-2.078Z" transform="translate(-0.335 -0.263)" fill="#ffca00" fill-rule="evenodd"/>
      <path id="Path_484" data-name="Path 484" d="M487.394,250.916a1.5,1.5,0,1,1,2.078-.413,1.5,1.5,0,0,1-2.078.413Z" transform="translate(-0.073 -0.335)" fill="#ffca00" fill-rule="evenodd"/>
      <path id="Path_485" data-name="Path 485" d="M535.735,178.57a1.5,1.5,0,1,1,2.078-.414,1.5,1.5,0,0,1-2.078.414Z" transform="translate(-0.263)" fill="#ffca00" fill-rule="evenodd"/>
      <path id="Path_486" data-name="Path 486" d="M512.4,191.444a2.452,2.452,0,1,1-2.452,2.452,2.452,2.452,0,0,1,2.452-2.452Z" transform="translate(-0.168 -0.089)" fill="#ffca00" fill-rule="evenodd"/>
      <path id="Path_487" data-name="Path 487" d="M512.4,230.647a2.452,2.452,0,1,1-2.452,2.452,2.452,2.452,0,0,1,2.452-2.452Z" transform="translate(-0.168 -0.246)" fill="#ffca00" fill-rule="evenodd"/>
      <path id="Path_488" data-name="Path 488" d="M490.343,213.5a2.452,2.452,0,1,1,2.452,2.452,2.452,2.452,0,0,1-2.452-2.452Z" transform="translate(-0.089 -0.168)" fill="#ffca00" fill-rule="evenodd"/>
      <path id="Path_489" data-name="Path 489" d="M529.546,213.5A2.452,2.452,0,1,1,532,215.949a2.452,2.452,0,0,1-2.452-2.452Z" transform="translate(-0.246 -0.168)" fill="#ffca00" fill-rule="evenodd"/>
      <path id="Path_490" data-name="Path 490" d="M503.957,193.123a2.452,2.452,0,1,1-1.327,3.2,2.451,2.451,0,0,1,1.327-3.2Z" transform="translate(-0.137 -0.095)" fill="#ffca00" fill-rule="evenodd"/>
      <path id="Path_491" data-name="Path 491" d="M518.96,229.341a2.452,2.452,0,1,1-1.328,3.2,2.452,2.452,0,0,1,1.328-3.2Z" transform="translate(-0.198 -0.24)" fill="#ffca00" fill-rule="evenodd"/>
      <path id="Path_492" data-name="Path 492" d="M492.022,221.937a2.452,2.452,0,1,1,3.2,1.327,2.453,2.453,0,0,1-3.2-1.327Z" transform="translate(-0.095 -0.198)" fill="#ffca00" fill-rule="evenodd"/>
      <path id="Path_493" data-name="Path 493" d="M528.241,206.934a2.452,2.452,0,1,1,3.2,1.327,2.451,2.451,0,0,1-3.2-1.327Z" transform="translate(-0.24 -0.137)" fill="#ffca00" fill-rule="evenodd"/>
      <path id="Path_494" data-name="Path 494" d="M520.836,193.123a2.452,2.452,0,1,1-3.2,1.326,2.451,2.451,0,0,1,3.2-1.326Z" transform="translate(-0.198 -0.095)" fill="#ffca00" fill-rule="evenodd"/>
      <path id="Path_495" data-name="Path 495" d="M505.834,229.341a2.452,2.452,0,1,1-3.2,1.327,2.453,2.453,0,0,1,3.2-1.327Z" transform="translate(-0.137 -0.24)" fill="#ffca00" fill-rule="evenodd"/>
      <path id="Path_496" data-name="Path 496" d="M492.022,205.058a2.452,2.452,0,1,1,1.327,3.2,2.451,2.451,0,0,1-1.327-3.2Z" transform="translate(-0.095 -0.137)" fill="#ffca00" fill-rule="evenodd"/>
      <path id="Path_497" data-name="Path 497" d="M528.241,220.06a2.452,2.452,0,1,1,1.327,3.2,2.452,2.452,0,0,1-1.327-3.2Z" transform="translate(-0.24 -0.198)" fill="#ffca00" fill-rule="evenodd"/>
      <path id="Path_498" data-name="Path 498" d="M496.8,197.9a2.452,2.452,0,1,1,0,3.468,2.452,2.452,0,0,1,0-3.468Z" transform="translate(-0.112 -0.112)" fill="#ffca00" fill-rule="evenodd"/>
      <path id="Path_499" data-name="Path 499" d="M524.523,225.624a2.452,2.452,0,1,1,0,3.468,2.452,2.452,0,0,1,0-3.468Z" transform="translate(-0.223 -0.223)" fill="#ffca00" fill-rule="evenodd"/>
      <path id="Path_500" data-name="Path 500" d="M496.8,229.092a2.452,2.452,0,1,1,3.467,0,2.452,2.452,0,0,1-3.467,0Z" transform="translate(-0.112 -0.223)" fill="#ffca00" fill-rule="evenodd"/>
      <path id="Path_501" data-name="Path 501" d="M524.523,201.371a2.452,2.452,0,1,1,3.468,0,2.453,2.453,0,0,1-3.468,0Z" transform="translate(-0.223 -0.112)" fill="#ffca00" fill-rule="evenodd"/>
    </g>
  </g>
</svg>
