<svg xmlns="http://www.w3.org/2000/svg" xmlns:xlink="http://www.w3.org/1999/xlink" width="100" height="100" viewBox="0 0 100 100"><defs><clipPath id="a"><path d="M350,400a50,50,0,1,1,50,50,50,50,0,0,1-50-50Z" fill="none"/></clipPath><clipPath id="b"><path d="M493.8,499.883a4.277,4.277,0,0,1,.85-.2c1.538-.165,2.24-.649,3.7-.764,5.244-.412,4.133-4.2,2.754-3.865s-12.06,1.035-14.8,2.333a8.1,8.1,0,0,0-2.218,1.686l-29.343-16.232c-8.565-20.269-18.669-50.983-23.614-54.866-.114-.219-.4-.378-.941-.661-1.687-.874-12.927-6.653-17.645-9.078-3.753,2.583-9.111,2.137-13.445,2.267-3.865.121-6.054-1.284-9.838-1.927-.818.409-2.4,1.256-4.347,2.315-6.386,3.475-16.67,9.227-16.666,9.226l.015.047c-4.919,3.823-10.793,46.492-10.932,58.586l-3.141,45.374a5.461,5.461,0,0,0,1.525.747,15.416,15.416,0,0,0-.008,4.514c.25,1.488-1.005,11.249.074,13.145s2.257,9.949,2.24,10.289c-.048,1,1.49.266,1.49.266s-.137.371,1.249.328,2.132-4.812,2.389-5.731.4-8.741,1.638-9.677,1.075.864,2.974,3.735,3.443,1.835,3.443,1.835-1.608-7.037-2.168-8.687-3.969-8.241-3.969-8.241l-.209-1.446a13.388,13.388,0,0,0,1.618-.4l1.714-41.656c1.371-5.662,7.372-29.361,9.036-35.942,4.337,13.263,8.682,26.935,9.036,29.5.723,5.227-4.136,25.115-4.136,25.115,0,2.247,11.906,4.549,25.917,4.854,1.06.024,24.4-.412,24.419-5.64,0-1.906-2.253-17.538-4.651-35.976a60.27,60.27,0,0,0,3.5-7.612c6.2,12.763,13.277,26.688,15.154,27.739,2.467,1.381,22.393,15.613,34.246,14.159.566,2.891,2.925,4.848,9.952,5.458,0,0,18.882,5.077,22.145-5.2C514.406,504.63,498.131,500.829,493.8,499.883Z" fill="none"/></clipPath><clipPath id="c"><path d="M386.759,419.059s5.314,13.012,19.334,11.034c12.8-1.807,6.45-11.847,6.45-11.847l18.276,8.449,11.815,7.422,2.464,16.747,6.241,16.6-22.373,16.272-50.438-4.789-26.056-9.528L347.545,450.2l2.463-21.022,10.346-9.157Z" fill="none"/></clipPath><clipPath id="e"><rect width="100" height="100"/></clipPath></defs><g id="d" clip-path="url(#e)"><g transform="translate(-350 -350)"><circle cx="50" cy="50" r="50" transform="translate(350 350)" fill="#3bcfbf"/><g clip-path="url(#a)"><path d="M493.8,499.883a4.277,4.277,0,0,1,.85-.2c1.538-.165,2.24-.649,3.7-.764,5.244-.412,4.133-4.2,2.754-3.865s-12.06,1.035-14.8,2.333a8.1,8.1,0,0,0-2.218,1.686l-29.343-16.232c-8.565-20.269-18.669-50.983-23.614-54.866-.114-.219-.4-.378-.941-.661-1.687-.874-12.927-6.653-17.645-9.078-3.753,2.583-9.111,2.137-13.445,2.267-3.865.121-6.054-1.284-9.838-1.927-3.475,1.733-21.013,11.541-21.013,11.541l.015.047c-4.919,3.823-10.793,46.492-10.932,58.586l-3.141,45.374a5.461,5.461,0,0,0,1.525.747,15.416,15.416,0,0,0-.008,4.514c.25,1.488-1.005,11.249.074,13.145s2.257,9.949,2.24,10.289c-.048,1,1.49.266,1.49.266s-.137.371,1.249.328,2.132-4.812,2.389-5.731.4-8.741,1.638-9.677,1.075.864,2.974,3.735,3.443,1.835,3.443,1.835-1.608-7.037-2.168-8.687-3.969-8.241-3.969-8.241l-.209-1.446a13.388,13.388,0,0,0,1.618-.4l1.714-41.656c1.371-5.662,7.372-29.361,9.036-35.942,4.337,13.263,8.682,26.935,9.036,29.5.723,5.227-4.136,25.115-4.136,25.115,0,2.247,11.906,4.549,25.917,4.854,1.06.024,24.4-.412,24.419-5.64,0-1.906-2.253-17.538-4.651-35.976a60.27,60.27,0,0,0,3.5-7.612c6.2,12.763,13.277,26.688,15.154,27.739,2.467,1.381,22.393,15.613,34.246,14.159.566,2.891,2.925,4.848,9.952,5.458,0,0,18.882,5.077,22.145-5.2C514.406,504.63,498.131,500.829,493.8,499.883Z" fill="#f7c6ad"/><path d="M403.188,435.518c-1.895-1.725-4.042-3.093-5.671-5.11a76.968,76.968,0,0,1-8.257-11.832c4.579-4.029-.207-18.377-.207-18.377l16.654.591,4.754,16.386,2.41,1.237c-.82,7.04-2.36,15.422-5.663,21.456C407.128,439.782,404.274,436.507,403.188,435.518Z" fill="#f7c6ad"/><path d="M386.759,419.893c.276,1.18,2.49,2.7,4.614,3.688,7.7,3.633,14.82,4.152,20.7.444a4.2,4.2,0,0,0,.793-5.617l-2.41-1.237L405.7,400.786l-16.654-.592S391.34,415.864,386.759,419.893Z" fill="#edad94"/><path d="M385.848,370.246h0c.006-.012.016-.024.023-.036a16.025,16.025,0,0,1,.941-1.417c.1-.129.206-.251.3-.379.255-.324.519-.644.806-.955.161-.175.336-.342.508-.512.257-.253.523-.5.8-.74.206-.174.417-.346.636-.513.291-.222.6-.428.916-.633.241-.154.467-.312.723-.455.393-.224.817-.424,1.247-.619a19.483,19.483,0,0,1,8.434-1.635c16.935.182,17.785,16.082,17.831,18,0,.12,0,.227-.01.344-.015.228-.05.709-.1,1.364a113.975,113.975,0,0,0-13.791-6.7,100.093,100.093,0,0,0-14.774-4,59.884,59.884,0,0,1-7.212,11.744c-.082-1.392-.133-2.425-.15-2.795,0-.12-.006-.227,0-.343A22.314,22.314,0,0,1,385.848,370.246Z" fill="#e78052"/><path d="M398.735,382.231a2.862,2.862,0,0,1-.33-.064c-6.6-1.43-9.954,2.049-9.866,1.893a1.735,1.735,0,0,1-1.011.451c-.256-.019-.241-.271.06-.562.007.163,2.939-4.294,10.826-2.839C398.954,381.235,399.134,382.292,398.735,382.231Z" fill="#231f20"/><path d="M385.06,405.633c.18-1.62.241-1.928.241-1.928a4.1,4.1,0,0,0,3.172,2.987,11.434,11.434,0,0,1-1.855-3.527l.213-1.79-2.8-7.136-1.049.063a3.553,3.553,0,0,1-1.643-.749S382.475,403.977,385.06,405.633Z" fill="#5c2a19"/><path d="M417.055,384.512c-4.216-.736-10.482-5.783-10.482-5.783s0,1.293,3.368,4.161a14.752,14.752,0,0,1-7.321-3.915s-.566,1.139,1.547,3.494c-8.016-1.92-13.821-11.106-13.821-11.106a107.864,107.864,0,0,0-5.412,12.7,8.867,8.867,0,0,1,1.452,3.3c.731,3.283-.323,6.306-2.352,6.868a29.188,29.188,0,0,0,1.433,7.349c1.326,2.605,11.021,11.225,15.07,11.225s11.663-6.951,13.042-9.527c2.323-3.664,2.513-16.562,2.928-21.769-1.619-.74-.895.239-2.411-.694C414.1,380.817,413.883,382.052,417.055,384.512Z" fill="#f7c6ad"/><path d="M386.386,387.365a8.856,8.856,0,0,0-1.461-3.308c-.541,1.583-1.031,3.189-1.408,4.741.143,1.795.317,3.671.517,5.436C386.067,393.671,387.122,390.648,386.386,387.365Z" fill="#f7c6ad"/><path d="M423.629,384.512c-2.427-1.6-3.012-5.542-3.012-5.542s-4.666-33.868-34.21-16.627c-14.8,3.938-10.241,17.612-7.809,23.644.241-1.989,1.2-3.523,2.625-3.841a2.8,2.8,0,0,1,1.872.3c-.059-1.054-.1-1.83-.112-2.14,0-.12-.006-.228,0-.343.082-1.916,1.275-17.794,18.21-17.612s17.785,16.082,17.831,18c0,.12,0,.227-.01.344-.025.362-.093,1.325-.2,2.642C420.59,384.134,422.466,384.757,423.629,384.512Z" fill="#5c2a19"/><path d="M383.064,388.363a1.03,1.03,0,0,0,.458.435h0c-.171-2.147-.3-4.147-.392-5.7Z" fill="#5c2a19"/><path d="M383.133,383.1s-.908,3.846-.067,5.262l.067-5.261Z" fill="#5c2a19"/><path d="M383.522,388.8h0a1.03,1.03,0,0,1-.458-.435c-.844-1.416.066-5.259.066-5.262-.013-.228-.026-.449-.038-.655a2.8,2.8,0,0,0-1.873-.3c-1.43.318-2.38,1.851-2.625,3.841a9.075,9.075,0,0,0,.153,3.074,7.832,7.832,0,0,0,2.6,4.482,3.565,3.565,0,0,0,1.643.75,2.546,2.546,0,0,0,.929-.016c.042-.01.079-.036.121-.048C383.839,392.469,383.665,390.593,383.522,388.8Z" fill="#e8a692"/><path d="M383.133,383.1h0c.091,1.548.22,3.548.391,5.695.377-1.551.868-3.157,1.409-4.741a5.173,5.173,0,0,0-1.839-1.61c.012.206.025.427.039.655Z" fill="#5c2a19"/><path d="M383.133,383.1" fill="#231f20"/><path d="M401.275,395.84c.285.474.268.39.073.749a4.1,4.1,0,0,1-.647.683c-.42.444,1.4.346,1.729,0,.269-.283.918-.748,1.052-1.129.16-.454-.164-.629-.482-.9a5.63,5.63,0,0,1-1.818-2.949C401.06,391.83,400.3,394.219,401.275,395.84Z" fill="#e79880"/><circle cx="1.555" cy="1.555" r="1.555" transform="translate(391.953 386.222)" fill="#643a19"/><circle cx="1.511" cy="1.511" r="1.511" transform="translate(406.788 386.126)" fill="#643a19"/><path d="M398.011,383.328a3.076,3.076,0,0,1-.331-.063c-6.6-1.429-9.955,2.048-9.866,1.892a1.73,1.73,0,0,1-1.01.451c-.257-.019-.241-.271.059-.56.008.161,2.939-4.3,10.827-2.841C398.23,382.332,398.408,383.389,398.011,383.328Z" fill="#6a3322"/><path d="M404.547,384.026a1.95,1.95,0,0,0,.27-.071,9.663,9.663,0,0,1,8.646,1.116,1.523,1.523,0,0,0,.957.341c.232-.041.192-.282-.113-.534.033.1-3.205-3.723-9.66-1.9C404.217,383.124,404.225,384.1,404.547,384.026Z" fill="#6a3322"/><path d="M419.016,380.349c-.043-1.916-.893-17.816-17.832-18s-18.124,15.7-18.206,17.612v.343c.015.31.053,1.084.112,2.14a5.175,5.175,0,0,1,1.839,1.611,107.864,107.864,0,0,1,5.412-12.7s5.8,9.186,13.822,11.106c-2.114-2.351-1.547-3.494-1.547-3.494a14.749,14.749,0,0,0,7.32,3.915c-3.367-2.868-3.367-4.161-3.367-4.161s6.265,5.049,10.482,5.783c-3.173-2.46-2.957-3.7-2.957-3.7a43.3,43.3,0,0,0,4.708,2.519c.105-1.317.174-2.289.2-2.642A2.694,2.694,0,0,0,419.016,380.349Z" fill="#5c2a19"/><path d="M389.187,364.74c-.723.624,11.862,9.383,15.407,9.609-2.263-2.65-1.807-3.855-1.807-3.855s4.378,4.819,9.078,5.954c-2.643-3.478-2.4-5.084-2.4-5.084a28.268,28.268,0,0,1,7.808,5.084C416.386,374.5,405.043,351.416,389.187,364.74Z" fill="#6a3322"/><path d="M402.069,402.939c-3.446.232-6.088-1.063-5.862-1.59a.211.211,0,0,1,.051-.078,25.344,25.344,0,0,0,11.134-.241A8.3,8.3,0,0,1,402.069,402.939Z" fill="#e79880"/><g clip-path="url(#b)"><path d="M386.759,419.059s5.314,13.012,19.334,11.034c12.8-1.807,6.45-11.847,6.45-11.847l18.276,8.449,11.815,7.422,2.464,16.747,6.241,16.6-22.373,16.272-50.438-4.789-26.056-9.528L347.545,450.2l2.463-21.022,10.346-9.157Z" fill="#1a1f71"/><g clip-path="url(#c)"><path d="M383.735,420.384s4.8,15.7,23.587,12.564,4.989-20.817,4.989-20.817Z" fill="#1f1d58"/></g><path d="M431.325,467.457a20.844,20.844,0,0,0,.385-13.8c-.827-2.7-2.793-7.719-2.137-14.206s1.552-11.469,1.552-11.469,7.81-2.9,8.139-2.651,4.844,3.2,5.994,4.926,6.077,14.288,6.077,14.288,3.448,29.316,2.381,30.3-16.094,7.469-16.094,7.469-4.848.16-4.763-.656S431.325,467.457,431.325,467.457Z" fill="#1f1d58"/><path d="M368.263,430.164s9.186,4.828,8.974,27.052-2.677,27.273-2.677,27.273l-25.866-8.744-1.97-14.535Z" fill="#1f1d58"/></g><path d="M387.658,418.811s9.3,10.856,17.677,9.7c7.505-1.032,5.6-10.952,5.6-10.952" fill="none" stroke="#5c5c5c" stroke-miterlimit="10" stroke-width="0.296" opacity="0.19" style="isolation:isolate"/><path d="M387.658,418.759s9.412,10.406,17.9,9.3c7.591-.99,5.669-10.5,5.669-10.5" fill="none" stroke="#f4f4f4" stroke-miterlimit="10" stroke-width="0.292"/><ellipse cx="0.728" cy="0.772" rx="0.728" ry="0.772" transform="translate(404.786 428.419) rotate(-4.473)" fill="#5c5c5c" opacity="0.17" style="isolation:isolate"/><ellipse cx="0.728" cy="0.772" rx="0.728" ry="0.772" transform="translate(405.155 428.2) rotate(-4.473)" fill="#f4f4f4"/><path d="M387.157,362.794c.086-.23-.492-3.693.13-3.88-.957-.136-1.064,3.133-1.064,3.133s-1.963-3.012-4.365-2.1c2.447.843,2.955,2.108,2.955,2.108a8.263,8.263,0,0,0-1.988.21,5.194,5.194,0,0,1,2.662,1.343l.988-.412Z" fill="#5c2a19"/></g></g></g></svg>