<svg xmlns="http://www.w3.org/2000/svg" xmlns:xlink="http://www.w3.org/1999/xlink" width="292" height="17" viewBox="0 0 292 17">
  <defs>
    <clipPath id="clip-stripes_top">
      <rect width="292" height="17"/>
    </clipPath>
  </defs>
  <g id="stripes_top" clip-path="url(#clip-stripes_top)">
    <g id="Group_212" data-name="Group 212" transform="translate(-0.412 -141.244)" opacity="0.2">
      <g id="Group_129" data-name="Group 129" transform="translate(0.412 141.244)">
        <g id="Group_128" data-name="Group 128">
          <path id="Path_198" data-name="Path 198" d="M.412,146.087l5.231-4.626a1.708,1.708,0,0,1,1.222-.185c.465.083.677.3.464.486L.412,147.88Z" transform="translate(-0.412 -141.244)" fill="#fff"/>
        </g>
      </g>
      <g id="Group_131" data-name="Group 131" transform="translate(0.412 141.244)">
        <g id="Group_130" data-name="Group 130">
          <path id="Path_199" data-name="Path 199" d="M.412,152.221l12.164-10.76a1.71,1.71,0,0,1,1.222-.185c.468.083.677.3.464.486L.412,154.014Z" transform="translate(-0.412 -141.244)" fill="#fff"/>
        </g>
      </g>
      <g id="Group_133" data-name="Group 133" transform="translate(1.182 141.244)">
        <g id="Group_132" data-name="Group 132">
          <path id="Path_200" data-name="Path 200" d="M1.182,157.873c0,.141.2.277.545.338a1.7,1.7,0,0,0,1.222-.186L21.2,141.766c.212-.185,0-.406-.463-.49a1.7,1.7,0,0,0-1.223.186L1.263,157.722A.2.2,0,0,0,1.182,157.873Z" transform="translate(-1.182 -141.244)" fill="#fff"/>
        </g>
      </g>
      <g id="Group_135" data-name="Group 135" transform="translate(8.116 141.244)">
        <g id="Group_134" data-name="Group 134">
          <path id="Path_201" data-name="Path 201" d="M8.116,157.873c0,.141.2.277.545.338a1.7,1.7,0,0,0,1.222-.186L28.13,141.766c.215-.185,0-.406-.464-.49a1.7,1.7,0,0,0-1.222.186L8.2,157.722A.2.2,0,0,0,8.116,157.873Z" transform="translate(-8.116 -141.244)" fill="#fff"/>
        </g>
      </g>
      <g id="Group_137" data-name="Group 137" transform="translate(15.048 141.244)">
        <g id="Group_136" data-name="Group 136">
          <path id="Path_202" data-name="Path 202" d="M15.048,157.873c0,.141.2.277.545.338a1.7,1.7,0,0,0,1.222-.186l18.249-16.259c.213-.185,0-.406-.464-.49a1.7,1.7,0,0,0-1.222.186L15.129,157.722A.2.2,0,0,0,15.048,157.873Z" transform="translate(-15.048 -141.244)" fill="#fff"/>
        </g>
      </g>
      <g id="Group_139" data-name="Group 139" transform="translate(21.982 141.244)">
        <g id="Group_138" data-name="Group 138">
          <path id="Path_203" data-name="Path 203" d="M21.982,157.873c0,.141.2.277.545.338a1.7,1.7,0,0,0,1.222-.186L42,141.766c.213-.185,0-.406-.464-.49a1.7,1.7,0,0,0-1.222.186L22.063,157.722A.2.2,0,0,0,21.982,157.873Z" transform="translate(-21.982 -141.244)" fill="#fff"/>
        </g>
      </g>
      <g id="Group_141" data-name="Group 141" transform="translate(28.916 141.244)">
        <g id="Group_140" data-name="Group 140">
          <path id="Path_204" data-name="Path 204" d="M28.916,157.873c0,.141.2.277.545.338a1.7,1.7,0,0,0,1.222-.186l18.249-16.259c.213-.185,0-.406-.464-.49a1.7,1.7,0,0,0-1.222.186L29,157.722A.2.2,0,0,0,28.916,157.873Z" transform="translate(-28.916 -141.244)" fill="#fff"/>
        </g>
      </g>
      <g id="Group_143" data-name="Group 143" transform="translate(35.85 141.244)">
        <g id="Group_142" data-name="Group 142">
          <path id="Path_205" data-name="Path 205" d="M35.85,157.873c0,.141.2.277.545.338a1.7,1.7,0,0,0,1.222-.186l18.249-16.259c.215-.185,0-.406-.464-.49a1.7,1.7,0,0,0-1.222.186L35.931,157.722A.2.2,0,0,0,35.85,157.873Z" transform="translate(-35.85 -141.244)" fill="#fff"/>
        </g>
      </g>
      <g id="Group_145" data-name="Group 145" transform="translate(42.783 141.244)">
        <g id="Group_144" data-name="Group 144">
          <path id="Path_206" data-name="Path 206" d="M42.783,157.873c0,.141.2.277.546.338a1.7,1.7,0,0,0,1.222-.186L62.8,141.766c.215-.185,0-.406-.464-.49a1.7,1.7,0,0,0-1.222.186L42.865,157.722A.205.205,0,0,0,42.783,157.873Z" transform="translate(-42.783 -141.244)" fill="#fff"/>
        </g>
      </g>
      <g id="Group_147" data-name="Group 147" transform="translate(49.847 141.244)">
        <g id="Group_146" data-name="Group 146">
          <path id="Path_207" data-name="Path 207" d="M49.717,157.873c0,.141.2.277.546.338a1.7,1.7,0,0,0,1.222-.186l18.249-16.259c.213-.185,0-.406-.464-.49a1.7,1.7,0,0,0-1.222.186L49.8,157.722A.205.205,0,0,0,49.717,157.873Z" transform="translate(-49.717 -141.244)" fill="#fff"/>
        </g>
      </g>
      <g id="Group_149" data-name="Group 149" transform="translate(56.799 141.244)">
        <g id="Group_148" data-name="Group 148">
          <path id="Path_208" data-name="Path 208" d="M56.651,157.873c0,.141.2.277.545.338a1.7,1.7,0,0,0,1.223-.186l18.249-16.259c.213-.185,0-.406-.464-.49a1.7,1.7,0,0,0-1.222.186L56.733,157.722A.2.2,0,0,0,56.651,157.873Z" transform="translate(-56.651 -141.244)" fill="#fff"/>
        </g>
      </g>
      <g id="Group_151" data-name="Group 151" transform="translate(63.752 141.244)">
        <g id="Group_150" data-name="Group 150">
          <path id="Path_209" data-name="Path 209" d="M63.585,157.873c0,.141.2.277.545.338a1.7,1.7,0,0,0,1.223-.186L83.6,141.766c.213-.185,0-.406-.464-.49a1.7,1.7,0,0,0-1.222.186L63.667,157.722A.205.205,0,0,0,63.585,157.873Z" transform="translate(-63.585 -141.244)" fill="#fff"/>
        </g>
      </g>
      <g id="Group_153" data-name="Group 153" transform="translate(70.704 141.244)">
        <g id="Group_152" data-name="Group 152">
          <path id="Path_210" data-name="Path 210" d="M70.519,157.873c0,.141.2.277.545.338a1.7,1.7,0,0,0,1.223-.186l18.249-16.259c.215-.185,0-.406-.464-.49a1.7,1.7,0,0,0-1.222.186L70.6,157.722A.2.2,0,0,0,70.519,157.873Z" transform="translate(-70.519 -141.244)" fill="#fff"/>
        </g>
      </g>
      <g id="Group_155" data-name="Group 155" transform="translate(77.656 141.244)">
        <g id="Group_154" data-name="Group 154">
          <path id="Path_211" data-name="Path 211" d="M77.453,157.873c0,.141.2.277.545.338a1.7,1.7,0,0,0,1.223-.186l18.247-16.259c.213-.185,0-.406-.464-.49a1.7,1.7,0,0,0-1.222.186L77.534,157.722A.2.2,0,0,0,77.453,157.873Z" transform="translate(-77.453 -141.244)" fill="#fff"/>
        </g>
      </g>
      <g id="Group_157" data-name="Group 157" transform="translate(84.608 141.244)">
        <g id="Group_156" data-name="Group 156">
          <path id="Path_212" data-name="Path 212" d="M84.387,157.873c0,.141.2.277.545.338a1.7,1.7,0,0,0,1.223-.186L104.4,141.766c.211-.185,0-.406-.464-.49a1.7,1.7,0,0,0-1.222.186L84.468,157.722A.2.2,0,0,0,84.387,157.873Z" transform="translate(-84.387 -141.244)" fill="#fff"/>
        </g>
      </g>
      <g id="Group_159" data-name="Group 159" transform="translate(91.561 141.244)">
        <g id="Group_158" data-name="Group 158">
          <path id="Path_213" data-name="Path 213" d="M91.321,157.873c0,.141.2.277.545.338a1.7,1.7,0,0,0,1.222-.186l18.248-16.259c.215-.185,0-.406-.464-.49a1.7,1.7,0,0,0-1.222.186L91.4,157.722A.2.2,0,0,0,91.321,157.873Z" transform="translate(-91.321 -141.244)" fill="#fff"/>
        </g>
      </g>
      <g id="Group_161" data-name="Group 161" transform="translate(98.513 141.244)">
        <g id="Group_160" data-name="Group 160">
          <path id="Path_214" data-name="Path 214" d="M98.255,157.873c0,.141.2.277.545.338a1.7,1.7,0,0,0,1.222-.186l18.248-16.259c.215-.185,0-.406-.464-.49a1.7,1.7,0,0,0-1.222.186L98.336,157.722A.2.2,0,0,0,98.255,157.873Z" transform="translate(-98.255 -141.244)" fill="#fff"/>
        </g>
      </g>
      <g id="Group_163" data-name="Group 163" transform="translate(105.465 141.244)">
        <g id="Group_162" data-name="Group 162">
          <path id="Path_215" data-name="Path 215" d="M105.189,157.873c0,.141.2.277.545.338a1.7,1.7,0,0,0,1.222-.186L125.2,141.766c.213-.185,0-.406-.464-.49a1.7,1.7,0,0,0-1.222.186L105.27,157.722A.2.2,0,0,0,105.189,157.873Z" transform="translate(-105.189 -141.244)" fill="#fff"/>
        </g>
      </g>
      <g id="Group_165" data-name="Group 165" transform="translate(112.416 141.244)">
        <g id="Group_164" data-name="Group 164">
          <path id="Path_216" data-name="Path 216" d="M112.121,157.873c0,.141.2.277.545.338a1.7,1.7,0,0,0,1.222-.186l18.25-16.259c.209-.185,0-.406-.465-.49a1.7,1.7,0,0,0-1.222.186L112.2,157.722A.2.2,0,0,0,112.121,157.873Z" transform="translate(-112.121 -141.244)" fill="#fff"/>
        </g>
      </g>
      <g id="Group_167" data-name="Group 167" transform="translate(119.368 141.244)">
        <g id="Group_166" data-name="Group 166">
          <path id="Path_217" data-name="Path 217" d="M119.055,157.873c0,.141.2.277.545.338a1.7,1.7,0,0,0,1.222-.186l18.249-16.259c.209-.185,0-.406-.464-.49a1.7,1.7,0,0,0-1.222.186l-18.249,16.259A.2.2,0,0,0,119.055,157.873Z" transform="translate(-119.055 -141.244)" fill="#fff"/>
        </g>
      </g>
      <g id="Group_169" data-name="Group 169" transform="translate(126.32 141.244)">
        <g id="Group_168" data-name="Group 168">
          <path id="Path_218" data-name="Path 218" d="M125.989,157.873c0,.141.2.277.545.338a1.7,1.7,0,0,0,1.222-.186l18.249-16.259c.212-.185,0-.406-.464-.49a1.7,1.7,0,0,0-1.222.186L126.07,157.722A.2.2,0,0,0,125.989,157.873Z" transform="translate(-125.989 -141.244)" fill="#fff"/>
        </g>
      </g>
      <g id="Group_171" data-name="Group 171" transform="translate(133.272 141.244)">
        <g id="Group_170" data-name="Group 170">
          <path id="Path_219" data-name="Path 219" d="M132.923,157.873c0,.141.2.277.545.338a1.7,1.7,0,0,0,1.222-.186l18.249-16.259c.211-.185,0-.406-.464-.49a1.7,1.7,0,0,0-1.222.186L133,157.722A.207.207,0,0,0,132.923,157.873Z" transform="translate(-132.923 -141.244)" fill="#fff"/>
        </g>
      </g>
      <g id="Group_173" data-name="Group 173" transform="translate(140.225 141.244)">
        <g id="Group_172" data-name="Group 172">
          <path id="Path_220" data-name="Path 220" d="M139.857,157.873c0,.141.2.277.545.338a1.7,1.7,0,0,0,1.222-.186l18.249-16.259c.21-.185,0-.406-.464-.49a1.7,1.7,0,0,0-1.222.186l-18.249,16.259A.207.207,0,0,0,139.857,157.873Z" transform="translate(-139.857 -141.244)" fill="#fff"/>
        </g>
      </g>
      <g id="Group_175" data-name="Group 175" transform="translate(147.177 141.244)">
        <g id="Group_174" data-name="Group 174">
          <path id="Path_221" data-name="Path 221" d="M146.791,157.873c0,.141.2.277.545.338a1.7,1.7,0,0,0,1.222-.186l18.248-16.259c.211-.185,0-.406-.464-.49a1.7,1.7,0,0,0-1.222.186l-18.248,16.259A.207.207,0,0,0,146.791,157.873Z" transform="translate(-146.791 -141.244)" fill="#fff"/>
        </g>
      </g>
      <g id="Group_177" data-name="Group 177" transform="translate(154.129 141.244)">
        <g id="Group_176" data-name="Group 176">
          <path id="Path_222" data-name="Path 222" d="M153.725,157.873c0,.141.2.277.545.338a1.7,1.7,0,0,0,1.222-.186l18.248-16.259c.21-.185,0-.406-.464-.49a1.7,1.7,0,0,0-1.222.186l-18.248,16.259A.207.207,0,0,0,153.725,157.873Z" transform="translate(-153.725 -141.244)" fill="#fff"/>
        </g>
      </g>
      <g id="Group_179" data-name="Group 179" transform="translate(161.082 141.244)">
        <g id="Group_178" data-name="Group 178">
          <path id="Path_223" data-name="Path 223" d="M160.659,157.873c0,.141.2.277.545.338a1.7,1.7,0,0,0,1.222-.186l18.248-16.259c.209-.185,0-.406-.464-.49a1.7,1.7,0,0,0-1.222.186L160.74,157.722A.207.207,0,0,0,160.659,157.873Z" transform="translate(-160.659 -141.244)" fill="#fff"/>
        </g>
      </g>
      <g id="Group_181" data-name="Group 181" transform="translate(168.033 141.244)">
        <g id="Group_180" data-name="Group 180">
          <path id="Path_224" data-name="Path 224" d="M167.592,157.873c0,.141.2.277.546.338a1.7,1.7,0,0,0,1.222-.186l18.248-16.259c.211-.185,0-.406-.464-.49a1.7,1.7,0,0,0-1.222.186l-18.248,16.259A.209.209,0,0,0,167.592,157.873Z" transform="translate(-167.592 -141.244)" fill="#fff"/>
        </g>
      </g>
      <g id="Group_183" data-name="Group 183" transform="translate(174.985 141.244)">
        <g id="Group_182" data-name="Group 182">
          <path id="Path_225" data-name="Path 225" d="M174.526,157.873c0,.141.2.277.546.338a1.7,1.7,0,0,0,1.222-.186l18.248-16.259c.21-.185,0-.406-.464-.49a1.7,1.7,0,0,0-1.222.186l-18.248,16.259A.209.209,0,0,0,174.526,157.873Z" transform="translate(-174.526 -141.244)" fill="#fff"/>
        </g>
      </g>
      <g id="Group_185" data-name="Group 185" transform="translate(181.936 141.244)">
        <g id="Group_184" data-name="Group 184">
          <path id="Path_226" data-name="Path 226" d="M181.459,157.873c0,.141.2.277.546.338a1.7,1.7,0,0,0,1.222-.186l18.249-16.259c.209-.185,0-.406-.464-.49a1.7,1.7,0,0,0-1.222.186l-18.249,16.259A.209.209,0,0,0,181.459,157.873Z" transform="translate(-181.459 -141.244)" fill="#fff"/>
        </g>
      </g>
      <g id="Group_187" data-name="Group 187" transform="translate(188.889 141.244)">
        <g id="Group_186" data-name="Group 186">
          <path id="Path_227" data-name="Path 227" d="M188.393,157.873c0,.141.2.277.546.338a1.7,1.7,0,0,0,1.222-.186l18.249-16.259c.209-.185,0-.406-.464-.49a1.7,1.7,0,0,0-1.222.186l-18.249,16.259A.209.209,0,0,0,188.393,157.873Z" transform="translate(-188.393 -141.244)" fill="#fff"/>
        </g>
      </g>
      <g id="Group_189" data-name="Group 189" transform="translate(195.841 141.244)">
        <g id="Group_188" data-name="Group 188">
          <path id="Path_228" data-name="Path 228" d="M195.327,157.873c0,.141.2.277.546.338a1.7,1.7,0,0,0,1.222-.186l18.248-16.259c.209-.185,0-.406-.464-.49a1.7,1.7,0,0,0-1.222.186l-18.249,16.259A.207.207,0,0,0,195.327,157.873Z" transform="translate(-195.327 -141.244)" fill="#fff"/>
        </g>
      </g>
      <g id="Group_191" data-name="Group 191" transform="translate(202.793 141.244)">
        <g id="Group_190" data-name="Group 190">
          <path id="Path_229" data-name="Path 229" d="M202.261,157.873c0,.141.2.277.545.338a1.7,1.7,0,0,0,1.223-.186l18.248-16.259c.208-.185,0-.406-.464-.49a1.7,1.7,0,0,0-1.222.186l-18.249,16.259A.207.207,0,0,0,202.261,157.873Z" transform="translate(-202.261 -141.244)" fill="#fff"/>
        </g>
      </g>
      <g id="Group_193" data-name="Group 193" transform="translate(209.746 141.244)">
        <g id="Group_192" data-name="Group 192">
          <path id="Path_230" data-name="Path 230" d="M209.2,157.873c0,.141.2.277.545.338a1.7,1.7,0,0,0,1.223-.186l18.248-16.259c.211-.185,0-.406-.464-.49a1.7,1.7,0,0,0-1.222.186l-18.249,16.259A.207.207,0,0,0,209.2,157.873Z" transform="translate(-209.195 -141.244)" fill="#fff"/>
        </g>
      </g>
      <g id="Group_195" data-name="Group 195" transform="translate(216.698 141.244)">
        <g id="Group_194" data-name="Group 194">
          <path id="Path_231" data-name="Path 231" d="M216.129,157.873c0,.141.2.277.545.338a1.7,1.7,0,0,0,1.222-.186l18.249-16.259c.21-.185,0-.406-.464-.49a1.7,1.7,0,0,0-1.222.186L216.21,157.722A.207.207,0,0,0,216.129,157.873Z" transform="translate(-216.129 -141.244)" fill="#fff"/>
        </g>
      </g>
      <g id="Group_197" data-name="Group 197" transform="translate(223.65 141.244)">
        <g id="Group_196" data-name="Group 196">
          <path id="Path_232" data-name="Path 232" d="M223.063,157.873c0,.141.2.277.545.338a1.7,1.7,0,0,0,1.222-.186l18.249-16.259c.21-.185,0-.406-.464-.49a1.7,1.7,0,0,0-1.222.186l-18.249,16.259A.207.207,0,0,0,223.063,157.873Z" transform="translate(-223.063 -141.244)" fill="#fff"/>
        </g>
      </g>
      <g id="Group_199" data-name="Group 199" transform="translate(230.711 141.244)">
        <g id="Group_198" data-name="Group 198">
          <path id="Path_233" data-name="Path 233" d="M230,157.873c0,.141.2.277.545.338a1.7,1.7,0,0,0,1.222-.186l18.25-16.259c.209-.185,0-.406-.464-.49a1.7,1.7,0,0,0-1.222.186l-18.25,16.259A.207.207,0,0,0,230,157.873Z" transform="translate(-229.996 -141.244)" fill="#fff"/>
        </g>
      </g>
      <g id="Group_201" data-name="Group 201" transform="translate(237.645 141.244)">
        <g id="Group_200" data-name="Group 200">
          <path id="Path_234" data-name="Path 234" d="M236.93,157.873c0,.141.2.277.545.338a1.7,1.7,0,0,0,1.222-.186l18.25-16.259c.208-.185,0-.406-.464-.49a1.7,1.7,0,0,0-1.223.186l-18.249,16.259A.207.207,0,0,0,236.93,157.873Z" transform="translate(-236.93 -141.244)" fill="#fff"/>
        </g>
      </g>
      <g id="Group_203" data-name="Group 203" transform="translate(244.579 141.244)">
        <g id="Group_202" data-name="Group 202">
          <path id="Path_235" data-name="Path 235" d="M243.864,157.873c0,.141.2.277.545.338a1.7,1.7,0,0,0,1.222-.186l18.248-16.259c.209-.185,0-.406-.463-.49a1.7,1.7,0,0,0-1.223.186l-18.248,16.259A.207.207,0,0,0,243.864,157.873Z" transform="translate(-243.864 -141.244)" fill="#fff"/>
        </g>
      </g>
      <g id="Group_205" data-name="Group 205" transform="translate(251.513 141.244)">
        <g id="Group_204" data-name="Group 204">
          <path id="Path_236" data-name="Path 236" d="M250.8,157.873c0,.141.2.277.545.338a1.7,1.7,0,0,0,1.222-.186l18.248-16.259c.212-.185,0-.406-.463-.49a1.7,1.7,0,0,0-1.223.186l-18.248,16.259A.207.207,0,0,0,250.8,157.873Z" transform="translate(-250.798 -141.244)" fill="#fff"/>
        </g>
      </g>
      <g id="Group_207" data-name="Group 207" transform="translate(258.447 141.244)">
        <g id="Group_206" data-name="Group 206">
          <path id="Path_237" data-name="Path 237" d="M257.732,157.873c0,.141.2.277.545.338a1.7,1.7,0,0,0,1.222-.186l18.248-16.259c.211-.185,0-.406-.463-.49a1.7,1.7,0,0,0-1.223.186l-18.248,16.259A.207.207,0,0,0,257.732,157.873Z" transform="translate(-257.732 -141.244)" fill="#fff"/>
        </g>
      </g>
      <g id="Group_209" data-name="Group 209" transform="translate(265.381 141.244)">
        <g id="Group_208" data-name="Group 208">
          <path id="Path_238" data-name="Path 238" d="M264.666,157.873c0,.141.2.277.545.338a1.7,1.7,0,0,0,1.222-.186l18.248-16.259c.211-.185,0-.406-.463-.49a1.7,1.7,0,0,0-1.223.186l-18.248,16.259A.207.207,0,0,0,264.666,157.873Z" transform="translate(-264.666 -141.244)" fill="#fff"/>
        </g>
      </g>
      <g id="Group_211" data-name="Group 211" transform="translate(272.315 141.244)">
        <g id="Group_210" data-name="Group 210">
          <path id="Path_239" data-name="Path 239" d="M271.6,157.873c0,.141.2.277.545.338a1.7,1.7,0,0,0,1.222-.186l18.248-16.259c.21-.185,0-.406-.464-.49a1.7,1.7,0,0,0-1.222.186l-18.248,16.259A.207.207,0,0,0,271.6,157.873Z" transform="translate(-271.6 -141.244)" fill="#fff"/>
        </g>
      </g>
    </g>
  </g>
</svg>
