<svg xmlns="http://www.w3.org/2000/svg" xmlns:xlink="http://www.w3.org/1999/xlink" width="88" height="88" viewBox="0 0 88 88">
  <defs>
    <clipPath id="clip-lv3_client1_h">
      <rect width="88" height="88"/>
    </clipPath>
  </defs>
  <g id="lv3_client1_h" clip-path="url(#clip-lv3_client1_h)">
    <path id="Path_517" data-name="Path 517" d="M761.517,484.85l.011,0,0,0a1.074,1.074,0,0,1,.135.036l0,0,.226.056v0l.065.013v0l.03.007a.294.294,0,0,1,.076.016l.005,0h0l.013,0h.011l.011,0h0l.1.026.212.057v0l.211.057h0l.134.035.012,0,.083.022v0l.473.125,1.437.375c-.13.995-.258,1.991-.392,2.986,0,.18-.106.766-.135.948l-.007.007q-.039.258-.081.514l0,.016v.011l0,.006,0,.016,0,.017v.017l0,.01v.006c-.024.149-.047.3-.072.446v.017c-.022.133-.042.284-.072.41v.018l-.04.229-.007.007-.022.12,0,.02h0l-.018.111-.009.017-.01.046-.037.2v.05h-.007c-.044.244-.085.522-.144.759h0l-.027.128-.005.006-.025.122h0l-.02.1-.012.042c-.064.317-.13.631-.2.944-.016.085-.03.166-.046.237l-.016.048-.075.339,0,.011,0,.011v0l0,.009c-.023.107-.046.214-.072.318h0l0,.011-.007.036v.014l-.068.289h0l-.024.1,0,0-.061.253h0l-.008.033,0,.005v.006l-.079.323v0l-.055.224-.48,1.949-.031-.007q-.8,2.876-1.821,5.669a74.593,74.593,0,0,1-3.236,7.534,75.505,75.505,0,0,1-6.37,10.564,77.285,77.285,0,0,1-8.037,9.454l-1.565,1.567-1.564-1.567a77.315,77.315,0,0,1-8.024-9.444,74.9,74.9,0,0,1-9.592-18.09q-1.016-2.784-1.818-5.674l-.013,0-.034.009-.02.006-.026.007-.03.008-.018,0-.036.01-.012,0-.043.012h0l-.046.013h0l-.044.012-.01,0-.036.009-.019.006-.027.007-.026.008-.022.005-.031.01-.014,0-.041.012-.006,0-.046.013h0l-.045.012-.008,0-.038.011-.016.005-.03.008-.023.006-.023.007-.029.008-.016,0-.038.01-.008,0-.045.013h0l-.046.013h-.006l-.038.012-.013,0-.032.01-.022.005-.024.007-.027.008-.018,0-.034.01-.01,0-.042.012h0l-.045.013h0l-.04.012-.011,0-.034.01-.017.005-.026.008-.026.007-.019.006-.032.009-.012,0-.038.011-.006,0-.043.012h0l-.041.012-.009,0-.035.01-.016,0-.027.008-.023.007-.02.006-.029.009-.015,0-.035.011-.008,0-.043.013h0l-.044.013-.005,0-.037.01-.013,0-.029.008-.021.007-.022.006-.026.008-.016.005-.033.01-.01,0-.039.012h0l-.041.013h0l-.038.012-.011,0-.031.01-.017,0-.024.008-.025.007-.017.005-.031.01-.011,0-.036.012,0,0-.042.012h0l-.04.012-.008,0-.032.01-.015,0-.026.009-.021.007-.02.006-.028.009-.012,0-.034.012-.007,0-.04.012q-.5.157-.987.327a72.213,72.213,0,0,0,3.7,10.483,76.308,76.308,0,0,0,6.077,11.115l.09.137.018.025.073.113.09.134,0,0,.05.075.04.062.068.1.025.037.085.125.007.012.093.136.009.014.083.123a88.649,88.649,0,0,0,5.654,7.385,101.837,101.837,0,0,0,7.316,7.724l0,0,0,.005,1.309,1.183c2.579-2.376,5.051-4.863,7.38-7.474a88.57,88.57,0,0,0,6.833-8.663l.041-.058.111-.161.051-.077.058-.084.043-.064.067-.1.034-.051.074-.11.025-.039.084-.123.017-.026.091-.136.009-.013.1-.149.03-.046.03-.046.018-.025.013-.021.03-.046h0l.06-.091.031-.045.018-.03.012-.016.029-.046q.8-1.224,1.558-2.482V518.2q.909-1.5,1.7-2.976h0l.134-.248,0-.008,0-.005.007-.014c.1-.186.219-.424.368-.713.174-.336.341-.668.5-.994q1-2.022,1.891-4.1.852-1.99,1.554-3.915l.007-.017.089-.255.008-.017.005-.009.2-.576c.089-.256-.061.17.2-.6h0l.08-.234a.423.423,0,0,0,.019-.047h0v0l.033-.1,0,0v0l.024-.077h0l.078-.233h-.008l.081-.244h0l.076-.236h0l.15-.469,0,0,.077-.244h0l.075-.237h0l.068-.224.009-.034h0l.133-.434h0l.138-.462h0c.05-.172.1-.343.149-.514l0,0,.069-.245h0l.066-.238h0l.12-.435h0l.009-.024.066-.247v-.012l.067-.248h0l.064-.241h0l.112-.427h0l.076-.3h0l.034-.129h0l.033-.133c.059-.234.115-.468.172-.7h-.005c.083-.35.168-.7.248-1.05l.006-.023.086-.39h0c.038-.179.077-.361.117-.539h0l.043-.2,0-.007v-.011l0-.019,0-.019c.063-.309.124-.62.183-.929h0l.087-.44.005-.022,0-.022v-.012l0-.01c.056-.3.111-.6.164-.9h0c.026-.183.064-.367.093-.549l0,0,.02-.121.081-.495q.051-.315.1-.63h0l.105-.7q.181-1.249.319-2.494.133-1.184.24-2.51l.124-1.558-1.491-.5c-1.65-.552-3.451-1.062-5.348-1.52s-3.941-.873-6.044-1.225c-2.07-.348-4.176-.631-6.261-.841s-4.138-.348-6.14-.409q-.693-.021-1.331-.029c-.455-.005-.914-.007-1.374-.005s-.936.008-1.408.018c-.412.009-.85.022-1.306.04-1.954.077-3.968.227-5.99.443s-4.069.5-6.068.843c-2.042.351-4.007.756-5.839,1.2s-3.578.944-5.185,1.482l-1.49.5.124,1.558q.094,1.2.213,2.279c.834-.261,1.69-.513,2.559-.754l.011,0,.039-.01.049-.014.016,0,.035-.01.2-.055.051-.013.027-.007.022-.007.05-.013.032-.009.018,0,.05-.013.036-.01.014,0,.049-.013.042-.011.009,0,.05-.013.045-.012h0l.051-.014.05-.013.072-.019.034-.01.038-.01.07-.018h0l.072-.019.033-.009.041-.01c1.433-.376,2.9-.73,4.342-1.046,1.546-.34,3.118-.65,4.64-.911.268-.046.768-.126,1.487-.238.631-.1,1.129-.173,1.491-.223v0l1.071-.151.614-.08.113-.015h.007l.334-.044.22-.027.1-.013.12-.015.039-.005.162-.019.02,0,.141-.016.08-.009.081-.01.14-.016.021,0,.161-.017.04-.005.121-.013.1-.011.06-.005.161-.017h0l.159-.016.062-.006.1-.01.124-.011.037,0a76.7,76.7,0,0,1,12.171-.142,88.587,88.587,0,0,1,14.893,2.285l.106.024.035.009.013,0Zm-31.22,2.766c-1.553.236-3.165.514-4.8.831-1.958.381-3.909.812-5.786,1.288l-.069.017-.011,0-.056.014-.048.013-.02,0-.068.018-.016,0-.052.013-.052.013-.015.005-.068.017-.019.005-.047.013-.056.014-.012,0-.066.018-.025.006-.043.011-.059.016H718.9l-.066.018-.031.008-.036.009-.065.018-.049.013-.048.013h0l-.047.013-.049.013h0l-.046.012-.048.013,0,0-.045.011-.049.013-.006,0-.041.012-.05.013h-.007l-.042.012-.047.013-.009,0-.135.038-.049.013-.013,0-.034.009-.048.013-.016.005-.031.009c-1.783.494-3.49,1.033-5.066,1.606a37.224,37.224,0,0,0-4.558,1.971l-1.318.693.281,1.458a80.153,80.153,0,0,0,4.742,15.723,84.53,84.53,0,0,0,7.447,13.944,97.527,97.527,0,0,0,9.542,12.186,120.291,120.291,0,0,0,11.2,10.685l0,.005,1.284,1.08,1.282-1.08-.005-.005a124.066,124.066,0,0,0,11.221-10.659,96.357,96.357,0,0,0,9.568-12.108,81.922,81.922,0,0,0,7.452-13.928,78.479,78.479,0,0,0,4.694-15.859l.267-1.449-1.3-.686c-.637-.335-1.36-.674-2.157-1.017l-.079-.035c-.078.437-.158.872-.243,1.306v.005l-.005.017,0,.022,0,.022-.005.047c-.12.614-.25,1.234-.385,1.847l0,0c-.056.259-.113.518-.175.776l0,.025,0,.019,0,0q-.078.361-.165.722h0q-.086.352-.172.7-.075.315-.156.631h0l-.12.461v0l-.065.248v.009l-.067.248h0l-.054.2h0l-.008.022c-.05.181-.1.361-.151.542v.006l-.069.246v.01l-.069.244-.014.033c-.049.171-.1.342-.15.512v.005l-.137.463-.005.009-.147.48v.013l-.008.026h0l-.069.223v.009l-.078.245v.008l-.076.244-.008.009-.158.488v.008l-.079.244v.008l-.08.243h-.008l-.081.246v.006l-.086.25h0l-.082.242v.008c-.124.362.012-.044-.219.613l-.216.6h0a74.769,74.769,0,0,1-3.8,8.929q-.5,1-1.036,1.983v0q-.893,1.648-1.807,3.166h0q-.778,1.293-1.6,2.549l-.009.014-.021.033-.03.046-.029.044,0,0-.03.046-.03.047-.019.028-.011.017-.03.046-.031.046-.01.014-.021.032-.03.045-.03.046-.1.157-.009.015-.1.14-.02.031-.084.125-.031.046-.074.11-.041.061-.064.094-.051.076-.054.079a92.957,92.957,0,0,1-7.389,9.419,113.89,113.89,0,0,1-9.236,9.188l-1.01.9-.433.393,0,0-.02.018-1.473-1.315q-1.426-1.275-2.813-2.594l-.048-.042a106.3,106.3,0,0,1-7.646-8.071,92.415,92.415,0,0,1-5.664-7.377l-.052-.076-.063-.093-.036-.052-.081-.118-.019-.027-.1-.143,0,0-.1-.145-.016-.022-.082-.123-.032-.048-.066-.1L723,523.96l-.049-.074-.065-.1-.033-.049-.08-.123-.018-.024-.1-.147a80.632,80.632,0,0,1-6.439-11.754,76.455,76.455,0,0,1-4.43-13.145l-.447-1.871,1.787-.7c.909-.354,1.946-.716,3.086-1.08,1.174-.374,2.349-.716,3.511-1.025l.1-.027.1-.027.636-.169.486-.119q.438-.109.878-.216l1.627-.4,0,.022c.922-.206,1.845-.4,2.758-.577,2.252-.44,4.554-.81,6.781-1.1a64.05,64.05,0,0,1,7.9-.549,62.94,62.94,0,0,1,7.9.47c1.949.235,4.07.558,6.275.96,1.342.244,2.678.511,3.979.8q.078-.365.151-.727v-.007h0l.02-.1.008-.006.023-.122h-.005c.058-.293.118-.584.173-.877v-.034l.006,0,.038-.207h0l.032-.164h0l.016-.094H759.6l.041-.229h0l.069-.41h0c.037-.224.072-.451.11-.675l0-.012v-.015l.042-.261c-1.186-.262-2.393-.508-3.6-.735-1.386-.26-2.813-.5-4.248-.71v0a82.319,82.319,0,0,0-9.72-.771q-1.75-.031-3.5.023l-.13.005h-.021l-.153.005-.039,0-.112,0-.1,0q-2.23.09-4.414.322l-.033,0-.151.016-.024,0-.128.014-.079.009-.072.008-.135.016-.016,0-.152.018-.039.005-.112.014-.095.011-.055.007-.151.02-1.016.138-1.036.152h-.018l-.229.031Zm27.795,9.615c-1.239-.274-2.478-.523-3.7-.746-1.982-.36-4.018-.666-6.015-.906a58.632,58.632,0,0,0-7.365-.454,59.687,59.687,0,0,0-7.36.514c-2.006.258-4.2.616-6.487,1.061-.842.164-1.683.339-2.517.523q.739,2.64,1.681,5.221a70.578,70.578,0,0,0,3.04,7.082,71.311,71.311,0,0,0,5.982,9.936,72.349,72.349,0,0,0,6.01,7.293,72.6,72.6,0,0,0,6.022-7.3,71.183,71.183,0,0,0,5.99-9.941,69.723,69.723,0,0,0,3.046-7.085q.934-2.555,1.673-5.2Zm14.854-8.96q.613.242,1.152.473c.851.366,1.678.757,2.468,1.173l4.175,2.2-.857,4.64a82.985,82.985,0,0,1-4.953,16.758,86.464,86.464,0,0,1-7.849,14.671,100.72,100.72,0,0,1-10,12.661,128.434,128.434,0,0,1-11.618,11.04h-.009l-4.121,3.474-4.124-3.474H737.2A124.485,124.485,0,0,1,725.607,540.8a102.176,102.176,0,0,1-9.975-12.739,89.1,89.1,0,0,1-7.844-14.671,84.55,84.55,0,0,1-5-16.588l-.9-4.668,4.219-2.219a38.259,38.259,0,0,1,3.7-1.676c-.033-.278-.066-.557-.1-.836-.1-.909-.184-1.777-.25-2.6l-.4-4.99,4.772-1.6c1.72-.575,3.586-1.108,5.547-1.586,2.008-.49,4.07-.918,6.133-1.272s4.181-.648,6.345-.878c2.082-.221,4.192-.378,6.284-.46h.008c.41-.016.869-.03,1.385-.041.459-.009.951-.016,1.477-.018q.741,0,1.444.006.75.009,1.4.029c2.134.065,4.3.21,6.451.426,2.233.224,4.44.52,6.556.875,2.153.361,4.291.8,6.354,1.3,2.022.488,3.946,1.033,5.712,1.624l4.772,1.6-.4,4.989q-.1,1.262-.256,2.648c-.031.273-.062.545-.1.817Z" transform="translate(-696.887 -470.964)" fill="#fff"/>
  </g>
</svg>
