<svg xmlns="http://www.w3.org/2000/svg" xmlns:xlink="http://www.w3.org/1999/xlink" width="34" height="34" viewBox="0 0 34 34"><defs><clipPath id="b"><rect width="34" height="34"/></clipPath></defs><g id="a" clip-path="url(#b)"><path d="M79,64A15,15,0,1,0,94,79,15,15,0,0,0,79,64Zm5.91,19.61-.958,1.306a.268.268,0,0,1-.375.057l-5.538-4.038a.265.265,0,0,1-.11-.218V71.5a.269.269,0,0,1,.268-.268h1.61a.269.269,0,0,1,.268.268v8.287l4.775,3.452A.264.264,0,0,1,84.91,83.61Z" transform="translate(-62.424 -62)" fill="#fff"/></g></svg>