<svg xmlns="http://www.w3.org/2000/svg" xmlns:xlink="http://www.w3.org/1999/xlink" width="502" height="13" viewBox="0 0 502 13"><defs><clipPath id="b"><rect width="502" height="13"/></clipPath></defs><g id="a" clip-path="url(#b)"><g transform="translate(19994.818 14174.077)" opacity="0.499"><g transform="translate(-19871.943 -14174)"><g transform="translate(0 0)" opacity="0.999"><g transform="translate(36.938 0)"><g transform="translate(0)"><path d="M1.182,835.987c0-.106.152-.207.411-.253a1.288,1.288,0,0,1,.921.14l13.755,12.168c.16.139,0,.3-.349.366a1.291,1.291,0,0,1-.922-.139L1.243,836.1A.152.152,0,0,1,1.182,835.987Z" transform="translate(-1.182 -835.71)" fill="#fff"/></g></g><g transform="translate(0 0)"><g transform="translate(0)"><path d="M1.182,835.987c0-.106.152-.207.411-.253a1.288,1.288,0,0,1,.921.14l13.755,12.168c.16.139,0,.3-.349.366a1.291,1.291,0,0,1-.922-.139L1.243,836.1A.152.152,0,0,1,1.182,835.987Z" transform="translate(-1.182 -835.71)" fill="#fff"/></g></g><g transform="translate(42.165 0)"><g transform="translate(0)"><path d="M8.116,835.987c0-.106.152-.207.411-.253a1.289,1.289,0,0,1,.921.14L23.2,848.041c.162.139,0,.3-.35.366a1.289,1.289,0,0,1-.921-.139L8.177,836.1A.152.152,0,0,1,8.116,835.987Z" transform="translate(-8.116 -835.71)" fill="#fff"/></g></g><g transform="translate(5.227 0)"><g transform="translate(0)"><path d="M8.116,835.987c0-.106.152-.207.411-.253a1.289,1.289,0,0,1,.921.14L23.2,848.041c.162.139,0,.3-.35.366a1.289,1.289,0,0,1-.921-.139L8.177,836.1A.152.152,0,0,1,8.116,835.987Z" transform="translate(-8.116 -835.71)" fill="#fff"/></g></g><g transform="translate(47.391 0)"><g transform="translate(0)"><path d="M15.048,835.987c0-.106.152-.207.411-.253a1.288,1.288,0,0,1,.921.14l13.757,12.168c.161.139,0,.3-.35.366a1.289,1.289,0,0,1-.921-.139L15.109,836.1A.152.152,0,0,1,15.048,835.987Z" transform="translate(-15.048 -835.71)" fill="#fff"/></g></g><g transform="translate(10.453 0)"><g transform="translate(0)"><path d="M15.048,835.987c0-.106.152-.207.411-.253a1.288,1.288,0,0,1,.921.14l13.757,12.168c.161.139,0,.3-.35.366a1.289,1.289,0,0,1-.921-.139L15.109,836.1A.152.152,0,0,1,15.048,835.987Z" transform="translate(-15.048 -835.71)" fill="#fff"/></g></g><g transform="translate(52.618 0)"><g transform="translate(0)"><path d="M21.982,835.987c0-.106.152-.207.411-.253a1.289,1.289,0,0,1,.921.14l13.757,12.168c.161.139,0,.3-.35.366a1.289,1.289,0,0,1-.921-.139L22.043,836.1A.152.152,0,0,1,21.982,835.987Z" transform="translate(-21.982 -835.71)" fill="#fff"/></g></g><g transform="translate(15.68 0)"><g transform="translate(0)"><path d="M21.982,835.987c0-.106.152-.207.411-.253a1.289,1.289,0,0,1,.921.14l13.757,12.168c.161.139,0,.3-.35.366a1.289,1.289,0,0,1-.921-.139L22.043,836.1A.152.152,0,0,1,21.982,835.987Z" transform="translate(-21.982 -835.71)" fill="#fff"/></g></g><g transform="translate(57.845 0)"><path d="M28.916,835.987c0-.106.152-.207.411-.253a1.289,1.289,0,0,1,.921.14L44,848.041c.161.139,0,.3-.35.366a1.288,1.288,0,0,1-.921-.139L28.977,836.1A.152.152,0,0,1,28.916,835.987Z" transform="translate(-28.916 -835.71)" fill="#fff"/></g><g transform="translate(20.907 0)"><path d="M28.916,835.987c0-.106.152-.207.411-.253a1.289,1.289,0,0,1,.921.14L44,848.041c.161.139,0,.3-.35.366a1.288,1.288,0,0,1-.921-.139L28.977,836.1A.152.152,0,0,1,28.916,835.987Z" transform="translate(-28.916 -835.71)" fill="#fff"/></g><g transform="translate(63.072 0)"><g transform="translate(0)"><path d="M35.85,835.987c0-.106.152-.207.411-.253a1.288,1.288,0,0,1,.921.14l13.757,12.168c.162.139,0,.3-.35.366a1.288,1.288,0,0,1-.921-.139L35.911,836.1A.152.152,0,0,1,35.85,835.987Z" transform="translate(-35.85 -835.71)" fill="#fff"/></g></g><g transform="translate(26.134 0)"><g transform="translate(0)"><path d="M35.85,835.987c0-.106.152-.207.411-.253a1.288,1.288,0,0,1,.921.14l13.757,12.168c.162.139,0,.3-.35.366a1.288,1.288,0,0,1-.921-.139L35.911,836.1A.152.152,0,0,1,35.85,835.987Z" transform="translate(-35.85 -835.71)" fill="#fff"/></g></g><g transform="translate(68.299 0)"><path d="M42.783,835.987c0-.106.153-.207.412-.253a1.289,1.289,0,0,1,.921.14l13.757,12.168c.162.139,0,.3-.35.366a1.288,1.288,0,0,1-.921-.139L42.845,836.1A.153.153,0,0,1,42.783,835.987Z" transform="translate(-42.783 -835.71)" fill="#fff"/></g><g transform="translate(31.361 0)"><g transform="translate(0)"><path d="M42.783,835.987c0-.106.153-.207.412-.253a1.289,1.289,0,0,1,.921.14l13.757,12.168c.162.139,0,.3-.35.366a1.288,1.288,0,0,1-.921-.139L42.845,836.1A.153.153,0,0,1,42.783,835.987Z" transform="translate(-42.783 -835.71)" fill="#fff"/></g></g><g transform="translate(73.526 0)"><path d="M49.717,835.987c0-.106.153-.207.412-.253a1.289,1.289,0,0,1,.921.14l13.757,12.168c.161.139,0,.3-.35.366a1.288,1.288,0,0,1-.921-.139L49.779,836.1A.153.153,0,0,1,49.717,835.987Z" transform="translate(-49.717 -835.71)" fill="#fff"/></g><g transform="translate(78.753 0)"><g transform="translate(0)"><path d="M56.651,835.987c0-.106.153-.207.411-.253a1.291,1.291,0,0,1,.922.14l13.757,12.168c.161.139,0,.3-.35.366a1.288,1.288,0,0,1-.921-.139L56.713,836.1A.151.151,0,0,1,56.651,835.987Z" transform="translate(-56.651 -835.71)" fill="#fff"/></g></g><g transform="translate(83.98 0)"><g transform="translate(0)"><path d="M63.585,835.987c0-.106.153-.207.411-.253a1.291,1.291,0,0,1,.922.14l13.757,12.168c.161.139,0,.3-.35.366a1.288,1.288,0,0,1-.921-.139L63.647,836.1A.153.153,0,0,1,63.585,835.987Z" transform="translate(-63.585 -835.71)" fill="#fff"/></g></g><g transform="translate(89.207 0)"><path d="M70.519,835.987c0-.106.152-.207.411-.253a1.291,1.291,0,0,1,.922.14l13.757,12.168c.162.139,0,.3-.35.366a1.288,1.288,0,0,1-.921-.139L70.58,836.1A.152.152,0,0,1,70.519,835.987Z" transform="translate(-70.519 -835.71)" fill="#fff"/></g><g transform="translate(94.434 0)"><g transform="translate(0)"><path d="M77.453,835.987c0-.106.152-.207.411-.253a1.291,1.291,0,0,1,.922.14l13.755,12.168c.161.139,0,.3-.35.366a1.288,1.288,0,0,1-.921-.139L77.514,836.1A.152.152,0,0,1,77.453,835.987Z" transform="translate(-77.453 -835.71)" fill="#fff"/></g></g><g transform="translate(99.661 0)"><g transform="translate(0)"><path d="M84.387,835.987c0-.106.152-.207.411-.253a1.291,1.291,0,0,1,.922.14l13.755,12.168c.159.139,0,.3-.35.366a1.288,1.288,0,0,1-.921-.139L84.448,836.1A.152.152,0,0,1,84.387,835.987Z" transform="translate(-84.387 -835.71)" fill="#fff"/></g></g><g transform="translate(104.889 0)"><path d="M91.321,835.987c0-.106.152-.207.411-.253a1.288,1.288,0,0,1,.921.14l13.756,12.168c.162.139,0,.3-.35.366a1.288,1.288,0,0,1-.921-.139L91.382,836.1A.152.152,0,0,1,91.321,835.987Z" transform="translate(-91.321 -835.71)" fill="#fff"/></g><g transform="translate(110.116 0)"><path d="M98.255,835.987c0-.106.152-.207.411-.253a1.288,1.288,0,0,1,.921.14l13.756,12.168c.162.139,0,.3-.35.366a1.288,1.288,0,0,1-.921-.139L98.316,836.1A.152.152,0,0,1,98.255,835.987Z" transform="translate(-98.255 -835.71)" fill="#fff"/></g><g transform="translate(115.343 0)"><path d="M105.189,835.987c0-.106.152-.207.411-.253a1.288,1.288,0,0,1,.921.14l13.756,12.168c.161.139,0,.3-.35.366a1.288,1.288,0,0,1-.921-.139L105.25,836.1A.152.152,0,0,1,105.189,835.987Z" transform="translate(-105.189 -835.71)" fill="#fff"/></g><g transform="translate(120.568 0)"><path d="M112.121,835.987c0-.106.152-.207.411-.253a1.288,1.288,0,0,1,.921.14l13.758,12.168c.158.139,0,.3-.351.366a1.289,1.289,0,0,1-.921-.139L112.182,836.1A.152.152,0,0,1,112.121,835.987Z" transform="translate(-112.121 -835.71)" fill="#fff"/></g><g transform="translate(125.796 0)"><path d="M119.055,835.987c0-.106.152-.207.411-.253a1.288,1.288,0,0,1,.921.14l13.757,12.168c.158.139,0,.3-.35.366a1.289,1.289,0,0,1-.921-.139L119.116,836.1A.152.152,0,0,1,119.055,835.987Z" transform="translate(-119.055 -835.71)" fill="#fff"/></g><g transform="translate(131.023 0)"><g transform="translate(0)"><path d="M125.989,835.987c0-.106.152-.207.411-.253a1.288,1.288,0,0,1,.921.14l13.757,12.168c.16.139,0,.3-.35.366a1.289,1.289,0,0,1-.921-.139L126.05,836.1A.152.152,0,0,1,125.989,835.987Z" transform="translate(-125.989 -835.71)" fill="#fff"/></g></g><g transform="translate(136.25 0)"><path d="M132.923,835.987c0-.106.153-.207.411-.253a1.288,1.288,0,0,1,.921.14l13.757,12.168c.159.139,0,.3-.35.366a1.289,1.289,0,0,1-.921-.139L132.984,836.1A.155.155,0,0,1,132.923,835.987Z" transform="translate(-132.923 -835.71)" fill="#fff"/></g><g transform="translate(141.477 0)"><g transform="translate(0)"><path d="M139.857,835.987c0-.106.153-.207.411-.253a1.288,1.288,0,0,1,.921.14l13.757,12.168c.158.139,0,.3-.35.366a1.289,1.289,0,0,1-.921-.139L139.918,836.1A.155.155,0,0,1,139.857,835.987Z" transform="translate(-139.857 -835.71)" fill="#fff"/></g></g><g transform="translate(146.704 0)"><g transform="translate(0)"><path d="M146.791,835.987c0-.106.153-.207.411-.253a1.289,1.289,0,0,1,.921.14l13.756,12.168c.159.139,0,.3-.35.366a1.289,1.289,0,0,1-.921-.139L146.852,836.1A.155.155,0,0,1,146.791,835.987Z" transform="translate(-146.791 -835.71)" fill="#fff"/></g></g><g transform="translate(151.931 0)"><path d="M153.725,835.987c0-.106.153-.207.411-.253a1.288,1.288,0,0,1,.921.14l13.756,12.168c.158.139,0,.3-.35.366a1.289,1.289,0,0,1-.921-.139L153.786,836.1A.155.155,0,0,1,153.725,835.987Z" transform="translate(-153.725 -835.71)" fill="#fff"/></g><g transform="translate(157.158 0)"><g transform="translate(0)"><path d="M160.659,835.987c0-.106.153-.207.411-.253a1.289,1.289,0,0,1,.921.14l13.756,12.168c.158.139,0,.3-.35.366a1.289,1.289,0,0,1-.921-.139L160.72,836.1A.155.155,0,0,1,160.659,835.987Z" transform="translate(-160.659 -835.71)" fill="#fff"/></g></g><g transform="translate(162.385 0)"><path d="M167.592,835.987c0-.106.154-.207.412-.253a1.289,1.289,0,0,1,.921.14l13.756,12.168c.159.139,0,.3-.35.366a1.288,1.288,0,0,1-.921-.139L167.654,836.1A.156.156,0,0,1,167.592,835.987Z" transform="translate(-167.592 -835.71)" fill="#fff"/></g><g transform="translate(167.612 0)"><path d="M174.526,835.987c0-.106.153-.207.412-.253a1.289,1.289,0,0,1,.921.14l13.756,12.168c.158.139,0,.3-.35.366a1.288,1.288,0,0,1-.921-.139L174.588,836.1A.156.156,0,0,1,174.526,835.987Z" transform="translate(-174.526 -835.71)" fill="#fff"/></g><g transform="translate(172.838 0)"><path d="M181.459,835.987c0-.106.154-.207.412-.253a1.289,1.289,0,0,1,.921.14l13.757,12.168c.158.139,0,.3-.35.366a1.288,1.288,0,0,1-.921-.139L181.521,836.1A.156.156,0,0,1,181.459,835.987Z" transform="translate(-181.459 -835.71)" fill="#fff"/></g><g transform="translate(178.065 0)"><path d="M188.393,835.987c0-.106.153-.207.412-.253a1.289,1.289,0,0,1,.921.14l13.757,12.168c.158.139,0,.3-.35.366a1.288,1.288,0,0,1-.921-.139L188.455,836.1A.156.156,0,0,1,188.393,835.987Z" transform="translate(-188.393 -835.71)" fill="#fff"/></g><g transform="translate(183.292 0)"><path d="M195.327,835.987c0-.106.153-.207.412-.253a1.289,1.289,0,0,1,.921.14l13.756,12.168c.158.139,0,.3-.35.366a1.288,1.288,0,0,1-.921-.139L195.388,836.1A.155.155,0,0,1,195.327,835.987Z" transform="translate(-195.327 -835.71)" fill="#fff"/></g><g transform="translate(188.52 0)"><path d="M202.261,835.987c0-.106.153-.207.411-.253a1.291,1.291,0,0,1,.922.14l13.756,12.168c.157.139,0,.3-.35.366a1.288,1.288,0,0,1-.921-.139L202.322,836.1A.155.155,0,0,1,202.261,835.987Z" transform="translate(-202.261 -835.71)" fill="#fff"/></g><g transform="translate(193.747 0)"><path d="M209.2,835.987c0-.106.153-.207.411-.253a1.291,1.291,0,0,1,.922.14l13.756,12.168c.159.139,0,.3-.35.366a1.288,1.288,0,0,1-.921-.139L209.256,836.1A.155.155,0,0,1,209.2,835.987Z" transform="translate(-209.195 -835.71)" fill="#fff"/></g><g transform="translate(198.974 0)"><path d="M216.129,835.987c0-.106.153-.207.411-.253a1.288,1.288,0,0,1,.921.14l13.757,12.168c.158.139,0,.3-.35.366a1.288,1.288,0,0,1-.921-.139L216.19,836.1A.155.155,0,0,1,216.129,835.987Z" transform="translate(-216.129 -835.71)" fill="#fff"/></g><g transform="translate(204.201 0)"><path d="M223.063,835.987c0-.106.153-.207.411-.253a1.288,1.288,0,0,1,.921.14l13.757,12.168c.158.139,0,.3-.35.366a1.288,1.288,0,0,1-.921-.139L223.124,836.1A.155.155,0,0,1,223.063,835.987Z" transform="translate(-223.063 -835.71)" fill="#fff"/></g><g transform="translate(209.427 0)"><path d="M230,835.987c0-.106.153-.207.411-.253a1.288,1.288,0,0,1,.921.14l13.758,12.168c.158.139,0,.3-.35.366a1.288,1.288,0,0,1-.921-.139L230.057,836.1A.155.155,0,0,1,230,835.987Z" transform="translate(-229.996 -835.71)" fill="#fff"/></g><g transform="translate(214.654 0)"><path d="M236.93,835.987c0-.106.153-.207.411-.253a1.288,1.288,0,0,1,.921.14l13.758,12.168c.157.139,0,.3-.35.366a1.291,1.291,0,0,1-.922-.139L236.991,836.1A.155.155,0,0,1,236.93,835.987Z" transform="translate(-236.93 -835.71)" fill="#fff"/></g><g transform="translate(219.882 0)"><path d="M243.864,835.987c0-.106.153-.207.411-.253a1.288,1.288,0,0,1,.921.14l13.756,12.168c.158.139,0,.3-.349.366a1.291,1.291,0,0,1-.922-.139L243.925,836.1A.155.155,0,0,1,243.864,835.987Z" transform="translate(-243.864 -835.71)" fill="#fff"/></g><g transform="translate(225.109 0)"><path d="M250.8,835.987c0-.106.153-.207.411-.253a1.288,1.288,0,0,1,.921.14l13.756,12.168c.16.139,0,.3-.349.366a1.291,1.291,0,0,1-.922-.139L250.859,836.1A.155.155,0,0,1,250.8,835.987Z" transform="translate(-250.798 -835.71)" fill="#fff"/></g><g transform="translate(230.336 0)"><path d="M257.732,835.987c0-.106.153-.207.411-.253a1.288,1.288,0,0,1,.921.14l13.756,12.168c.159.139,0,.3-.349.366a1.291,1.291,0,0,1-.922-.139L257.793,836.1A.155.155,0,0,1,257.732,835.987Z" transform="translate(-257.732 -835.71)" fill="#fff"/></g><g transform="translate(235.563 0)"><path d="M264.666,835.987c0-.106.153-.207.411-.253a1.288,1.288,0,0,1,.921.14l13.756,12.168c.159.139,0,.3-.349.366a1.291,1.291,0,0,1-.922-.139L264.727,836.1A.155.155,0,0,1,264.666,835.987Z" transform="translate(-264.666 -835.71)" fill="#fff"/></g><g transform="translate(240.79 0)"><path d="M271.6,835.987c0-.106.153-.207.411-.253a1.289,1.289,0,0,1,.921.14l13.756,12.168c.158.139,0,.3-.35.366a1.29,1.29,0,0,1-.921-.139L271.661,836.1A.155.155,0,0,1,271.6,835.987Z" transform="translate(-271.6 -835.71)" fill="#fff"/></g></g></g><g transform="translate(-19621.668 -14170.984)"><g transform="translate(0)" opacity="0.999"><g transform="translate(18.469)"><path d="M1.182,835.849c0-.053.076-.1.205-.127a.644.644,0,0,1,.461.07l6.878,6.084c.08.069,0,.152-.175.183a.646.646,0,0,1-.461-.07l-6.878-6.084A.076.076,0,0,1,1.182,835.849Z" transform="translate(-1.182 -835.71)" fill="#fff"/></g><g transform="translate(0)"><path d="M1.182,835.849c0-.053.076-.1.205-.127a.644.644,0,0,1,.461.07l6.878,6.084c.08.069,0,.152-.175.183a.646.646,0,0,1-.461-.07l-6.878-6.084A.076.076,0,0,1,1.182,835.849Z" transform="translate(-1.182 -835.71)" fill="#fff"/></g><g transform="translate(21.083)"><path d="M8.116,835.849c0-.053.076-.1.205-.127a.645.645,0,0,1,.461.07l6.878,6.084c.081.069,0,.152-.175.183a.645.645,0,0,1-.461-.07l-6.878-6.084A.076.076,0,0,1,8.116,835.849Z" transform="translate(-8.116 -835.71)" fill="#fff"/></g><g transform="translate(2.614)"><path d="M8.116,835.849c0-.053.076-.1.205-.127a.645.645,0,0,1,.461.07l6.878,6.084c.081.069,0,.152-.175.183a.645.645,0,0,1-.461-.07l-6.878-6.084A.076.076,0,0,1,8.116,835.849Z" transform="translate(-8.116 -835.71)" fill="#fff"/></g><g transform="translate(23.695)"><path d="M15.048,835.849c0-.053.076-.1.205-.127a.644.644,0,0,1,.461.07l6.878,6.084c.08.069,0,.152-.175.183a.645.645,0,0,1-.461-.07l-6.878-6.084A.076.076,0,0,1,15.048,835.849Z" transform="translate(-15.048 -835.71)" fill="#fff"/></g><g transform="translate(5.226)"><path d="M15.048,835.849c0-.053.076-.1.205-.127a.644.644,0,0,1,.461.07l6.878,6.084c.08.069,0,.152-.175.183a.645.645,0,0,1-.461-.07l-6.878-6.084A.076.076,0,0,1,15.048,835.849Z" transform="translate(-15.048 -835.71)" fill="#fff"/></g><g transform="translate(26.309)"><path d="M21.982,835.849c0-.053.076-.1.205-.127a.645.645,0,0,1,.461.07l6.878,6.084c.08.069,0,.152-.175.183a.645.645,0,0,1-.461-.07l-6.878-6.084A.076.076,0,0,1,21.982,835.849Z" transform="translate(-21.982 -835.71)" fill="#fff"/></g><g transform="translate(7.84)"><path d="M21.982,835.849c0-.053.076-.1.205-.127a.645.645,0,0,1,.461.07l6.878,6.084c.08.069,0,.152-.175.183a.645.645,0,0,1-.461-.07l-6.878-6.084A.076.076,0,0,1,21.982,835.849Z" transform="translate(-21.982 -835.71)" fill="#fff"/></g><g transform="translate(28.923)"><path d="M28.916,835.849c0-.053.076-.1.205-.127a.645.645,0,0,1,.461.07l6.878,6.084c.08.069,0,.152-.175.183a.644.644,0,0,1-.461-.07l-6.878-6.084A.076.076,0,0,1,28.916,835.849Z" transform="translate(-28.916 -835.71)" fill="#fff"/></g><g transform="translate(10.454)"><path d="M28.916,835.849c0-.053.076-.1.205-.127a.645.645,0,0,1,.461.07l6.878,6.084c.08.069,0,.152-.175.183a.644.644,0,0,1-.461-.07l-6.878-6.084A.076.076,0,0,1,28.916,835.849Z" transform="translate(-28.916 -835.71)" fill="#fff"/></g><g transform="translate(31.536)"><path d="M35.85,835.849c0-.053.076-.1.205-.127a.644.644,0,0,1,.461.07l6.878,6.084c.081.069,0,.152-.175.183a.644.644,0,0,1-.461-.07l-6.878-6.084A.076.076,0,0,1,35.85,835.849Z" transform="translate(-35.85 -835.71)" fill="#fff"/></g><g transform="translate(13.067)"><path d="M35.85,835.849c0-.053.076-.1.205-.127a.644.644,0,0,1,.461.07l6.878,6.084c.081.069,0,.152-.175.183a.644.644,0,0,1-.461-.07l-6.878-6.084A.076.076,0,0,1,35.85,835.849Z" transform="translate(-35.85 -835.71)" fill="#fff"/></g><g transform="translate(34.149)"><path d="M42.783,835.849c0-.053.077-.1.206-.127a.645.645,0,0,1,.461.07l6.878,6.084c.081.069,0,.152-.175.183a.644.644,0,0,1-.461-.07l-6.878-6.084A.076.076,0,0,1,42.783,835.849Z" transform="translate(-42.783 -835.71)" fill="#fff"/></g><g transform="translate(15.68)"><path d="M42.783,835.849c0-.053.077-.1.206-.127a.645.645,0,0,1,.461.07l6.878,6.084c.081.069,0,.152-.175.183a.644.644,0,0,1-.461-.07l-6.878-6.084A.076.076,0,0,1,42.783,835.849Z" transform="translate(-42.783 -835.71)" fill="#fff"/></g><g transform="translate(36.763)"><path d="M49.717,835.849c0-.053.077-.1.206-.127a.645.645,0,0,1,.461.07l6.878,6.084c.08.069,0,.152-.175.183a.644.644,0,0,1-.461-.07l-6.878-6.084A.076.076,0,0,1,49.717,835.849Z" transform="translate(-49.717 -835.71)" fill="#fff"/></g><g transform="translate(39.376)"><path d="M56.651,835.849c0-.053.077-.1.205-.127a.646.646,0,0,1,.461.07l6.878,6.084c.08.069,0,.152-.175.183a.644.644,0,0,1-.461-.07l-6.878-6.084A.075.075,0,0,1,56.651,835.849Z" transform="translate(-56.651 -835.71)" fill="#fff"/></g><g transform="translate(41.99)"><path d="M63.585,835.849c0-.053.077-.1.205-.127a.646.646,0,0,1,.461.07l6.878,6.084c.08.069,0,.152-.175.183a.644.644,0,0,1-.461-.07l-6.878-6.084A.076.076,0,0,1,63.585,835.849Z" transform="translate(-63.585 -835.71)" fill="#fff"/></g><g transform="translate(44.604)"><path d="M70.519,835.849c0-.053.076-.1.205-.127a.646.646,0,0,1,.461.07l6.878,6.084c.081.069,0,.152-.175.183a.644.644,0,0,1-.461-.07l-6.879-6.084A.076.076,0,0,1,70.519,835.849Z" transform="translate(-70.519 -835.71)" fill="#fff"/></g><g transform="translate(47.217)"><path d="M77.453,835.849c0-.053.076-.1.205-.127a.646.646,0,0,1,.461.07L85,841.875c.08.069,0,.152-.175.183a.644.644,0,0,1-.461-.07l-6.878-6.084A.076.076,0,0,1,77.453,835.849Z" transform="translate(-77.453 -835.71)" fill="#fff"/></g><g transform="translate(49.831)"><path d="M84.387,835.849c0-.053.076-.1.205-.127a.646.646,0,0,1,.461.07l6.878,6.084c.08.069,0,.152-.175.183a.644.644,0,0,1-.461-.07l-6.878-6.084A.076.076,0,0,1,84.387,835.849Z" transform="translate(-84.387 -835.71)" fill="#fff"/></g><g transform="translate(52.444)"><path d="M91.321,835.849c0-.053.076-.1.205-.127a.644.644,0,0,1,.461.07l6.878,6.084c.081.069,0,.152-.175.183a.644.644,0,0,1-.461-.07l-6.878-6.084A.076.076,0,0,1,91.321,835.849Z" transform="translate(-91.321 -835.71)" fill="#fff"/></g><g transform="translate(55.058)"><path d="M98.255,835.849c0-.053.076-.1.205-.127a.644.644,0,0,1,.461.07l6.878,6.084c.081.069,0,.152-.175.183a.644.644,0,0,1-.461-.07l-6.878-6.084A.076.076,0,0,1,98.255,835.849Z" transform="translate(-98.255 -835.71)" fill="#fff"/></g><g transform="translate(57.671)"><path d="M105.189,835.849c0-.053.076-.1.205-.127a.644.644,0,0,1,.461.07l6.878,6.084c.08.069,0,.152-.175.183a.644.644,0,0,1-.461-.07l-6.878-6.084A.076.076,0,0,1,105.189,835.849Z" transform="translate(-105.189 -835.71)" fill="#fff"/></g><g transform="translate(60.284)"><path d="M112.121,835.849c0-.053.076-.1.205-.127a.644.644,0,0,1,.461.07l6.879,6.084c.079.069,0,.152-.175.183a.645.645,0,0,1-.461-.07l-6.878-6.084A.076.076,0,0,1,112.121,835.849Z" transform="translate(-112.121 -835.71)" fill="#fff"/></g><g transform="translate(62.898)"><path d="M119.055,835.849c0-.053.076-.1.205-.127a.644.644,0,0,1,.461.07l6.878,6.084c.079.069,0,.152-.175.183a.645.645,0,0,1-.461-.07l-6.878-6.084A.076.076,0,0,1,119.055,835.849Z" transform="translate(-119.055 -835.71)" fill="#fff"/></g><g transform="translate(65.511)"><path d="M125.989,835.849c0-.053.076-.1.205-.127a.644.644,0,0,1,.461.07l6.878,6.084c.08.069,0,.152-.175.183a.645.645,0,0,1-.461-.07l-6.878-6.084A.076.076,0,0,1,125.989,835.849Z" transform="translate(-125.989 -835.71)" fill="#fff"/></g><g transform="translate(68.125)"><path d="M132.923,835.849c0-.053.077-.1.205-.127a.644.644,0,0,1,.461.07l6.878,6.084c.08.069,0,.152-.175.183a.645.645,0,0,1-.461-.07l-6.878-6.084A.077.077,0,0,1,132.923,835.849Z" transform="translate(-132.923 -835.71)" fill="#fff"/></g><g transform="translate(70.738)"><path d="M139.857,835.849c0-.053.077-.1.205-.127a.644.644,0,0,1,.461.07l6.878,6.084c.079.069,0,.152-.175.183a.645.645,0,0,1-.461-.07l-6.878-6.084A.077.077,0,0,1,139.857,835.849Z" transform="translate(-139.857 -835.71)" fill="#fff"/></g><g transform="translate(73.352)"><path d="M146.791,835.849c0-.053.077-.1.205-.127a.645.645,0,0,1,.461.07l6.878,6.084c.08.069,0,.152-.175.183a.645.645,0,0,1-.461-.07l-6.878-6.084A.077.077,0,0,1,146.791,835.849Z" transform="translate(-146.791 -835.71)" fill="#fff"/></g><g transform="translate(75.966)"><path d="M153.725,835.849c0-.053.077-.1.205-.127a.644.644,0,0,1,.461.07l6.878,6.084c.079.069,0,.152-.175.183a.645.645,0,0,1-.461-.07l-6.878-6.084A.077.077,0,0,1,153.725,835.849Z" transform="translate(-153.725 -835.71)" fill="#fff"/></g><g transform="translate(78.579)"><path d="M160.659,835.849c0-.053.077-.1.205-.127a.645.645,0,0,1,.461.07l6.878,6.084c.079.069,0,.152-.175.183a.645.645,0,0,1-.461-.07l-6.878-6.084A.077.077,0,0,1,160.659,835.849Z" transform="translate(-160.659 -835.71)" fill="#fff"/></g><g transform="translate(81.192)"><path d="M167.592,835.849c0-.053.077-.1.206-.127a.645.645,0,0,1,.461.07l6.878,6.084c.08.069,0,.152-.175.183a.644.644,0,0,1-.461-.07l-6.878-6.084A.078.078,0,0,1,167.592,835.849Z" transform="translate(-167.592 -835.71)" fill="#fff"/></g><g transform="translate(83.806)"><path d="M174.526,835.849c0-.053.077-.1.206-.127a.645.645,0,0,1,.461.07l6.878,6.084c.079.069,0,.152-.175.183a.644.644,0,0,1-.461-.07l-6.878-6.084A.078.078,0,0,1,174.526,835.849Z" transform="translate(-174.526 -835.71)" fill="#fff"/></g><g transform="translate(86.419)"><path d="M181.459,835.849c0-.053.077-.1.206-.127a.645.645,0,0,1,.461.07L189,841.875c.079.069,0,.152-.175.183a.644.644,0,0,1-.461-.07l-6.878-6.084A.078.078,0,0,1,181.459,835.849Z" transform="translate(-181.459 -835.71)" fill="#fff"/></g><g transform="translate(89.033)"><path d="M188.393,835.849c0-.053.077-.1.206-.127a.645.645,0,0,1,.461.07l6.878,6.084c.079.069,0,.152-.175.183a.644.644,0,0,1-.461-.07l-6.878-6.084A.078.078,0,0,1,188.393,835.849Z" transform="translate(-188.393 -835.71)" fill="#fff"/></g><g transform="translate(91.646)"><path d="M195.327,835.849c0-.053.077-.1.206-.127a.645.645,0,0,1,.461.07l6.878,6.084c.079.069,0,.152-.175.183a.644.644,0,0,1-.461-.07l-6.878-6.084A.077.077,0,0,1,195.327,835.849Z" transform="translate(-195.327 -835.71)" fill="#fff"/></g><g transform="translate(94.26)"><path d="M202.261,835.849c0-.053.077-.1.205-.127a.646.646,0,0,1,.461.07l6.878,6.084c.078.069,0,.152-.175.183a.644.644,0,0,1-.461-.07l-6.878-6.084A.077.077,0,0,1,202.261,835.849Z" transform="translate(-202.261 -835.71)" fill="#fff"/></g><g transform="translate(96.873)"><path d="M209.2,835.849c0-.053.077-.1.205-.127a.646.646,0,0,1,.461.07l6.878,6.084c.08.069,0,.152-.175.183a.644.644,0,0,1-.461-.07l-6.878-6.084A.077.077,0,0,1,209.2,835.849Z" transform="translate(-209.195 -835.71)" fill="#fff"/></g><g transform="translate(99.487)"><path d="M216.129,835.849c0-.053.077-.1.205-.127a.644.644,0,0,1,.461.07l6.878,6.084c.079.069,0,.152-.175.183a.644.644,0,0,1-.461-.07l-6.878-6.084A.077.077,0,0,1,216.129,835.849Z" transform="translate(-216.129 -835.71)" fill="#fff"/></g><g transform="translate(102.1)"><path d="M223.063,835.849c0-.053.077-.1.205-.127a.644.644,0,0,1,.461.07l6.878,6.084c.079.069,0,.152-.175.183a.644.644,0,0,1-.461-.07l-6.878-6.084A.077.077,0,0,1,223.063,835.849Z" transform="translate(-223.063 -835.71)" fill="#fff"/></g><g transform="translate(104.714)"><path d="M230,835.849c0-.053.077-.1.205-.127a.644.644,0,0,1,.461.07l6.879,6.084c.079.069,0,.152-.175.183a.644.644,0,0,1-.461-.07l-6.879-6.084A.077.077,0,0,1,230,835.849Z" transform="translate(-229.996 -835.71)" fill="#fff"/></g><g transform="translate(107.327)"><path d="M236.93,835.849c0-.053.077-.1.205-.127a.644.644,0,0,1,.461.07l6.879,6.084c.078.069,0,.152-.175.183a.646.646,0,0,1-.461-.07l-6.878-6.084A.077.077,0,0,1,236.93,835.849Z" transform="translate(-236.93 -835.71)" fill="#fff"/></g><g transform="translate(109.941)"><path d="M243.864,835.849c0-.053.077-.1.205-.127a.644.644,0,0,1,.461.07l6.878,6.084c.079.069,0,.152-.175.183a.646.646,0,0,1-.461-.07l-6.878-6.084A.077.077,0,0,1,243.864,835.849Z" transform="translate(-243.864 -835.71)" fill="#fff"/></g><g transform="translate(112.554)"><path d="M250.8,835.849c0-.053.077-.1.205-.127a.644.644,0,0,1,.461.07l6.878,6.084c.08.069,0,.152-.174.183a.646.646,0,0,1-.461-.07l-6.878-6.084A.077.077,0,0,1,250.8,835.849Z" transform="translate(-250.798 -835.71)" fill="#fff"/></g><g transform="translate(115.168)"><path d="M257.732,835.849c0-.053.077-.1.205-.127a.644.644,0,0,1,.461.07l6.878,6.084c.08.069,0,.152-.175.183a.646.646,0,0,1-.461-.07l-6.878-6.084A.077.077,0,0,1,257.732,835.849Z" transform="translate(-257.732 -835.71)" fill="#fff"/></g><g transform="translate(117.781)"><path d="M264.666,835.849c0-.053.077-.1.205-.127a.644.644,0,0,1,.461.07l6.878,6.084c.08.069,0,.152-.175.183a.646.646,0,0,1-.461-.07l-6.878-6.084A.077.077,0,0,1,264.666,835.849Z" transform="translate(-264.666 -835.71)" fill="#fff"/></g><g transform="translate(120.395)"><path d="M271.6,835.849c0-.053.077-.1.205-.127a.645.645,0,0,1,.461.07l6.878,6.084c.079.069,0,.152-.175.183a.645.645,0,0,1-.461-.07l-6.878-6.084A.077.077,0,0,1,271.6,835.849Z" transform="translate(-271.6 -835.71)" fill="#fff"/></g></g></g><g transform="translate(-19994.818 -14170.984)"><g transform="translate(0)" opacity="0.999"><g transform="translate(18.469)"><path d="M1.182,835.849c0-.053.076-.1.205-.127a.644.644,0,0,1,.461.07l6.878,6.084c.08.069,0,.152-.175.183a.646.646,0,0,1-.461-.07l-6.878-6.084A.076.076,0,0,1,1.182,835.849Z" transform="translate(-1.182 -835.71)" fill="#fff"/></g><g transform="translate(0)"><path d="M1.182,835.849c0-.053.076-.1.205-.127a.644.644,0,0,1,.461.07l6.878,6.084c.08.069,0,.152-.175.183a.646.646,0,0,1-.461-.07l-6.878-6.084A.076.076,0,0,1,1.182,835.849Z" transform="translate(-1.182 -835.71)" fill="#fff"/></g><g transform="translate(21.083)"><path d="M8.116,835.849c0-.053.076-.1.205-.127a.645.645,0,0,1,.461.07l6.878,6.084c.081.069,0,.152-.175.183a.645.645,0,0,1-.461-.07l-6.878-6.084A.076.076,0,0,1,8.116,835.849Z" transform="translate(-8.116 -835.71)" fill="#fff"/></g><g transform="translate(2.614)"><path d="M8.116,835.849c0-.053.076-.1.205-.127a.645.645,0,0,1,.461.07l6.878,6.084c.081.069,0,.152-.175.183a.645.645,0,0,1-.461-.07l-6.878-6.084A.076.076,0,0,1,8.116,835.849Z" transform="translate(-8.116 -835.71)" fill="#fff"/></g><g transform="translate(23.695)"><path d="M15.048,835.849c0-.053.076-.1.205-.127a.644.644,0,0,1,.461.07l6.878,6.084c.08.069,0,.152-.175.183a.645.645,0,0,1-.461-.07l-6.878-6.084A.076.076,0,0,1,15.048,835.849Z" transform="translate(-15.048 -835.71)" fill="#fff"/></g><g transform="translate(5.226)"><path d="M15.048,835.849c0-.053.076-.1.205-.127a.644.644,0,0,1,.461.07l6.878,6.084c.08.069,0,.152-.175.183a.645.645,0,0,1-.461-.07l-6.878-6.084A.076.076,0,0,1,15.048,835.849Z" transform="translate(-15.048 -835.71)" fill="#fff"/></g><g transform="translate(26.309)"><path d="M21.982,835.849c0-.053.076-.1.205-.127a.645.645,0,0,1,.461.07l6.878,6.084c.08.069,0,.152-.175.183a.645.645,0,0,1-.461-.07l-6.878-6.084A.076.076,0,0,1,21.982,835.849Z" transform="translate(-21.982 -835.71)" fill="#fff"/></g><g transform="translate(7.84)"><path d="M21.982,835.849c0-.053.076-.1.205-.127a.645.645,0,0,1,.461.07l6.878,6.084c.08.069,0,.152-.175.183a.645.645,0,0,1-.461-.07l-6.878-6.084A.076.076,0,0,1,21.982,835.849Z" transform="translate(-21.982 -835.71)" fill="#fff"/></g><g transform="translate(28.923)"><path d="M28.916,835.849c0-.053.076-.1.205-.127a.645.645,0,0,1,.461.07l6.878,6.084c.08.069,0,.152-.175.183a.644.644,0,0,1-.461-.07l-6.878-6.084A.076.076,0,0,1,28.916,835.849Z" transform="translate(-28.916 -835.71)" fill="#fff"/></g><g transform="translate(10.454)"><path d="M28.916,835.849c0-.053.076-.1.205-.127a.645.645,0,0,1,.461.07l6.878,6.084c.08.069,0,.152-.175.183a.644.644,0,0,1-.461-.07l-6.878-6.084A.076.076,0,0,1,28.916,835.849Z" transform="translate(-28.916 -835.71)" fill="#fff"/></g><g transform="translate(31.536)"><path d="M35.85,835.849c0-.053.076-.1.205-.127a.644.644,0,0,1,.461.07l6.878,6.084c.081.069,0,.152-.175.183a.644.644,0,0,1-.461-.07l-6.878-6.084A.076.076,0,0,1,35.85,835.849Z" transform="translate(-35.85 -835.71)" fill="#fff"/></g><g transform="translate(13.067)"><path d="M35.85,835.849c0-.053.076-.1.205-.127a.644.644,0,0,1,.461.07l6.878,6.084c.081.069,0,.152-.175.183a.644.644,0,0,1-.461-.07l-6.878-6.084A.076.076,0,0,1,35.85,835.849Z" transform="translate(-35.85 -835.71)" fill="#fff"/></g><g transform="translate(34.149)"><path d="M42.783,835.849c0-.053.077-.1.206-.127a.645.645,0,0,1,.461.07l6.878,6.084c.081.069,0,.152-.175.183a.644.644,0,0,1-.461-.07l-6.878-6.084A.076.076,0,0,1,42.783,835.849Z" transform="translate(-42.783 -835.71)" fill="#fff"/></g><g transform="translate(15.68)"><path d="M42.783,835.849c0-.053.077-.1.206-.127a.645.645,0,0,1,.461.07l6.878,6.084c.081.069,0,.152-.175.183a.644.644,0,0,1-.461-.07l-6.878-6.084A.076.076,0,0,1,42.783,835.849Z" transform="translate(-42.783 -835.71)" fill="#fff"/></g><g transform="translate(36.763)"><path d="M49.717,835.849c0-.053.077-.1.206-.127a.645.645,0,0,1,.461.07l6.878,6.084c.08.069,0,.152-.175.183a.644.644,0,0,1-.461-.07l-6.878-6.084A.076.076,0,0,1,49.717,835.849Z" transform="translate(-49.717 -835.71)" fill="#fff"/></g><g transform="translate(39.376)"><path d="M56.651,835.849c0-.053.077-.1.205-.127a.646.646,0,0,1,.461.07l6.878,6.084c.08.069,0,.152-.175.183a.644.644,0,0,1-.461-.07l-6.878-6.084A.075.075,0,0,1,56.651,835.849Z" transform="translate(-56.651 -835.71)" fill="#fff"/></g><g transform="translate(41.99)"><path d="M63.585,835.849c0-.053.077-.1.205-.127a.646.646,0,0,1,.461.07l6.878,6.084c.08.069,0,.152-.175.183a.644.644,0,0,1-.461-.07l-6.878-6.084A.076.076,0,0,1,63.585,835.849Z" transform="translate(-63.585 -835.71)" fill="#fff"/></g><g transform="translate(44.604)"><path d="M70.519,835.849c0-.053.076-.1.205-.127a.646.646,0,0,1,.461.07l6.878,6.084c.081.069,0,.152-.175.183a.644.644,0,0,1-.461-.07l-6.879-6.084A.076.076,0,0,1,70.519,835.849Z" transform="translate(-70.519 -835.71)" fill="#fff"/></g><g transform="translate(47.217)"><path d="M77.453,835.849c0-.053.076-.1.205-.127a.646.646,0,0,1,.461.07L85,841.875c.08.069,0,.152-.175.183a.644.644,0,0,1-.461-.07l-6.878-6.084A.076.076,0,0,1,77.453,835.849Z" transform="translate(-77.453 -835.71)" fill="#fff"/></g><g transform="translate(49.831)"><path d="M84.387,835.849c0-.053.076-.1.205-.127a.646.646,0,0,1,.461.07l6.878,6.084c.08.069,0,.152-.175.183a.644.644,0,0,1-.461-.07l-6.878-6.084A.076.076,0,0,1,84.387,835.849Z" transform="translate(-84.387 -835.71)" fill="#fff"/></g><g transform="translate(52.444)"><path d="M91.321,835.849c0-.053.076-.1.205-.127a.644.644,0,0,1,.461.07l6.878,6.084c.081.069,0,.152-.175.183a.644.644,0,0,1-.461-.07l-6.878-6.084A.076.076,0,0,1,91.321,835.849Z" transform="translate(-91.321 -835.71)" fill="#fff"/></g><g transform="translate(55.058)"><path d="M98.255,835.849c0-.053.076-.1.205-.127a.644.644,0,0,1,.461.07l6.878,6.084c.081.069,0,.152-.175.183a.644.644,0,0,1-.461-.07l-6.878-6.084A.076.076,0,0,1,98.255,835.849Z" transform="translate(-98.255 -835.71)" fill="#fff"/></g><g transform="translate(57.671)"><path d="M105.189,835.849c0-.053.076-.1.205-.127a.644.644,0,0,1,.461.07l6.878,6.084c.08.069,0,.152-.175.183a.644.644,0,0,1-.461-.07l-6.878-6.084A.076.076,0,0,1,105.189,835.849Z" transform="translate(-105.189 -835.71)" fill="#fff"/></g><g transform="translate(60.284)"><path d="M112.121,835.849c0-.053.076-.1.205-.127a.644.644,0,0,1,.461.07l6.879,6.084c.079.069,0,.152-.175.183a.645.645,0,0,1-.461-.07l-6.878-6.084A.076.076,0,0,1,112.121,835.849Z" transform="translate(-112.121 -835.71)" fill="#fff"/></g><g transform="translate(62.898)"><path d="M119.055,835.849c0-.053.076-.1.205-.127a.644.644,0,0,1,.461.07l6.878,6.084c.079.069,0,.152-.175.183a.645.645,0,0,1-.461-.07l-6.878-6.084A.076.076,0,0,1,119.055,835.849Z" transform="translate(-119.055 -835.71)" fill="#fff"/></g><g transform="translate(65.511)"><path d="M125.989,835.849c0-.053.076-.1.205-.127a.644.644,0,0,1,.461.07l6.878,6.084c.08.069,0,.152-.175.183a.645.645,0,0,1-.461-.07l-6.878-6.084A.076.076,0,0,1,125.989,835.849Z" transform="translate(-125.989 -835.71)" fill="#fff"/></g><g transform="translate(68.125)"><path d="M132.923,835.849c0-.053.077-.1.205-.127a.644.644,0,0,1,.461.07l6.878,6.084c.08.069,0,.152-.175.183a.645.645,0,0,1-.461-.07l-6.878-6.084A.077.077,0,0,1,132.923,835.849Z" transform="translate(-132.923 -835.71)" fill="#fff"/></g><g transform="translate(70.738)"><path d="M139.857,835.849c0-.053.077-.1.205-.127a.644.644,0,0,1,.461.07l6.878,6.084c.079.069,0,.152-.175.183a.645.645,0,0,1-.461-.07l-6.878-6.084A.077.077,0,0,1,139.857,835.849Z" transform="translate(-139.857 -835.71)" fill="#fff"/></g><g transform="translate(73.352)"><path d="M146.791,835.849c0-.053.077-.1.205-.127a.645.645,0,0,1,.461.07l6.878,6.084c.08.069,0,.152-.175.183a.645.645,0,0,1-.461-.07l-6.878-6.084A.077.077,0,0,1,146.791,835.849Z" transform="translate(-146.791 -835.71)" fill="#fff"/></g><g transform="translate(75.966)"><path d="M153.725,835.849c0-.053.077-.1.205-.127a.644.644,0,0,1,.461.07l6.878,6.084c.079.069,0,.152-.175.183a.645.645,0,0,1-.461-.07l-6.878-6.084A.077.077,0,0,1,153.725,835.849Z" transform="translate(-153.725 -835.71)" fill="#fff"/></g><g transform="translate(78.579)"><path d="M160.659,835.849c0-.053.077-.1.205-.127a.645.645,0,0,1,.461.07l6.878,6.084c.079.069,0,.152-.175.183a.645.645,0,0,1-.461-.07l-6.878-6.084A.077.077,0,0,1,160.659,835.849Z" transform="translate(-160.659 -835.71)" fill="#fff"/></g><g transform="translate(81.192)"><path d="M167.592,835.849c0-.053.077-.1.206-.127a.645.645,0,0,1,.461.07l6.878,6.084c.08.069,0,.152-.175.183a.644.644,0,0,1-.461-.07l-6.878-6.084A.078.078,0,0,1,167.592,835.849Z" transform="translate(-167.592 -835.71)" fill="#fff"/></g><g transform="translate(83.806)"><path d="M174.526,835.849c0-.053.077-.1.206-.127a.645.645,0,0,1,.461.07l6.878,6.084c.079.069,0,.152-.175.183a.644.644,0,0,1-.461-.07l-6.878-6.084A.078.078,0,0,1,174.526,835.849Z" transform="translate(-174.526 -835.71)" fill="#fff"/></g><g transform="translate(86.419)"><path d="M181.459,835.849c0-.053.077-.1.206-.127a.645.645,0,0,1,.461.07L189,841.875c.079.069,0,.152-.175.183a.644.644,0,0,1-.461-.07l-6.878-6.084A.078.078,0,0,1,181.459,835.849Z" transform="translate(-181.459 -835.71)" fill="#fff"/></g><g transform="translate(89.033)"><path d="M188.393,835.849c0-.053.077-.1.206-.127a.645.645,0,0,1,.461.07l6.878,6.084c.079.069,0,.152-.175.183a.644.644,0,0,1-.461-.07l-6.878-6.084A.078.078,0,0,1,188.393,835.849Z" transform="translate(-188.393 -835.71)" fill="#fff"/></g><g transform="translate(91.646)"><path d="M195.327,835.849c0-.053.077-.1.206-.127a.645.645,0,0,1,.461.07l6.878,6.084c.079.069,0,.152-.175.183a.644.644,0,0,1-.461-.07l-6.878-6.084A.077.077,0,0,1,195.327,835.849Z" transform="translate(-195.327 -835.71)" fill="#fff"/></g><g transform="translate(94.26)"><path d="M202.261,835.849c0-.053.077-.1.205-.127a.646.646,0,0,1,.461.07l6.878,6.084c.078.069,0,.152-.175.183a.644.644,0,0,1-.461-.07l-6.878-6.084A.077.077,0,0,1,202.261,835.849Z" transform="translate(-202.261 -835.71)" fill="#fff"/></g><g transform="translate(96.873)"><path d="M209.2,835.849c0-.053.077-.1.205-.127a.646.646,0,0,1,.461.07l6.878,6.084c.08.069,0,.152-.175.183a.644.644,0,0,1-.461-.07l-6.878-6.084A.077.077,0,0,1,209.2,835.849Z" transform="translate(-209.195 -835.71)" fill="#fff"/></g><g transform="translate(99.487)"><path d="M216.129,835.849c0-.053.077-.1.205-.127a.644.644,0,0,1,.461.07l6.878,6.084c.079.069,0,.152-.175.183a.644.644,0,0,1-.461-.07l-6.878-6.084A.077.077,0,0,1,216.129,835.849Z" transform="translate(-216.129 -835.71)" fill="#fff"/></g><g transform="translate(102.1)"><path d="M223.063,835.849c0-.053.077-.1.205-.127a.644.644,0,0,1,.461.07l6.878,6.084c.079.069,0,.152-.175.183a.644.644,0,0,1-.461-.07l-6.878-6.084A.077.077,0,0,1,223.063,835.849Z" transform="translate(-223.063 -835.71)" fill="#fff"/></g><g transform="translate(104.714)"><path d="M230,835.849c0-.053.077-.1.205-.127a.644.644,0,0,1,.461.07l6.879,6.084c.079.069,0,.152-.175.183a.644.644,0,0,1-.461-.07l-6.879-6.084A.077.077,0,0,1,230,835.849Z" transform="translate(-229.996 -835.71)" fill="#fff"/></g><g transform="translate(107.327)"><path d="M236.93,835.849c0-.053.077-.1.205-.127a.644.644,0,0,1,.461.07l6.879,6.084c.078.069,0,.152-.175.183a.646.646,0,0,1-.461-.07l-6.878-6.084A.077.077,0,0,1,236.93,835.849Z" transform="translate(-236.93 -835.71)" fill="#fff"/></g><g transform="translate(109.941)"><path d="M243.864,835.849c0-.053.077-.1.205-.127a.644.644,0,0,1,.461.07l6.878,6.084c.079.069,0,.152-.175.183a.646.646,0,0,1-.461-.07l-6.878-6.084A.077.077,0,0,1,243.864,835.849Z" transform="translate(-243.864 -835.71)" fill="#fff"/></g><g transform="translate(112.554)"><path d="M250.8,835.849c0-.053.077-.1.205-.127a.644.644,0,0,1,.461.07l6.878,6.084c.08.069,0,.152-.174.183a.646.646,0,0,1-.461-.07l-6.878-6.084A.077.077,0,0,1,250.8,835.849Z" transform="translate(-250.798 -835.71)" fill="#fff"/></g><g transform="translate(115.168)"><path d="M257.732,835.849c0-.053.077-.1.205-.127a.644.644,0,0,1,.461.07l6.878,6.084c.08.069,0,.152-.175.183a.646.646,0,0,1-.461-.07l-6.878-6.084A.077.077,0,0,1,257.732,835.849Z" transform="translate(-257.732 -835.71)" fill="#fff"/></g><g transform="translate(117.781)"><path d="M264.666,835.849c0-.053.077-.1.205-.127a.644.644,0,0,1,.461.07l6.878,6.084c.08.069,0,.152-.175.183a.646.646,0,0,1-.461-.07l-6.878-6.084A.077.077,0,0,1,264.666,835.849Z" transform="translate(-264.666 -835.71)" fill="#fff"/></g><g transform="translate(120.395)"><path d="M271.6,835.849c0-.053.077-.1.205-.127a.645.645,0,0,1,.461.07l6.878,6.084c.079.069,0,.152-.175.183a.645.645,0,0,1-.461-.07l-6.878-6.084A.077.077,0,0,1,271.6,835.849Z" transform="translate(-271.6 -835.71)" fill="#fff"/></g></g></g></g></g></svg>