<svg xmlns="http://www.w3.org/2000/svg" xmlns:xlink="http://www.w3.org/1999/xlink" width="333" height="44" viewBox="0 0 333 44"><defs><clipPath id="b"><rect width="333" height="44"/></clipPath></defs><g id="a" clip-path="url(#b)"><g transform="translate(21.972 10.576)" opacity="0.3"><path d="M52.488,259.495V256a1,1,0,0,0-1.606-.794L42.392,261.7a1,1,0,0,0,0,1.587l8.491,6.493a1,1,0,0,0,1.606-.794v-3.5c6.992,0,9.989,2.5,11.924,7.749.143.389.375.741.835.741a.771.771,0,0,0,.726-.823C65.973,265.225,60.979,259.495,52.488,259.495Z" transform="translate(-41.973 -252.503)" fill="#fff"/><g transform="translate(53.027 2.997)"><path d="M52.349,82.3a3.254,3.254,0,0,0,3.951,0l9.674-7.416A2,2,0,0,0,64.313,74H44.336a2,2,0,0,0-1.661.888Z" transform="translate(-42.338 -74)" fill="#fff"/><path d="M56.873,86.015a4.752,4.752,0,0,1-5.773,0L42,79.039V92.5a2,2,0,0,0,2,2H63.976a2,2,0,0,0,2-2V79.039Z" transform="translate(-42 -76.522)" fill="#fff"/></g><path d="M213.659,249.17a4,4,0,0,0-2.825-1.17H206a4,4,0,0,0-4,4v4.838a4,4,0,0,0,1.17,2.825L214.9,271.388a2,2,0,0,0,2.825,0l7.663-7.663a2,2,0,0,0,0-2.825Zm-7.164,5.323a2,2,0,1,1,2-2A2,2,0,0,1,206.495,254.493Z" transform="translate(61.028 -245.503)" fill="#fff"/><path d="M298.952,248h-9.93L282,255.022v9.93l7.022,7.022h9.93l7.022-7.022v-9.93Zm-4.965,18.979a1.5,1.5,0,1,1,1.5-1.5A1.5,1.5,0,0,1,293.987,266.979Zm.74-5.13a.749.749,0,0,1-1.48,0s-.758-6.856-.758-7.356a1.5,1.5,0,0,1,3,0C295.485,254.992,294.727,261.849,294.727,261.849Z" transform="translate(-174.973 -248)" fill="#fff"/><path d="M145.927,347.084a.948.948,0,0,0-.8-.67l-7.332-.741-2.939-7.083a.928.928,0,0,0-1.729,0l-2.94,7.082-7.331.741a.948.948,0,0,0-.8.669,1,1,0,0,0,.268,1.036l5.521,5.12-1.6,7.546a1,1,0,0,0,.369,1,.913.913,0,0,0,1.031.048l6.346-3.917,6.346,3.917a.912.912,0,0,0,1.032-.049,1,1,0,0,0,.367-1l-1.6-7.546,5.521-5.119A1,1,0,0,0,145.927,347.084Z" transform="translate(88.027 -338)" fill="#fff"/><g transform="translate(160.027 0)"><path d="M223.98,341h-4v-.5a2.5,2.5,0,0,0-2.5-2.5h-3a2.5,2.5,0,0,0-2.5,2.5v.5h-4a2,2,0,0,0-2,2v1h19.978v-1A2,2,0,0,0,223.98,341Zm-10.488,0v-.5a1,1,0,0,1,1-1h3a1,1,0,0,1,1,1v.5Z" transform="translate(-206 -338)" fill="#fff"/><path d="M214.494,352v13.485a.5.5,0,0,1-.5.5h-.5a.5.5,0,0,1-.5-.5V352h-4v14.983a2,2,0,0,0,2,2h12.986a2,2,0,0,0,2-2V352h-4v13.485a.5.5,0,0,1-.5.5h-.5a.5.5,0,0,1-.5-.5V352Z" transform="translate(-207.502 -345.008)" fill="#fff"/></g></g><g fill="none" stroke="#fff" stroke-width="2" opacity="0.3"><path d="M20,0H313a20,20,0,0,1,20,20V44a0,0,0,0,1,0,0H0a0,0,0,0,1,0,0V20A20,20,0,0,1,20,0Z" stroke="none"/><path d="M20,1H313a19,19,0,0,1,19,19V42a1,1,0,0,1-1,1H2a1,1,0,0,1-1-1V20A19,19,0,0,1,20,1Z" fill="none"/></g></g></svg>