<svg xmlns="http://www.w3.org/2000/svg" xmlns:xlink="http://www.w3.org/1999/xlink" width="70" height="56" viewBox="0 0 70 56"><defs><clipPath id="b"><rect width="70" height="56"/></clipPath></defs><g id="a" clip-path="url(#b)"><path d="M10.03,37.268v6.354c.025,4.467,2.135,3.772,3.7,2.432l9.009-8.134v4.114c0,3.86.89,4.765,4.765,4.765H41.8s8.274,9.729,8.339,9.664a2.513,2.513,0,0,0,4.368-1.722V46.8h4.765c3.892,0,4.765-.967,4.765-4.765V18.207c0-3.812-.937-4.765-4.765-4.765H43.387V10.265c0-3.923-.731-4.765-4.765-4.765H5.265C1.517,5.5.5,6.31.5,10.265V30.915c0,3.874.874,6.354,4.765,6.354Zm39.71,4.765v7.5l-6.354-7.5h-14.3c-1.191,0-1.588-.429-1.588-1.588V19.8a1.388,1.388,0,0,1,1.588-1.588H57.683A1.386,1.386,0,0,1,59.271,19.7V40.445a1.386,1.386,0,0,1-1.588,1.588Z" transform="translate(2.586 -3.023)" fill="#fff"/></g></svg>