<svg xmlns="http://www.w3.org/2000/svg" xmlns:xlink="http://www.w3.org/1999/xlink" width="246" height="287" viewBox="0 0 246 287"><defs><clipPath id="a"><rect width="1706" height="394" fill="none"/></clipPath><linearGradient id="b" y1="0.5" x2="1" y2="0.5" gradientUnits="objectBoundingBox"><stop offset="0.004" stop-color="#fa7cbc"/><stop offset="1" stop-color="#500076"/></linearGradient><clipPath id="d"><rect width="246" height="287"/></clipPath></defs><g id="c" clip-path="url(#d)"><g transform="translate(-409 -107)"><g transform="translate(0)" clip-path="url(#a)"><g transform="translate(411.487 122.01)"><path d="M480.1,1092.691c0,12.192-66.415,22.075-148.342,22.075s-148.343-9.883-148.343-22.075,66.415-22.075,148.343-22.075S480.1,1080.5,480.1,1092.691Z" transform="translate(-183.415 -143.229)" fill="#808184"/><path d="M399.277,265.492,423.829,421.55l24.631,141.765L430.965,567.8,387.307,421.55l-20.87-103.733Z" transform="translate(-196.992 -83.502)" fill="#fab57a"/><path d="M401.336,468.545,387.308,421.55,366.437,317.816l32.84-52.324L423.828,421.55l6.846,39.4C420.948,463.758,411.173,466.317,401.336,468.545Z" transform="translate(-196.992 -83.502)" fill="#a69ebb"/><g transform="translate(58.368 401.831)"><path d="M341.5,865.012c-4.973-43.747,5.335-68.6,7.657-92.823L327.922,576.841l17.836-73.892h68.8L400.964,731.42l-11.89,40.768h-.489c-6.584,53.58-13.979,170.8-14.58,196.367-.736,31.348,28.471,57.925,33.6,63.13s22.4,8.976,22.4,17.384H386.141l-28-34.768,2.8,34.768h-2.8s-24.27-42.089-24.27-53.982,14-26.533,14-26.533S343.374,881.521,341.5,865.012Z" transform="translate(-252.503 -502.949)" fill="#fab57a"/><path d="M430.489,1088.365c0-8.408-17.268-12.178-22.4-17.384-.414-.419-1.03-1.025-1.727-1.714-13.871,2.475-24.517-2.778-34.5-14.5-10.131-11.9-37.519-27.347-37.519-20.382,0,11.892,24.27,53.982,24.27,53.982h2.8l-2.8-34.768,28,34.768Z" transform="translate(-252.98 -542.244)" fill="#404041"/><path d="M333.781,733.968S318,775.273,315.1,785.778,310,834.19,310,834.19s-18.537,93.2-26.329,130.8,16.286,55.616,14.439,84.084H255.643c-9.029-23.766,8.492-86.632,8.492-86.632s-2.123-120.929,4.1-142.147,8.642-47.254,8.642-47.254-34.971-161.625-29.726-184.3c5.8-71.966,19.534-85.783,19.534-85.783h73.043Z" transform="translate(-246.471 -502.949)" fill="#fab57a"/><path d="M389.861,748.77c-7.207.594-14.395,1.477-21.649,2.237-12.052,1.263-82.419,1.36-100.4.959C258.817,703.413,243,606.638,247.138,588.732c5.8-71.966,19.534-85.783,19.534-85.783H408.51L394.921,731.42Z" transform="translate(-246.46 -502.949)" fill="#414141"/><path d="M371.874,551.214c-16,1.782-32.328,1.209-48.4,1.1-23.937-.158-47.407-1.677-70.53-6.374,6.341-35.053,14.209-42.993,14.209-42.993H408.991l-2.333,39.23C395.092,545.268,383.928,549.872,371.874,551.214Z" transform="translate(-246.941 -502.949)" fill="#231f20"/><path d="M296.477,1072.7a54.106,54.106,0,0,1,2.148,18.255H256.159c-2.24-5.9-2.843-14.2-2.489-23.348C264.348,1076.943,282.266,1078.247,296.477,1072.7Z" transform="translate(-246.988 -544.838)" fill="#404041"/></g><path d="M240.99,79.173c12.466-11.785,29.8-13.692,38.716-4.259s6.04,26.63-6.425,38.416-29.8,13.69-38.716,4.259S228.525,90.957,240.99,79.173Z" transform="translate(-186.825 -68.92)" fill="#412917"/><g transform="translate(42.557 120.014)"><g transform="translate(22.556)"><path d="M285.03,198.55s14.18,42.465-2.276,49.329c-5.355,2.234-29.01,16.528-29.01,16.528l37.21,21.509,52.49-7.348L362.38,250.8l-21.95-8.334-12.3-42.391Z" transform="translate(-253.745 -198.55)" fill="#fab57a"/><path d="M337.025,236.62c-2.022,3.982-4.117,7.989-7.647,10.579-7.592,5.569-17.671.451-25.216-2.891a73.448,73.448,0,0,1-11.687-6.672c3.163-14.808-4.937-39.085-4.937-39.085l43.1,1.529S330.687,224.784,337.025,236.62Z" transform="translate(-256.252 -198.55)" fill="#e68052"/></g><path d="M251.674,374.148,229.382,280.09l23.245-12.662c17.7,5.48,43.464,10.437,64.2,8.493,20.047-1.88,39.736-15.983,42.776-21.826l29.509,10.552s1.175,8.966.251,30.877c-.6,14.341,9.2,29.173,9.379,52.627.161,20.743-15.183,48.257-15.182,48.265,6.2,47.712,25.44,88.739,25.44,88.739s-25.346,15.371-66.322,19.214c-19.9,1.866-67.147-11.26-81.189-12.62l14.551-65.194Z" transform="translate(-229.382 -202.67)" fill="#c5c2e1"/><path d="M252.719,380.64l-9.251-39.033c1.8,4.78,3.675,9.541,5.69,14.268,10,23.448,55.586,80.809,56.162,105.752.5,21.907-9.468,38.645-10.251,42.937-23.809-4.936-32.538-6.323-32.538-6.323s10.115-36.423,8.477-62.665C270.106,421.129,252.719,380.64,252.719,380.64Z" transform="translate(-230.427 -209.162)" fill="#9992ac"/><g transform="translate(60.269 171.287)"><path d="M295.323,396.949c2.605-1.994,9.379-4.532,18.04-6.538,10.048-2.328,32.327-3.257,44.683-4.25,6.449-.519,12.632-1.705,19.085-2.328,1.036-.1,2.037-.189,3.017-.27a51.3,51.3,0,0,1,12.809,1.589c-2.05,4.452-3.984,8.962-5.906,13.475-.3.152-.587.3-.885.455-3.958,1.926-8.062,3.864-12.815,5.785a63.372,63.372,0,0,1-25.418,5.221c-14.624-.09-21.272-1.056-25.765-2.885-4.02-1.635-14.649-2.751-18.725-4.376C299.2,401.131,292.02,399.48,295.323,396.949Z" transform="translate(-294.48 -383.562)" fill="#b0aeca"/></g><g transform="translate(50.27 43.814)"><path d="M352.163,386.848l-6.849-140.34-2.418-.634,5.883,128.432L286.112,250.7l-2.432,1.066Z" transform="translate(-283.68 -245.874)" fill="#1e75bb"/></g><g transform="translate(99.62 170.085)"><rect width="7.406" height="14.138" transform="translate(21.118 14.077) rotate(174.638)" fill="#273f90"/><g transform="translate(0 6.9)"><rect width="29.024" height="55.409" transform="matrix(0.996, -0.093, 0.093, 0.996, 2.653, 5.362)" fill="#6e6e71"/><path d="M371.625,443.784,346.993,447.1l-4.666-49.759,24.463-.707Z" transform="translate(-337.381 -390.229)" fill="#e4e5e5"/><path d="M337,395.327l5.174,55.168a2.652,2.652,0,0,0,2.888,2.392l28.9-2.71a2.653,2.653,0,0,0,2.392-2.888l-5.174-55.168a2.652,2.652,0,0,0-2.888-2.393l-28.9,2.711A2.652,2.652,0,0,0,337,395.327Zm2.641-.248,28.9-2.71,5.173,55.168-28.9,2.71Z" transform="translate(-336.984 -389.716)" fill="#273f90"/><g transform="translate(11.322 8.281)"><g transform="translate(0 0)"><rect width="12.525" height="19.032" transform="translate(0 1.169) rotate(-5.356)" fill="#fff"/></g></g><g transform="translate(2.653 2.652)" opacity="0.5"><path d="M350.081,394.4l19.424-1.822,5.174,55.167-7.819.734Z" transform="translate(-340.609 -392.581)" fill="#fff"/><path d="M357.4,449.509l-12.373,1.161L339.85,395.5l.768-.072Z" transform="translate(-339.85 -392.793)" fill="#fff"/></g></g><path d="M352.368,387.775a2.32,2.32,0,1,0,2.1-2.527A2.321,2.321,0,0,0,352.368,387.775Z" transform="translate(-338.125 -382.484)" fill="#fff"/></g></g><path d="M272.651,168.644c-2.551-7.983-7.086-12.91-10.131-11.005s-3.445,9.917-.894,17.9a19.486,19.486,0,0,0,4.179,7.646c1.927,2.246,2.678,4.795,4.447,4.733C273.282,187.812,275.2,176.626,272.651,168.644Z" transform="translate(-189.092 -75.471)" fill="#ed9362"/><path d="M314.42,90.813c-47.539,1.654-45.886,49.119-45.886,49.119s4.315,47.659,9.167,56.218,30.99,28.138,45.447,27.635,30.986-21.569,35.23-30.443,5.235-56.72,5.235-56.72S361.959,89.157,314.42,90.813Z" transform="translate(-189.729 -70.541)" fill="#fbbe7d"/><path d="M363.122,154.053c-8.325-2.988-17.54-5.976-25.578-9.753-13.281-6.24-26.6-8.736-38.79-17.049-2.022-1.379-5.043-3.95-7.736-2.727-2.635,1.2-3.828,5.952-4.761,8.318-4.114,10.448-9.664,20.529-15.16,30.43-1.569-12.362-2.565-23.341-2.565-23.341s-1.653-47.466,45.886-49.12,49.191,45.809,49.191,45.809S363.681,143.126,363.122,154.053Z" transform="translate(-189.729 -70.541)" fill="#ed9362"/><g transform="translate(105.033 79.168)"><path d="M302.422,154.458a5.032,5.032,0,0,0-5.527,4.4,4.908,4.908,0,0,0,4.436,5.4,5.035,5.035,0,0,0,5.527-4.4A4.908,4.908,0,0,0,302.422,154.458Z" transform="translate(-296.864 -154.432)" fill="#643a19"/></g><g transform="translate(148.105 78.807)"><path d="M348.489,154.065a4.62,4.62,0,0,0-5.074,4.039,4.5,4.5,0,0,0,4.072,4.961,4.62,4.62,0,0,0,5.073-4.04A4.5,4.5,0,0,0,348.489,154.065Z" transform="translate(-343.387 -154.041)" fill="#643a19"/></g><g transform="translate(134.505 98.93)"><path d="M330.239,185.386c.811,1.235.756,1.013.284,2a10.978,10.978,0,0,1-1.625,1.9c-1.055,1.237,3.748.753,4.558-.2.675-.791,2.333-2.112,2.641-3.146.368-1.232-.508-1.659-1.39-2.358a15.069,15.069,0,0,1-5.145-7.655C329.2,174.707,327.474,181.178,330.239,185.386Z" transform="translate(-328.697 -175.777)" fill="#e58052"/></g><path d="M290.649,109.1l-21.868,48.923s-28.213-15.915-19.554-40.1S290.649,109.1,290.649,109.1Z" transform="translate(-188.175 -71.543)" fill="#553821"/><path d="M363.952,152.545c-8.2-2.336-85.587-39.456-98.866-50.776,0,0,5.527-35.919,50.559-25.231C379.237,91.63,363.952,152.545,363.952,152.545Z" transform="translate(-189.474 -69.338)" fill="#553821"/><g transform="translate(93.676 63.794)"><path d="M311.654,140.949a7.866,7.866,0,0,1-.8-.123c-15.9-2.87-23.634,5.731-23.435,5.348a4.159,4.159,0,0,1-2.379,1.162c-.615-.025-.6-.628.1-1.348.032.387,6.671-10.514,25.656-7.694C312.1,138.55,312.609,141.061,311.654,140.949Z" transform="translate(-284.597 -137.826)" fill="#682c1c"/></g><path d="M341.323,200.622s-6.391,8.183-14.037,8.007-13.653-8.646-13.653-8.646Z" transform="translate(-193.075 -78.643)" fill="#fff"/><path d="M264.775,188.746a3.563,3.563,0,1,0,3.013-4.038A3.564,3.564,0,0,0,264.775,188.746Z" transform="translate(-189.448 -77.507)" fill="#e4e5e5"/><path d="M281.547,86.212s14.175-6.973,20.295-7.863,29.351,6.815,39.937,13.582,18.361,36.051,18.361,36.051-14.471-26.047-20.811-31.075-35.961-12.661-39.6-12.333Z" transform="translate(-190.695 -69.614)" fill="#77604d"/><g transform="translate(21.184 399.992)"><g transform="translate(6.415)"><path d="M213.226,599.617l.133-98.655,143.88,1.132-.133,98.655Z" transform="translate(-213.226 -500.962)" fill="#0b1f2e"/></g><path d="M350.176,618.072l6.415-9.418-143.88-1.132L206.3,616.94Z" transform="translate(-206.297 -508.867)" fill="#1c77ba"/><path d="M348.848,607.462l5.834-8.533-.207-95-141.447-1.385-4.229,4.393.044,99.611Z" transform="translate(-206.482 -501.079)" fill="#e5e6e6"/><g transform="translate(0 4.368)"><rect width="103.708" height="143.884" transform="translate(144.696 1.132) rotate(90.451)" fill="#9d71bc"/></g><g transform="translate(0 4.368)"><path d="M206.3,609.385l.816-103.705,136.947,7.4-4.645,90.534Z" transform="translate(-206.297 -505.68)" fill="url(#b)"/></g></g><path d="M227.2,282.173,200,432.942l40.245,120.55L263.5,543.253l-23.255-112.6L255.5,335.036Z" transform="translate(-184.645 -84.74)" fill="#fab57a"/><path d="M252.574,480.032c-10.675,2.566-24.535,7.845-34.941,11.455,0,0-16.772-43.283-17.644-58.545-2.186-38.238,27.2-150.769,27.2-150.769s25.812,38.081,28.3,52.863c4.018,23.889-11.456,71.8-12.923,96.029C241.8,443.768,252.574,480.032,252.574,480.032Z" transform="translate(-184.636 -84.74)" fill="#a69ebb"/><g transform="translate(54.682 456.711)"><path d="M242.479,568.855l1.713,14.152s2.583,38.27,9.666,38.619c3.444.169,5.284-5.1,5.284-5.1s4.36,6.694,8.094,5.414,5.062-6.226,5.062-6.226,4.468,9.81,7.359,5.908a24.055,24.055,0,0,0,3.663-6.431s9.069,12.677,11.785,6.431-9.788-26.248-9.788-26.248,1.746,10.93,6.279,5.6c7.219-8.493-25.389-38.75-25.389-38.75Z" transform="translate(-242.479 -562.226)" fill="#fab57a"/></g><g transform="translate(229.759 479.813)"><path d="M436.3,588.056c.463.812-2.585,11.881-2.585,11.881s-4.165,51.951-.863,53.127,6-17.9,6-17.9-.914,25.837,2.925,27.012,5.356-24.465,5.356-24.465-2.67,32.639,2.041,31.152,7.515-29.665,7.515-29.665-3.907,39.381,2.057,35.858,7.045-46.5,7.045-46.5,17.815,26.975,18.691,19.911-31.19-61.293-31.19-61.293S435.842,587.243,436.3,588.056Z" transform="translate(-431.584 -587.179)" fill="#fab57a"/></g><path d="M222.012,510.132l30.6-11.186s.106-2.657-.517-2.508c-9.429,2.251-31.2,10.349-31.2,10.349Z" transform="translate(-186.195 -100.634)" fill="#e68052"/></g></g></g></g></svg>