<svg xmlns="http://www.w3.org/2000/svg" xmlns:xlink="http://www.w3.org/1999/xlink" width="90" height="96" viewBox="0 0 90 96"><defs><style>.a{clip-path:url(#b);}.b{fill:#fff;}</style><clipPath id="b"><rect width="90" height="96"/></clipPath></defs><g id="a" class="a"><g transform="translate(-76.15 -57.898)"><rect class="b" width="22.386" height="3.131" rx="1.565" transform="translate(110.146 136.458)"/><rect class="b" width="22.386" height="3.131" rx="1.565" transform="translate(110.146 140.562)"/><rect class="b" width="22.386" height="3.131" rx="1.565" transform="translate(110.146 144.667)"/><path class="b" d="M263.977,514.2a2.907,2.907,0,0,0,2.907,2.907h8.149a2.907,2.907,0,0,0,2.907-2.907v-2.22H263.977Z" transform="translate(-149.619 -363.207)"/><path class="b" d="M290.586,73.438A2.018,2.018,0,0,0,292.6,71.42v-11.5a2.018,2.018,0,0,0-4.036,0v11.5A2.018,2.018,0,0,0,290.586,73.438Z" transform="translate(-169.248)"/><path class="b" d="M147.476,130.765a2.018,2.018,0,1,0,2.854-2.854l-8.134-8.134a2.018,2.018,0,0,0-2.854,2.854Z" transform="translate(-49.967 -48.918)"/><path class="b" d="M91.69,270.477a2.018,2.018,0,0,0-2.018-2.018h-11.5a2.018,2.018,0,0,0,0,4.036h11.5A2.018,2.018,0,0,0,91.69,270.477Z" transform="translate(0 -168.418)"/><path class="b" d="M146.163,378.564l-8.134,8.134a2.018,2.018,0,0,0,2.854,2.854l8.134-8.134a2.018,2.018,0,1,0-2.854-2.854Z" transform="translate(-48.919 -256.065)"/><path class="b" d="M399.671,379.878a2.018,2.018,0,1,0-2.854,2.854l8.134,8.134a2.018,2.018,0,0,0,2.854-2.854Z" transform="translate(-254.88 -257.116)"/><path class="b" d="M455.654,270.315h-11.5a2.018,2.018,0,1,0,0,4.036h11.5a2.018,2.018,0,1,0,0-4.036Z" transform="translate(-291.522 -169.903)"/><path class="b" d="M399.557,132.669a2.012,2.012,0,0,0,1.427-.591l8.134-8.134a2.018,2.018,0,0,0-2.854-2.854l-8.134,8.134a2.018,2.018,0,0,0,1.427,3.445Z" transform="translate(-255.928 -49.966)"/><path class="b" d="M207.434,162.489v-.005l-.108,0-.108,0v.005c-12.908.113-23.337,10.251-23.337,22.747,0,5.517,3.215,10.687,6.08,15.242a21.22,21.22,0,0,1,1.8,3.559c1.743,4.449,2.279,5.78,2.391,10.5,0,0,0,.234-.007.6a4.62,4.62,0,0,0,4.7,4.591h16.974a4.62,4.62,0,0,0,4.7-4.591c0-.368-.007-.6-.007-.6.112-4.724.648-6.055,2.391-10.5a21.242,21.242,0,0,1,1.8-3.559c2.865-4.555,6.08-9.725,6.08-15.242C230.77,172.74,220.342,162.6,207.434,162.489Zm16.036,19.622a1.653,1.653,0,0,1-.418.054,1.633,1.633,0,0,1-1.58-1.2c-1.682-6.292-6.365-7.621-6.413-7.634a1.612,1.612,0,0,1-1.147-1.983,1.638,1.638,0,0,1,2.008-1.133c.267.072,6.557,1.852,8.715,9.925A1.613,1.613,0,0,1,223.47,182.111Z" transform="translate(-85.988 -83.89)"/></g></g></svg>