<svg xmlns="http://www.w3.org/2000/svg" xmlns:xlink="http://www.w3.org/1999/xlink" width="54" height="38" viewBox="0 0 54 38"><defs><clipPath id="b"><rect width="54" height="38"/></clipPath></defs><g id="a" clip-path="url(#b)"><path d="M237.935,112.483l-19.541-6a5.6,5.6,0,0,0-3.278,0l-19.541,6a1.649,1.649,0,0,0,0,3.194l3.407,1.046a5.52,5.52,0,0,0-1.253,3.286,2.162,2.162,0,0,0-.179,3.714l-1.788,8.048a1.121,1.121,0,0,0,1.094,1.364h3.93a1.12,1.12,0,0,0,1.094-1.364l-1.788-8.048a2.156,2.156,0,0,0-.126-3.679,3.306,3.306,0,0,1,1.449-2.573l13.7,4.21a5.6,5.6,0,0,0,3.277,0l19.542-6a1.649,1.649,0,0,0,0-3.194Zm-18.883,11.341a7.845,7.845,0,0,1-4.6,0L204.3,120.7l-.993,7.948c0,2.477,6.021,4.484,13.45,4.484s13.45-2.007,13.45-4.484l-.993-7.949Z" transform="translate(-189.503 -102.167)" fill="#fff"/></g></svg>