<svg xmlns="http://www.w3.org/2000/svg" xmlns:xlink="http://www.w3.org/1999/xlink" width="50" height="50" viewBox="0 0 50 50"><defs><filter id="a" x="0" y="-3" width="49.116" height="56.292" filterUnits="userSpaceOnUse"><feOffset input="SourceAlpha"/><feGaussianBlur stdDeviation="4" result="b"/><feFlood flood-color="#00043e"/><feComposite operator="in" in2="b"/><feComposite in="SourceGraphic"/></filter><clipPath id="d"><rect width="50" height="50"/></clipPath></defs><g id="c" clip-path="url(#d)"><g transform="matrix(1, 0, 0, 1, 0, 0)" filter="url(#a)"><path d="M25.963,13.558H22.734V9.252c0-5.2-2.395-8.252-7.176-8.252S8.382,4.055,8.382,9.252v4.306H4.794A2.132,2.132,0,0,0,3,15.709V29.7a2.632,2.632,0,0,0,1.706,2.345l2.147.694a13.869,13.869,0,0,0,3.5.549H20.761a13.778,13.778,0,0,0,3.5-.551l2.146-.694a2.629,2.629,0,0,0,1.71-2.343V15.709A2.465,2.465,0,0,0,25.963,13.558Zm-6.817,0H11.97V8.533c0-2.592,1.43-3.945,3.588-3.945s3.588,1.353,3.588,3.945Z" transform="translate(9 8)" fill="#fff"/></g></g></svg>