<svg xmlns="http://www.w3.org/2000/svg" xmlns:xlink="http://www.w3.org/1999/xlink" width="34" height="34" viewBox="0 0 34 34"><defs><clipPath id="b"><rect width="34" height="34"/></clipPath></defs><g id="a" clip-path="url(#b)"><g transform="translate(-1314.618 -358)"><g transform="translate(1315.618 359)"><path d="M22.09,7.177a7.721,7.721,0,0,1,6.1,6.1M22.09,1A13.9,13.9,0,0,1,34.367,13.261M32.822,25.583v4.632A3.088,3.088,0,0,1,29.456,33.3,30.559,30.559,0,0,1,16.13,28.563,30.111,30.111,0,0,1,6.865,19.3,30.559,30.559,0,0,1,2.124,5.91,3.088,3.088,0,0,1,5.2,2.544H9.83A3.088,3.088,0,0,1,12.918,5.2,19.827,19.827,0,0,0,14,9.539,3.088,3.088,0,0,1,13.3,12.8l-1.961,1.961a24.707,24.707,0,0,0,9.265,9.265l1.961-1.961a3.088,3.088,0,0,1,3.258-.695,19.827,19.827,0,0,0,4.339,1.081A3.088,3.088,0,0,1,32.822,25.583Z" transform="translate(-2.112 -1)" fill="none" stroke="#fff" stroke-linecap="round" stroke-linejoin="round" stroke-width="2"/></g></g></g></svg>