<svg xmlns="http://www.w3.org/2000/svg" viewBox="0 0 38.95 174.48"><defs><style>.cls-1{opacity:0.2;}.cls-2{fill:#fff;}.cls-3{opacity:0.25;}.cls-4{opacity:0.3;}.cls-5{opacity:0.5;}.cls-6{opacity:0.4;}.cls-7{opacity:0.1;}.cls-8{opacity:0.6;}.cls-9{opacity:0.8;}.cls-10{opacity:0.15;}.cls-11{opacity:0.7;}</style></defs><title>animated_circles</title><g id="Layer_2" data-name="Layer 2"><g id="animated_circles"><g class="cls-1"><path class="cls-2" d="M21.94,25.24a20.16,20.16,0,0,0,3-.7l-1.29-4a14.22,14.22,0,0,1-2.34.55Z"/><path class="cls-2" d="M27.75,23.38a20.54,20.54,0,0,0,2.62-1.59L27.9,18.36a15.38,15.38,0,0,1-2,1.25Z"/><path class="cls-2" d="M16.46,21.31l-.63,3.91a19.53,19.53,0,0,0,3.06.25V21.24c-.35,0-.7,0-1,0s-.57.07-.86.09Z"/><path class="cls-2" d="M32.57,13l3.75,1.94a19.48,19.48,0,0,0,1.19-2.83l-4-1.33A16,16,0,0,1,32.57,13Z"/><path class="cls-2" d="M34.07,8.41l4.17.68A19.53,19.53,0,0,0,38.49,6L34.27,6A16,16,0,0,1,34.07,8.41Z"/><path class="cls-2" d="M30.55,15.92c-.26.31-.53.6-.82.89l3,3c.36-.36.71-.74,1-1.13s.64-.78,1-1.19L31.3,15Q30.94,15.47,30.55,15.92Z"/><path class="cls-2" d="M10,23.31a19.84,19.84,0,0,0,2.82,1.19l1.07-3.26a17.11,17.11,0,0,1-2.59-.46Z"/><path class="cls-2" d="M33.55,1.28a15.44,15.44,0,0,1,.54,2.33L38.27,3a18.94,18.94,0,0,0-.69-3Z"/><path class="cls-2" d="M5.1,19.71c.35.35.72.69,1.1,1s.8.67,1.22,1l1.33-1.81a17.46,17.46,0,0,1-2.49-1.33Z"/><path class="cls-2" d="M1.91,14.57l-.39.2a20.06,20.06,0,0,0,1.6,2.61l.83-.6A17.75,17.75,0,0,1,1.91,14.57Z"/><g class="cls-3"><path class="cls-2" d="M21.73,168v6.27a19,19,0,0,0,11-5.44l.73-.77-4.39-4.39A13,13,0,0,1,21.73,168Z"/></g><g class="cls-4"><path class="cls-2" d="M29.62,163,34,167.42a19,19,0,0,0,4.3-11.67H32.15A12.86,12.86,0,0,1,29.62,163Z"/></g><g class="cls-5"><path class="cls-2" d="M21.73,136.3v6.27a13,13,0,0,1,7.34,4.33l4.39-4.39c-.24-.26-.48-.51-.73-.76A19,19,0,0,0,21.73,136.3Z"/></g><g class="cls-6"><path class="cls-2" d="M32.15,154.86h6.19A19,19,0,0,0,34,143.19l-4.42,4.41A12.86,12.86,0,0,1,32.15,154.86Z"/></g><g class="cls-1"><path class="cls-2" d="M19.17,168.3a12.93,12.93,0,0,1-7.7-2.54l-4.42,4.41a19.06,19.06,0,0,0,12.12,4.31c.57,0,1.13,0,1.68-.07v-6.22A13.29,13.29,0,0,1,19.17,168.3Z"/></g><g class="cls-7"><path class="cls-2" d="M6.19,155.75H0a19,19,0,0,0,5.61,13.12c.25.25.51.49.77.72l4.39-4.39A13,13,0,0,1,6.19,155.75Z"/></g><g class="cls-8"><path class="cls-2" d="M19.17,142.31a13.29,13.29,0,0,1,1.68.11V136.2c-.55,0-1.11-.07-1.68-.07a19.06,19.06,0,0,0-12.12,4.31l4.42,4.41A12.93,12.93,0,0,1,19.17,142.31Z"/></g><g class="cls-9"><path class="cls-2" d="M10.77,145.41,6.38,141c-.26.23-.52.47-.77.73A19,19,0,0,0,0,154.86H6.19A13,13,0,0,1,10.77,145.41Z"/></g><g class="cls-10"><circle class="cls-2" cx="2.49" cy="105.88" r="1.41"/></g><g class="cls-8"><path class="cls-2" d="M34.48,103.1a2.79,2.79,0,1,1-2.78,2.78A2.79,2.79,0,0,1,34.48,103.1Z"/></g><g class="cls-9"><path class="cls-2" d="M15.35,121.88A3.14,3.14,0,1,1,18.49,125,3.14,3.14,0,0,1,15.35,121.88Z"/></g><g class="cls-6"><circle class="cls-2" cx="18.49" cy="91.57" r="1.68"/></g><g class="cls-4"><circle class="cls-2" cx="7.18" cy="94.57" r="1.68"/></g><g class="cls-11"><path class="cls-2" d="M31.9,115.09a3,3,0,1,1-4.21,0A3,3,0,0,1,31.9,115.09Z"/></g><circle class="cls-2" cx="7.18" cy="117.19" r="3.14"/><g class="cls-5"><circle class="cls-2" cx="29.8" cy="94.57" r="2.22"/></g><path class="cls-2" d="M6.42,58a.49.49,0,1,1,0,1"/><path class="cls-2" d="M9.8,47.39a.36.36,0,0,1-.11.25.35.35,0,0,1-.51,0L6.94,45.41a.37.37,0,1,1,.52-.52l2.23,2.24A.36.36,0,0,1,9.8,47.39Z"/><path class="cls-2" d="M9.8,69.57a.36.36,0,0,1-.11.26L7.46,72.07a.37.37,0,1,1-.52-.52l2.24-2.23a.35.35,0,0,1,.51,0A.36.36,0,0,1,9.8,69.57Z"/><path class="cls-2" d="M31.65,45.15a.38.38,0,0,1-.11.26l-2.23,2.23a.36.36,0,0,1-.52,0,.36.36,0,0,1,0-.51L31,44.89a.36.36,0,0,1,.51,0A.38.38,0,0,1,31.65,45.15Z"/><path class="cls-2" d="M31.65,71.81a.4.4,0,0,1-.11.26.36.36,0,0,1-.51,0l-2.24-2.24a.36.36,0,0,1,0-.51.36.36,0,0,1,.52,0l2.23,2.23A.36.36,0,0,1,31.65,71.81Z"/><path class="cls-2" d="M13.63,44.7a.36.36,0,0,1-.21.33.36.36,0,0,1-.48-.18L11.6,42a.36.36,0,1,1,.65-.31l1.34,2.86A.32.32,0,0,1,13.63,44.7Z"/><path class="cls-2" d="M35.69,50.92a.39.39,0,0,1-.21.33l-2.86,1.34a.37.37,0,0,1-.48-.18.35.35,0,0,1,.17-.48l2.86-1.34a.37.37,0,0,1,.49.17A.41.41,0,0,1,35.69,50.92Z"/><path class="cls-2" d="M6.38,64.7a.36.36,0,0,1-.21.33L3.31,66.37a.35.35,0,0,1-.48-.17A.37.37,0,0,1,3,65.71l2.86-1.34a.38.38,0,0,1,.49.18A.4.4,0,0,1,6.38,64.7Z"/><path class="cls-2" d="M26.92,75.12a.36.36,0,0,1-.21.33.35.35,0,0,1-.48-.17l-1.34-2.87a.36.36,0,0,1,.17-.48.37.37,0,0,1,.49.18L26.89,75A.4.4,0,0,1,26.92,75.12Z"/><path class="cls-2" d="M14,72.43a.4.4,0,0,1,0,.15l-1.26,2.9a.37.37,0,0,1-.67-.3l1.27-2.89a.35.35,0,0,1,.47-.19A.36.36,0,0,1,14,72.43Z"/><path class="cls-2" d="M35.88,65.6a.35.35,0,0,1,0,.14.36.36,0,0,1-.48.19l-2.89-1.26a.37.37,0,1,1,.29-.67l2.9,1.26A.38.38,0,0,1,35.88,65.6Z"/><path class="cls-2" d="M6.22,52.63a.32.32,0,0,1,0,.14.36.36,0,0,1-.48.19L2.82,51.7A.37.37,0,0,1,3.11,51L6,52.29A.38.38,0,0,1,6.22,52.63Z"/><path class="cls-2" d="M26.48,41.63a.32.32,0,0,1,0,.14l-1.26,2.9a.37.37,0,0,1-.48.19.36.36,0,0,1-.19-.48l1.26-2.9a.37.37,0,0,1,.7.15Z"/><path class="cls-2" d="M19.73,38.43v6.4a.48.48,0,0,1-.49.48.47.47,0,0,1-.48-.48v-6.4a.48.48,0,0,1,.48-.49A.49.49,0,0,1,19.73,38.43Z"/><path class="cls-2" d="M39,58.48a.49.49,0,0,1-.48.49H32.06a.49.49,0,0,1,0-1h6.41A.49.49,0,0,1,39,58.48Z"/><path class="cls-2" d="M19.73,72.13v6.4a.49.49,0,0,1-.49.49.48.48,0,0,1-.48-.49v-6.4a.47.47,0,0,1,.48-.48A.48.48,0,0,1,19.73,72.13Z"/></g></g></g></svg>