<svg xmlns="http://www.w3.org/2000/svg" viewBox="0 0 160.39 44.54"><defs><style>.cls-1{opacity:0.11;}.cls-2{fill:#fff;}.cls-3{opacity:0.8;}.cls-4{opacity:0.7;}.cls-5{opacity:0.6;}.cls-6{opacity:0.5;}.cls-7{opacity:0.4;}.cls-8{opacity:0.3;}.cls-9{opacity:0.2;}.cls-10{opacity:0.1;}</style></defs><title>animated_bars</title><g id="Layer_2" data-name="Layer 2"><g id="animated_bars"><g class="cls-1"><polygon class="cls-2" points="160.39 26.95 0 26.95 0 24.44 1.26 24.44 1.26 26.26 159.13 26.26 159.13 24.44 160.39 24.44 160.39 26.95"/><polygon class="cls-2" points="160.39 20.1 159.13 20.1 159.13 18.28 1.26 18.28 1.26 20.1 0 20.1 0 17.59 160.39 17.59 160.39 20.1"/><g class="cls-3"><rect class="cls-2" x="2.04" y="18.68" width="7.54" height="7.19"/></g><g class="cls-4"><rect class="cls-2" x="11.5" y="18.68" width="7.54" height="7.19"/></g><g class="cls-5"><rect class="cls-2" x="20.97" y="18.68" width="7.54" height="7.19"/></g><g class="cls-6"><rect class="cls-2" x="30.43" y="18.68" width="7.54" height="7.19"/></g><g class="cls-7"><rect class="cls-2" x="39.9" y="18.68" width="7.54" height="7.19"/></g><g class="cls-8"><rect class="cls-2" x="49.36" y="18.68" width="7.54" height="7.19"/></g><g class="cls-9"><rect class="cls-2" x="58.82" y="18.68" width="7.54" height="7.19"/></g><g class="cls-10"><rect class="cls-2" x="68.29" y="18.68" width="7.54" height="7.19"/></g><path class="cls-2" d="M151.92,9.36H8.47C3.8,9.36,0,7.26,0,4.68S3.8,0,8.47,0H151.92c4.67,0,8.47,2.1,8.47,4.68S156.59,9.36,151.92,9.36ZM8.47.69c-4,0-7.21,1.79-7.21,4s3.23,4,7.21,4H151.92c4,0,7.21-1.79,7.21-4s-3.23-4-7.21-4Z"/><g class="cls-3"><path class="cls-2" d="M102.26,1.09H8.54C5,1.09,2,2.7,2,4.68S5,8.27,8.54,8.27h106.4Z"/></g><path class="cls-2" d="M151.92,44.54H8.47C3.8,44.54,0,42.44,0,39.86s3.8-4.68,8.47-4.68H151.92c4.67,0,8.47,2.1,8.47,4.68S156.59,44.54,151.92,44.54ZM8.47,35.87c-4,0-7.21,1.79-7.21,4s3.23,4,7.21,4H151.92c4,0,7.21-1.79,7.21-4s-3.23-4-7.21-4Z"/><g class="cls-3"><path class="cls-2" d="M102.89,36.27H8.54C5,36.27,2,37.87,2,39.86S5,43.45,8.54,43.45h94.35Z"/></g><ellipse class="cls-2" cx="102.89" cy="39.86" rx="6.5" ry="3.59"/></g></g></g></svg>