<svg xmlns="http://www.w3.org/2000/svg" viewBox="0 0 16.51 19.93"><defs><style>.cls-1{fill:#ff00e1;}</style></defs><title>Asset 2</title><g id="Layer_2" data-name="Layer 2"><g id="credit"><path class="cls-1" d="M9.2,2.72A5.21,5.21,0,0,0,4.91,4.65,8.26,8.26,0,0,0,3.34,10a8.29,8.29,0,0,0,1.51,5.39A5.3,5.3,0,0,0,9.2,17.22,11.74,11.74,0,0,0,11.59,17q1.15-.26,2.4-.63v2.72a14.67,14.67,0,0,1-5.17.86,8.27,8.27,0,0,1-6.54-2.58Q0,14.77,0,10A11.91,11.91,0,0,1,1.11,4.68a7.86,7.86,0,0,1,3.2-3.47A9.65,9.65,0,0,1,9.23,0a12.1,12.1,0,0,1,5.49,1.25L13.58,3.88a18.34,18.34,0,0,0-2.08-.81A7.28,7.28,0,0,0,9.2,2.72Z"/><rect class="cls-1" x="6.64" y="6.11" width="9.87" height="2.68" transform="translate(23.16 14.91) rotate(180)"/><rect class="cls-1" x="6.64" y="11.13" width="9.87" height="2.68" transform="translate(23.16 24.94) rotate(180)"/></g></g></svg>