<svg xmlns="http://www.w3.org/2000/svg" xmlns:xlink="http://www.w3.org/1999/xlink" width="36" height="30" viewBox="0 0 36 30"><defs><clipPath id="b"><rect width="36" height="30"/></clipPath></defs><g id="a" clip-path="url(#b)"><g transform="translate(-458 -52)"><g transform="translate(-586.585 -272.793)"><path d="M1056.841,353.793h-4.431a3.837,3.837,0,0,1-3.825-3.826V334.433" fill="none" stroke="#fff" stroke-linecap="round" stroke-linejoin="round" stroke-width="1.275"/><path d="M1048.585,334.433V329.62a3.836,3.836,0,0,1,3.825-3.826h20.022a3.836,3.836,0,0,1,3.826,3.826v20.347a3.838,3.838,0,0,1-3.826,3.826h-5.717" fill="none" stroke="#fff" stroke-linecap="round" stroke-linejoin="round" stroke-width="1.275"/></g><path d="M1076.387,415.318s4.759-2.168,7.985-.344a4.711,4.711,0,0,1,1.717,7.127,13.341,13.341,0,0,1-3.436,3.263s-2.316,1.116-2.316,5.494" transform="translate(-605.387 -355.965)" fill="none" stroke="#fff" stroke-linecap="round" stroke-linejoin="round" stroke-miterlimit="10" stroke-width="2.36"/><circle cx="1.504" cy="1.504" r="1.504" transform="translate(473.55 78.672)" fill="#fff"/></g></g></svg>