<svg xmlns="http://www.w3.org/2000/svg" xmlns:xlink="http://www.w3.org/1999/xlink" width="600" height="205" viewBox="0 0 600 205">
  <defs>
    <clipPath id="clip-path">
      <rect width="600" height="204.565" fill="none"/>
    </clipPath>
    <clipPath id="clip-logo">
      <rect width="600" height="205"/>
    </clipPath>
  </defs>
  <g id="logo" clip-path="url(#clip-logo)">
    <g id="visa_rails_logo" transform="translate(0 1)" clip-path="url(#clip-path)">
      <g id="Group_7" data-name="Group 7" transform="translate(-553 -283.418)">
        <path id="Path_15" data-name="Path 15" d="M711.685,284.714h11.29l-32.512,90.193H680.1l-32.326-90.193h11.1l20.729,58.36a163.68,163.68,0,0,1,5.675,19.556,163.342,163.342,0,0,1,5.8-19.926Z" fill="#f7b600"/>
        <path id="Path_16" data-name="Path 16" d="M735.375,374.907V284.714h10.488v90.193Z" fill="#f7b600"/>
        <path id="Path_17" data-name="Path 17" d="M821.5,350.909q0,11.906-8.636,18.569t-23.443,6.663q-16.039,0-24.677-4.134V361.89a64.9,64.9,0,0,0,12.092,3.7,63.6,63.6,0,0,0,12.955,1.358q10.488,0,15.793-3.98a13.056,13.056,0,0,0,5.3-11.073A14.22,14.22,0,0,0,809,344.215a17.479,17.479,0,0,0-6.293-5.521,88.04,88.04,0,0,0-13.418-5.738q-12.585-4.5-17.983-10.672t-5.4-16.1q0-10.425,7.835-16.6t20.728-6.169a61.1,61.1,0,0,1,24.739,4.935l-3.27,9.131a55.9,55.9,0,0,0-21.715-4.689q-8.329,0-13.017,3.578a11.793,11.793,0,0,0-4.689,9.933,15.216,15.216,0,0,0,1.728,7.68,16.256,16.256,0,0,0,5.829,5.491A72.387,72.387,0,0,0,796.635,325q14.188,5.06,19.525,10.858T821.5,350.909Z" fill="#f7b600"/>
        <path id="Path_18" data-name="Path 18" d="M896.637,374.907,885.409,346.22H849.258l-11.1,28.687H827.542L863.2,284.344h8.822l35.472,90.563Zm-14.5-38.126-10.487-27.946q-2.037-5.305-4.2-13.017a117.023,117.023,0,0,1-3.887,13.017l-10.611,27.946Z" fill="#f7b600"/>
      </g>
      <g id="Group_8" data-name="Group 8" transform="translate(-553 -283.418)">
        <path id="Path_19" data-name="Path 19" d="M753.5,448.54v32.82H729.128V391.167h29.55q36.768,0,36.768,26.65,0,15.671-15.3,24.245l26.28,39.3H778.789l-19.124-32.82Zm0-18.323h4.565q12.77,0,12.77-11.289,0-9.315-12.523-9.316H753.5Z" fill="#f7b600"/>
        <path id="Path_20" data-name="Path 20" d="M906.368,481.36V391.167h24.491V481.36Z" fill="#f7b600"/>
        <path id="Path_21" data-name="Path 21" d="M950.354,481.36V391.167h24.368V461.68h34.732v19.68Z" fill="#f7b600"/>
        <path id="Path_22" data-name="Path 22" d="M1082.867,453.969a26.6,26.6,0,0,1-4.257,14.9,27.884,27.884,0,0,1-12.276,10.118,45.515,45.515,0,0,1-18.816,3.608,76.132,76.132,0,0,1-15.115-1.264,56.144,56.144,0,0,1-12.708-4.411V455.2a72.514,72.514,0,0,0,14.5,5.584,54.048,54.048,0,0,0,13.819,2q5.427,0,7.959-1.881a5.785,5.785,0,0,0,2.529-4.843,5.328,5.328,0,0,0-1.018-3.239,11.855,11.855,0,0,0-3.27-2.807q-2.255-1.419-12-5.8-8.825-4.01-13.232-7.773a23.866,23.866,0,0,1-6.54-8.637,28.664,28.664,0,0,1-2.128-11.536q0-12.462,9.069-19.433t24.923-6.971a69.935,69.935,0,0,1,28.563,6.478l-7.465,18.816q-12.647-5.8-21.838-5.8-4.753,0-6.91,1.665a5.036,5.036,0,0,0-2.159,4.134,5.968,5.968,0,0,0,2.745,4.75q2.742,2.1,14.9,7.65,11.659,5.242,16.194,11.258T1082.867,453.969Z" fill="#f7b600"/>
        <path id="Path_23" data-name="Path 23" d="M851.094,402.353,871.34,481.36h25.28l-29.8-90.563H834.312L804.885,481.36h25.349Z" fill="#f7b600"/>
      </g>
      <path id="Path_24" data-name="Path 24" d="M608.959,481.308H571.324a4.212,4.212,0,1,1,0-8.423h35.89l79.412-79.411a4.211,4.211,0,0,1,5.956,5.955l-80.646,80.645A4.209,4.209,0,0,1,608.959,481.308Z" transform="translate(-553 -283.418)" fill="#f7b600"/>
      <path id="Path_25" data-name="Path 25" d="M1086.334,372.84H921.817a4.212,4.212,0,0,1,0-8.423H1084.59l51.992-51.991a4.211,4.211,0,0,1,5.955,5.955l-53.225,53.225A4.211,4.211,0,0,1,1086.334,372.84Z" transform="translate(-553 -283.418)" fill="#f7b600"/>
      <path id="Path_26" data-name="Path 26" d="M711.11,447.974H644.443a4.212,4.212,0,1,1,0-8.423H711.11a4.212,4.212,0,0,1,0,8.423Z" transform="translate(-553 -283.418)" fill="#f7b600"/>
      <path id="Path_27" data-name="Path 27" d="M993.861,372.84a4.212,4.212,0,0,1-2.978-7.189l36.558-36.558a4.211,4.211,0,0,1,5.956,5.955l-36.559,36.558A4.2,4.2,0,0,1,993.861,372.84Z" transform="translate(-553 -283.418)" fill="#f7b600"/>
      <circle id="Ellipse_4" data-name="Ellipse 4" cx="12.903" cy="12.903" r="12.903" transform="translate(0 178.759)" fill="#f7b600"/>
      <circle id="Ellipse_5" data-name="Ellipse 5" cx="12.903" cy="12.903" r="12.903" transform="translate(574.194 18.544)" fill="#f7b600"/>
    </g>
  </g>
</svg>
