<svg xmlns="http://www.w3.org/2000/svg" xmlns:xlink="http://www.w3.org/1999/xlink" width="520" height="250" viewBox="0 0 520 250">
  <defs>
    <clipPath id="clip-logo_strapline">
      <rect width="520" height="250"/>
    </clipPath>
  </defs>
  <g id="logo_strapline" clip-path="url(#clip-logo_strapline)">
    <g id="Group_6129" data-name="Group 6129" transform="translate(-593 -225.007)">
      <g id="Group_6070" data-name="Group 6070" transform="translate(679 231.007)">
        <g id="Group_6069" data-name="Group 6069">
          <g id="Group_6120" data-name="Group 6120">
            <path id="Path_13183" data-name="Path 13183" d="M-560.729-428.678a87.336,87.336,0,0,0-62.166,25.751,87.339,87.339,0,0,0-25.75,62.165,88.016,88.016,0,0,0,87.916,87.914A87.336,87.336,0,0,0-498.562-278.6a87.339,87.339,0,0,0,25.749-62.165h-4.292A83.078,83.078,0,0,1-501.6-281.633a83.076,83.076,0,0,1-59.131,24.493,83.719,83.719,0,0,1-83.625-83.622,83.075,83.075,0,0,1,24.493-59.131,83.071,83.071,0,0,1,59.13-24.493,83.155,83.155,0,0,1,58.54,23.907l3-3.064A87.424,87.424,0,0,0-560.729-428.678Z" transform="translate(648.644 428.678)" fill="#f7b600"/>
            <path id="Path_13185" data-name="Path 13185" d="M-560.729-252.848A87.336,87.336,0,0,0-498.563-278.6a87.338,87.338,0,0,0,25.75-62.165,88.016,88.016,0,0,0-87.916-87.914A87.336,87.336,0,0,0-622.9-402.927a87.339,87.339,0,0,0-25.749,62.165h4.292a83.078,83.078,0,0,1,24.491-59.131,83.076,83.076,0,0,1,59.131-24.493,83.719,83.719,0,0,1,83.625,83.622A83.076,83.076,0,0,1-501.6-281.633a83.072,83.072,0,0,1-59.13,24.493,83.156,83.156,0,0,1-58.54-23.907l-3,3.064A87.424,87.424,0,0,0-560.729-252.848Z" transform="translate(820.369 428.678)" fill="#fff"/>
          </g>
        </g>
        <path id="Path_13208" data-name="Path 13208" d="M3.926-.727V-28.565H7.163V-.727Zm32.773,0H33.005L17.791-24.09h-.152q.3,4.113.3,7.54V-.727H14.954V-28.565H18.61L33.786-5.3h.152q-.038-.514-.171-3.3t-.1-3.989V-28.565H36.7ZM60.219-8.134A6.828,6.828,0,0,1,57.553-2.4,11.559,11.559,0,0,1,50.317-.346,18.123,18.123,0,0,1,42.7-1.622V-4.745A20.052,20.052,0,0,0,46.433-3.6a19.636,19.636,0,0,0,4,.419,8.068,8.068,0,0,0,4.875-1.228,4.03,4.03,0,0,0,1.638-3.418,4.387,4.387,0,0,0-.581-2.371,5.4,5.4,0,0,0-1.942-1.7,27.17,27.17,0,0,0-4.141-1.771,13.22,13.22,0,0,1-5.55-3.294,7.273,7.273,0,0,1-1.666-4.97,6.181,6.181,0,0,1,2.418-5.122,10.049,10.049,0,0,1,6.4-1.9,18.855,18.855,0,0,1,7.635,1.523L58.5-24.623a17.256,17.256,0,0,0-6.7-1.447,6.486,6.486,0,0,0-4.018,1.1A3.639,3.639,0,0,0,46.338-21.9a4.7,4.7,0,0,0,.533,2.371,5.02,5.02,0,0,0,1.8,1.695,22.357,22.357,0,0,0,3.875,1.7q4.379,1.561,6.027,3.351A6.591,6.591,0,0,1,60.219-8.134ZM66.068-.727V-28.565H69.3V-.727ZM99.317-14.913q0,6.893-3.742,10.539T84.808-.727H77.1V-28.565h8.53q6.493,0,10.092,3.6T99.317-14.913ZM95.89-14.8q0-5.446-2.732-8.207t-8.121-2.761h-4.7v22.24h3.942q5.789,0,8.7-2.847T95.89-14.8ZM121.2-.727H105.681V-28.565H121.2v2.875H108.918v8.968h11.539v2.856H108.918V-3.621H121.2Z" transform="translate(26.207 103.54)" fill="#fff"/>
        <path id="Path_13209" data-name="Path 13209" d="M12.4-.727H9.168V-25.69H.352v-2.875H21.221v2.875H12.4ZM28.8-12.3V-.727H25.566V-28.565H33.2q5.122,0,7.569,1.961a7.111,7.111,0,0,1,2.447,5.9q0,5.522-5.6,7.464L45.178-.727H41.351L34.61-12.3Zm0-2.78h4.437q3.427,0,5.027-1.361a5.066,5.066,0,0,0,1.6-4.084,4.648,4.648,0,0,0-1.628-3.98q-1.628-1.219-5.227-1.219H28.8ZM67.326-.727,63.861-9.581H52.7L49.275-.727H46L57.006-28.679h2.723L70.678-.727ZM62.852-12.494,59.615-21.12q-.628-1.638-1.295-4.018a36.078,36.078,0,0,1-1.2,4.018l-3.275,8.626ZM85.8-26.071a9.1,9.1,0,0,0-7.245,3.056Q75.9-19.958,75.9-14.646q0,5.465,2.561,8.445a9.1,9.1,0,0,0,7.3,2.98,24.932,24.932,0,0,0,6.645-1.047v2.837a20.464,20.464,0,0,1-7.14,1.085q-6.15,0-9.492-3.732T72.433-14.684a16.739,16.739,0,0,1,1.609-7.54,11.551,11.551,0,0,1,4.646-4.989,14.062,14.062,0,0,1,7.15-1.752,17.252,17.252,0,0,1,7.655,1.6l-1.371,2.78A14.754,14.754,0,0,0,85.8-26.071ZM118.745-.727h-3.808l-10.149-13.5-2.913,2.59V-.727H98.637V-28.565h3.237v13.8l12.624-13.8h3.827l-11.2,12.091Z" transform="translate(197.88 103.54)" fill="#f7b600"/>
      </g>
      <g id="VISA_Products_Challenge" data-name="VISA Products Challenge" transform="translate(600 440.243)">
        <g id="Group_6165" data-name="Group 6165" transform="translate(0 0.037)">
          <path id="Path_13211" data-name="Path 13211" d="M-118.236-48.974h3.392l-9.765,27.089h-3.113l-9.709-27.089h3.335l6.226,17.528a49.479,49.479,0,0,1,1.705,5.875,48.827,48.827,0,0,1,1.742-5.985Z" transform="translate(137.431 49.363)" fill="#f7b600"/>
          <path id="Path_13212" data-name="Path 13212" d="M-115.244-21.885V-48.974h3.151v27.089Z" transform="translate(141.554 49.363)" fill="#f7b600"/>
          <path id="Path_13213" data-name="Path 13213" d="M-90.759-29.031a6.645,6.645,0,0,1-2.595,5.577,11.245,11.245,0,0,1-7.04,2,17.632,17.632,0,0,1-7.412-1.24v-3.039a19.38,19.38,0,0,0,3.631,1.112,19.121,19.121,0,0,0,3.892.407,7.852,7.852,0,0,0,4.743-1.2,3.921,3.921,0,0,0,1.593-3.325,4.284,4.284,0,0,0-.564-2.308A5.275,5.275,0,0,0-96.4-32.7a26.538,26.538,0,0,0-4.03-1.723,12.853,12.853,0,0,1-5.4-3.205,7.072,7.072,0,0,1-1.621-4.836,6.015,6.015,0,0,1,2.353-4.984A9.784,9.784,0,0,1-98.875-49.3a18.359,18.359,0,0,1,7.43,1.482l-.982,2.743a16.811,16.811,0,0,0-6.522-1.409,6.318,6.318,0,0,0-3.91,1.074,3.544,3.544,0,0,0-1.409,2.984,4.565,4.565,0,0,0,.519,2.306,4.867,4.867,0,0,0,1.75,1.65,21.643,21.643,0,0,0,3.771,1.658q4.26,1.521,5.864,3.261A6.417,6.417,0,0,1-90.759-29.031Z" transform="translate(142.937 49.302)" fill="#f7b600"/>
          <path id="Path_13214" data-name="Path 13214" d="M-71.148-21.867l-3.373-8.616H-85.378l-3.335,8.616H-91.9l10.709-27.2h2.65l10.654,27.2ZM-75.5-33.318l-3.15-8.393q-.612-1.594-1.261-3.91a35.084,35.084,0,0,1-1.167,3.91l-3.186,8.393Z" transform="translate(145.893 49.345)" fill="#f7b600"/>
        </g>
        <g id="Group_6166" data-name="Group 6166" transform="translate(91.588)">
          <path id="Path_13215" data-name="Path 13215" d="M-43.02-41.081a7.583,7.583,0,0,1-2.808,6.328q-2.807,2.215-8.032,2.215h-3.188v10.654H-60.2V-48.974h7.023Q-43.021-48.974-43.02-41.081Zm-14.027,5.837h2.835q4.187,0,6.058-1.352a4.986,4.986,0,0,0,1.872-4.337,4.68,4.68,0,0,0-1.761-4Q-49.8-46.25-53.527-46.25h-3.521Z" transform="translate(60.197 49.4)" fill="#fff"/>
          <path id="Path_13216" data-name="Path 13216" d="M-37.781-33.15v11.266h-3.15V-48.974H-33.5q4.984,0,7.365,1.909a6.917,6.917,0,0,1,2.381,5.743q0,5.375-5.448,7.263l7.357,12.174h-3.725L-32.13-33.15Zm0-2.7h4.318a7.447,7.447,0,0,0,4.892-1.326,4.926,4.926,0,0,0,1.556-3.974A4.523,4.523,0,0,0-28.6-45.028q-1.583-1.185-5.086-1.186h-4.095Z" transform="translate(63.777 49.4)" fill="#fff"/>
          <path id="Path_13217" data-name="Path 13217" d="M2.584-35.4q0,6.5-3.288,10.228t-9.144,3.724q-5.986,0-9.237-3.66t-3.252-10.329q0-6.615,3.261-10.256t9.264-3.641q5.836,0,9.117,3.706T2.584-35.4ZM-19-35.4q0,5.5,2.344,8.347a8.313,8.313,0,0,0,6.809,2.844q4.5,0,6.8-2.834t2.3-8.357q0-5.464-2.289-8.291t-6.772-2.826a8.361,8.361,0,0,0-6.846,2.844Q-19-40.827-19-35.4Z" transform="translate(67.233 49.333)" fill="#fff"/>
          <path id="Path_13218" data-name="Path 13218" d="M25.395-35.689q0,6.71-3.641,10.256T11.276-21.885h-7.5V-48.974h8.3q6.318,0,9.82,3.5T25.395-35.689Zm-3.335.111q0-5.3-2.659-7.985T11.5-46.25H6.922v21.642h3.836q5.632,0,8.467-2.77T22.06-35.578Z" transform="translate(72.085 49.4)" fill="#fff"/>
          <path id="Path_13219" data-name="Path 13219" d="M47.6-48.974v17.528a9.55,9.55,0,0,1-2.8,7.282,10.732,10.732,0,0,1-7.69,2.649q-4.892,0-7.568-2.668a9.891,9.891,0,0,1-2.678-7.337V-48.974h3.15V-31.3a6.959,6.959,0,0,0,1.852,5.207,7.472,7.472,0,0,0,5.448,1.816A7.2,7.2,0,0,0,42.6-26.1a7.017,7.017,0,0,0,1.853-5.234V-48.974Z" transform="translate(76.377 49.4)" fill="#fff"/>
          <path id="Path_13220" data-name="Path 13220" d="M62.217-46.486a8.855,8.855,0,0,0-7.05,2.974q-2.585,2.974-2.585,8.143,0,5.319,2.493,8.218a8.855,8.855,0,0,0,7.106,2.9,24.255,24.255,0,0,0,6.466-1.019v2.761A19.908,19.908,0,0,1,61.7-21.454q-5.986,0-9.237-3.631t-3.253-10.32a16.284,16.284,0,0,1,1.567-7.338A11.249,11.249,0,0,1,55.3-47.6,13.686,13.686,0,0,1,62.253-49.3,16.792,16.792,0,0,1,69.7-47.745l-1.334,2.7A14.355,14.355,0,0,0,62.217-46.486Z" transform="translate(80.53 49.339)" fill="#fff"/>
          <path id="Path_13221" data-name="Path 13221" d="M79.454-21.885H76.3V-46.175H67.725v-2.8H88.033v2.8H79.454Z" transform="translate(83.971 49.4)" fill="#fff"/>
          <path id="Path_13222" data-name="Path 13222" d="M103.85-29.031a6.644,6.644,0,0,1-2.593,5.577,11.251,11.251,0,0,1-7.042,2,17.636,17.636,0,0,1-7.412-1.24v-3.039a19.392,19.392,0,0,0,3.632,1.112,19.109,19.109,0,0,0,3.891.407,7.852,7.852,0,0,0,4.743-1.2,3.922,3.922,0,0,0,1.594-3.325,4.273,4.273,0,0,0-.566-2.308,5.275,5.275,0,0,0-1.89-1.658,26.537,26.537,0,0,0-4.029-1.723,12.853,12.853,0,0,1-5.4-3.205,7.078,7.078,0,0,1-1.621-4.836,6.015,6.015,0,0,1,2.353-4.984A9.784,9.784,0,0,1,95.734-49.3a18.355,18.355,0,0,1,7.431,1.482l-.982,2.743a16.811,16.811,0,0,0-6.522-1.409,6.323,6.323,0,0,0-3.91,1.074,3.543,3.543,0,0,0-1.408,2.984,4.565,4.565,0,0,0,.518,2.306,4.881,4.881,0,0,0,1.752,1.65,21.581,21.581,0,0,0,3.77,1.658q4.262,1.521,5.865,3.261A6.416,6.416,0,0,1,103.85-29.031Z" transform="translate(87.516 49.339)" fill="#fff"/>
          <path id="Path_13223" data-name="Path 13223" d="M125.983-46.486a8.855,8.855,0,0,0-7.05,2.974q-2.586,2.974-2.585,8.143,0,5.319,2.491,8.218a8.857,8.857,0,0,0,7.107,2.9,24.262,24.262,0,0,0,6.466-1.019v2.761a19.915,19.915,0,0,1-6.949,1.055q-5.984,0-9.237-3.631t-3.252-10.32a16.3,16.3,0,0,1,1.565-7.338,11.244,11.244,0,0,1,4.522-4.854,13.686,13.686,0,0,1,6.957-1.705,16.787,16.787,0,0,1,7.448,1.557l-1.334,2.7A14.346,14.346,0,0,0,125.983-46.486Z" transform="translate(92.38 49.339)" fill="#fff"/>
          <path id="Path_13224" data-name="Path 13224" d="M154.917-21.885h-3.15V-34.632H137.5v12.748h-3.15V-48.974h3.15v11.525h14.268V-48.974h3.15Z" transform="translate(96.353 49.4)" fill="#fff"/>
          <path id="Path_13225" data-name="Path 13225" d="M175.571-21.867,172.2-30.483H161.341l-3.336,8.616h-3.186l10.709-27.2h2.649l10.655,27.2Zm-4.354-11.451-3.15-8.393q-.612-1.594-1.261-3.91a35.074,35.074,0,0,1-1.167,3.91l-3.188,8.393Z" transform="translate(100.157 49.382)" fill="#fff"/>
          <path id="Path_13226" data-name="Path 13226" d="M178.209-21.885V-48.974h3.151v24.236h11.951v2.853Z" transform="translate(104.504 49.4)" fill="#fff"/>
          <path id="Path_13227" data-name="Path 13227" d="M194.819-21.885V-48.974h3.15v24.236H209.92v2.853Z" transform="translate(107.59 49.4)" fill="#fff"/>
          <path id="Path_13228" data-name="Path 13228" d="M226.53-21.885h-15.1V-48.974h15.1v2.8H214.578v8.727h11.229v2.78H214.578V-24.7H226.53Z" transform="translate(110.677 49.4)" fill="#fff"/>
          <path id="Path_13229" data-name="Path 13229" d="M250.385-21.885h-3.594L231.986-44.62h-.148q.3,4,.3,7.338v15.4h-2.909V-48.974h3.558L247.55-26.332h.148q-.037-.5-.166-3.215t-.094-3.881V-48.974h2.947Z" transform="translate(113.985 49.4)" fill="#fff"/>
          <path id="Path_13230" data-name="Path 13230" d="M265.485-36.017h9.209v13.175a29.712,29.712,0,0,1-4.373,1.038,33.439,33.439,0,0,1-5.151.351q-6.153,0-9.579-3.66t-3.427-10.255a15.5,15.5,0,0,1,1.695-7.4,11.468,11.468,0,0,1,4.882-4.855,15.825,15.825,0,0,1,7.467-1.677,20.408,20.408,0,0,1,8.079,1.594l-1.223,2.78A18.052,18.052,0,0,0,266-46.486a10.107,10.107,0,0,0-7.726,2.946q-2.78,2.947-2.78,8.172,0,5.486,2.678,8.32t7.866,2.834a23.275,23.275,0,0,0,5.5-.649V-33.2h-6.058Z" transform="translate(118.248 49.339)" fill="#fff"/>
          <path id="Path_13231" data-name="Path 13231" d="M291.748-21.885h-15.1V-48.974h15.1v2.8H279.8v8.727h11.229v2.78H279.8V-24.7h11.951Z" transform="translate(122.798 49.4)" fill="#fff"/>
        </g>
      </g>
    </g>
  </g>
</svg>
