<svg xmlns="http://www.w3.org/2000/svg" xmlns:xlink="http://www.w3.org/1999/xlink" width="360" height="200" viewBox="0 0 360 200">
  <defs>
    <clipPath id="clip-logo_no_strapline">
      <rect width="360" height="200"/>
    </clipPath>
  </defs>
  <g id="logo_no_strapline" clip-path="url(#clip-logo_no_strapline)">
    <g id="Group_6167" data-name="Group 6167" transform="translate(-673 -219.007)">
      <g id="Group_6070" data-name="Group 6070" transform="translate(679 231.007)">
        <g id="Group_6069" data-name="Group 6069">
          <g id="Group_6120" data-name="Group 6120">
            <path id="Path_13183" data-name="Path 13183" d="M-560.729-428.678a87.336,87.336,0,0,0-62.166,25.751,87.339,87.339,0,0,0-25.75,62.165,88.016,88.016,0,0,0,87.916,87.914A87.336,87.336,0,0,0-498.562-278.6a87.339,87.339,0,0,0,25.749-62.165h-4.292A83.078,83.078,0,0,1-501.6-281.633a83.076,83.076,0,0,1-59.131,24.493,83.719,83.719,0,0,1-83.625-83.622,83.075,83.075,0,0,1,24.493-59.131,83.071,83.071,0,0,1,59.13-24.493,83.155,83.155,0,0,1,58.54,23.907l3-3.064A87.424,87.424,0,0,0-560.729-428.678Z" transform="translate(648.644 428.678)" fill="#f7b600"/>
            <path id="Path_13185" data-name="Path 13185" d="M-560.729-252.848A87.336,87.336,0,0,0-498.563-278.6a87.338,87.338,0,0,0,25.75-62.165,88.016,88.016,0,0,0-87.916-87.914A87.336,87.336,0,0,0-622.9-402.927a87.339,87.339,0,0,0-25.749,62.165h4.292a83.078,83.078,0,0,1,24.491-59.131,83.076,83.076,0,0,1,59.131-24.493,83.719,83.719,0,0,1,83.625,83.622A83.076,83.076,0,0,1-501.6-281.633a83.072,83.072,0,0,1-59.13,24.493,83.156,83.156,0,0,1-58.54-23.907l-3,3.064A87.424,87.424,0,0,0-560.729-252.848Z" transform="translate(820.369 428.678)" fill="#fff"/>
          </g>
        </g>
        <path id="Path_13208" data-name="Path 13208" d="M3.926-.727V-28.565H7.163V-.727Zm32.773,0H33.005L17.791-24.09h-.152q.3,4.113.3,7.54V-.727H14.954V-28.565H18.61L33.786-5.3h.152q-.038-.514-.171-3.3t-.1-3.989V-28.565H36.7ZM60.219-8.134A6.828,6.828,0,0,1,57.553-2.4,11.559,11.559,0,0,1,50.317-.346,18.123,18.123,0,0,1,42.7-1.622V-4.745A20.052,20.052,0,0,0,46.433-3.6a19.636,19.636,0,0,0,4,.419,8.068,8.068,0,0,0,4.875-1.228,4.03,4.03,0,0,0,1.638-3.418,4.387,4.387,0,0,0-.581-2.371,5.4,5.4,0,0,0-1.942-1.7,27.17,27.17,0,0,0-4.141-1.771,13.22,13.22,0,0,1-5.55-3.294,7.273,7.273,0,0,1-1.666-4.97,6.181,6.181,0,0,1,2.418-5.122,10.049,10.049,0,0,1,6.4-1.9,18.855,18.855,0,0,1,7.635,1.523L58.5-24.623a17.256,17.256,0,0,0-6.7-1.447,6.486,6.486,0,0,0-4.018,1.1A3.639,3.639,0,0,0,46.338-21.9a4.7,4.7,0,0,0,.533,2.371,5.02,5.02,0,0,0,1.8,1.695,22.357,22.357,0,0,0,3.875,1.7q4.379,1.561,6.027,3.351A6.591,6.591,0,0,1,60.219-8.134ZM66.068-.727V-28.565H69.3V-.727ZM99.317-14.913q0,6.893-3.742,10.539T84.808-.727H77.1V-28.565h8.53q6.493,0,10.092,3.6T99.317-14.913ZM95.89-14.8q0-5.446-2.732-8.207t-8.121-2.761h-4.7v22.24h3.942q5.789,0,8.7-2.847T95.89-14.8ZM121.2-.727H105.681V-28.565H121.2v2.875H108.918v8.968h11.539v2.856H108.918V-3.621H121.2Z" transform="translate(26.207 103.54)" fill="#fff"/>
        <path id="Path_13209" data-name="Path 13209" d="M12.4-.727H9.168V-25.69H.352v-2.875H21.221v2.875H12.4ZM28.8-12.3V-.727H25.566V-28.565H33.2q5.122,0,7.569,1.961a7.111,7.111,0,0,1,2.447,5.9q0,5.522-5.6,7.464L45.178-.727H41.351L34.61-12.3Zm0-2.78h4.437q3.427,0,5.027-1.361a5.066,5.066,0,0,0,1.6-4.084,4.648,4.648,0,0,0-1.628-3.98q-1.628-1.219-5.227-1.219H28.8ZM67.326-.727,63.861-9.581H52.7L49.275-.727H46L57.006-28.679h2.723L70.678-.727ZM62.852-12.494,59.615-21.12q-.628-1.638-1.295-4.018a36.078,36.078,0,0,1-1.2,4.018l-3.275,8.626ZM85.8-26.071a9.1,9.1,0,0,0-7.245,3.056Q75.9-19.958,75.9-14.646q0,5.465,2.561,8.445a9.1,9.1,0,0,0,7.3,2.98,24.932,24.932,0,0,0,6.645-1.047v2.837a20.464,20.464,0,0,1-7.14,1.085q-6.15,0-9.492-3.732T72.433-14.684a16.739,16.739,0,0,1,1.609-7.54,11.551,11.551,0,0,1,4.646-4.989,14.062,14.062,0,0,1,7.15-1.752,17.252,17.252,0,0,1,7.655,1.6l-1.371,2.78A14.754,14.754,0,0,0,85.8-26.071ZM118.745-.727h-3.808l-10.149-13.5-2.913,2.59V-.727H98.637V-28.565h3.237v13.8l12.624-13.8h3.827l-11.2,12.091Z" transform="translate(197.88 103.54)" fill="#f7b600"/>
      </g>
    </g>
  </g>
</svg>
