<svg xmlns="http://www.w3.org/2000/svg" xmlns:xlink="http://www.w3.org/1999/xlink" width="110" height="70" viewBox="0 0 110 70"><defs><linearGradient id="a" x1="-0.158" y1="-0.177" x2="1.015" y2="1.03" gradientUnits="objectBoundingBox"><stop offset="0.004" stop-color="#fa7cbc"/><stop offset="1" stop-color="#500076"/></linearGradient><clipPath id="c"><rect width="110" height="70"/></clipPath></defs><g id="b" clip-path="url(#c)"><g transform="translate(-1573.245 -790.478)"><path d="M1628.81,827.877h23.9l1.691-1.69" fill="none" stroke="#9d71bc" stroke-linecap="square" stroke-miterlimit="10" stroke-width="0.351"/><path d="M1628.733,827.877v14.13" fill="none" stroke="#8baf72" stroke-linecap="round" stroke-miterlimit="10" stroke-width="0.351"/><line x2="9.698" transform="translate(1628.81 827.877)" fill="none" stroke="#9d71bc" stroke-linecap="round" stroke-miterlimit="10" stroke-width="0.351"/><path d="M4.537,4.563.1.425" transform="translate(1628.713 841.698)" fill="none" stroke="#8baf72" stroke-linecap="round" stroke-width="0.351"/><path d="M1628.81,822.652V811.964l1.767-1.767h6.11" fill="none" stroke="#f58221" stroke-linecap="round" stroke-miterlimit="10" stroke-width="0.351"/><line x1="39" transform="translate(1588.472 816.978)" fill="none" stroke="#5b90c4" stroke-linecap="square" stroke-miterlimit="10" stroke-width="0.351"/><path d="M1628.5,822.7v-5.886l-13.485-12.057" transform="translate(-1)" fill="none" stroke="#5b90c4" stroke-linecap="square" stroke-miterlimit="10" stroke-width="0.351"/><line x1="9.381" transform="translate(1610.091 834.753)" fill="none" stroke="#cc382d" stroke-linecap="square" stroke-miterlimit="10" stroke-width="0.351"/><line x2="7.354" transform="translate(1601.379 808.047)" fill="none" stroke="#5b90c4" stroke-linecap="square" stroke-miterlimit="10" stroke-width="0.351"/><line x1="6.924" transform="translate(1604.028 841.306)" fill="none" stroke="#cc382d" stroke-linecap="square" stroke-miterlimit="10" stroke-width="0.351"/><line x1="12.066" y2="11.322" transform="translate(1613.406 828.979)" fill="none" stroke="#cc382d" stroke-linecap="square" stroke-miterlimit="10" stroke-width="0.351"/><line x1="2.151" y2="1.786" transform="translate(1626.472 842.192)" fill="none" stroke="#8baf72" stroke-linecap="round" stroke-miterlimit="10" stroke-width="0.351"/><line x2="9.362" transform="translate(1645.185 835.023)" fill="none" stroke="#9d71bc" stroke-linecap="square" stroke-miterlimit="10" stroke-width="0.351"/><line x2="3.406" y2="3.406" transform="translate(1638.691 830.304)" fill="none" stroke="#9d71bc" stroke-linecap="square" stroke-miterlimit="10" stroke-width="0.351"/><line x2="2.312" y2="2.337" transform="translate(1636.187 827.8)" fill="none" stroke="#9d71bc" stroke-linecap="round" stroke-miterlimit="10" stroke-width="0.351"/><circle cx="1.544" cy="1.544" r="1.544" transform="translate(1600.245 806.427)" fill="#5b90c4"/><circle cx="1.544" cy="1.544" r="1.544" transform="translate(1611.245 810.427)" fill="#5b90c4"/><circle cx="1.544" cy="1.544" r="1.544" transform="translate(1605.245 822.427)" fill="#5b90c4"/><circle cx="1.544" cy="1.544" r="1.544" transform="translate(1592.245 825.427)" fill="#5b90c4"/><circle cx="1.544" cy="1.544" r="1.544" transform="translate(1595.245 820.427)" fill="#5b90c4"/><circle cx="1.544" cy="1.544" r="1.544" transform="translate(1616.245 820.427)" fill="#5b90c4"/><circle cx="1.544" cy="1.544" r="1.544" transform="translate(1620.959 810.427)" fill="#5b90c4"/><circle cx="1.544" cy="1.544" r="1.544" transform="translate(1613.303 803.427)" fill="#5b90c4"/><circle cx="1.544" cy="1.544" r="1.544" transform="translate(1607.04 833.502)" fill="#cc382d"/><circle cx="1.544" cy="1.544" r="1.544" transform="translate(1610.899 839.924)" fill="#cc382d"/><circle cx="1.544" cy="1.544" r="1.544" transform="translate(1600.889 839.924)" fill="#cc382d"/><circle cx="4.965" cy="4.965" r="4.965" transform="translate(1623.622 822.022)" fill="url(#a)"/><circle cx="1.544" cy="1.544" r="1.544" transform="translate(1647.275 801.478)" fill="#f58221"/><circle cx="1.544" cy="1.544" r="1.544" transform="translate(1653.275 817.478)" fill="#f58221"/><circle cx="1.544" cy="1.544" r="1.544" transform="translate(1652.275 805.478)" fill="#f58221"/><circle cx="1.544" cy="1.544" r="1.544" transform="translate(1666.275 805.478)" fill="#f58221"/><circle cx="1.544" cy="1.544" r="1.544" transform="translate(1644.728 826.485)" fill="#9d71bc"/><circle cx="1.544" cy="1.544" r="1.544" transform="translate(1654.042 823.496)" fill="#9d71bc"/><circle cx="1.544" cy="1.544" r="1.544" transform="translate(1641.845 833.423)" fill="#9d71bc"/><circle cx="1.544" cy="1.544" r="1.544" transform="translate(1654.693 833.423)" fill="#9d71bc"/><circle cx="1.544" cy="1.544" r="1.544" transform="translate(1624.887 846.989)" fill="#8baf72"/><ellipse cx="1.544" cy="1.544" rx="1.544" ry="1.544" transform="translate(1632.646 845.68)" fill="#8baf72"/><path d="M0,7,7.135,0" transform="translate(1636.472 802.979)" fill="none" stroke="#f58221" stroke-width="0.35"/><path d="M0,0,7.205,9.071" transform="translate(1636.472 809.979)" fill="none" stroke="#f58221" stroke-width="0.35"/><line x1="4" transform="translate(1643.472 802.978)" fill="none" stroke="#f58221" stroke-width="0.35"/><path d="M10.144,0H0" transform="translate(1643.472 818.979)" fill="none" stroke="#f58221" stroke-width="0.35"/><path d="M28.288,0H0" transform="translate(1639.472 806.978)" fill="none" stroke="#f58221" stroke-width="0.35"/><line x1="9" transform="translate(1639.472 813.978)" fill="none" stroke="#f58221" stroke-width="0.35"/><circle cx="1.544" cy="1.544" r="1.544" transform="translate(1648.275 812.478)" fill="#f58221"/><path d="M1628.733,827.877v3.732" transform="translate(-2.262 16)" fill="none" stroke="#8baf72" stroke-linecap="round" stroke-miterlimit="10" stroke-width="0.351"/><path d="M1628.733,816.938l-9.891-8.8" transform="translate(-10)" fill="none" stroke="#5b90c4" stroke-linecap="square" stroke-miterlimit="10" stroke-width="0.351"/><path d="M1628.688,816.924l-4.413-4.216" transform="translate(-20)" fill="none" stroke="#5b90c4" stroke-linecap="square" stroke-miterlimit="10" stroke-width="0.351"/><path d="M1628.73,816.9l-7.51-7.289" transform="translate(-28)" fill="none" stroke="#5b90c4" stroke-linecap="square" stroke-miterlimit="10" stroke-width="0.351"/><circle cx="1.544" cy="1.544" r="1.544" transform="translate(1602.245 810.427)" fill="#5b90c4"/><circle cx="1.544" cy="1.544" r="1.544" transform="translate(1587.245 815.479)" fill="#5b90c4"/><circle cx="1.544" cy="1.544" r="1.544" transform="translate(1591.245 807.479)" fill="#5b90c4"/><line x2="8.258" transform="translate(1595.245 827.032)" fill="none" stroke="#5b90c4" stroke-linecap="square" stroke-miterlimit="10" stroke-width="0.351"/><path d="M1629.949,808.134l-11.108,9.887" transform="translate(-15.217 8.913)" fill="none" stroke="#5b90c4" stroke-linecap="square" stroke-miterlimit="10" stroke-width="0.351"/><line x2="4.101" transform="translate(1596.056 822.022)" fill="none" stroke="#5b90c4" stroke-linecap="square" stroke-miterlimit="10" stroke-width="0.351"/><path d="M1624.357,808.134l-5.516,4.926" transform="translate(-18.624 8.913)" fill="none" stroke="#5b90c4" stroke-linecap="square" stroke-miterlimit="10" stroke-width="0.351"/><path d="M1624.357,808.134l-5.516,4.926" transform="translate(-1.624 8.913)" fill="none" stroke="#5b90c4" stroke-linecap="square" stroke-miterlimit="10" stroke-width="0.351"/></g></g></svg>