<svg xmlns="http://www.w3.org/2000/svg" xmlns:xlink="http://www.w3.org/1999/xlink" viewBox="0 0 288.82 945.8"><defs><style>.cls-1{fill:#808184;}.cls-2{fill:#fab57a;}.cls-3{fill:#a69ebb;}.cls-4{fill:#404041;}.cls-5{fill:#414141;}.cls-6{fill:#231f20;}.cls-7{fill:#412917;}.cls-8{fill:#e68052;}.cls-9{fill:#c5c2e1;}.cls-10{fill:#9992ac;}.cls-11{fill:#b0aeca;}.cls-12{fill:#1e75bb;}.cls-13{fill:#273f90;}.cls-14{fill:#6e6e71;}.cls-15{fill:#e4e5e5;}.cls-16{fill:#fff;}.cls-17{opacity:0.5;}.cls-18{fill:#ed9362;}.cls-19{fill:#fbbe7d;}.cls-20{fill:#643a19;}.cls-21{fill:#e58052;}.cls-22{fill:#553821;}.cls-23{fill:#682c1c;}.cls-24{fill:#77604d;}.cls-25{fill:#0b1f2e;}.cls-26{fill:#1c77ba;}.cls-27{fill:#e5e6e6;}.cls-28{fill:#9d71bc;}.cls-29{fill:url(#linear-gradient);}</style><linearGradient id="linear-gradient" x1="20.62" y1="444.13" x2="154.74" y2="444.13" gradientUnits="userSpaceOnUse"><stop offset="0" stop-color="#fa7cbc"/><stop offset="1" stop-color="#500076"/></linearGradient></defs><title>Asset 8</title><g id="Layer_2" data-name="Layer 2"><g id="product_complete_character"><path class="cls-1" d="M288.82,924.31c0,11.87-64.65,21.49-144.41,21.49S0,936.18,0,924.31s64.66-21.49,144.41-21.49S288.82,912.44,288.82,924.31Z"/><polygon class="cls-2" points="196.93 177.17 220.83 329.09 244.81 467.1 227.77 471.47 185.27 329.09 164.96 228.11 196.93 177.17"/><path class="cls-3" d="M198.93,374.84l-13.66-45.75L165,228.11l32-50.94,23.9,151.92,6.66,38.36C218,370.18,208.51,372.67,198.93,374.84Z"/><path class="cls-2" d="M143.46,743.66c-4.84-42.59,5.19-66.79,7.45-90.37L130.24,463.12l17.37-71.93h67L201.35,613.6l-11.58,39.69h-.47c-6.41,52.16-13.61,166.27-14.19,191.17-.72,30.51,27.71,56.39,32.71,61.45s21.81,8.74,21.81,16.93H186.92L159.66,889l2.72,33.85h-2.72S136,881.86,136,870.29s13.63-25.83,13.63-25.83S145.28,759.73,143.46,743.66Z"/><path class="cls-4" d="M229.63,922.84c0-8.19-16.81-11.86-21.81-16.93l-1.68-1.66c-13.51,2.41-23.87-2.71-33.59-14.12C162.69,878.54,136,863.51,136,870.29c0,11.57,23.63,52.55,23.63,52.55h2.72L159.66,889l27.26,33.85Z"/><path class="cls-2" d="M141.82,616.08s-15.36,40.21-18.19,50.44-5,47.13-5,47.13S100.62,804.38,93,841s15.86,54.14,14.06,81.86H65.75C57,899.7,74,838.5,74,838.5S72,720.78,78,700.12s8.41-46,8.41-46-34-157.35-28.94-179.42c5.64-70.06,19-83.51,19-83.51h71.11Z"/><path class="cls-5" d="M196.42,630.49c-7,.58-14,1.44-21.07,2.18-11.74,1.23-80.24,1.33-97.74.93-8.76-47.26-24.16-141.47-20.13-158.9,5.64-70.06,19-83.51,19-83.51H214.58L201.35,613.6Z"/><path class="cls-6" d="M178.45,438.17c-15.58,1.74-31.48,1.18-47.12,1.07-23.31-.15-46.16-1.63-68.66-6.2,6.17-34.13,13.83-41.85,13.83-41.85H214.58l-2.27,38.19C201.05,432.38,190.18,436.86,178.45,438.17Z"/><path class="cls-4" d="M105,905.07a52.63,52.63,0,0,1,2.09,17.77H65.75C63.57,917.1,63,909,63.33,900.11,73.72,909.19,91.17,910.46,105,905.07Z"/><path class="cls-7" d="M52.73,10c12.14-11.47,29-13.33,37.69-4.14s5.88,25.92-6.26,37.39-29,13.33-37.69,4.15S40.59,21.45,52.73,10Z"/><path class="cls-2" d="M93.84,116.83s13.81,41.34-2.21,48C86.41,167,63.39,181,63.39,181l36.22,20.93,51.1-7.15,18.43-27-21.36-8.11-12-41.27Z"/><path class="cls-8" d="M142,153.89c-2,3.88-4,7.78-7.44,10.3-7.39,5.43-17.21.44-24.55-2.81a71.38,71.38,0,0,1-11.38-6.5c3.08-14.41-4.81-38-4.81-38l42,1.49S135.85,142.37,142,153.89Z"/><path class="cls-9" d="M63.13,283.77,41.43,192.2l22.63-12.32c17.23,5.33,42.31,10.16,62.5,8.26,19.51-1.83,38.68-15.56,41.64-21.24l28.73,10.27s1.14,8.73.24,30.06c-.59,14,9,28.4,9.13,51.23.16,20.19-14.78,47-14.78,47,6,46.44,24.77,86.38,24.77,86.38s-24.68,15-64.57,18.71c-19.37,1.82-65.37-11-79-12.29l14.17-63.46Z"/><path class="cls-10" d="M63.13,283.77l-9-38c1.75,4.65,3.58,9.29,5.54,13.89,9.74,22.83,54.12,78.67,54.68,103,.49,21.33-9.22,37.62-10,41.8-23.18-4.81-31.68-6.16-31.68-6.16s9.85-35.46,8.26-61C80.06,323.18,63.13,283.77,63.13,283.77Z"/><path class="cls-11" d="M100.92,296.62c2.54-1.95,9.13-4.42,17.56-6.37,9.79-2.27,31.47-3.17,43.5-4.14,6.28-.5,12.3-1.66,18.58-2.26l2.94-.27A50.45,50.45,0,0,1,196,285.13c-2,4.33-3.88,8.72-5.75,13.12l-.86.44c-3.85,1.88-7.85,3.76-12.48,5.63a61.5,61.5,0,0,1-24.74,5.08c-14.24-.08-20.71-1-25.09-2.8-3.91-1.59-14.26-2.68-18.22-4.26C104.7,300.69,97.71,299.08,100.92,296.62Z"/><polygon class="cls-12" points="157.04 296.73 150.37 160.1 148.01 159.49 153.74 284.52 92.73 164.18 90.37 165.22 157.04 296.73"/><rect class="cls-13" x="151.13" y="282.72" width="7.21" height="13.76" transform="translate(335.86 563.48) rotate(174.64)"/><rect class="cls-14" x="143.45" y="292.91" width="28.25" height="53.94" transform="translate(-29.18 16.11) rotate(-5.36)"/><polygon class="cls-15" points="171.75 341.27 147.77 344.49 143.22 296.05 167.04 295.36 171.75 341.27"/><path class="cls-13" d="M138.42,294.59l5,53.71a2.58,2.58,0,0,0,2.81,2.33L174.4,348a2.58,2.58,0,0,0,2.33-2.81l-5-53.71a2.58,2.58,0,0,0-2.81-2.33l-28.13,2.64A2.58,2.58,0,0,0,138.42,294.59Zm2.57-.24,28.13-2.64,5,53.71L146,348.06Z"/><rect class="cls-16" x="150.27" y="297.72" width="12.19" height="18.53" transform="translate(-27.97 15.94) rotate(-5.36)"/><g class="cls-17"><polygon class="cls-16" points="150.21 293.49 169.12 291.71 174.16 345.42 166.55 346.13 150.21 293.49"/><polygon class="cls-16" points="158.07 346.93 146.03 348.06 140.99 294.35 141.74 294.28 158.07 346.93"/></g><path class="cls-16" d="M152.28,287.56a2.25,2.25,0,1,0,2-2.46A2.24,2.24,0,0,0,152.28,287.56Z"/><path class="cls-18" d="M81.34,90.71C78.86,82.93,74.45,78.14,71.48,80s-3.35,9.66-.87,17.43a19,19,0,0,0,4.07,7.44c1.87,2.19,2.61,4.67,4.33,4.61C82,109.36,83.83,98.48,81.34,90.71Z"/><path class="cls-19" d="M121.39,19.73C75.11,21.35,76.72,67.55,76.72,67.55s4.2,46.4,8.92,54.73,30.17,27.39,44.24,26.9,30.17-21,34.3-29.63,5.1-55.22,5.1-55.22S167.67,18.12,121.39,19.73Z"/><path class="cls-18" d="M168.8,81.3c-8.1-2.91-17.08-5.82-24.9-9.49C131,65.73,118,63.3,106.14,55.21c-2-1.34-4.91-3.85-7.53-2.66s-3.73,5.8-4.64,8.1c-4,10.17-9.41,20-14.76,29.63-1.52-12-2.49-22.73-2.49-22.73s-1.61-46.2,44.67-47.82,47.89,44.6,47.89,44.6S169.34,70.66,168.8,81.3Z"/><path class="cls-20" d="M107.66,77.1a4.89,4.89,0,0,0-5.38,4.28,4.78,4.78,0,0,0,4.32,5.26A4.9,4.9,0,0,0,112,82.36,4.78,4.78,0,0,0,107.66,77.1Z"/><path class="cls-20" d="M149.15,76.74a4.49,4.49,0,0,0-4.94,3.93,4.38,4.38,0,0,0,4,4.83,4.49,4.49,0,0,0,4.94-3.93A4.38,4.38,0,0,0,149.15,76.74Z"/><path class="cls-21" d="M132.44,105.66c.79,1.21.74,1,.28,2a11.12,11.12,0,0,1-1.58,1.85c-1,1.2,3.64.73,4.43-.19.66-.77,2.27-2.06,2.57-3.07.36-1.2-.49-1.61-1.35-2.29a14.68,14.68,0,0,1-5-7.45C131.43,95.27,129.75,101.57,132.44,105.66Z"/><path class="cls-22" d="M99.76,36.56,78.47,84.18s-27.47-15.49-19-39S99.76,36.56,99.76,36.56Z"/><path class="cls-22" d="M169.86,81c-8-2.27-83.32-38.41-96.25-49.43,0,0,5.38-35,49.22-24.56C184.74,21.7,169.86,81,169.86,81Z"/><path class="cls-23" d="M117.53,65.14a5.13,5.13,0,0,1-.77-.12c-15.48-2.79-23,5.58-22.82,5.21a4,4,0,0,1-2.31,1.13c-.6,0-.59-.61.09-1.31,0,.38,6.5-10.24,25-7.49C118,62.81,118.46,65.25,117.53,65.14Z"/><path class="cls-16" d="M144.32,118.75s-6.22,8-13.66,7.79-13.3-8.41-13.3-8.41Z"/><path class="cls-15" d="M73.33,108.29a3.47,3.47,0,1,0,2.94-3.93A3.48,3.48,0,0,0,73.33,108.29Z"/><path class="cls-24" d="M88.44,16.16s13.8-6.79,19.76-7.66,28.58,6.64,38.88,13.23S165,56.82,165,56.82,150.87,31.46,144.7,26.57s-35-12.33-38.55-12Z"/><polygon class="cls-25" points="26.87 485.44 27 389.39 167.06 390.5 166.94 486.54 26.87 485.44"/><polygon class="cls-26" points="160.69 495.71 166.94 486.54 26.87 485.44 20.62 494.6 160.69 495.71"/><polygon class="cls-27" points="159.22 492.96 164.9 484.65 164.69 392.17 27 390.82 22.88 395.1 22.92 492.07 159.22 492.96"/><rect class="cls-28" x="40.57" y="374.64" width="100.96" height="140.07" transform="translate(536.43 357.12) rotate(90.45)"/><polygon class="cls-29" points="20.62 494.6 21.42 393.65 154.74 400.85 150.21 488.99 20.62 494.6"/><polygon class="cls-2" points="41.43 192.2 14.95 338.98 54.13 456.33 76.76 446.37 54.13 336.75 68.98 243.66 41.43 192.2"/><path class="cls-3" d="M66.14,384.82c-10.39,2.5-23.89,7.64-34,11.15,0,0-16.32-42.14-17.17-57C12.82,301.75,41.43,192.2,41.43,192.2S66.56,229.27,69,243.67c3.91,23.25-11.16,69.89-12.58,93.48C55.65,349.52,66.14,384.82,66.14,384.82Z"/><path class="cls-2" d="M53.23,451.06l1.67,13.78s2.52,37.26,9.41,37.6c3.35.16,5.15-5,5.15-5s4.24,6.51,7.87,5.27,4.93-6.06,4.93-6.06,4.35,9.55,7.17,5.75A23.5,23.5,0,0,0,93,496.18s8.83,12.34,11.47,6.26-9.52-25.56-9.52-25.56,1.7,10.64,6.11,5.45c7-8.26-24.72-37.72-24.72-37.72Z"/><path class="cls-2" d="M228.27,468c.45.79-2.52,11.57-2.52,11.57s-4.05,50.57-.84,51.72,5.84-17.42,5.84-17.42-.89,25.15,2.85,26.29,5.21-23.81,5.21-23.81-2.6,31.77,2,30.32,7.31-28.88,7.31-28.88-3.8,38.34,2,34.91S257,507.39,257,507.39s17.35,26.26,18.2,19.38S244.8,467.1,244.8,467.1,227.82,467.16,228.27,468Z"/><path class="cls-8" d="M34.87,398.65l29.79-10.89s.1-2.59-.5-2.44c-9.18,2.19-30.38,10.07-30.38,10.07Z"/></g></g></svg>