<svg xmlns="http://www.w3.org/2000/svg" xmlns:xlink="http://www.w3.org/1999/xlink" width="163" height="29" viewBox="0 0 163 29"><defs><clipPath id="b"><rect width="163" height="29"/></clipPath></defs><g id="a" clip-path="url(#b)"><g transform="translate(1 1)"><path d="M411.5,579.166l-6.884-20.72h1.536l3.657,11.1c1.013,3.013,1.843,5.626,2.428,7.932h.092c.615-2.336,1.567-5.011,2.643-7.932l4.026-11.1h1.567l-7.682,20.72Z" transform="translate(-404.615 -558.446)" fill="#fff"/><path d="M422.448,560.149a1.2,1.2,0,0,1-1.228,1.26,1.184,1.184,0,0,1-1.138-1.26,1.262,1.262,0,0,1,1.2-1.291,1.2,1.2,0,0,1,1.168,1.291m-1.9,4.212h1.445v14.755h-1.445Z" transform="translate(-402.761 -558.397)" fill="#fff"/><path d="M424.6,576.627a6.527,6.527,0,0,0,3.318,1.014c2.336,0,3.442-1.26,3.442-2.8,0-1.63-.983-2.491-3.1-3.351-2.427-.923-3.748-2.244-3.748-4.028,0-2.121,1.66-4,4.548-4a5.843,5.843,0,0,1,3.258.924l-.583,1.2a4.779,4.779,0,0,0-2.919-.891,2.577,2.577,0,0,0-2.859,2.551c0,1.537,1.045,2.214,3.043,3.044,2.4.922,3.812,2.121,3.812,4.365,0,2.521-1.968,4.243-4.98,4.243a7.169,7.169,0,0,1-3.749-1.046Z" transform="translate(-402.283 -557.844)" fill="#fff"/><path d="M444.1,575.059a26.329,26.329,0,0,0,.215,3.5h-1.321l-.216-2.121h-.092a5.529,5.529,0,0,1-4.7,2.459,4.026,4.026,0,0,1-4.334-4.057c0-3.412,3.011-5.472,9-5.41v-.37c0-1.476-.278-4.4-3.781-4.365a6.279,6.279,0,0,0-3.688,1.106l-.46-1.076a7.989,7.989,0,0,1,4.3-1.261c4.271,0,5.071,3.2,5.071,5.842Zm-1.445-4.4c-3.227-.092-7.468.4-7.468,3.935a2.82,2.82,0,0,0,2.95,3.074,4.441,4.441,0,0,0,4.365-2.951,3.206,3.206,0,0,0,.153-.891Z" transform="translate(-401.136 -557.844)" fill="#fff"/><path d="M450.352,558.446v12.512c0,5.257,2.459,7.286,5.531,7.286,3.412,0,5.778-2.214,5.778-7.286V558.446h1.475V570.8c0,6.363-3.441,8.7-7.344,8.7-3.627,0-6.885-2.122-6.885-8.454V558.446Z" transform="translate(-399.307 -558.446)" fill="#f7b600"/><path d="M465.047,567.344c0-1.353-.062-2.366-.122-3.535h1.352l.123,2.674h.062a5.535,5.535,0,0,1,5.07-3.014c1.414,0,5.133.708,5.133,6.241v8.854H475.22v-8.73c0-2.674-1.046-5.1-4.087-5.1a4.713,4.713,0,0,0-4.426,3.382,4.4,4.4,0,0,0-.215,1.323v9.129h-1.445Z" transform="translate(-397.387 -557.844)" fill="#f7b600"/><path d="M480.755,560.149a1.2,1.2,0,0,1-1.228,1.26,1.183,1.183,0,0,1-1.137-1.26,1.261,1.261,0,0,1,1.2-1.291,1.2,1.2,0,0,1,1.168,1.291m-1.9,4.212h1.445v14.755H478.85Z" transform="translate(-395.774 -558.397)" fill="#f7b600"/><path d="M483.567,563.772l3.441,9.162c.584,1.445,1.045,2.7,1.445,3.934h.06c.431-1.23.954-2.521,1.506-3.934l3.5-9.162h1.538l-5.992,14.755h-1.291L482,563.772Z" transform="translate(-395.341 -557.807)" fill="#f7b600"/><path d="M495.564,571.032c0,4.734,2.581,6.578,5.623,6.578a8.585,8.585,0,0,0,4.087-.829l.369,1.167A9.727,9.727,0,0,1,501,578.9c-4.241,0-6.884-3.1-6.884-7.439,0-4.918,2.827-7.994,6.637-7.994,4.825,0,5.747,4.55,5.747,6.672a3.652,3.652,0,0,1-.062.891Zm9.4-1.168c.03-2.059-.83-5.2-4.4-5.2-3.258,0-4.671,2.921-4.916,5.2Z" transform="translate(-393.888 -557.844)" fill="#f7b600"/><path d="M507.662,568.235c0-1.476-.061-3.014-.123-4.427h1.353l.062,2.982h.062a4.59,4.59,0,0,1,4.209-3.322,3.863,3.863,0,0,1,.585.062v1.415a2.519,2.519,0,0,0-.707-.062c-2.029,0-3.473,1.753-3.872,4.119a10.084,10.084,0,0,0-.123,1.414v8.146h-1.445Z" transform="translate(-392.28 -557.844)" fill="#f7b600"/><path d="M514.624,576.627a6.528,6.528,0,0,0,3.319,1.014c2.336,0,3.441-1.26,3.441-2.8,0-1.63-.983-2.491-3.1-3.351-2.428-.923-3.749-2.244-3.749-4.028,0-2.121,1.658-4,4.548-4a5.853,5.853,0,0,1,3.259.924l-.585,1.2a4.775,4.775,0,0,0-2.919-.891,2.576,2.576,0,0,0-2.858,2.551c0,1.537,1.045,2.214,3.043,3.044,2.4.922,3.81,2.121,3.81,4.365,0,2.521-1.967,4.243-4.979,4.243a7.164,7.164,0,0,1-3.748-1.046Z" transform="translate(-391.494 -557.844)" fill="#f7b600"/><path d="M526.263,560.149a1.2,1.2,0,0,1-1.23,1.26,1.184,1.184,0,0,1-1.137-1.26,1.261,1.261,0,0,1,1.2-1.291,1.2,1.2,0,0,1,1.168,1.291m-1.9,4.212H525.8v14.755h-1.443Z" transform="translate(-390.32 -558.397)" fill="#f7b600"/><path d="M531.511,560.862v3.259h4.212v1.168h-4.212v9.592c0,1.875.585,3.074,2.152,3.074a5.345,5.345,0,0,0,1.69-.246l.184,1.138a5.137,5.137,0,0,1-2.059.368,3.078,3.078,0,0,1-2.52-1.075,5.306,5.306,0,0,1-.922-3.505v-9.345h-2.488v-1.168h2.488v-2.706Z" transform="translate(-389.882 -558.156)" fill="#f7b600"/><path d="M537.562,563.772l3.872,9.652c.4,1.046.8,2.214,1.075,3.167h.062c.308-.923.676-2.059,1.138-3.258l3.595-9.561h1.567l-4.424,11c-1.783,4.58-3.043,7.317-4.978,9.007a8.411,8.411,0,0,1-2.582,1.537l-.46-1.229a7.742,7.742,0,0,0,2.581-1.63,11.743,11.743,0,0,0,2.458-3.719,2.117,2.117,0,0,0,.185-.646,1.9,1.9,0,0,0-.185-.645l-5.469-13.68Z" transform="translate(-388.87 -557.807)" fill="#f7b600"/></g></g></svg>