<svg xmlns="http://www.w3.org/2000/svg" width="33.07" height="38.976" viewBox="0 0 33.07 38.976"><defs><style>.a{fill:none;stroke:#fff;stroke-linecap:round;stroke-linejoin:round;stroke-width:1.181px;}</style></defs><g transform="translate(-14.012 -907.355)"><path class="a" d="M34.681,942.2H26.415l0-6.339a2.367,2.367,0,0,0-1.247-2.072,11.216,11.216,0,0,1-5.825-10.367,11.334,11.334,0,0,1,10.871-10.7,11.222,11.222,0,0,1,5.726,21.059,2.377,2.377,0,0,0-1.255,2.079Z"/><line class="a" y2="2.362" transform="translate(30.547 907.945)"/><line class="a" x2="1.181" y2="2.046" transform="translate(22.575 910.081)"/><line class="a" x1="1.181" y2="2.046" transform="translate(37.338 910.081)"/><path class="a" d="M30.547,945.74h0a2.953,2.953,0,0,1-2.952-2.953V942.2H33.5v.591A2.953,2.953,0,0,1,30.547,945.74Z"/><line class="a" x2="8.268" transform="translate(26.413 936.291)"/><path class="a" d="M28.776,936.291V922.709A1.772,1.772,0,0,0,27,920.937h0a1.772,1.772,0,0,0-1.772,1.772h0A1.772,1.772,0,0,0,27,924.48H34.09a1.771,1.771,0,0,0,1.772-1.771h0a1.772,1.772,0,0,0-1.772-1.772h0a1.771,1.771,0,0,0-1.771,1.772v13.582"/><line class="a" x2="8.268" transform="translate(26.413 939.244)"/><line class="a" x2="2.046" y2="1.181" transform="translate(16.739 915.917)"/><line class="a" x2="2.362" transform="translate(14.603 923.89)"/><line class="a" y1="1.181" x2="2.046" transform="translate(16.739 930.681)"/><line class="a" x1="2.046" y1="1.181" transform="translate(42.31 930.681)"/><line class="a" x1="2.362" transform="translate(44.13 923.89)"/><line class="a" x1="2.046" y2="1.181" transform="translate(42.31 915.917)"/></g></svg>