<svg xmlns="http://www.w3.org/2000/svg" width="25.108" height="25.108" viewBox="0 0 25.108 25.108"><defs><style>.a{fill:#fff;}</style></defs><g transform="translate(-167.022 -920.265)"><path class="a" d="M179.576,921.127a11.692,11.692,0,1,1-11.692,11.692A11.692,11.692,0,0,1,179.576,921.127Zm0-.862a12.554,12.554,0,1,0,12.554,12.554A12.569,12.569,0,0,0,179.576,920.265Z"/><path class="a" d="M177.972,934.317l1.778,5.733a.312.312,0,0,0,.589.021l4.763-12.2a.529.529,0,0,0-.68-.687L172.1,931.842a.312.312,0,0,0,.015.589Z"/></g></svg>