<svg xmlns="http://www.w3.org/2000/svg" width="23.729" height="23.73" viewBox="0 0 23.729 23.73"><defs><style>.a{fill:#fff;}</style></defs><g transform="translate(-1558.545 -916.575)"><path class="a" d="M1581.909,926.038l-2.173-.406a9.7,9.7,0,0,0-.768-1.846l1.239-1.829a.438.438,0,0,0-.054-.553l-2.757-2.743a.435.435,0,0,0-.553-.051l-1.824,1.248a9.688,9.688,0,0,0-1.848-.759l-.418-2.171a.437.437,0,0,0-.429-.353l-3.89.01a.437.437,0,0,0-.427.355l-.406,2.173a9.7,9.7,0,0,0-1.845.768l-1.83-1.238a.434.434,0,0,0-.552.053l-2.744,2.758a.435.435,0,0,0-.051.553l1.248,1.823a9.709,9.709,0,0,0-.759,1.849l-2.17.417a.435.435,0,0,0-.353.429l.009,3.89a.435.435,0,0,0,.356.426l2.172.408a9.761,9.761,0,0,0,.769,1.845l-1.239,1.829a.435.435,0,0,0,.053.553l2.758,2.743a.436.436,0,0,0,.553.051l1.823-1.248a9.693,9.693,0,0,0,1.849.759l.418,2.171a.435.435,0,0,0,.428.353l3.89-.01a.436.436,0,0,0,.427-.355l.407-2.173a9.822,9.822,0,0,0,1.845-.768l1.829,1.238a.436.436,0,0,0,.553-.053l2.743-2.758a.435.435,0,0,0,.051-.553l-1.248-1.823a9.665,9.665,0,0,0,.759-1.849l2.171-.418a.434.434,0,0,0,.353-.428l-.01-3.89A.435.435,0,0,0,1581.909,926.038Zm-11.482,9.477a7.075,7.075,0,1,1,7.058-7.093A7.083,7.083,0,0,1,1570.427,935.515Z"/><path class="a" d="M1570.394,922.565a5.875,5.875,0,1,0,5.89,5.86A5.882,5.882,0,0,0,1570.394,922.565Zm.023,9.052a3.177,3.177,0,1,1,3.17-3.185A3.18,3.18,0,0,1,1570.417,931.617Z"/></g></svg>