<svg xmlns="http://www.w3.org/2000/svg" width="101.693" height="82.155" viewBox="0 0 101.693 82.155"><path d="M48.847,41.077,12.407,26.521l2.247,53.634H4.885L7.229,24.421,0,21.539,48.847,2,97.693,21.539Zm0-24.423c-2.687,0-4.885,1.075-4.885,2.442s2.2,2.442,4.885,2.442,4.885-1.075,4.885-2.442S51.533,16.654,48.847,16.654Zm0,29.308L76.054,35.069A34.072,34.072,0,0,1,82.7,51.189,33.673,33.673,0,0,0,48.847,67.5,34.124,34.124,0,0,0,19.539,50.847,34.25,34.25,0,0,0,15,51.189a34.072,34.072,0,0,1,6.643-16.119Z" transform="translate(2)" fill="none" stroke="#fff" stroke-linecap="round" stroke-linejoin="round" stroke-width="4"/></svg>