<svg xmlns="http://www.w3.org/2000/svg" xmlns:xlink="http://www.w3.org/1999/xlink" width="88" height="88" viewBox="0 0 88 88">
  <defs>
    <clipPath id="clip-lv2_client4_h">
      <rect width="88" height="88"/>
    </clipPath>
  </defs>
  <g id="lv2_client4_h" clip-path="url(#clip-lv2_client4_h)">
    <g id="Group_542" data-name="Group 542" transform="translate(-923.241 -168.715)">
      <path id="Path_507" data-name="Path 507" d="M991.317,178.753a41.788,41.788,0,0,0-10.642-5.631q-1.552-.552-3.149-.983,1.112.8,2.162,1.63a51.478,51.478,0,0,1,9.874,10.236,40.807,40.807,0,0,1,5.953,11.826,34.753,34.753,0,0,1,1.443,13.271,36.4,36.4,0,0,1-3.721,13.029,42.54,42.54,0,0,1-2.31,4.071,47.541,47.541,0,0,1-2.819,3.949,23.936,23.936,0,0,1-2.5,2.7,25.647,25.647,0,0,1-2.933,2.331,27.917,27.917,0,0,1-3.314,1.936,29.845,29.845,0,0,1-3.609,1.5,28.12,28.12,0,0,1-3.674.979c.521-.017,1.043-.05,1.567-.1a33.488,33.488,0,0,0,6.34-1.218,41.986,41.986,0,0,0,6.529-2.525,48.1,48.1,0,0,0,12.318-8.6,40.7,40.7,0,0,0,4.664-5.354,30.573,30.573,0,0,0,3.212-5.537l1.55-3.52.033-.118q.017-1.668-.1-3.32-.122-1.7-.408-3.521c-.188-1.187-.423-2.356-.706-3.5s-.62-2.281-1.014-3.441a41.265,41.265,0,0,0-14.744-20.1Z" fill="#fff"/>
      <path id="Path_508" data-name="Path 508" d="M942.216,245.729a41.739,41.739,0,0,0,10.635,5.63h.007q1.554.554,3.149.984-1.113-.8-2.162-1.631a51.447,51.447,0,0,1-9.874-10.235,40.844,40.844,0,0,1-5.953-11.826,34.753,34.753,0,0,1-1.443-13.271,36.385,36.385,0,0,1,3.722-13.029,42.514,42.514,0,0,1,2.309-4.071,47.62,47.62,0,0,1,2.819-3.949,23.671,23.671,0,0,1,2.5-2.695,25.551,25.551,0,0,1,2.933-2.333,27.765,27.765,0,0,1,3.313-1.935,29.6,29.6,0,0,1,3.61-1.5,27.9,27.9,0,0,1,3.674-.98c-.521.017-1.043.05-1.566.1a33.473,33.473,0,0,0-6.34,1.218,41.994,41.994,0,0,0-6.53,2.525,48.125,48.125,0,0,0-12.317,8.6,40.55,40.55,0,0,0-4.665,5.353,30.571,30.571,0,0,0-3.211,5.537l-1.551,3.521-.033.118q-.016,1.666.1,3.32.121,1.7.408,3.52c.188,1.188.423,2.357.707,3.5s.619,2.282,1.013,3.441a41.279,41.279,0,0,0,14.744,20.1Z" fill="#fff"/>
      <path id="Path_509" data-name="Path 509" d="M933.279,187.69a41.739,41.739,0,0,0-5.63,10.642q-.555,1.554-.984,3.15.8-1.114,1.63-2.162a51.476,51.476,0,0,1,10.235-9.875,40.876,40.876,0,0,1,11.827-5.954,34.746,34.746,0,0,1,13.27-1.441,36.366,36.366,0,0,1,13.029,3.721,42.541,42.541,0,0,1,4.072,2.309,47.776,47.776,0,0,1,3.948,2.819,23.776,23.776,0,0,1,2.7,2.5,25.569,25.569,0,0,1,2.332,2.933,27.742,27.742,0,0,1,1.935,3.312,29.55,29.55,0,0,1,1.5,3.611,27.992,27.992,0,0,1,.979,3.673q-.025-.781-.1-1.566a33.514,33.514,0,0,0-1.218-6.341,41.886,41.886,0,0,0-2.525-6.529,48.057,48.057,0,0,0-8.6-12.317,40.627,40.627,0,0,0-5.353-4.665,30.541,30.541,0,0,0-5.538-3.211l-3.519-1.551-.119-.033q-1.666-.017-3.32.1-1.7.12-3.52.407-1.782.282-3.5.707-1.7.422-3.441,1.014a41.26,41.26,0,0,0-20.1,14.743Z" fill="#fff"/>
      <path id="Path_510" data-name="Path 510" d="M1000.254,236.79a41.746,41.746,0,0,0,5.631-10.633v-.007q.554-1.554.984-3.15-.8,1.113-1.631,2.162A51.471,51.471,0,0,1,995,235.036a40.84,40.84,0,0,1-11.827,5.954,34.765,34.765,0,0,1-13.27,1.443,36.408,36.408,0,0,1-13.03-3.723A42.344,42.344,0,0,1,952.8,236.4a47.513,47.513,0,0,1-3.948-2.817,23.97,23.97,0,0,1-2.7-2.5,25.594,25.594,0,0,1-2.332-2.933,27.62,27.62,0,0,1-1.935-3.314,29.532,29.532,0,0,1-1.5-3.609,27.844,27.844,0,0,1-.979-3.674q.025.782.1,1.567a33.412,33.412,0,0,0,1.218,6.34,41.885,41.885,0,0,0,2.525,6.529,48.041,48.041,0,0,0,8.595,12.318,40.543,40.543,0,0,0,5.353,4.664,30.605,30.605,0,0,0,5.537,3.212l3.521,1.55.118.034c1.11.01,2.22-.023,3.32-.1q1.7-.122,3.52-.409,1.782-.282,3.5-.706,1.7-.421,3.442-1.013a41.261,41.261,0,0,0,20.1-14.746Z" fill="#fff"/>
      <g id="Group_541" data-name="Group 541">
        <path id="Path_511" data-name="Path 511" d="M943.819,203.565l.031-.081v0l.03-.078.031-.081a24.643,24.643,0,0,1,9.624-11.765,24.392,24.392,0,0,1,14.655-3.873l.055,0c.19.011.378.024.568.04l.174.015q.182.015.363.033l.214.024.343.041.3.04.3.043.251.039.374.064.033.005.245.046.245.047.245.051a24.382,24.382,0,0,1,15.766,11.037q.312.5.6,1.039a34.466,34.466,0,0,1,3.265,8.983,32.647,32.647,0,0,0-14.817-7.815,5.321,5.321,0,0,0,2.545-4.081c.048-1.806-1.124-3.479-3.079-4.751a17.372,17.372,0,0,0-8.768-2.384c-.506-.011-1.014,0-1.519.021v-.013a16.489,16.489,0,0,0-7.4,1.9c-2.018,1.167-3.278,2.776-3.325,4.582-.075,2.8,2.637,4.732,4.944,5.747l.543.206v.022a43.34,43.34,0,0,0,5.8,1.706v-.017c3.237.788,6.5,1.651,9.672,2.657,6.03,1.911,11.807,4.647,14.627,10.832l-.06,0a23.532,23.532,0,0,1-.827,2.674l-.031.083,0,0-.028.078-.032.081a24.637,24.637,0,0,1-9.624,11.765,24.379,24.379,0,0,1-14.653,3.873l-.057,0c-.19-.012-.378-.026-.568-.04l-.174-.014-.362-.036-.217-.023c-.114-.013-.228-.026-.341-.041l-.3-.039-.295-.044-.252-.039c-.124-.02-.249-.041-.373-.063l-.034-.005-.246-.046-.245-.048-.244-.051a24.382,24.382,0,0,1-15.766-11.036c-.208-.335-.41-.683-.6-1.039a34.48,34.48,0,0,1-3.265-8.985,32.627,32.627,0,0,0,14.818,7.815,5.323,5.323,0,0,0-2.546,4.082c-.048,1.807,1.126,3.479,3.077,4.753a17.387,17.387,0,0,0,8.769,2.381c.507.013,1.014.006,1.519-.018v.012a16.484,16.484,0,0,0,7.4-1.906c2.017-1.167,3.277-2.776,3.325-4.581.075-2.8-2.639-4.732-4.943-5.746l-.545-.206v-.023a43.689,43.689,0,0,0-5.8-1.706v.018c-3.237-.789-6.5-1.653-9.673-2.659-6.029-1.91-11.806-4.647-14.628-10.831l.062,0a23.546,23.546,0,0,1,.827-2.675Z" fill="#fff" fill-rule="evenodd"/>
      </g>
    </g>
  </g>
</svg>
