<svg xmlns="http://www.w3.org/2000/svg" xmlns:xlink="http://www.w3.org/1999/xlink" width="100" height="100" viewBox="0 0 100 100"><defs><clipPath id="a"><circle cx="50" cy="50" r="50" transform="translate(1160 151)" fill="#fff" stroke="#707070" stroke-width="1"/></clipPath><linearGradient id="b" x1="1" y1="0.5" x2="0" y2="0.5" gradientUnits="objectBoundingBox"><stop offset="0.004" stop-color="#fa7cbc"/><stop offset="1" stop-color="#500076"/></linearGradient><clipPath id="d"><rect width="100" height="100"/></clipPath></defs><g id="c" clip-path="url(#d)"><g transform="translate(-1440 -145)"><g transform="translate(280 -6)" clip-path="url(#a)"><g transform="translate(1131.641 147.864)"><path d="M239.261,1571.788c0,5.862,31.932,10.614,71.322,10.614s71.322-4.752,71.322-10.614-31.932-10.614-71.322-10.614S239.261,1565.926,239.261,1571.788Z" transform="translate(-239.261 -1115.291)" fill="#808184"/><path d="M526.836,400.136l-11.8,75.032-11.842,68.16,8.411,2.157,20.99-70.317,10.035-49.875Z" transform="translate(-481.449 -312.637)" fill="#fab57a"/><path d="M517.3,497.763l6.745-22.6,10.034-49.874-15.789-25.158-11.8,75.032-3.292,18.945C507.867,495.462,512.567,496.692,517.3,497.763Z" transform="translate(-472.899 -312.636)" fill="#a69ebb"/><g transform="translate(29.236 193.199)"><path d="M490.207,916.642c2.391-21.033-2.565-32.982-3.682-44.629l10.209-93.922-8.576-35.527H455.082l6.534,109.848,5.717,19.6h.235c3.166,25.761,6.721,82.119,7.01,94.413.354,15.072-13.689,27.85-16.157,30.352s-10.771,4.316-10.771,8.358h21.094l13.464-16.716-1.346,16.716h1.346s11.669-20.236,11.669-25.954-6.732-12.757-6.732-12.757S489.3,924.58,490.207,916.642Z" transform="translate(-447.649 -742.564)" fill="#fab57a"/><path d="M456.909,1533.21c0-4.043,8.3-5.855,10.771-8.358.2-.2.495-.493.831-.824,6.669,1.19,11.788-1.336,16.586-6.973,4.871-5.722,18.039-13.148,18.039-9.8,0,5.718-11.669,25.954-11.669,25.954H490.12l1.346-16.716L478,1533.21Z" transform="translate(-456.909 -1270.637)" fill="#404041"/><path d="M333.255,853.637s7.585,19.859,8.984,24.91,2.45,23.276,2.45,23.276,8.913,44.81,12.659,62.887-7.83,26.74-6.942,40.427h20.418c4.341-11.427-4.083-41.652-4.083-41.652s1.021-58.142-1.971-68.344a141.9,141.9,0,0,1-4.155-22.719s16.813-77.709,14.292-88.613c-2.787-34.6-9.392-41.244-9.392-41.244H330.4Z" transform="translate(-289.887 -742.565)" fill="#fab57a"/><path d="M339.142,860.754c3.466.286,6.921.71,10.409,1.075,5.795.607,39.627.654,48.272.461,4.324-23.344,11.93-69.873,9.939-78.482-2.787-34.6-9.392-41.244-9.392-41.244h-68.2l6.534,109.848Z" transform="translate(-322.743 -742.564)" fill="#414141"/><path d="M357.372,765.77c7.694.857,15.543.581,23.271.53a175.366,175.366,0,0,0,33.91-3.065c-3.049-16.854-6.832-20.671-6.832-20.671h-68.2l1.122,18.862C346.209,762.911,351.577,765.124,357.372,765.77Z" transform="translate(-332.093 -742.564)" fill="#231f20"/><path d="M341.518,1559.29a26.036,26.036,0,0,0-1.032,8.777H360.9c1.077-2.834,1.367-6.826,1.2-11.225C356.966,1561.329,348.351,1561.955,341.518,1559.29Z" transform="translate(-279.967 -1305.495)" fill="#404041"/></g><path d="M326.655,121.6c-5.994-5.666-14.327-6.583-18.614-2.047s-2.9,12.8,3.089,18.47,14.327,6.582,18.614,2.048S332.648,127.263,326.655,121.6Z" transform="translate(-210.053 -116.668)" fill="#412917"/><g transform="translate(35.825 57.702)"><g transform="translate(23.282)"><path d="M377.872,303.6s-6.817,20.417,1.094,23.717c2.575,1.074,13.947,7.947,13.947,7.947l-17.89,10.341-25.237-3.533-9.1-13.348,10.554-4.007,5.915-20.381Z" transform="translate(-340.682 -303.602)" fill="#fab57a"/><path d="M389.412,321.906a13.584,13.584,0,0,0,3.677,5.087c3.65,2.677,8.5.217,12.124-1.391a35.318,35.318,0,0,0,5.619-3.208c-1.52-7.12,2.374-18.792,2.374-18.792l-20.721.736S392.459,316.215,389.412,321.906Z" transform="translate(-376.016 -303.602)" fill="#e68052"/></g><path d="M381.19,441.421,391.907,396.2l-11.176-6.088c-8.51,2.634-20.9,5.018-30.867,4.083-9.638-.9-19.1-7.685-20.566-10.494l-14.187,5.073s-.565,4.311-.121,14.846c.291,6.895-4.421,14.026-4.509,25.3-.077,9.973,7.3,23.2,7.3,23.205a162.524,162.524,0,0,1-12.232,42.665s12.187,7.39,31.887,9.238c9.57.9,32.284-5.414,39.035-6.067l-7-31.345Z" transform="translate(-305.549 -358.976)" fill="#c5c2e1"/><path d="M351.16,528.666l4.448-18.767c-.864,2.3-1.767,4.587-2.736,6.86-4.809,11.274-26.726,38.853-27,50.846-.243,10.532,4.552,18.581,4.928,20.644,11.448-2.373,15.644-3.04,15.644-3.04s-4.863-17.512-4.075-30.129C342.8,548.133,351.16,528.666,351.16,528.666Z" transform="translate(-275.519 -446.22)" fill="#9992ac"/><g transform="translate(10.035 82.354)"><path d="M446.366,576.838c-1.252-.959-4.509-2.179-8.673-3.144-4.831-1.12-15.543-1.566-21.483-2.044-3.1-.249-6.073-.82-9.176-1.119-.5-.048-.98-.091-1.451-.13a24.678,24.678,0,0,0-6.158.764c.986,2.141,1.915,4.309,2.84,6.479.143.073.282.146.426.219,1.9.926,3.876,1.858,6.162,2.781a30.45,30.45,0,0,0,12.221,2.51c7.031-.043,10.227-.508,12.388-1.387,1.933-.786,7.043-1.323,9-2.1C444.5,578.848,447.954,578.054,446.366,576.838Z" transform="translate(-399.425 -570.401)" fill="#b0aeca"/></g><g transform="translate(29.263 21.065)"><path d="M383.849,439.626l3.293-67.475,1.163-.3L385.476,433.6l30.13-59.429,1.169.512Z" transform="translate(-383.849 -371.846)" fill="#1e75bb"/></g><g transform="translate(19.53 81.776)"><rect width="3.561" height="6.798" transform="translate(9.413 0) rotate(5.362)" fill="#273f90"/><g transform="translate(0 3.318)"><rect width="13.954" height="26.641" transform="translate(15.168 29.102) rotate(-174.642)" fill="#6e6e71"/><path d="M468.421,611.916l11.843,1.592,2.243-23.924-11.762-.34Z" transform="translate(-465.954 -586.167)" fill="#e4e5e5"/><path d="M479.643,581.974,477.156,608.5a1.275,1.275,0,0,1-1.388,1.15l-13.894-1.3a1.275,1.275,0,0,1-1.15-1.389l2.488-26.524a1.274,1.274,0,0,1,1.388-1.15l13.893,1.3A1.275,1.275,0,0,1,479.643,581.974Zm-1.27-.119-13.893-1.3-2.488,26.524,13.893,1.3Z" transform="translate(-460.718 -579.277)" fill="#273f90"/><g transform="translate(6.638 3.981)"><g transform="translate(0 0)"><rect width="6.022" height="9.15" transform="matrix(-0.996, -0.093, 0.093, -0.996, 5.996, 9.673)" fill="#fff"/></g></g><g transform="translate(1.275 1.275)" opacity="0.5"><path d="M491.431,584.283l-9.339-.876L479.6,609.931l3.759.353Z" transform="translate(-479.604 -583.407)" fill="#fff"/><path d="M464.849,613.517l5.949.558,2.487-26.524-.369-.035Z" transform="translate(-456.905 -586.248)" fill="#fff"/></g></g><path d="M485.114,574.038a1.116,1.116,0,1,1-1.007-1.215A1.116,1.116,0,0,1,485.114,574.038Z" transform="translate(-473.031 -571.494)" fill="#fff"/></g></g><path d="M350.194,249.5c1.226-3.838,3.407-6.207,4.871-5.292s1.657,4.768.43,8.606a9.361,9.361,0,0,1-2.009,3.676c-.926,1.08-1.288,2.305-2.138,2.276C349.891,258.719,348.969,253.342,350.194,249.5Z" transform="translate(-247.724 -204.707)" fill="#ed9362"/><path d="M385.647,148.2c22.857.8,22.062,23.616,22.062,23.616s-2.075,22.915-4.407,27.029-14.9,13.529-21.851,13.287-14.9-10.37-16.939-14.637S362,170.223,362,170.223,362.79,147.4,385.647,148.2Z" transform="translate(-302.953 -138.451)" fill="#fbbe7d"/><path d="M362.234,178.6c4-1.436,8.433-2.873,12.3-4.689,6.386-3,12.787-4.2,18.65-8.2.972-.663,2.425-1.9,3.72-1.311,1.267.576,1.841,2.861,2.289,4a125.193,125.193,0,0,0,7.289,14.63c.754-5.944,1.233-11.222,1.233-11.222s.795-22.821-22.062-23.617S362,170.223,362,170.223,361.965,173.35,362.234,178.6Z" transform="translate(-302.956 -138.451)" fill="#ed9362"/><g transform="translate(87.326 38.064)"><g transform="translate(0)"><path d="M405.009,239.993a2.42,2.42,0,0,1,2.657,2.116,2.36,2.36,0,0,1-2.133,2.6,2.421,2.421,0,0,1-2.657-2.116A2.36,2.36,0,0,1,405.009,239.993Z" transform="translate(-402.862 -239.98)" fill="#643a19"/></g></g><g transform="translate(67.013 37.89)"><g transform="translate(0)"><path d="M471.921,239.428a2.221,2.221,0,0,1,2.439,1.942,2.166,2.166,0,0,1-1.958,2.385,2.221,2.221,0,0,1-2.439-1.943A2.165,2.165,0,0,1,471.921,239.428Z" transform="translate(-469.951 -239.417)" fill="#643a19"/></g></g><g transform="translate(74.376 47.565)"><g transform="translate(0)"><path d="M451.625,275.382c-.39.594-.364.487-.136.96a5.264,5.264,0,0,0,.781.915c.507.594-1.8.361-2.192-.1-.324-.38-1.122-1.015-1.27-1.513-.177-.592.244-.8.668-1.134a7.242,7.242,0,0,0,2.473-3.681C452.125,270.247,452.954,273.358,451.625,275.382Z" transform="translate(-448.767 -270.761)" fill="#e58052"/></g></g><path d="M331.784,169.978,342.3,193.5s13.565-7.651,9.4-19.28S331.784,169.978,331.784,169.978Z" transform="translate(-238.408 -151.923)" fill="#553821"/><path d="M357.81,162.286c3.943-1.123,41.15-18.97,47.534-24.413,0,0-2.658-17.27-24.309-12.131C350.461,133,357.81,162.286,357.81,162.286Z" transform="translate(-299.053 -122.281)" fill="#553821"/><g transform="matrix(0.966, 0.259, -0.259, 0.966, 85.177, 29.036)"><g transform="translate(0)"><path d="M385.408,217.536a3.792,3.792,0,0,0,.383-.06c7.644-1.38,11.363,2.756,11.268,2.571a2,2,0,0,0,1.144.559c.3-.012.29-.3-.046-.648-.015.186-3.207-5.056-12.336-3.7C385.2,216.383,384.949,217.59,385.408,217.536Z" transform="translate(-385.171 -216.035)" fill="#682c1c"/></g></g><path d="M359.942,285.547a1.713,1.713,0,1,1-1.449-1.942A1.713,1.713,0,0,1,359.942,285.547Z" transform="translate(-253.514 -232.063)" fill="#e4e5e5"/><path d="M418.56,133.978s-6.816-3.353-9.758-3.78-14.112,3.276-19.2,6.53-8.828,17.334-8.828,17.334,6.958-12.524,10.005-14.941,17.29-6.087,19.038-5.93Z" transform="translate(-319.597 -125.998)" fill="#77604d"/><g transform="translate(60.134 192.314)"><path d="M351.49,787.131l-.064-47.433-69.177.544.064,47.433Z" transform="translate(-282.25 -739.698)" fill="#0b1f2e"/><path d="M275.342,898.437l-3.084-4.528,69.177-.544,3.084,4.528Z" transform="translate(-272.194 -845.932)" fill="#1c77ba"/><path d="M278.673,792.426l-2.805-4.1.1-45.675,68.007-.666,2.033,2.112-.021,47.892Z" transform="translate(-274.797 -741.278)" fill="#e5e6e6"/><g transform="translate(2.756 2.1)"><rect width="49.862" height="69.179" transform="translate(69.177 0) rotate(89.549)" fill="#9d71bc"/></g><g transform="translate(6.089 2.1)"><path d="M338.494,796.363,338.1,746.5l-65.844,3.559,2.233,43.529Z" transform="translate(-272.258 -746.502)" fill="url(#b)"/></g></g><path d="M280.626,424.192l13.08,72.489-19.35,57.96-11.181-4.923,11.181-54.138-7.335-45.971Z" transform="translate(-158.442 -329.267)" fill="#fab57a"/><path d="M264.716,519.322c5.132,1.233,11.8,3.772,16.8,5.507,0,0,8.064-20.81,8.483-28.148,1.051-18.385-13.08-72.489-13.08-72.489s-12.41,18.309-13.605,25.416c-1.932,11.485,5.508,34.519,6.213,46.171C269.9,501.886,264.716,519.322,264.716,519.322Z" transform="translate(-154.735 -329.267)" fill="#a69ebb"/><g transform="translate(90.866 219.584)"><g transform="translate(0)"><path d="M349.922,831.232l-.824,6.8s-1.242,18.4-4.648,18.568c-1.655.082-2.54-2.45-2.54-2.45s-2.1,3.218-3.891,2.6-2.434-2.993-2.434-2.993-2.148,4.716-3.538,2.84a11.564,11.564,0,0,1-1.761-3.092s-4.36,6.1-5.666,3.092,4.705-12.62,4.705-12.62-.839,5.255-3.019,2.692c-3.471-4.084,12.207-18.631,12.207-18.631Z" transform="translate(-324.434 -828.045)" fill="#fab57a"/></g></g><g transform="translate(6.736 230.691)"><path d="M620.307,864.45c-.222.39,1.243,5.712,1.243,5.712s2,24.978.415,25.543-2.883-8.6-2.883-8.6.439,12.422-1.406,12.987-2.575-11.762-2.575-11.762,1.284,15.693-.981,14.978-3.613-14.263-3.613-14.263,1.878,18.935-.989,17.24-3.387-22.356-3.387-22.356-8.565,12.97-8.987,9.574,15-29.47,15-29.47S620.53,864.059,620.307,864.45Z" transform="translate(-597.135 -864.028)" fill="#fab57a"/></g><path d="M308.026,739.754l-14.714-5.378s-.05-1.278.249-1.206c4.533,1.082,15,4.976,15,4.976Z" transform="translate(-182.602 -542.869)" fill="#e68052"/><path d="M426.957,312.712s3.6-3.28,7.567-3.322,6.807,3.172,6.807,3.172Z" transform="translate(-356.52 -251.208)" fill="#fff"/></g></g><g transform="translate(1440 145)" fill="none" stroke="#fff" stroke-width="2"><circle cx="50" cy="50" r="50" stroke="none"/><circle cx="50" cy="50" r="49" fill="none"/></g></g></g></svg>