<svg xmlns="http://www.w3.org/2000/svg" xmlns:xlink="http://www.w3.org/1999/xlink" width="92" height="92" viewBox="0 0 92 92"><defs><clipPath id="a"><path d="M96.242,250.936a41.5,41.5,0,1,1,41.5,41.5h0A41.5,41.5,0,0,1,96.242,250.936Z" fill="none"/></clipPath><clipPath id="c"><rect width="92" height="92"/></clipPath></defs><g id="b" clip-path="url(#c)"><g transform="translate(-91.74 -204.936)"><circle cx="42" cy="42" r="42" transform="translate(95.74 208.936)" fill="#f7b600"/><circle cx="41.5" cy="41.5" r="41.5" transform="translate(96.24 209.436)" fill="none" stroke="#707070" stroke-width="1"/><circle cx="42" cy="42" r="42" transform="translate(95.74 208.936)" fill="none"/><g clip-path="url(#a)"><g opacity="0.5"><path d="M92.875,551.459c0,4.356,26.578,7.887,59.364,7.887s59.364-3.531,59.364-7.887-26.578-7.888-59.364-7.888S92.875,547.1,92.875,551.459Z" fill="#231f20"/></g><path d="M102.6,286.938l-9.332,45.839,3.287,23.274,15.537-28.683,3.06-20.614Z" fill="#c3c0e0"/><path d="M177.7,288.737s19.025,47.633,21.94,62.683c0,0-3.843,10.155-9.413,7.619S164.009,313.2,164.009,313.2Z" fill="#c3c0e0"/><path d="M109.888,365.422s-2.6,47.81,7.169,98.222c.609,3.146,4.1,66.62,2.034,78.282H137.36s7.917-48.9.914-79.75l-2.691-35.461-3.065-23.221s10.932,55.3,15.195,64.7,8.693,74.425,8.693,74.425l17.494.059s4.567-42.509-6.09-84.265c0,0-5.726-77.26-8.771-91.931Z" fill="#292728"/><path d="M120.182,404.818a88.6,88.6,0,0,0,12.841,2.5l-.5-3.828s.284,1.435.774,3.862c3.4.421,6.816.706,10.249.917,6.735.414,13.478.507,20.222.485-1.626-18.247-3.421-35.995-4.724-42.275l-49.151-1.061s-.8,14.85.172,36.712C113.457,402.861,116.806,403.871,120.182,404.818Z" fill="#151414"/><path d="M137.413,541.765a72.97,72.97,0,0,1-9.085-.555,63.4,63.4,0,0,1-8.977-2.333c-4.917,6.053-20.153,8.277-20.788,9.858,5.917,8.727,38.419.132,38.419.132S137.138,546.248,137.413,541.765Z" fill="#3c2419"/><path d="M152.857,268.274l-8.713-.9-10.456,1.686-5.115,3.037.675,6.52,6.746-4.16,8.545-1.405,10.718,1.8Z" fill="#9490a7"/><path d="M147.683,257.7s-.438,14.654,6.078,20.426c5.531,4.9-21.109,14-21.109,14s-10.326-6.655-5.967-12.851,5.278-18.585,5.278-18.585Z" fill="#c68d66"/><path d="M138.762,275.33c-2.335,2.088-5.707,4.9-8.926,5.372-1.368.2-2.191-.751-2.717-2.092,3.987-6.371,4.844-17.927,4.844-17.927l18.586-5.278s0,1.138.061,2.923C147.422,264.505,143.985,270.66,138.762,275.33Z" fill="#a57656"/><path d="M102.6,286.938c1.124-1.04,24.619-11.919,24.619-11.919l4.048,14.617,22.262-15.965s22.793,13.688,24.169,15.066c.878.877-6.04,19.428-11.1,32.784-2.883,7.613-2.613,5.652-5.2,13.537s-1.109,27.446-1.109,27.446l-38.811,5.834-11.018-2.024-1.8-14.391-2.8-49.02S101.479,287.978,102.6,286.938Z" fill="#dddbed"/><path d="M136.217,278.618l-.535,7.982c8.148-.609,19.479-11.944,19.479-11.944l-2.3-6.382Z" fill="#9490a7"/><path d="M131.242,291.126a1.1,1.1,0,1,1-1.1,1.1A1.1,1.1,0,0,1,131.242,291.126Z" fill="#f1f1f1"/><path d="M131.13,313.2a1.1,1.1,0,1,1-1.1,1.1A1.1,1.1,0,0,1,131.13,313.2Z" fill="#f1f1f1"/><path d="M131.018,335.274a1.1,1.1,0,1,1-1.1,1.1A1.1,1.1,0,0,1,131.018,335.274Z" fill="#f1f1f1"/><path d="M127.637,357.348a1.1,1.1,0,1,1-1.1,1.1A1.1,1.1,0,0,1,127.637,357.348Z" fill="#f1f1f1"/><path d="M124.123,370.642c8.69,0,35.126-3.593,35.126-3.593l.363-4.545s-28.866,3.417-35.489,3.417c-8.24,0-14.515-.569-14.577-.573l-.291,4.845C109.514,370.214,115.693,370.642,124.123,370.642Z" fill="#784f2c"/><path d="M141.65,372.039l2.023-.037-.173-7.966-1.858.218Z" fill="#292728"/><path d="M115.684,372.377l2.015-.178-.575-6.56-2.04-.109Z" fill="#292728"/><path d="M153.085,369.313l2.238-.033-.229-6.407-2.014.216Z" fill="#292728"/><path d="M123.254,370.982a2.95,2.95,0,0,1-.968-2.051l-.024-.5a2.969,2.969,0,0,1,2.82-3.1l3.45-.164a2.975,2.975,0,0,1,3.1,2.819l.025.5a2.972,2.972,0,0,1-2.821,3.1l-3.449.163c-.048,0-.1,0-.143,0A2.943,2.943,0,0,1,123.254,370.982Zm5.342-4.467-3.448.164h0a1.622,1.622,0,0,0-1.536,1.69l.024.5a1.622,1.622,0,0,0,1.691,1.536l3.448-.164a1.624,1.624,0,0,0,1.537-1.69l-.024-.5a1.618,1.618,0,0,0-1.611-1.539Z" fill="#e3e4e3"/><g opacity="0.1"><path d="M131.376,403.867l-10.118-6.859.9,2.249,5.847,4.16-8.77-.337.337.787,8.1,1.8-4.722.787,3.261,1.237,1.911-.338-8.882,15.036,3.252-2.779Z"/></g><path d="M152.857,268.274l-16.64,10.344s1.557,6.482,6.746,8.32l12.2-12.282Z" fill="#c3c0e0"/><path d="M129.1,277.21s-2.019,7.521-8.174,9.053l4.047-10.793,3.6-3.373Z" fill="#9490a7"/><path d="M124.974,275.47l4.835,8.881a40.884,40.884,0,0,1-1.518-6.632,27.512,27.512,0,0,1,.281-5.622Z" fill="#c3c0e0"/><path d="M132.841,279.915,136.6,280a24.307,24.307,0,0,0,1.947,3.607c.718.861-2.2,1.023-2.2,1.023Z" fill="#9a3e42"/><path d="M128.267,279.919a2.086,2.086,0,0,1-1.029-.164c-.3-.215-.776,3.179-.55,3.9S128.267,279.919,128.267,279.919Z" fill="#9a3e42"/><path d="M134.766,279.915l-6.5,0-1.579,3.741,2.085,5.94,4.4,0,4.179-5.075Z" fill="#ce5358"/><path d="M127.488,357.541l6.767-5.289-1.084-62.658-4.4,0-6.8,62.665Z" fill="#ce5358"/><path d="M174.489,539.542c-.854-6.134-16.946-4.775-17.287.058s-2.514,7.009-2.514,9.8-.31,7.454,9.318,7.454,11.8-4.037,11.8-7.454S175.343,545.677,174.489,539.542Z" fill="#3c2419"/><path d="M122.211,248.577c.918,3.092.322,6-1.333,6.49s-3.742-1.617-4.661-4.709-.322-6,1.333-6.491S121.292,245.484,122.211,248.577Z" fill="#a57656"/><path d="M155.341,249.752c-.7,3.149-2.46,5.437-3.928,5.11s-2.091-3.145-1.39-6.294,2.46-5.437,3.929-5.11S156.042,246.6,155.341,249.752Z" fill="#a57656"/><path d="M117.277,229.893c-3.22,16.913,3.742,26.376,3.742,26.376s9.938-13.31,10.818-21.748-1-10.027-6.4-10.43S117.277,229.893,117.277,229.893Z" fill="#6b6264"/><path d="M153.951,231.048c3.515,15.714-3.716,24.808-3.716,24.808s-10.536-12.108-11.528-19.973.966-9.417,6.631-9.98S153.951,231.048,153.951,231.048Z" fill="#6b6264"/><path d="M135.658,224.939c-15.92.171-16.719,15.119-16.758,16.921,0,.109,0,.214.009.323.114,1.662,1.208,17.03,2.772,19.95,1.3,2.423,7.023,7.371,9.434,9.4a3.757,3.757,0,0,0,2.456.877l.766-.008,3.663-.039.767-.009a3.747,3.747,0,0,0,2.435-.93c2.368-2.075,7.986-7.146,9.23-9.6,1.5-2.955,2.265-18.342,2.343-20.006a3.159,3.159,0,0,0,0-.323C152.7,239.7,151.579,224.768,135.658,224.939Z" fill="#c68d66"/><path d="M122.179,237.268c.946-.259,1.567.4,2.462.474a32.69,32.69,0,0,0,12.529-.948c5.9-1.619,10.668-1.173,15.034.889-1.209-4.989-4.952-12.868-16.546-12.744-12.363.133-15.606,9.175-16.456,14.054A7.343,7.343,0,0,1,122.179,237.268Z" fill="#a57656"/><path d="M143.372,247.752a1.235,1.235,0,0,0-1.289,1.192,1.257,1.257,0,0,0,1.121,1.367,1.235,1.235,0,0,0,1.29-1.191A1.258,1.258,0,0,0,143.372,247.752Z" fill="#3d3739"/><path d="M128.651,247.836a1.237,1.237,0,0,0-1.29,1.192,1.258,1.258,0,0,0,1.122,1.367,1.235,1.235,0,0,0,1.29-1.191A1.259,1.259,0,0,0,128.651,247.836Z" fill="#3d3739"/><path d="M140.848,234.361c-2.936.361-5.827.952-8.739,1.458a18.277,18.277,0,0,1-8.775-.187c-2.813-.917-5.35-3.181-5.891-6.123a10.066,10.066,0,0,1,.282-4.209c1.147-4.616,4.252-9,8.749-10.392,1.572-.485,3.357-.649,4.527-1.815-.412.768.3,1.741,1.138,1.96a5.773,5.773,0,0,0,2.556-.217c5.524-1.09,11.177,2.436,14.17,7.263a38.506,38.506,0,0,1,5.389,17.048S148.215,233.453,140.848,234.361Z" fill="#4c484a"/><path d="M119.911,220.209c.819,4.069,2.842,7.512,6.6,9.07,5.057,2.1,10.946-.99,16.155-1.2a20.3,20.3,0,0,1,7.074.646,13.207,13.207,0,0,1,2.77,1.426,36.8,36.8,0,0,0-3.646-8.055c-2.992-4.827-8.645-8.353-14.169-7.263a5.773,5.773,0,0,1-2.556.217c-.837-.219-1.55-1.192-1.138-1.96-1.17,1.166-2.955,1.33-4.527,1.815A12.267,12.267,0,0,0,119.911,220.209Z" fill="#686062"/><path d="M135.573,256.362c-.243.781-.232.642-.028,1.254a7.725,7.725,0,0,0,.649,1.182c.422.767-1.308.5-1.631-.088a9.112,9.112,0,0,1-1.058-1.954,1.579,1.579,0,0,1,.409-1.49,11.143,11.143,0,0,0,1.552-4.845C135.551,249.651,136.4,253.7,135.573,256.362Z" fill="#ba794e"/><path d="M132.484,243.336a1.031,1.031,0,0,1-.288,0,15.563,15.563,0,0,0-9.471,1.2.918.918,0,0,1-1.141-.164.632.632,0,0,1,.25-.955,12.7,12.7,0,0,1,10.123-2.235C132.4,241.248,132.82,243.293,132.484,243.336Z" fill="#4c484a"/><path d="M138.893,243.547a1,1,0,0,0,.288,0,15.552,15.552,0,0,1,9.471,1.2.921.921,0,0,0,1.141-.164.632.632,0,0,0-.25-.955,12.69,12.69,0,0,0-10.124-2.235C138.977,241.459,138.558,243.5,138.893,243.547Z" fill="#4c484a"/><path d="M128.684,262.258a83.787,83.787,0,0,1,13.48,0s-3.444,3-6.691,3S128.684,262.258,128.684,262.258Z" fill="#f1f2f2"/><path d="M154.011,245.278a2.945,2.945,0,0,0-.962-.371,24.878,24.878,0,0,0-5.392-.693c-2.5,0-9.142,0-9.621,3.112l-.174.15h-3.847l-.174-.15c-.477-3.112-7.119-3.112-9.619-3.112a23.659,23.659,0,0,0-5.726.79,1.874,1.874,0,0,0-.671.316c-.045.1-.083.356.161,1a2.3,2.3,0,0,0,.4.773.012.012,0,0,0,.01-.009l1.591.089.164.17c0,.035.116,3.572,1.4,5.126.8.962,3.513,1.306,5.788,1.306a13.713,13.713,0,0,0,3.594-.377,4.219,4.219,0,0,0,2.98-4.007l.177-.164h3.705l.178.164a4.222,4.222,0,0,0,2.981,4.007,13.76,13.76,0,0,0,3.594.377c2.275,0,4.993-.344,5.789-1.306,1.287-1.554,1.4-5.091,1.4-5.126l.165-.17,1.44-.084.178.072a7.461,7.461,0,0,0,.383-.845C154.138,245.676,154.1,245.416,154.011,245.278Zm-22.945,6.988a7.588,7.588,0,0,1-3.479.557c-1.8,0-4.153-.266-4.882-1.028-1.209-1.257-1.127-4.545-.559-5.717.462-.658,2.372-.755,3.468-.755,2.568,0,6.392.58,6.848,1.868a4.718,4.718,0,0,1-1.4,5.075Zm18.114-.471c-.729.758-3.084,1.028-4.88,1.028a7.588,7.588,0,0,1-3.479-.557,4.726,4.726,0,0,1-1.4-5.075c.461-1.289,4.283-1.868,6.848-1.868,1.1,0,3.008.1,3.485.78.551,1.149.63,4.436-.577,5.691Z" fill="#3f3133"/><path d="M146.269,245.323c-2.568,0-6.392.58-6.848,1.868a4.726,4.726,0,0,0,1.4,5.075,7.588,7.588,0,0,0,3.479.557c1.8,0,4.151-.266,4.88-1.028,1.207-1.256,1.128-4.543.577-5.692C149.277,245.421,147.367,245.323,146.269,245.323Z" fill="#fff" opacity="0.25" style="isolation:isolate"/><path d="M125.613,245.323c-1.1,0-3.008.1-3.468.755-.568,1.172-.651,4.46.559,5.717.729.758,3.086,1.028,4.882,1.028a7.588,7.588,0,0,0,3.479-.557,4.719,4.719,0,0,0,1.4-5.075C132.005,245.9,128.182,245.323,125.613,245.323Z" fill="#fff" opacity="0.25" style="isolation:isolate"/><path d="M147.724,260.6a1.513,1.513,0,0,1-1.661.739l-6.185-1.015a6.379,6.379,0,0,0-2.677-.093,13.084,13.084,0,0,1-2.4-.184s-7.108.738-9.232.277c-3.764-2.113-5.354-8.287-5.955-11.632h-.167c.487,5.13,1.271,11.641,2.234,13.438,1.3,2.423,7.023,7.371,9.434,9.4a3.757,3.757,0,0,0,2.456.877l.766-.008,3.663-.039.767-.009a3.747,3.747,0,0,0,2.435-.93c2.368-2.075,7.986-7.146,9.23-9.6.72-1.417,1.27-5.693,1.656-9.943C150.248,258.856,147.724,260.6,147.724,260.6Z" fill="#a57656" opacity="0.54"/></g><circle cx="42" cy="42" r="42" transform="translate(95.74 208.936)" fill="none"/><circle cx="41.25" cy="41.25" r="41.25" transform="translate(96.49 209.686)" fill="none" stroke="#fff" stroke-width="1.5"/><g opacity="0.3"><circle cx="45" cy="45" r="45" transform="translate(92.74 205.936)" fill="none"/><circle cx="44.5" cy="44.5" r="44.5" transform="translate(93.24 206.436)" fill="none" stroke="#fff" stroke-width="1"/></g></g></g></svg>