<svg xmlns="http://www.w3.org/2000/svg" xmlns:xlink="http://www.w3.org/1999/xlink" width="94" height="94" viewBox="0 0 94 94">
  <defs>
    <clipPath id="clip-advanced_icon">
      <rect width="94" height="94"/>
    </clipPath>
  </defs>
  <g id="advanced_icon" clip-path="url(#clip-advanced_icon)">
    <g id="Group_1262" data-name="Group 1262" transform="translate(-347.134 -532.388)">
      <g id="Group_1129" data-name="Group 1129" transform="translate(361.134 536.388)">
        <g id="Group_1128" data-name="Group 1128" transform="translate(0 51.28)">
          <path id="Path_1856" data-name="Path 1856" d="M64.236-65.266a1.554,1.554,0,0,1,1.1.45l4.577,4.535a1.527,1.527,0,0,1,0,2.174,1.562,1.562,0,0,1-2.195,0l-4.576-4.535a1.527,1.527,0,0,1,0-2.174A1.554,1.554,0,0,1,64.236-65.266Z" transform="translate(-12.722 83.106)" fill="#fff"/>
          <path id="Path_1857" data-name="Path 1857" d="M69.985-79.14h6.472A1.545,1.545,0,0,1,78.01-77.6a1.545,1.545,0,0,1-1.552,1.538H69.985A1.545,1.545,0,0,1,68.433-77.6,1.545,1.545,0,0,1,69.985-79.14Z" transform="translate(-11.01 79.14)" fill="#fff"/>
          <path id="Path_1858" data-name="Path 1858" d="M50.351-59.517A1.545,1.545,0,0,1,51.9-57.979v6.413a1.545,1.545,0,0,1-1.552,1.538A1.544,1.544,0,0,1,48.8-51.567v-6.413A1.544,1.544,0,0,1,50.351-59.517Z" transform="translate(-16.857 84.749)" fill="#fff"/>
          <path id="Path_1859" data-name="Path 1859" d="M37.528-65.266a1.554,1.554,0,0,1,1.1.45,1.527,1.527,0,0,1,0,2.174l-4.577,4.535a1.56,1.56,0,0,1-2.193,0,1.527,1.527,0,0,1,0-2.174l4.578-4.535A1.554,1.554,0,0,1,37.528-65.266Z" transform="translate(-22.04 83.106)" fill="#fff"/>
          <path id="Path_1860" data-name="Path 1860" d="M25.74-79.14h6.472A1.545,1.545,0,0,1,33.765-77.6a1.545,1.545,0,0,1-1.552,1.538H25.74A1.545,1.545,0,0,1,24.188-77.6,1.545,1.545,0,0,1,25.74-79.14Z" transform="translate(-24.188 79.14)" fill="#fff"/>
        </g>
        <path id="Path_1861" data-name="Path 1861" d="M64.236-88.878a1.554,1.554,0,0,0,1.1-.45l4.577-4.535a1.527,1.527,0,0,0,0-2.174,1.562,1.562,0,0,0-2.195,0L63.139-91.5a1.527,1.527,0,0,0,0,2.174A1.554,1.554,0,0,0,64.236-88.878Z" transform="translate(-12.722 125.461)" fill="#fff"/>
        <path id="Path_1862" data-name="Path 1862" d="M37.528-88.878a1.554,1.554,0,0,0,1.1-.45,1.527,1.527,0,0,0,0-2.174l-4.577-4.535a1.56,1.56,0,0,0-2.193,0,1.527,1.527,0,0,0,0,2.174l4.578,4.535A1.554,1.554,0,0,0,37.528-88.878Z" transform="translate(-22.04 125.461)" fill="#fff"/>
        <path id="Path_1863" data-name="Path 1863" d="M28.371-119.02,43.837-92.48l10.9-19.408-4.157-7.132Z" transform="translate(-22.942 119.02)" fill="#fff"/>
        <path id="Path_1864" data-name="Path 1864" d="M65.3-79.015V-89.907L82.265-119.02H59.88L42.915-89.907V-79a17.96,17.96,0,0,0-7,14.179A18.107,18.107,0,0,0,54.109-46.8,18.107,18.107,0,0,0,72.3-64.819,17.962,17.962,0,0,0,65.3-79.015Zm-19.59-6.734H62.5V-80.8a18.318,18.318,0,0,0-8.394-2.042,18.311,18.311,0,0,0-8.4,2.05ZM63.194-64.161a1.389,1.389,0,0,1-1.4,1.382H56.7v5.047a1.389,1.389,0,0,1-1.4,1.382h-2.4a1.389,1.389,0,0,1-1.394-1.382v-5.047h-5.1a1.389,1.389,0,0,1-1.394-1.382v-2.38a1.388,1.388,0,0,1,1.394-1.381h5.1V-72.97a1.388,1.388,0,0,1,1.394-1.381h2.4a1.388,1.388,0,0,1,1.4,1.381v5.048H61.8a1.388,1.388,0,0,1,1.4,1.381Z" transform="translate(-20.694 119.02)" fill="#fff"/>
      </g>
    </g>
  </g>
</svg>
