<svg xmlns="http://www.w3.org/2000/svg" xmlns:xlink="http://www.w3.org/1999/xlink" width="94" height="94" viewBox="0 0 94 94">
  <defs>
    <clipPath id="clip-apprentice_icon">
      <rect width="94" height="94"/>
    </clipPath>
  </defs>
  <g id="apprentice_icon" clip-path="url(#clip-apprentice_icon)">
    <g id="Group_1270" data-name="Group 1270" transform="translate(-812.377 -700.913)">
      <g id="Group_1106" data-name="Group 1106" transform="translate(825.002 712.303)">
        <g id="Group_1105" data-name="Group 1105" transform="translate(0 0)">
          <g id="Group_1104" data-name="Group 1104">
            <g id="Group_1103" data-name="Group 1103">
              <path id="Path_1813" data-name="Path 1813" d="M406.683,68.234a5.96,5.96,0,0,1-5.19-3.119l-4.474-8.823-1.7-.8L383.6,80.265A.944.944,0,0,0,384.67,81.6l11.722-2.228a.849.849,0,0,1,.984.446L403.1,90.158a.945.945,0,0,0,1.7-.089l11.812-24.954-8.143,2.674A4.416,4.416,0,0,1,406.683,68.234Z" transform="translate(-383.493 -6.094)" fill="#fff"/>
              <path id="Path_1814" data-name="Path 1814" d="M443.985,80.285,432.263,55.42l-1.7.8-4.474,8.823a5.691,5.691,0,0,1-5.19,3.119,5.792,5.792,0,0,1-1.79-.267l-8.143-2.674,11.812,24.954a.974.974,0,0,0,1.7.089L430.2,79.929a.9.9,0,0,1,.984-.446l11.722,2.228A1.017,1.017,0,0,0,443.985,80.285Z" transform="translate(-375.338 -6.115)" fill="#fff"/>
              <path id="Path_1815" data-name="Path 1815" d="M430.079,74.662l4.653-9.09a3.078,3.078,0,0,1,1.074-1.069l9.127-4.634a2.356,2.356,0,0,0,1.163-2.852L442.965,47.3a2.2,2.2,0,0,1,0-1.515l3.132-9.714a2.416,2.416,0,0,0-1.163-2.852l-9.127-4.634a3.078,3.078,0,0,1-1.074-1.069L430.079,18.6a2.374,2.374,0,0,0-2.863-1.159l-9.754,3.119a2.227,2.227,0,0,1-1.521,0l-9.664-3.208a2.38,2.38,0,0,0-2.864,1.248L398.76,27.7a3.078,3.078,0,0,1-1.074,1.069L388.559,33.4a2.356,2.356,0,0,0-1.163,2.852l3.132,9.714a2.2,2.2,0,0,1,0,1.515L387.4,57.195a2.416,2.416,0,0,0,1.163,2.852l9.127,4.634a3.078,3.078,0,0,1,1.074,1.069l4.653,9.09A2.374,2.374,0,0,0,406.277,76l9.754-3.119a2.227,2.227,0,0,1,1.521,0L427.305,76A2.583,2.583,0,0,0,430.079,74.662Zm-13.333-9.982a18,18,0,1,1,18.076-18A18.046,18.046,0,0,1,416.746,64.681Z" transform="translate(-382.371 -17.247)" fill="#fff"/>
              <path id="Path_1816" data-name="Path 1816" d="M422.982,38.581l-6.282-1.2a.534.534,0,0,1-.4-.32l-3.141-5.615a.679.679,0,0,0-1.127,0l-3.141,5.615a.805.805,0,0,1-.4.32l-6.443,1.2a.6.6,0,0,0-.322,1.042l4.348,4.652a.588.588,0,0,1,.161.482l-.805,6.337a.622.622,0,0,0,.887.641l5.8-2.727a.689.689,0,0,1,.563,0l5.8,2.727a.607.607,0,0,0,.886-.641l-.805-6.337c0-.161,0-.4.161-.482l4.348-4.652C423.627,39.3,423.466,38.661,422.982,38.581Z" transform="translate(-378.143 -13.195)" fill="#fff"/>
            </g>
          </g>
        </g>
      </g>
      <g id="Group_1125" data-name="Group 1125" transform="translate(817.377 699.913)">
        <path id="Path_1842" data-name="Path 1842" d="M392.863,24.426a1.549,1.549,0,0,1-1.1-.452l-4.574-4.556a1.547,1.547,0,1,1,2.192-2.184l4.574,4.556a1.544,1.544,0,0,1-1.1,2.636Z" transform="translate(-374.905 -4.992)" fill="#fff"/>
        <path id="Path_1843" data-name="Path 1843" d="M385.632,41.93h-6.467a1.544,1.544,0,1,1,0-3.088h6.467a1.544,1.544,0,1,1,0,3.088Z" transform="translate(-377.614 1.441)" fill="#fff"/>
        <path id="Path_1844" data-name="Path 1844" d="M410.36,17.184a1.548,1.548,0,0,1-1.551-1.543V9.2a1.55,1.55,0,0,1,3.1,0V15.64A1.547,1.547,0,0,1,410.36,17.184Z" transform="translate(-368.354 -7.654)" fill="#fff"/>
        <path id="Path_1845" data-name="Path 1845" d="M428.9,24.426a1.544,1.544,0,0,1-1.1-2.636l4.573-4.556a1.548,1.548,0,1,1,2.193,2.184L430,23.974A1.549,1.549,0,0,1,428.9,24.426Z" transform="translate(-362.849 -4.992)" fill="#fff"/>
        <path id="Path_1846" data-name="Path 1846" d="M443.025,41.926h-6.467a1.544,1.544,0,1,1,0-3.088h6.467a1.544,1.544,0,1,1,0,3.088Z" transform="translate(-360.576 1.44)" fill="#fff"/>
      </g>
    </g>
  </g>
</svg>
