<svg xmlns="http://www.w3.org/2000/svg" xmlns:xlink="http://www.w3.org/1999/xlink" width="94" height="94" viewBox="0 0 94 94">
  <defs>
    <clipPath id="clip-beginner_icon">
      <rect width="94" height="94"/>
    </clipPath>
  </defs>
  <g id="beginner_icon" clip-path="url(#clip-beginner_icon)">
    <g id="Group_1269" data-name="Group 1269" transform="translate(-657.468 -700.913)">
      <g id="Group_1114" data-name="Group 1114" transform="translate(670.092 712.303)">
        <g id="Group_1113" data-name="Group 1113" transform="translate(0 0)">
          <g id="Group_1112" data-name="Group 1112">
            <g id="Group_1111" data-name="Group 1111">
              <path id="Path_1821" data-name="Path 1821" d="M286.683,68.234a5.96,5.96,0,0,1-5.19-3.119l-4.474-8.823-1.7-.8L263.6,80.265A.944.944,0,0,0,264.67,81.6l11.722-2.228a.849.849,0,0,1,.984.446L283.1,90.158a.945.945,0,0,0,1.7-.089l11.812-24.954-8.143,2.674A4.416,4.416,0,0,1,286.683,68.234Z" transform="translate(-263.493 -6.094)" fill="#fff"/>
              <path id="Path_1822" data-name="Path 1822" d="M323.985,80.285,312.263,55.42l-1.7.8-4.474,8.823a5.691,5.691,0,0,1-5.19,3.119,5.791,5.791,0,0,1-1.79-.267l-8.143-2.674,11.812,24.954a.974.974,0,0,0,1.7.089L310.2,79.929a.9.9,0,0,1,.984-.446l11.722,2.228A1.017,1.017,0,0,0,323.985,80.285Z" transform="translate(-255.338 -6.115)" fill="#fff"/>
              <path id="Path_1823" data-name="Path 1823" d="M310.079,74.662l4.653-9.09a3.078,3.078,0,0,1,1.074-1.069l9.127-4.634a2.356,2.356,0,0,0,1.163-2.852L322.965,47.3a2.2,2.2,0,0,1,0-1.515l3.132-9.714a2.416,2.416,0,0,0-1.163-2.852l-9.127-4.634a3.078,3.078,0,0,1-1.074-1.069L310.079,18.6a2.374,2.374,0,0,0-2.864-1.159l-9.754,3.119a2.227,2.227,0,0,1-1.521,0l-9.664-3.208a2.38,2.38,0,0,0-2.863,1.248L278.76,27.7a3.078,3.078,0,0,1-1.074,1.069L268.559,33.4a2.356,2.356,0,0,0-1.163,2.852l3.132,9.714a2.2,2.2,0,0,1,0,1.515L267.4,57.195a2.416,2.416,0,0,0,1.163,2.852l9.127,4.634a3.078,3.078,0,0,1,1.074,1.069l4.653,9.09A2.373,2.373,0,0,0,286.277,76l9.754-3.119a2.227,2.227,0,0,1,1.521,0L307.305,76A2.583,2.583,0,0,0,310.079,74.662Zm-13.333-9.982a18,18,0,1,1,18.076-18A18.046,18.046,0,0,1,296.746,64.681Z" transform="translate(-262.371 -17.247)" fill="#fff"/>
              <path id="Path_1824" data-name="Path 1824" d="M300.03,34.763a1.341,1.341,0,0,0-1.89,0l-7.851,7.82-3.844-3.83a1.341,1.341,0,0,0-1.889,0l-1.888,1.882a1.326,1.326,0,0,0,0,1.881l5.733,5.71a2.677,2.677,0,0,0,3.778,0l9.739-9.7a1.328,1.328,0,0,0,0-1.882Z" transform="translate(-257.918 -12.252)" fill="#fff"/>
            </g>
          </g>
        </g>
      </g>
      <g id="Group_1139" data-name="Group 1139" transform="translate(662.468 699.913)">
        <path id="Path_1872" data-name="Path 1872" d="M272.863,24.426a1.549,1.549,0,0,1-1.1-.452l-4.574-4.556a1.547,1.547,0,1,1,2.192-2.184l4.574,4.556a1.544,1.544,0,0,1-1.1,2.636Z" transform="translate(-254.905 -4.992)" fill="#fff"/>
        <path id="Path_1873" data-name="Path 1873" d="M265.632,41.93h-6.467a1.544,1.544,0,1,1,0-3.088h6.467a1.544,1.544,0,1,1,0,3.088Z" transform="translate(-257.614 1.441)" fill="#fff"/>
        <path id="Path_1874" data-name="Path 1874" d="M290.36,17.184a1.548,1.548,0,0,1-1.551-1.543V9.2a1.55,1.55,0,0,1,3.1,0V15.64A1.547,1.547,0,0,1,290.36,17.184Z" transform="translate(-248.354 -7.654)" fill="#fff"/>
        <path id="Path_1875" data-name="Path 1875" d="M308.9,24.426a1.544,1.544,0,0,1-1.1-2.636l4.573-4.556a1.548,1.548,0,1,1,2.193,2.184L310,23.974A1.549,1.549,0,0,1,308.9,24.426Z" transform="translate(-242.849 -4.992)" fill="#fff"/>
        <path id="Path_1876" data-name="Path 1876" d="M323.025,41.926h-6.467a1.544,1.544,0,1,1,0-3.088h6.467a1.544,1.544,0,1,1,0,3.088Z" transform="translate(-240.577 1.44)" fill="#fff"/>
      </g>
    </g>
  </g>
</svg>
