<svg xmlns="http://www.w3.org/2000/svg" xmlns:xlink="http://www.w3.org/1999/xlink" width="94" height="94" viewBox="0 0 94 94">
  <defs>
    <clipPath id="clip-champion_icon">
      <rect width="94" height="94"/>
    </clipPath>
  </defs>
  <g id="champion_icon" clip-path="url(#clip-champion_icon)">
    <g id="Group_1255" data-name="Group 1255" transform="translate(-812.249 -140.028)">
      <g id="Group_1132" data-name="Group 1132" transform="translate(831.813 181.659)">
        <g id="Group_1131" data-name="Group 1131">
          <g id="Group_1130" data-name="Group 1130">
            <path id="Path_1869" data-name="Path 1869" d="M441.565-391.031c-1.054,0-2.111,0-3.168,0h-5.713c.014-.409.03-.815.043-1.223.043-1.394-.089-1.508-1.49-1.508q-7.4-.006-14.8,0h-.423q-7.4,0-14.8,0c-1.4,0-1.532.115-1.49,1.508l.043,1.223h-5.712c-1.057,0-2.114,0-3.168,0-1.582.005-2.149.58-2.094,2.188a27.626,27.626,0,0,0,4.039,13.55,34.84,34.84,0,0,0,12.259,12.015,15.861,15.861,0,0,0,4.816,6.355,10.633,10.633,0,0,0,3.983,1.727c0,.11,0,.218,0,.327.005.565.013,1.151-.009,1.725a14.845,14.845,0,0,1-.75,4.749,5.38,5.38,0,0,1-2.748,3.084c-1.184.545-2.629.468-3.722,1.22-.968.664-1.708,2.694.106,2.694h18.911c1.814,0,1.074-2.03.106-2.694-1.093-.752-2.539-.674-3.722-1.22a5.376,5.376,0,0,1-2.748-3.084,14.844,14.844,0,0,1-.75-4.749c-.021-.574-.014-1.16-.009-1.725,0-.11,0-.218,0-.327a10.635,10.635,0,0,0,3.983-1.727,15.87,15.87,0,0,0,4.816-6.355,34.862,34.862,0,0,0,12.259-12.015,27.617,27.617,0,0,0,4.039-13.55C443.714-390.451,443.148-391.026,441.565-391.031Zm-38.609,22.487a28.392,28.392,0,0,1-10.295-15.369,18.192,18.192,0,0,1-.354-1.856,1.629,1.629,0,0,1,1.8-2.095c1.93-.019,3.862-.009,5.814-.006a80.487,80.487,0,0,0,3.26,19.5C403.1-368.428,403.027-368.485,402.956-368.544Zm37.193-17.224a18.168,18.168,0,0,1-.354,1.855A28.39,28.39,0,0,1,429.5-368.543c-.071.058-.147.116-.226.174a80.553,80.553,0,0,0,3.26-19.5c1.952,0,3.884-.013,5.814.006A1.63,1.63,0,0,1,440.149-385.769Z" transform="translate(-388.792 393.765)" fill="#fff"/>
          </g>
        </g>
      </g>
      <g id="Group_1155" data-name="Group 1155" transform="translate(829.249 140.028)">
        <g id="Group_1154" data-name="Group 1154">
          <g id="Group_1153" data-name="Group 1153">
            <g id="Group_1152" data-name="Group 1152">
              <path id="Path_1893" data-name="Path 1893" d="M426.987-401.674a1.722,1.722,0,0,0-.948-3.024l-7.018-.566a1.724,1.724,0,0,1-1.454-1.071l-2.719-6.49a1.721,1.721,0,0,0-3.16,0l-2.719,6.49a1.84,1.84,0,0,1-1.454,1.071l-6.955.629a1.707,1.707,0,0,0-.948,3.024l5.311,4.537a1.749,1.749,0,0,1,.569,1.7l-1.644,6.805a1.684,1.684,0,0,0,2.529,1.827l6.007-3.655a1.779,1.779,0,0,1,1.771,0l6.005,3.655a1.675,1.675,0,0,0,2.529-1.827l-1.643-6.805a1.748,1.748,0,0,1,.569-1.7Z" transform="translate(-383.236 429.584)" fill="#fff"/>
              <path id="Path_1894" data-name="Path 1894" d="M410.454-416.607a1.9,1.9,0,0,0,1.9-1.89v-5.671a1.9,1.9,0,0,0-1.9-1.89,1.941,1.941,0,0,0-1.9,1.89v5.671A1.941,1.941,0,0,0,410.454-416.607Z" transform="translate(-380.423 426.058)" fill="#fff"/>
              <path id="Path_1895" data-name="Path 1895" d="M397.793-412.494a1.932,1.932,0,0,0,1.329.567,1.822,1.822,0,0,0,1.327-.567,1.9,1.9,0,0,0,0-2.71l-4.047-4.033a1.913,1.913,0,0,0-2.718,0,1.9,1.9,0,0,0,0,2.71Z" transform="translate(-384.959 427.867)" fill="#fff"/>
              <path id="Path_1896" data-name="Path 1896" d="M396.294-402.518a1.9,1.9,0,0,0-1.9-1.89h-5.691a1.861,1.861,0,0,0-1.9,1.89,1.9,1.9,0,0,0,1.9,1.891H394.4A1.942,1.942,0,0,0,396.294-402.518Z" transform="translate(-386.81 432.318)" fill="#fff"/>
              <path id="Path_1897" data-name="Path 1897" d="M433.446-404.31h-5.691a1.9,1.9,0,0,0-1.9,1.89,1.941,1.941,0,0,0,1.9,1.89h5.691a1.9,1.9,0,0,0,1.9-1.89A1.941,1.941,0,0,0,433.446-404.31Z" transform="translate(-375.343 432.347)" fill="#fff"/>
              <path id="Path_1898" data-name="Path 1898" d="M422.672-411.879a1.824,1.824,0,0,0,1.329-.566l4.047-4.033a1.9,1.9,0,0,0,0-2.71,1.915,1.915,0,0,0-2.719,0l-3.983,4.1a1.9,1.9,0,0,0,0,2.708A1.851,1.851,0,0,0,422.672-411.879Z" transform="translate(-376.835 427.881)" fill="#fff"/>
            </g>
          </g>
        </g>
      </g>
    </g>
  </g>
</svg>
