<svg xmlns="http://www.w3.org/2000/svg" xmlns:xlink="http://www.w3.org/1999/xlink" width="94" height="94" viewBox="0 0 94 94">
  <defs>
    <clipPath id="clip-elite_icon">
      <rect width="94" height="94"/>
    </clipPath>
  </defs>
  <g id="elite_icon" clip-path="url(#clip-elite_icon)">
    <g id="Group_5895" data-name="Group 5895" transform="translate(-220.532 -178.079)">
      <g id="Group_1163" data-name="Group 1163" transform="translate(251.532 192.079)">
        <g id="Group_1162" data-name="Group 1162" transform="translate(0.072)">
          <g id="Group_1161" data-name="Group 1161">
            <g id="Group_1160" data-name="Group 1160">
              <path id="Path_1900" data-name="Path 1900" d="M-29.085-384.07c-.632,0-1.266,0-1.9,0H-34.4c.01-.25.017-.5.027-.745.025-.85-.054-.92-.893-.92q-4.43,0-8.86,0h-.254q-4.43,0-8.86,0c-.841,0-.918.07-.893.92.007.247.017.5.025.745h-3.42c-.632,0-1.266,0-1.9,0-.947,0-1.285.353-1.253,1.33a17.01,17.01,0,0,0,2.418,8.25,21.04,21.04,0,0,0,7.34,7.315,9.627,9.627,0,0,0,2.884,3.87,6.293,6.293,0,0,0,2.386,1.053v.2c0,.342.007.7,0,1.05a9.17,9.17,0,0,1-.449,2.892,3.269,3.269,0,0,1-1.646,1.878c-.708.33-1.574.282-2.228.742-.58.4-1.021,1.64.064,1.64H-38.6c1.086,0,.644-1.237.064-1.64-.654-.46-1.52-.412-2.228-.742a3.269,3.269,0,0,1-1.646-1.878A9.171,9.171,0,0,1-42.855-361c-.012-.35-.01-.708,0-1.05v-.2a6.293,6.293,0,0,0,2.386-1.053,9.666,9.666,0,0,0,2.884-3.87,21.04,21.04,0,0,0,7.34-7.315,17.01,17.01,0,0,0,2.418-8.25C-27.8-383.718-28.137-384.068-29.085-384.07Zm-23.121,13.69a17.3,17.3,0,0,1-6.163-9.357,11.1,11.1,0,0,1-.212-1.13c-.111-.82.262-1.267,1.078-1.275,1.157-.012,2.312,0,3.481,0a49.8,49.8,0,0,0,1.952,11.875Zm22.272-10.487a11.091,11.091,0,0,1-.212,1.13,17.3,17.3,0,0,1-6.166,9.357c-.042.035-.089.07-.136.108A49.55,49.55,0,0,0-34.5-382.148c1.17,0,2.327-.007,3.481,0C-30.2-382.135-29.825-381.688-29.934-380.868Z" transform="translate(60.686 385.736)" fill="#fff"/>
            </g>
          </g>
        </g>
        <path id="Subtraction_15" data-name="Subtraction 15" d="M33,34.979H0V0H33V34.979ZM15.712,10.5a2.334,2.334,0,0,1,1.61.516,1.806,1.806,0,0,1,.573,1.407,3.417,3.417,0,0,1-.287,1.375,7.539,7.539,0,0,1-1.015,1.571c-.481.605-1.523,1.754-3.1,3.414L7.972,24.425v4.062H24.4V23.394H15.836v-.157c2.541-2.3,4.148-3.814,4.915-4.625a15.458,15.458,0,0,0,1.849-2.32,8.859,8.859,0,0,0,1.03-2.243,8.917,8.917,0,0,0,.332-2.484,5.8,5.8,0,0,0-.952-3.242A6.186,6.186,0,0,0,20.333,6.1a9.476,9.476,0,0,0-3.924-.781,12.775,12.775,0,0,0-3.151.359,10.519,10.519,0,0,0-2.593,1.04A18.249,18.249,0,0,0,7.725,8.971l3.359,3.969a15.627,15.627,0,0,1,2.469-1.819A4.367,4.367,0,0,1,15.712,10.5Z" transform="translate(0 32.021)" fill="#fff" stroke="rgba(0,0,0,0)" stroke-width="1"/>
      </g>
    </g>
  </g>
</svg>
