<svg xmlns="http://www.w3.org/2000/svg" xmlns:xlink="http://www.w3.org/1999/xlink" width="94" height="94" viewBox="0 0 94 94">
  <defs>
    <clipPath id="clip-enlightened_icon">
      <rect width="94" height="94"/>
    </clipPath>
  </defs>
  <g id="enlightened_icon" clip-path="url(#clip-enlightened_icon)">
    <g id="Group_1256" data-name="Group 1256" transform="translate(-811.809 -333.208)">
      <rect id="Rectangle_601" data-name="Rectangle 601" width="62.031" height="6.663" transform="translate(827.794 401.545)" fill="#fff"/>
      <g id="Group_1151" data-name="Group 1151" transform="translate(818.809 353.208)">
        <g id="Group_1150" data-name="Group 1150">
          <g id="Group_1149" data-name="Group 1149">
            <path id="Path_1889" data-name="Path 1889" d="M381.8-248.4l2.262,14.042a4,4,0,0,1,.775-.075,4.672,4.672,0,0,1,4.687,4.661,4.671,4.671,0,0,1-3.975,4.61l1.125,6.953h61.987l1.137-7.027a4.671,4.671,0,0,1-3.587-4.536,4.672,4.672,0,0,1,4.688-4.661,1.922,1.922,0,0,1,.388.026l2.237-13.856a9.352,9.352,0,0,1-5.912-.224,13.267,13.267,0,0,1-13.2,11.3,13.277,13.277,0,0,1-13.188-11.239,9.234,9.234,0,0,1-3.124.537,9.234,9.234,0,0,1-3.063-.511,13.281,13.281,0,0,1-13.187,11.214,13.267,13.267,0,0,1-13.225-11.5A9.349,9.349,0,0,1,381.8-248.4ZM438.7-232a2.232,2.232,0,0,1,2.238,2.231,2.231,2.231,0,0,1-2.238,2.23,2.231,2.231,0,0,1-2.237-2.23A2.232,2.232,0,0,1,438.7-232Zm-8.824,0a2.232,2.232,0,0,1,2.237,2.231,2.231,2.231,0,0,1-2.237,2.23,2.231,2.231,0,0,1-2.238-2.23A2.232,2.232,0,0,1,429.877-232Zm-12.2-2.43a4.672,4.672,0,0,1,4.688,4.661,4.682,4.682,0,0,1-4.688,4.672,4.682,4.682,0,0,1-4.687-4.672A4.672,4.672,0,0,1,417.677-234.428Zm-12,2.43a2.232,2.232,0,0,1,2.238,2.231,2.231,2.231,0,0,1-2.238,2.23,2.231,2.231,0,0,1-2.237-2.23A2.232,2.232,0,0,1,405.677-232Zm-8.824,0a2.229,2.229,0,0,1,2.225,2.231,2.228,2.228,0,0,1-2.225,2.23,2.231,2.231,0,0,1-2.238-2.23A2.232,2.232,0,0,1,396.852-232Z" transform="translate(-377.865 264.282)" fill="#fff"/>
            <ellipse id="Ellipse_497" data-name="Ellipse 497" cx="6.975" cy="6.953" rx="6.975" ry="6.953" transform="translate(33.262 0)" fill="#fff"/>
            <path id="Path_1890" data-name="Path 1890" d="M437.354-247.013a6.965,6.965,0,0,0,6.962-6.953,6.965,6.965,0,0,0-6.962-6.953,6.967,6.967,0,0,0-6.975,6.953A6.967,6.967,0,0,0,437.354-247.013Z" transform="translate(-364.316 260.919)" fill="#fff"/>
            <ellipse id="Ellipse_498" data-name="Ellipse 498" cx="6.975" cy="6.953" rx="6.975" ry="6.953" transform="translate(0 0)" fill="#fff"/>
            <path id="Path_1891" data-name="Path 1891" d="M430.927-240.194l-2.737-6.793a3.068,3.068,0,0,0,2.435-2.743,3.071,3.071,0,0,0-2.81-3.32,3.072,3.072,0,0,0-3.321,2.8,3.065,3.065,0,0,0,1.938,3.117l-5.65,9.212A11.746,11.746,0,0,0,430.927-240.194Z" transform="translate(-366.993 263.078)" fill="#fff"/>
            <path id="Path_1892" data-name="Path 1892" d="M401.209-237.76l-5.749-9.374a3.087,3.087,0,0,0,1.939-3.117,3.086,3.086,0,0,0-3.33-2.8,3.072,3.072,0,0,0-2.81,3.32,3.061,3.061,0,0,0,2.443,2.743l-2.508,6.234A11.806,11.806,0,0,0,401.209-237.76Z" transform="translate(-375.245 263.078)" fill="#fff"/>
          </g>
        </g>
      </g>
    </g>
  </g>
</svg>
