<svg xmlns="http://www.w3.org/2000/svg" xmlns:xlink="http://www.w3.org/1999/xlink" width="94" height="94" viewBox="0 0 94 94">
  <defs>
    <clipPath id="clip-expert_icon">
      <rect width="94" height="94"/>
    </clipPath>
  </defs>
  <g id="expert_icon" clip-path="url(#clip-expert_icon)">
    <g id="Group_1264" data-name="Group 1264" transform="translate(-656.954 -532.388)">
      <g id="Group_1127" data-name="Group 1127" transform="translate(670.954 536.388)">
        <g id="Group_1126" data-name="Group 1126" transform="translate(0 51.28)">
          <path id="Path_1847" data-name="Path 1847" d="M304.236-65.266a1.554,1.554,0,0,1,1.1.45l4.578,4.535a1.527,1.527,0,0,1,0,2.174,1.562,1.562,0,0,1-2.195,0l-4.576-4.535a1.527,1.527,0,0,1,0-2.174A1.554,1.554,0,0,1,304.236-65.266Z" transform="translate(-252.722 83.106)" fill="#fff"/>
          <path id="Path_1848" data-name="Path 1848" d="M309.985-79.14h6.472A1.545,1.545,0,0,1,318.01-77.6a1.545,1.545,0,0,1-1.552,1.538h-6.472a1.545,1.545,0,0,1-1.552-1.538A1.545,1.545,0,0,1,309.985-79.14Z" transform="translate(-251.01 79.14)" fill="#fff"/>
          <path id="Path_1849" data-name="Path 1849" d="M290.351-59.517a1.545,1.545,0,0,1,1.552,1.538v6.413a1.545,1.545,0,0,1-1.552,1.538,1.544,1.544,0,0,1-1.551-1.538v-6.413A1.544,1.544,0,0,1,290.351-59.517Z" transform="translate(-256.857 84.749)" fill="#fff"/>
          <path id="Path_1850" data-name="Path 1850" d="M277.527-65.266a1.554,1.554,0,0,1,1.1.45,1.527,1.527,0,0,1,0,2.174l-4.578,4.535a1.56,1.56,0,0,1-2.193,0,1.527,1.527,0,0,1,0-2.174l4.578-4.535A1.554,1.554,0,0,1,277.527-65.266Z" transform="translate(-262.04 83.106)" fill="#fff"/>
          <path id="Path_1851" data-name="Path 1851" d="M265.74-79.14h6.472a1.545,1.545,0,0,1,1.552,1.537,1.545,1.545,0,0,1-1.552,1.538H265.74a1.545,1.545,0,0,1-1.552-1.538A1.545,1.545,0,0,1,265.74-79.14Z" transform="translate(-264.188 79.14)" fill="#fff"/>
        </g>
        <path id="Path_1852" data-name="Path 1852" d="M304.236-88.878a1.554,1.554,0,0,0,1.1-.45l4.578-4.535a1.527,1.527,0,0,0,0-2.174,1.562,1.562,0,0,0-2.195,0L303.139-91.5a1.527,1.527,0,0,0,0,2.174A1.554,1.554,0,0,0,304.236-88.878Z" transform="translate(-252.722 125.461)" fill="#fff"/>
        <path id="Path_1853" data-name="Path 1853" d="M277.527-88.878a1.554,1.554,0,0,0,1.1-.45,1.527,1.527,0,0,0,0-2.174l-4.578-4.535a1.56,1.56,0,0,0-2.193,0,1.527,1.527,0,0,0,0,2.174l4.578,4.535A1.554,1.554,0,0,0,277.527-88.878Z" transform="translate(-262.04 125.461)" fill="#fff"/>
        <path id="Path_1854" data-name="Path 1854" d="M268.371-119.02l15.465,26.54,10.9-19.408-4.157-7.132Z" transform="translate(-262.942 119.02)" fill="#fff"/>
        <path id="Path_1855" data-name="Path 1855" d="M305.3-79.015V-89.907l16.963-29.113H299.88L282.915-89.907V-79a17.96,17.96,0,0,0-7,14.179A18.107,18.107,0,0,0,294.109-46.8,18.107,18.107,0,0,0,312.3-64.819,17.962,17.962,0,0,0,305.3-79.015Zm-19.59-6.734H302.5V-80.8a18.318,18.318,0,0,0-8.395-2.042,18.311,18.311,0,0,0-8.4,2.05Zm18.368,18.007-9.747,9.657a2.69,2.69,0,0,1-3.781,0l-5.738-5.685a1.315,1.315,0,0,1,0-1.872l1.89-1.872a1.344,1.344,0,0,1,1.891,0l3.847,3.811,7.858-7.785a1.345,1.345,0,0,1,1.89,0l1.89,1.872A1.315,1.315,0,0,1,304.081-67.742Z" transform="translate(-260.694 119.02)" fill="#fff"/>
      </g>
    </g>
  </g>
</svg>
