<svg xmlns="http://www.w3.org/2000/svg" xmlns:xlink="http://www.w3.org/1999/xlink" width="94" height="94" viewBox="0 0 94 94">
  <defs>
    <clipPath id="clip-try_hard_icon">
      <rect width="94" height="94"/>
    </clipPath>
  </defs>
  <g id="try_hard_icon" clip-path="url(#clip-try_hard_icon)">
    <g id="Group_1258" data-name="Group 1258" transform="translate(-501.664 -333.747)">
      <g id="Group_1148" data-name="Group 1148" transform="translate(510.664 352.747)">
        <g id="Group_1147" data-name="Group 1147">
          <g id="Group_1146" data-name="Group 1146">
            <g id="Group_1145" data-name="Group 1145">
              <path id="Path_1887" data-name="Path 1887" d="M212.388-244.282a4.629,4.629,0,0,0-4.619,4.643,4.541,4.541,0,0,0,.457,1.977c-1.938,1.64-3.85,3.317-5.667,5.042-1.035-4.4-2.263-8.805-3.67-13.171a4.616,4.616,0,0,0,2.3-3.98,4.638,4.638,0,0,0-4.632-4.632,4.628,4.628,0,0,0-4.621,4.632,4.63,4.63,0,0,0,1.311,3.232c-2.309,3.534-4.475,7.164-6.472,10.83-1.613-5.729-3.5-11.446-5.631-17.066a4.611,4.611,0,0,0,2.07-3.859,4.638,4.638,0,0,0-4.621-4.643,4.638,4.638,0,0,0-4.621,4.643,4.625,4.625,0,0,0,2.082,3.859c-2.141,5.62-4.03,11.338-5.63,17.066-2.021-3.691-4.2-7.333-6.521-10.879a4.628,4.628,0,0,0,1.455-3.365,4.626,4.626,0,0,0-4.619-4.631,4.629,4.629,0,0,0-4.632,4.631,4.66,4.66,0,0,0,2.25,3.969c-1.432,4.414-2.684,8.9-3.718,13.375-1.853-1.761-3.8-3.462-5.775-5.126a4.666,4.666,0,0,0,.4-1.869,4.628,4.628,0,0,0-4.621-4.632,4.627,4.627,0,0,0-4.619,4.632,4.6,4.6,0,0,0,4.4,4.607c.336,1.954.686,4.172,1.011,6.368.637,4.2,1.764,14.34,2.788,14.34h60.741c1.022,0,2.15-10.154,2.788-14.352.336-2.207.673-4.45,1.022-6.4a4.619,4.619,0,0,0,4.247-4.594A4.631,4.631,0,0,0,212.388-244.282Zm-52.746,25.448a4.263,4.263,0,0,1-4.258-4.269,4.274,4.274,0,0,1,4.258-4.282,4.276,4.276,0,0,1,4.271,4.282A4.266,4.266,0,0,1,159.642-218.834Zm18.878,0a4.257,4.257,0,0,1-4.26-4.269,4.267,4.267,0,0,1,4.26-4.282,4.267,4.267,0,0,1,4.26,4.282A4.257,4.257,0,0,1,178.52-218.834Zm18.878,0a4.266,4.266,0,0,1-4.271-4.269,4.276,4.276,0,0,1,4.271-4.282,4.274,4.274,0,0,1,4.258,4.282A4.263,4.263,0,0,1,197.4-218.834Z" transform="translate(-140.02 261.276)" fill="#fff"/>
            </g>
          </g>
        </g>
        <rect id="Rectangle_600" data-name="Rectangle 600" width="60.735" height="6.729" transform="translate(8.133 49.271)" fill="#fff"/>
      </g>
    </g>
  </g>
</svg>
