<svg xmlns="http://www.w3.org/2000/svg" xmlns:xlink="http://www.w3.org/1999/xlink" width="94" height="94" viewBox="0 0 94 94">
  <defs>
    <clipPath id="clip-grandmaster_icon">
      <rect width="94" height="94"/>
    </clipPath>
  </defs>
  <g id="grandmaster_icon" clip-path="url(#clip-grandmaster_icon)">
    <g id="Group_1254" data-name="Group 1254" transform="translate(-656.898 -143.751)">
      <g id="Group_1135" data-name="Group 1135" transform="translate(676.898 164.751)">
        <g id="Group_1134" data-name="Group 1134">
          <g id="Group_1133" data-name="Group 1133">
            <path id="Path_1870" data-name="Path 1870" d="M321.689-404.191c-1.057-.005-2.116,0-3.176,0h-5.726c.014-.406.03-.809.043-1.215.043-1.385-.089-1.5-1.494-1.5q-7.413-.008-14.833,0h-.424q-7.416,0-14.833,0c-1.4,0-1.535.113-1.494,1.5l.043,1.215h-5.725c-1.059,0-2.119-.005-3.176,0-1.586,0-2.154.575-2.1,2.171a27.241,27.241,0,0,0,4.048,13.455,34.77,34.77,0,0,0,12.288,11.93,15.78,15.78,0,0,0,4.828,6.312,10.708,10.708,0,0,0,3.993,1.714c0,.109,0,.218,0,.326.005.561.013,1.142-.009,1.713a14.618,14.618,0,0,1-.752,4.716,5.363,5.363,0,0,1-2.754,3.062c-1.186.541-2.635.465-3.731,1.211-.97.659-1.712,2.674.106,2.674H305.77c1.818,0,1.076-2.015.106-2.674-1.1-.746-2.545-.67-3.731-1.211a5.363,5.363,0,0,1-2.754-3.062,14.618,14.618,0,0,1-.752-4.716c-.021-.571-.014-1.152-.009-1.713,0-.109,0-.218,0-.326a10.69,10.69,0,0,0,3.993-1.714,15.788,15.788,0,0,0,4.828-6.312,34.791,34.791,0,0,0,12.288-11.93,27.236,27.236,0,0,0,4.048-13.455C323.843-403.616,323.275-404.187,321.689-404.191Zm-38.7,22.329a28.183,28.183,0,0,1-10.319-15.262,17.885,17.885,0,0,1-.355-1.842,1.622,1.622,0,0,1,1.806-2.08c1.935-.019,3.871-.009,5.827-.006a79.239,79.239,0,0,0,3.268,19.365C283.137-381.748,283.061-381.8,282.989-381.862Zm37.28-17.1a17.912,17.912,0,0,1-.355,1.843A28.18,28.18,0,0,1,309.6-381.862c-.071.059-.148.115-.227.174a79.3,79.3,0,0,0,3.268-19.365c1.957,0,3.893-.013,5.827.006A1.622,1.622,0,0,1,320.269-398.967Z" transform="translate(-268.792 406.906)" fill="#fff"/>
          </g>
        </g>
      </g>
    </g>
  </g>
</svg>
