<svg xmlns="http://www.w3.org/2000/svg" xmlns:xlink="http://www.w3.org/1999/xlink" width="94" height="94" viewBox="0 0 94 94">
  <defs>
    <clipPath id="clip-intermediate_icon">
      <rect width="94" height="94"/>
    </clipPath>
  </defs>
  <g id="intermediate_icon" clip-path="url(#clip-intermediate_icon)">
    <g id="Group_1261" data-name="Group 1261" transform="translate(-192.625 -525.388)">
      <path id="Path_1865" data-name="Path 1865" d="M-91.629-119.02-76.2-92.194l10.877-19.617-4.146-7.209Z" transform="translate(303.254 655.408)" fill="#fff"/>
      <path id="Path_1866" data-name="Path 1866" d="M-54.772-78.585v-11.01l16.92-29.426H-60.18L-77.1-89.594v11.026a18.239,18.239,0,0,0-6.979,14.331A18.18,18.18,0,0,0-65.937-46.02,18.18,18.18,0,0,0-47.794-64.236,18.242,18.242,0,0,0-54.772-78.585Zm-19.54-6.806h16.748v5a18.078,18.078,0,0,0-8.373-2.064,18.071,18.071,0,0,0-8.375,2.072Zm-1.222,24.258a2.318,2.318,0,0,1-2.313-2.321,2.318,2.318,0,0,1,2.313-2.323,2.318,2.318,0,0,1,2.313,2.323A2.318,2.318,0,0,1-75.534-61.133Zm9.6,2.182a4.5,4.5,0,0,1-4.486-4.5,4.5,4.5,0,0,1,4.486-4.5,4.5,4.5,0,0,1,4.486,4.5A4.5,4.5,0,0,1-65.937-58.95Zm9.6-2.182a2.317,2.317,0,0,1-2.312-2.321,2.318,2.318,0,0,1,2.312-2.323,2.318,2.318,0,0,1,2.313,2.323A2.318,2.318,0,0,1-56.342-61.133Z" transform="translate(305.477 655.408)" fill="#fff"/>
    </g>
  </g>
</svg>
