<svg xmlns="http://www.w3.org/2000/svg" xmlns:xlink="http://www.w3.org/1999/xlink" width="94" height="94" viewBox="0 0 94 94">
  <defs>
    <clipPath id="clip-super_try_hard_icon">
      <rect width="94" height="94"/>
    </clipPath>
  </defs>
  <g id="super_try_hard_icon" clip-path="url(#clip-super_try_hard_icon)">
    <g id="Group_1257" data-name="Group 1257" transform="translate(-657.057 -331.067)">
      <g id="Group_1144" data-name="Group 1144" transform="translate(670.057 348.067)">
        <path id="Path_1883" data-name="Path 1883" d="M320.833-232.026c0-10.534-7.75-19.1-17.275-19.1-.376,0-.752.034-1.126.062a28.834,28.834,0,0,1,4.559,15.9,28.316,28.316,0,0,1-5.789,17.585h13.661A19.982,19.982,0,0,0,320.833-232.026Z" transform="translate(-252.833 268.664)" fill="#fff"/>
        <path id="Path_1884" data-name="Path 1884" d="M283.124-217.583a28.33,28.33,0,0,1-5.789-17.585,28.836,28.836,0,0,1,4.559-15.9c-.374-.028-.75-.062-1.125-.062-9.527,0-17.276,8.57-17.276,19.1a19.976,19.976,0,0,0,5.972,14.443Z" transform="translate(-263.493 268.664)" fill="#fff"/>
        <path id="Path_1885" data-name="Path 1885" d="M268.829-216.347h54.314V-223H268.829Z" transform="translate(-261.985 276.347)" fill="#fff"/>
        <ellipse id="Ellipse_496" data-name="Ellipse 496" cx="6.801" cy="6.75" rx="6.801" ry="6.75" transform="translate(27.23)" fill="#fff"/>
        <path id="Path_1886" data-name="Path 1886" d="M283.393-216.654h20.719c4.17-4.039,6.869-10.454,6.869-17.673,0-8.98-4.156-16.713-10.129-20.178a9.553,9.553,0,0,1-7.1,3.122,9.673,9.673,0,0,1-7.114-3.108c-5.958,3.466-10.114,11.2-10.114,20.164C276.526-227.108,279.223-220.692,283.393-216.654Z" transform="translate(-259.809 267.742)" fill="#fff"/>
      </g>
    </g>
  </g>
</svg>
