<svg xmlns="http://www.w3.org/2000/svg" xmlns:xlink="http://www.w3.org/1999/xlink" width="94" height="94" viewBox="0 0 94 94">
  <defs>
    <clipPath id="clip-master_icon">
      <rect width="94" height="94"/>
    </clipPath>
  </defs>
  <g id="master_icon" clip-path="url(#clip-master_icon)">
    <g id="Group_1251" data-name="Group 1251" transform="translate(-220.531 -178.079)">
      <g id="Group_1163" data-name="Group 1163" transform="translate(251.531 192.079)">
        <g id="Group_1162" data-name="Group 1162" transform="translate(0.073)">
          <g id="Group_1161" data-name="Group 1161">
            <g id="Group_1160" data-name="Group 1160">
              <path id="Path_1900" data-name="Path 1900" d="M-29.086-384.07c-.632,0-1.266,0-1.9,0h-3.422c.01-.25.017-.5.027-.745.025-.85-.054-.92-.893-.92q-4.43,0-8.86,0h-.254q-4.43,0-8.86,0c-.841,0-.918.07-.893.92.007.247.017.5.025.745h-3.42c-.632,0-1.266,0-1.9,0-.947,0-1.285.353-1.253,1.33a17.011,17.011,0,0,0,2.418,8.25,21.04,21.04,0,0,0,7.34,7.315,9.627,9.627,0,0,0,2.884,3.87,6.292,6.292,0,0,0,2.386,1.053v.2c0,.342.007.7,0,1.05a9.171,9.171,0,0,1-.449,2.892,3.269,3.269,0,0,1-1.646,1.878c-.708.33-1.574.282-2.228.742-.58.4-1.021,1.64.064,1.64H-38.6c1.086,0,.644-1.237.064-1.64-.654-.46-1.52-.412-2.228-.742a3.269,3.269,0,0,1-1.646-1.878A9.171,9.171,0,0,1-42.856-361c-.012-.35-.01-.708,0-1.05v-.2a6.292,6.292,0,0,0,2.386-1.053,9.666,9.666,0,0,0,2.884-3.87,21.039,21.039,0,0,0,7.34-7.315,17.011,17.011,0,0,0,2.418-8.25C-27.8-383.718-28.139-384.068-29.086-384.07Zm-23.12,13.69a17.3,17.3,0,0,1-6.163-9.357,11.1,11.1,0,0,1-.212-1.13c-.111-.82.262-1.267,1.078-1.275,1.157-.012,2.312,0,3.481,0a49.8,49.8,0,0,0,1.952,11.875Zm22.271-10.487a11.092,11.092,0,0,1-.212,1.13,17.3,17.3,0,0,1-6.166,9.357c-.042.035-.089.07-.136.108A49.552,49.552,0,0,0-34.5-382.148c1.169,0,2.327-.007,3.481,0C-30.2-382.135-29.827-381.688-29.935-380.868Z" transform="translate(60.686 385.736)" fill="#fff"/>
            </g>
          </g>
        </g>
        <path id="Subtraction_16" data-name="Subtraction 16" d="M33,34.979H0V0H33V34.979ZM15.5,12.363v0c-.061,1.192-.092,2.547-.092,4.027V28.487H21.61V5.644H16.1l-7.77,6.39L11.5,15.971l2.57-2.14a13.427,13.427,0,0,0,1.423-1.466Z" transform="translate(0 32.021)" fill="#fff" stroke="rgba(0,0,0,0)" stroke-width="1"/>
      </g>
    </g>
  </g>
</svg>
