<svg xmlns="http://www.w3.org/2000/svg" xmlns:xlink="http://www.w3.org/1999/xlink" width="94" height="94" viewBox="0 0 94 94">
  <defs>
    <clipPath id="clip-new_oiner_icon">
      <rect width="94" height="94"/>
    </clipPath>
  </defs>
  <g id="new_oiner_icon" data-name="new)oiner_icon" clip-path="url(#clip-new_oiner_icon)">
    <g id="Group_1266" data-name="Group 1266" transform="translate(-192.328 -707.296)">
      <g id="Group_1122" data-name="Group 1122" transform="translate(205.328 712.296)">
        <g id="Group_1121" data-name="Group 1121" transform="translate(0 0)">
          <g id="Group_1120" data-name="Group 1120">
            <g id="Group_1119" data-name="Group 1119">
              <path id="Path_1829" data-name="Path 1829" d="M-73.57,68.292A5.883,5.883,0,0,1-78.7,65.159l-4.425-8.864-1.682-.806L-96.4,80.379a.944.944,0,0,0,1.062,1.343l11.594-2.238a.836.836,0,0,1,.974.448l5.664,10.386a.929.929,0,0,0,1.682-.09l11.683-25.069L-71.8,67.845A4.313,4.313,0,0,1-73.57,68.292Z" transform="translate(96.507 -5.866)" fill="#fff"/>
              <path id="Path_1830" data-name="Path 1830" d="M-36.375,80.4-47.969,55.42l-1.682.806-4.425,8.864a5.618,5.618,0,0,1-5.133,3.134,5.647,5.647,0,0,1-1.77-.269l-8.054-2.686,11.683,25.069a.956.956,0,0,0,1.682.09l5.664-10.386a.886.886,0,0,1,.974-.448l11.594,2.238A1.018,1.018,0,0,0-36.375,80.4Z" transform="translate(104.273 -5.887)" fill="#fff"/>
              <path id="Path_1831" data-name="Path 1831" d="M-50.388,74.927l4.6-9.132a3.069,3.069,0,0,1,1.062-1.074l9.028-4.656A2.382,2.382,0,0,0-34.545,57.2l-3.1-9.759a2.244,2.244,0,0,1,0-1.522l3.1-9.759A2.442,2.442,0,0,0-35.7,33.294l-9.028-4.656a3.069,3.069,0,0,1-1.062-1.074l-4.6-8.953a2.333,2.333,0,0,0-2.832-1.164l-9.647,3.134a2.17,2.17,0,0,1-1.5,0l-9.559-3.223a2.341,2.341,0,0,0-2.832,1.253l-4.6,9.132a3.069,3.069,0,0,1-1.062,1.074l-9.028,4.656a2.382,2.382,0,0,0-1.151,2.865l3.1,9.759a2.244,2.244,0,0,1,0,1.522l-3.1,9.759a2.442,2.442,0,0,0,1.151,2.865l9.028,4.656a3.069,3.069,0,0,1,1.062,1.074l4.6,9.132a2.333,2.333,0,0,0,2.832,1.164l9.647-3.134a2.17,2.17,0,0,1,1.5,0l9.647,3.134A2.543,2.543,0,0,0-50.388,74.927ZM-63.575,64.9A17.99,17.99,0,0,1-81.454,46.814,17.99,17.99,0,0,1-63.575,28.728,18.047,18.047,0,0,1-45.7,46.814,17.99,17.99,0,0,1-63.575,64.9Z" transform="translate(97.575 -17.247)" fill="#fff"/>
              <path id="Path_1832" data-name="Path 1832" d="M-60.42,39.525h-5.036V34.432a1.386,1.386,0,0,0-1.378-1.395h-2.376a1.386,1.386,0,0,0-1.378,1.395v5.093h-5.036A1.386,1.386,0,0,0-77,40.92v2.4a1.386,1.386,0,0,0,1.378,1.394h5.036V49.81A1.386,1.386,0,0,0-69.209,51.2h2.376a1.386,1.386,0,0,0,1.378-1.394V44.715h5.036a1.386,1.386,0,0,0,1.378-1.394v-2.4A1.386,1.386,0,0,0-60.42,39.525Z" transform="translate(102.021 -12.548)" fill="#fff"/>
            </g>
          </g>
        </g>
      </g>
    </g>
  </g>
</svg>
