<svg xmlns="http://www.w3.org/2000/svg" xmlns:xlink="http://www.w3.org/1999/xlink" width="94" height="94" viewBox="0 0 94 94">
  <defs>
    <clipPath id="clip-newbie_icon">
      <rect width="94" height="94"/>
    </clipPath>
  </defs>
  <g id="newbie_icon" clip-path="url(#clip-newbie_icon)">
    <g id="Group_1267" data-name="Group 1267" transform="translate(-347.648 -700.913)">
      <g id="Group_1118" data-name="Group 1118" transform="translate(360.273 712.303)">
        <g id="Group_1117" data-name="Group 1117" transform="translate(0 0)">
          <g id="Group_1116" data-name="Group 1116">
            <g id="Group_1115" data-name="Group 1115">
              <path id="Path_1825" data-name="Path 1825" d="M46.683,68.234a5.96,5.96,0,0,1-5.19-3.119l-4.474-8.823-1.7-.8L23.6,80.265A.944.944,0,0,0,24.67,81.6l11.722-2.228a.849.849,0,0,1,.984.446L43.1,90.158a.945.945,0,0,0,1.7-.089L56.616,65.114l-8.143,2.674A4.416,4.416,0,0,1,46.683,68.234Z" transform="translate(-23.494 -6.094)" fill="#fff"/>
              <path id="Path_1826" data-name="Path 1826" d="M83.985,80.285,72.263,55.42l-1.7.8-4.474,8.823a5.691,5.691,0,0,1-5.19,3.119,5.792,5.792,0,0,1-1.79-.267l-8.143-2.674L62.778,90.178a.974.974,0,0,0,1.7.089L70.2,79.929a.9.9,0,0,1,.984-.446l11.722,2.228A1.017,1.017,0,0,0,83.985,80.285Z" transform="translate(-15.338 -6.115)" fill="#fff"/>
              <path id="Path_1827" data-name="Path 1827" d="M70.079,74.662l4.653-9.09A3.079,3.079,0,0,1,75.806,64.5l9.127-4.634A2.356,2.356,0,0,0,86.1,57.016L82.965,47.3a2.2,2.2,0,0,1,0-1.515L86.1,36.073a2.416,2.416,0,0,0-1.163-2.852l-9.127-4.634a3.078,3.078,0,0,1-1.074-1.069L70.079,18.6a2.374,2.374,0,0,0-2.863-1.159l-9.754,3.119a2.227,2.227,0,0,1-1.521,0l-9.664-3.208A2.38,2.38,0,0,0,43.413,18.6L38.76,27.7a3.078,3.078,0,0,1-1.074,1.069L28.559,33.4A2.356,2.356,0,0,0,27.4,36.251l3.132,9.714a2.2,2.2,0,0,1,0,1.515L27.4,57.195a2.416,2.416,0,0,0,1.163,2.852l9.127,4.634A3.078,3.078,0,0,1,38.76,65.75l4.653,9.09A2.374,2.374,0,0,0,46.277,76L56.03,72.88a2.227,2.227,0,0,1,1.521,0L67.305,76A2.583,2.583,0,0,0,70.079,74.662ZM56.746,64.681a18,18,0,1,1,18.076-18A18.046,18.046,0,0,1,56.746,64.681Z" transform="translate(-22.371 -17.247)" fill="#fff"/>
              <path id="Path_1828" data-name="Path 1828" d="M59.763,39.5H54.672v-5.07a1.391,1.391,0,0,0-1.393-1.389h-2.4a1.391,1.391,0,0,0-1.393,1.389V39.5H44.393A1.391,1.391,0,0,0,43,40.884v2.391a1.39,1.39,0,0,0,1.393,1.387h5.091v5.071a1.39,1.39,0,0,0,1.393,1.387h2.4a1.39,1.39,0,0,0,1.393-1.387V44.662h5.091a1.39,1.39,0,0,0,1.393-1.387V40.884A1.391,1.391,0,0,0,59.763,39.5Z" transform="translate(-17.703 -12.642)" fill="#fff"/>
            </g>
          </g>
        </g>
      </g>
      <g id="Group_1140" data-name="Group 1140" transform="translate(352.648 699.913)">
        <path id="Path_1877" data-name="Path 1877" d="M32.863,24.426a1.549,1.549,0,0,1-1.1-.452l-4.574-4.556a1.547,1.547,0,1,1,2.192-2.184l4.574,4.556a1.544,1.544,0,0,1-1.1,2.636Z" transform="translate(-14.905 -4.992)" fill="#fff"/>
        <path id="Path_1878" data-name="Path 1878" d="M25.632,41.93H19.165a1.544,1.544,0,1,1,0-3.088h6.467a1.544,1.544,0,1,1,0,3.088Z" transform="translate(-17.614 1.441)" fill="#fff"/>
        <path id="Path_1879" data-name="Path 1879" d="M50.36,17.184a1.548,1.548,0,0,1-1.551-1.543V9.2a1.55,1.55,0,0,1,3.1,0V15.64A1.547,1.547,0,0,1,50.36,17.184Z" transform="translate(-8.354 -7.654)" fill="#fff"/>
        <path id="Path_1880" data-name="Path 1880" d="M68.9,24.426a1.544,1.544,0,0,1-1.1-2.636l4.573-4.556a1.548,1.548,0,1,1,2.193,2.184L70,23.974A1.549,1.549,0,0,1,68.9,24.426Z" transform="translate(-2.849 -4.992)" fill="#fff"/>
        <path id="Path_1881" data-name="Path 1881" d="M83.025,41.926H76.558a1.544,1.544,0,1,1,0-3.088h6.467a1.544,1.544,0,1,1,0,3.088Z" transform="translate(-0.577 1.44)" fill="#fff"/>
      </g>
    </g>
  </g>
</svg>
