<svg xmlns="http://www.w3.org/2000/svg" xmlns:xlink="http://www.w3.org/1999/xlink" width="94" height="94" viewBox="0 0 94 94">
  <defs>
    <clipPath id="clip-professional_icon">
      <rect width="94" height="94"/>
    </clipPath>
  </defs>
  <g id="professional_icon" clip-path="url(#clip-professional_icon)">
    <g id="Group_1265" data-name="Group 1265" transform="translate(-811.864 -532.388)">
      <g id="Group_1124" data-name="Group 1124" transform="translate(825.864 536.388)">
        <g id="Group_1123" data-name="Group 1123" transform="translate(0 51.28)">
          <path id="Path_1833" data-name="Path 1833" d="M424.236-65.266a1.554,1.554,0,0,1,1.1.45l4.577,4.535a1.527,1.527,0,0,1,0,2.174,1.562,1.562,0,0,1-2.195,0l-4.576-4.535a1.527,1.527,0,0,1,0-2.174A1.554,1.554,0,0,1,424.236-65.266Z" transform="translate(-372.722 83.106)" fill="#fff"/>
          <path id="Path_1834" data-name="Path 1834" d="M429.985-79.14h6.472A1.545,1.545,0,0,1,438.01-77.6a1.545,1.545,0,0,1-1.552,1.538h-6.472a1.545,1.545,0,0,1-1.552-1.538A1.545,1.545,0,0,1,429.985-79.14Z" transform="translate(-371.01 79.14)" fill="#fff"/>
          <path id="Path_1835" data-name="Path 1835" d="M410.351-59.517a1.545,1.545,0,0,1,1.552,1.538v6.413a1.545,1.545,0,0,1-1.552,1.538,1.544,1.544,0,0,1-1.551-1.538v-6.413A1.544,1.544,0,0,1,410.351-59.517Z" transform="translate(-376.857 84.749)" fill="#fff"/>
          <path id="Path_1836" data-name="Path 1836" d="M397.527-65.266a1.554,1.554,0,0,1,1.1.45,1.527,1.527,0,0,1,0,2.174l-4.578,4.535a1.56,1.56,0,0,1-2.193,0,1.527,1.527,0,0,1,0-2.174l4.577-4.535A1.554,1.554,0,0,1,397.527-65.266Z" transform="translate(-382.04 83.106)" fill="#fff"/>
          <path id="Path_1837" data-name="Path 1837" d="M385.74-79.14h6.472a1.545,1.545,0,0,1,1.552,1.537,1.545,1.545,0,0,1-1.552,1.538H385.74a1.545,1.545,0,0,1-1.552-1.538A1.545,1.545,0,0,1,385.74-79.14Z" transform="translate(-384.188 79.14)" fill="#fff"/>
        </g>
        <path id="Path_1838" data-name="Path 1838" d="M424.236-88.878a1.554,1.554,0,0,0,1.1-.45l4.577-4.535a1.527,1.527,0,0,0,0-2.174,1.562,1.562,0,0,0-2.195,0L423.139-91.5a1.527,1.527,0,0,0,0,2.174A1.554,1.554,0,0,0,424.236-88.878Z" transform="translate(-372.722 125.461)" fill="#fff"/>
        <path id="Path_1839" data-name="Path 1839" d="M397.527-88.878a1.554,1.554,0,0,0,1.1-.45,1.527,1.527,0,0,0,0-2.174l-4.578-4.535a1.56,1.56,0,0,0-2.193,0,1.527,1.527,0,0,0,0,2.174l4.577,4.535A1.554,1.554,0,0,0,397.527-88.878Z" transform="translate(-382.04 125.461)" fill="#fff"/>
        <path id="Path_1840" data-name="Path 1840" d="M388.371-119.02l15.465,26.54,10.9-19.408-4.157-7.132Z" transform="translate(-382.942 119.02)" fill="#fff"/>
        <path id="Path_1841" data-name="Path 1841" d="M425.3-79.015V-89.907l16.963-29.113H419.88L402.915-89.907V-79a17.96,17.96,0,0,0-7,14.179A18.107,18.107,0,0,0,414.109-46.8,18.107,18.107,0,0,0,432.3-64.819,17.962,17.962,0,0,0,425.3-79.015Zm-19.59-6.734H422.5V-80.8a18.318,18.318,0,0,0-8.394-2.042,18.311,18.311,0,0,0-8.4,2.05Zm19,18.752-4.352,4.632c-.161.08-.161.319-.161.478L421-55.579a.607.607,0,0,1-.886.639l-5.8-2.716a.7.7,0,0,0-.565,0l-5.8,2.716a.622.622,0,0,1-.886-.639l.806-6.308a.579.579,0,0,0-.162-.478L403.352-67a.6.6,0,0,1,.322-1.039l6.448-1.2a.8.8,0,0,0,.4-.319l3.143-5.59a.68.68,0,0,1,1.128,0l3.143,5.59a.533.533,0,0,0,.4.319l6.286,1.2C425.113-67.955,425.274-67.317,424.709-67Z" transform="translate(-380.694 119.02)" fill="#fff"/>
      </g>
    </g>
  </g>
</svg>
