<svg xmlns="http://www.w3.org/2000/svg" xmlns:xlink="http://www.w3.org/1999/xlink" width="38" height="47" viewBox="0 0 38 47">
  <defs>
    <clipPath id="clip-ribbon_icon">
      <rect width="38" height="47"/>
    </clipPath>
  </defs>
  <g id="ribbon_icon" clip-path="url(#clip-ribbon_icon)">
    <g id="Group_1165" data-name="Group 1165" transform="translate(-163.494 -324.762)">
      <g id="Group_1110" data-name="Group 1110" transform="translate(163.493 324.762)">
        <g id="Group_1109" data-name="Group 1109" transform="translate(0 0)">
          <g id="Group_1108" data-name="Group 1108">
            <g id="Group_1107" data-name="Group 1107">
              <path id="Path_1817" data-name="Path 1817" d="M156.311,62.568a3.292,3.292,0,0,1-2.869-1.733l-2.473-4.9-.94-.446L143.55,69.252a.523.523,0,0,0,.594.743l6.479-1.238a.469.469,0,0,1,.544.248l3.165,5.743a.521.521,0,0,0,.94-.05L161.8,60.836l-4.5,1.485A2.431,2.431,0,0,1,156.311,62.568Z" transform="translate(-143.494 -28.051)" fill="#fff"/>
              <path id="Path_1818" data-name="Path 1818" d="M189.217,69.232,182.737,55.42l-.94.446-2.473,4.9a3.143,3.143,0,0,1-2.869,1.733,3.186,3.186,0,0,1-.989-.149l-4.5-1.485,6.529,13.862a.537.537,0,0,0,.94.049l3.165-5.743a.5.5,0,0,1,.544-.248l6.479,1.238A.564.564,0,0,0,189.217,69.232Z" transform="translate(-151.274 -28.031)" fill="#fff"/>
              <path id="Path_1819" data-name="Path 1819" d="M170.934,49.141l2.572-5.05a1.705,1.705,0,0,1,.593-.594l5.045-2.574a1.311,1.311,0,0,0,.643-1.584l-1.731-5.4a1.228,1.228,0,0,1,0-.842l1.731-5.4a1.345,1.345,0,0,0-.643-1.584L174.1,23.546a1.705,1.705,0,0,1-.593-.594L170.934,18a1.309,1.309,0,0,0-1.583-.644L163.96,19.09a1.225,1.225,0,0,1-.841,0l-5.342-1.782a1.313,1.313,0,0,0-1.583.693l-2.572,5.05a1.706,1.706,0,0,1-.593.594l-5.045,2.574a1.312,1.312,0,0,0-.643,1.584l1.731,5.4a1.228,1.228,0,0,1,0,.842l-1.731,5.4a1.345,1.345,0,0,0,.643,1.584l5.045,2.574a1.706,1.706,0,0,1,.593.594l2.572,5.05a1.309,1.309,0,0,0,1.583.644l5.391-1.733a1.225,1.225,0,0,1,.841,0l5.391,1.733A1.426,1.426,0,0,0,170.934,49.141Zm-7.37-5.545a10,10,0,1,1,9.991-10A10,10,0,0,1,163.564,43.6Z" transform="translate(-144.564 -17.247)" fill="#fff"/>
              <path id="Path_1820" data-name="Path 1820" d="M172.089,34.59a.738.738,0,0,0-1.044,0l-4.34,4.344-2.125-2.127a.738.738,0,0,0-1.044,0l-1.044,1.045a.739.739,0,0,0,0,1.045l3.169,3.172a1.475,1.475,0,0,0,2.088,0l5.383-5.388a.74.74,0,0,0,0-1.045Z" transform="translate(-148.813 -22.085)" fill="#fff"/>
            </g>
          </g>
        </g>
      </g>
    </g>
  </g>
</svg>
