<svg xmlns="http://www.w3.org/2000/svg" xmlns:xlink="http://www.w3.org/1999/xlink" width="94" height="94" viewBox="0 0 94 94">
  <defs>
    <clipPath id="clip-specialist_icon">
      <rect width="94" height="94"/>
    </clipPath>
  </defs>
  <g id="specialist_icon" clip-path="url(#clip-specialist_icon)">
    <g id="Group_5896" data-name="Group 5896" transform="translate(-220.532 -178.079)">
      <g id="Group_1163" data-name="Group 1163" transform="translate(251.532 192.079)">
        <g id="Group_1162" data-name="Group 1162" transform="translate(0.072)">
          <g id="Group_1161" data-name="Group 1161">
            <g id="Group_1160" data-name="Group 1160">
              <path id="Path_1900" data-name="Path 1900" d="M-29.085-384.07c-.632,0-1.266,0-1.9,0H-34.4c.01-.25.017-.5.027-.745.025-.85-.054-.92-.893-.92q-4.43,0-8.86,0h-.254q-4.43,0-8.86,0c-.841,0-.918.07-.893.92.007.247.017.5.025.745h-3.42c-.632,0-1.266,0-1.9,0-.947,0-1.285.353-1.253,1.33a17.01,17.01,0,0,0,2.418,8.25,21.04,21.04,0,0,0,7.34,7.315,9.627,9.627,0,0,0,2.884,3.87,6.293,6.293,0,0,0,2.386,1.053v.2c0,.342.007.7,0,1.05a9.17,9.17,0,0,1-.449,2.892,3.269,3.269,0,0,1-1.646,1.878c-.708.33-1.574.282-2.228.742-.58.4-1.021,1.64.064,1.64H-38.6c1.086,0,.644-1.237.064-1.64-.654-.46-1.52-.412-2.228-.742a3.269,3.269,0,0,1-1.646-1.878A9.171,9.171,0,0,1-42.855-361c-.012-.35-.01-.708,0-1.05v-.2a6.293,6.293,0,0,0,2.386-1.053,9.666,9.666,0,0,0,2.884-3.87,21.04,21.04,0,0,0,7.34-7.315,17.01,17.01,0,0,0,2.418-8.25C-27.8-383.718-28.137-384.068-29.085-384.07Zm-23.121,13.69a17.3,17.3,0,0,1-6.163-9.357,11.1,11.1,0,0,1-.212-1.13c-.111-.82.262-1.267,1.078-1.275,1.157-.012,2.312,0,3.481,0a49.8,49.8,0,0,0,1.952,11.875Zm22.272-10.487a11.091,11.091,0,0,1-.212,1.13,17.3,17.3,0,0,1-6.166,9.357c-.042.035-.089.07-.136.108A49.55,49.55,0,0,0-34.5-382.148c1.17,0,2.327-.007,3.481,0C-30.2-382.135-29.825-381.688-29.934-380.868Z" transform="translate(60.686 385.736)" fill="#fff"/>
            </g>
          </g>
        </g>
        <path id="Subtraction_14" data-name="Subtraction 14" d="M33,34.979H0V0H33V34.979ZM8.111,22.44h0v5.125a17.777,17.777,0,0,0,3.367.969,20.2,20.2,0,0,0,3.382.266A11.619,11.619,0,0,0,21.8,26.972a5.9,5.9,0,0,0,2.5-5.015,4.888,4.888,0,0,0-1.417-3.7,7.384,7.384,0,0,0-4.25-1.71v-.093a7.334,7.334,0,0,0,3.716-2.211A5.5,5.5,0,0,0,23.639,10.6a4.5,4.5,0,0,0-2-3.874,9.477,9.477,0,0,0-5.51-1.407,15.943,15.943,0,0,0-4.311.531A12.32,12.32,0,0,0,8.143,7.628l2.538,4.125a8.46,8.46,0,0,1,4.489-1.468,3.429,3.429,0,0,1,1.849.438,1.484,1.484,0,0,1,.689,1.344,1.937,1.937,0,0,1-1.165,1.8,7.921,7.921,0,0,1-3.494.6H11.625v4.641h1.394a12.381,12.381,0,0,1,2.786.258,3.11,3.11,0,0,1,1.549.766,2.034,2.034,0,0,1,.479,1.445,1.958,1.958,0,0,1-.921,1.789,5.779,5.779,0,0,1-2.933.571,12.353,12.353,0,0,1-2.841-.367A13.471,13.471,0,0,1,8.111,22.44Z" transform="translate(0 32.021)" fill="#fff" stroke="rgba(0,0,0,0)" stroke-width="1"/>
      </g>
    </g>
  </g>
</svg>
