<svg xmlns="http://www.w3.org/2000/svg" xmlns:xlink="http://www.w3.org/1999/xlink" width="292" height="17" viewBox="0 0 292 17">
  <defs>
    <clipPath id="clip-stripes_bottom">
      <rect width="292" height="17"/>
    </clipPath>
  </defs>
  <g id="stripes_bottom" clip-path="url(#clip-stripes_bottom)">
    <g id="Group_297" data-name="Group 297" transform="translate(-0.412 -835.71)" opacity="0.2">
      <g id="Group_214" data-name="Group 214" transform="translate(0.412 846.074)">
        <g id="Group_213" data-name="Group 213">
          <path id="Path_240" data-name="Path 240" d="M.412,847.743l5.231,4.626a1.708,1.708,0,0,0,1.222.185c.465-.083.677-.3.464-.486L.412,845.95Z" transform="translate(-0.412 -845.95)" fill="#fff"/>
        </g>
      </g>
      <g id="Group_216" data-name="Group 216" transform="translate(0.412 839.94)">
        <g id="Group_215" data-name="Group 215">
          <path id="Path_241" data-name="Path 241" d="M.412,841.609l12.164,10.76a1.71,1.71,0,0,0,1.222.185c.468-.083.677-.3.464-.486L.412,839.816Z" transform="translate(-0.412 -839.816)" fill="#fff"/>
        </g>
      </g>
      <g id="Group_218" data-name="Group 218" transform="translate(1.182 835.71)">
        <g id="Group_217" data-name="Group 217">
          <path id="Path_242" data-name="Path 242" d="M1.182,836.081c0-.142.2-.277.545-.339a1.7,1.7,0,0,1,1.222.186L21.2,852.188c.212.185,0,.406-.463.49a1.7,1.7,0,0,1-1.223-.186L1.263,836.232A.2.2,0,0,1,1.182,836.081Z" transform="translate(-1.182 -835.71)" fill="#fff"/>
        </g>
      </g>
      <g id="Group_220" data-name="Group 220" transform="translate(8.116 835.71)">
        <g id="Group_219" data-name="Group 219">
          <path id="Path_243" data-name="Path 243" d="M8.116,836.081c0-.142.2-.277.545-.339a1.7,1.7,0,0,1,1.222.186L28.13,852.188c.215.185,0,.406-.464.49a1.7,1.7,0,0,1-1.222-.186L8.2,836.232A.2.2,0,0,1,8.116,836.081Z" transform="translate(-8.116 -835.71)" fill="#fff"/>
        </g>
      </g>
      <g id="Group_222" data-name="Group 222" transform="translate(15.048 835.71)">
        <g id="Group_221" data-name="Group 221">
          <path id="Path_244" data-name="Path 244" d="M15.048,836.081c0-.142.2-.277.545-.339a1.7,1.7,0,0,1,1.222.186l18.249,16.259c.213.185,0,.406-.464.49a1.7,1.7,0,0,1-1.222-.186L15.129,836.232A.2.2,0,0,1,15.048,836.081Z" transform="translate(-15.048 -835.71)" fill="#fff"/>
        </g>
      </g>
      <g id="Group_224" data-name="Group 224" transform="translate(21.982 835.71)">
        <g id="Group_223" data-name="Group 223">
          <path id="Path_245" data-name="Path 245" d="M21.982,836.081c0-.142.2-.277.545-.339a1.7,1.7,0,0,1,1.222.186L42,852.188c.213.185,0,.406-.464.49a1.7,1.7,0,0,1-1.222-.186L22.063,836.232A.2.2,0,0,1,21.982,836.081Z" transform="translate(-21.982 -835.71)" fill="#fff"/>
        </g>
      </g>
      <g id="Group_226" data-name="Group 226" transform="translate(28.916 835.71)">
        <g id="Group_225" data-name="Group 225">
          <path id="Path_246" data-name="Path 246" d="M28.916,836.081c0-.142.2-.277.545-.339a1.7,1.7,0,0,1,1.222.186l18.249,16.259c.213.185,0,.406-.464.49a1.7,1.7,0,0,1-1.222-.186L29,836.232A.2.2,0,0,1,28.916,836.081Z" transform="translate(-28.916 -835.71)" fill="#fff"/>
        </g>
      </g>
      <g id="Group_228" data-name="Group 228" transform="translate(35.85 835.71)">
        <g id="Group_227" data-name="Group 227">
          <path id="Path_247" data-name="Path 247" d="M35.85,836.081c0-.142.2-.277.545-.339a1.7,1.7,0,0,1,1.222.186l18.249,16.259c.215.185,0,.406-.464.49a1.7,1.7,0,0,1-1.222-.186L35.931,836.232A.2.2,0,0,1,35.85,836.081Z" transform="translate(-35.85 -835.71)" fill="#fff"/>
        </g>
      </g>
      <g id="Group_230" data-name="Group 230" transform="translate(42.783 835.71)">
        <g id="Group_229" data-name="Group 229">
          <path id="Path_248" data-name="Path 248" d="M42.783,836.081c0-.142.2-.277.546-.339a1.7,1.7,0,0,1,1.222.186L62.8,852.188c.215.185,0,.406-.464.49a1.7,1.7,0,0,1-1.222-.186L42.865,836.232A.205.205,0,0,1,42.783,836.081Z" transform="translate(-42.783 -835.71)" fill="#fff"/>
        </g>
      </g>
      <g id="Group_232" data-name="Group 232" transform="translate(49.847 835.71)">
        <g id="Group_231" data-name="Group 231">
          <path id="Path_249" data-name="Path 249" d="M49.717,836.081c0-.142.2-.277.546-.339a1.7,1.7,0,0,1,1.222.186l18.249,16.259c.213.185,0,.406-.464.49a1.7,1.7,0,0,1-1.222-.186L49.8,836.232A.205.205,0,0,1,49.717,836.081Z" transform="translate(-49.717 -835.71)" fill="#fff"/>
        </g>
      </g>
      <g id="Group_234" data-name="Group 234" transform="translate(56.799 835.71)">
        <g id="Group_233" data-name="Group 233">
          <path id="Path_250" data-name="Path 250" d="M56.651,836.081c0-.142.2-.277.545-.339a1.7,1.7,0,0,1,1.223.186l18.249,16.259c.213.185,0,.406-.464.49a1.7,1.7,0,0,1-1.222-.186L56.733,836.232A.2.2,0,0,1,56.651,836.081Z" transform="translate(-56.651 -835.71)" fill="#fff"/>
        </g>
      </g>
      <g id="Group_236" data-name="Group 236" transform="translate(63.752 835.71)">
        <g id="Group_235" data-name="Group 235">
          <path id="Path_251" data-name="Path 251" d="M63.585,836.081c0-.142.2-.277.545-.339a1.7,1.7,0,0,1,1.223.186L83.6,852.188c.213.185,0,.406-.464.49a1.7,1.7,0,0,1-1.222-.186L63.667,836.232A.205.205,0,0,1,63.585,836.081Z" transform="translate(-63.585 -835.71)" fill="#fff"/>
        </g>
      </g>
      <g id="Group_238" data-name="Group 238" transform="translate(70.704 835.71)">
        <g id="Group_237" data-name="Group 237">
          <path id="Path_252" data-name="Path 252" d="M70.519,836.081c0-.142.2-.277.545-.339a1.7,1.7,0,0,1,1.223.186l18.249,16.259c.215.185,0,.406-.464.49a1.7,1.7,0,0,1-1.222-.186L70.6,836.232A.2.2,0,0,1,70.519,836.081Z" transform="translate(-70.519 -835.71)" fill="#fff"/>
        </g>
      </g>
      <g id="Group_240" data-name="Group 240" transform="translate(77.656 835.71)">
        <g id="Group_239" data-name="Group 239">
          <path id="Path_253" data-name="Path 253" d="M77.453,836.081c0-.142.2-.277.545-.339a1.7,1.7,0,0,1,1.223.186l18.247,16.259c.213.185,0,.406-.464.49a1.7,1.7,0,0,1-1.222-.186L77.534,836.232A.2.2,0,0,1,77.453,836.081Z" transform="translate(-77.453 -835.71)" fill="#fff"/>
        </g>
      </g>
      <g id="Group_242" data-name="Group 242" transform="translate(84.608 835.71)">
        <g id="Group_241" data-name="Group 241">
          <path id="Path_254" data-name="Path 254" d="M84.387,836.081c0-.142.2-.277.545-.339a1.7,1.7,0,0,1,1.223.186L104.4,852.188c.211.185,0,.406-.464.49a1.7,1.7,0,0,1-1.222-.186L84.468,836.232A.2.2,0,0,1,84.387,836.081Z" transform="translate(-84.387 -835.71)" fill="#fff"/>
        </g>
      </g>
      <g id="Group_244" data-name="Group 244" transform="translate(91.561 835.71)">
        <g id="Group_243" data-name="Group 243">
          <path id="Path_255" data-name="Path 255" d="M91.321,836.081c0-.142.2-.277.545-.339a1.7,1.7,0,0,1,1.222.186l18.248,16.259c.215.185,0,.406-.464.49a1.7,1.7,0,0,1-1.222-.186L91.4,836.232A.2.2,0,0,1,91.321,836.081Z" transform="translate(-91.321 -835.71)" fill="#fff"/>
        </g>
      </g>
      <g id="Group_246" data-name="Group 246" transform="translate(98.513 835.71)">
        <g id="Group_245" data-name="Group 245">
          <path id="Path_256" data-name="Path 256" d="M98.255,836.081c0-.142.2-.277.545-.339a1.7,1.7,0,0,1,1.222.186l18.248,16.259c.215.185,0,.406-.464.49a1.7,1.7,0,0,1-1.222-.186L98.336,836.232A.2.2,0,0,1,98.255,836.081Z" transform="translate(-98.255 -835.71)" fill="#fff"/>
        </g>
      </g>
      <g id="Group_248" data-name="Group 248" transform="translate(105.465 835.71)">
        <g id="Group_247" data-name="Group 247">
          <path id="Path_257" data-name="Path 257" d="M105.189,836.081c0-.142.2-.277.545-.339a1.7,1.7,0,0,1,1.222.186L125.2,852.188c.213.185,0,.406-.464.49a1.7,1.7,0,0,1-1.222-.186L105.27,836.232A.2.2,0,0,1,105.189,836.081Z" transform="translate(-105.189 -835.71)" fill="#fff"/>
        </g>
      </g>
      <g id="Group_250" data-name="Group 250" transform="translate(112.416 835.71)">
        <g id="Group_249" data-name="Group 249">
          <path id="Path_258" data-name="Path 258" d="M112.121,836.081c0-.142.2-.277.545-.339a1.7,1.7,0,0,1,1.222.186l18.25,16.259c.209.185,0,.406-.465.49a1.7,1.7,0,0,1-1.222-.186L112.2,836.232A.2.2,0,0,1,112.121,836.081Z" transform="translate(-112.121 -835.71)" fill="#fff"/>
        </g>
      </g>
      <g id="Group_252" data-name="Group 252" transform="translate(119.368 835.71)">
        <g id="Group_251" data-name="Group 251">
          <path id="Path_259" data-name="Path 259" d="M119.055,836.081c0-.142.2-.277.545-.339a1.7,1.7,0,0,1,1.222.186l18.249,16.259c.209.185,0,.406-.464.49a1.7,1.7,0,0,1-1.222-.186l-18.249-16.259A.2.2,0,0,1,119.055,836.081Z" transform="translate(-119.055 -835.71)" fill="#fff"/>
        </g>
      </g>
      <g id="Group_254" data-name="Group 254" transform="translate(126.32 835.71)">
        <g id="Group_253" data-name="Group 253">
          <path id="Path_260" data-name="Path 260" d="M125.989,836.081c0-.142.2-.277.545-.339a1.7,1.7,0,0,1,1.222.186l18.249,16.259c.212.185,0,.406-.464.49a1.7,1.7,0,0,1-1.222-.186L126.07,836.232A.2.2,0,0,1,125.989,836.081Z" transform="translate(-125.989 -835.71)" fill="#fff"/>
        </g>
      </g>
      <g id="Group_256" data-name="Group 256" transform="translate(133.272 835.71)">
        <g id="Group_255" data-name="Group 255">
          <path id="Path_261" data-name="Path 261" d="M132.923,836.081c0-.142.2-.277.545-.339a1.7,1.7,0,0,1,1.222.186l18.249,16.259c.211.185,0,.406-.464.49a1.7,1.7,0,0,1-1.222-.186L133,836.232A.207.207,0,0,1,132.923,836.081Z" transform="translate(-132.923 -835.71)" fill="#fff"/>
        </g>
      </g>
      <g id="Group_258" data-name="Group 258" transform="translate(140.225 835.71)">
        <g id="Group_257" data-name="Group 257">
          <path id="Path_262" data-name="Path 262" d="M139.857,836.081c0-.142.2-.277.545-.339a1.7,1.7,0,0,1,1.222.186l18.249,16.259c.21.185,0,.406-.464.49a1.7,1.7,0,0,1-1.222-.186l-18.249-16.259A.207.207,0,0,1,139.857,836.081Z" transform="translate(-139.857 -835.71)" fill="#fff"/>
        </g>
      </g>
      <g id="Group_260" data-name="Group 260" transform="translate(147.177 835.71)">
        <g id="Group_259" data-name="Group 259">
          <path id="Path_263" data-name="Path 263" d="M146.791,836.081c0-.142.2-.277.545-.339a1.7,1.7,0,0,1,1.222.186l18.248,16.259c.211.185,0,.406-.464.49a1.7,1.7,0,0,1-1.222-.186l-18.248-16.259A.207.207,0,0,1,146.791,836.081Z" transform="translate(-146.791 -835.71)" fill="#fff"/>
        </g>
      </g>
      <g id="Group_262" data-name="Group 262" transform="translate(154.129 835.71)">
        <g id="Group_261" data-name="Group 261">
          <path id="Path_264" data-name="Path 264" d="M153.725,836.081c0-.142.2-.277.545-.339a1.7,1.7,0,0,1,1.222.186l18.248,16.259c.21.185,0,.406-.464.49a1.7,1.7,0,0,1-1.222-.186l-18.248-16.259A.207.207,0,0,1,153.725,836.081Z" transform="translate(-153.725 -835.71)" fill="#fff"/>
        </g>
      </g>
      <g id="Group_264" data-name="Group 264" transform="translate(161.082 835.71)">
        <g id="Group_263" data-name="Group 263">
          <path id="Path_265" data-name="Path 265" d="M160.659,836.081c0-.142.2-.277.545-.339a1.7,1.7,0,0,1,1.222.186l18.248,16.259c.209.185,0,.406-.464.49a1.7,1.7,0,0,1-1.222-.186L160.74,836.232A.207.207,0,0,1,160.659,836.081Z" transform="translate(-160.659 -835.71)" fill="#fff"/>
        </g>
      </g>
      <g id="Group_266" data-name="Group 266" transform="translate(168.033 835.71)">
        <g id="Group_265" data-name="Group 265">
          <path id="Path_266" data-name="Path 266" d="M167.592,836.081c0-.142.2-.277.546-.339a1.7,1.7,0,0,1,1.222.186l18.248,16.259c.211.185,0,.406-.464.49a1.7,1.7,0,0,1-1.222-.186l-18.248-16.259A.209.209,0,0,1,167.592,836.081Z" transform="translate(-167.592 -835.71)" fill="#fff"/>
        </g>
      </g>
      <g id="Group_268" data-name="Group 268" transform="translate(174.985 835.71)">
        <g id="Group_267" data-name="Group 267">
          <path id="Path_267" data-name="Path 267" d="M174.526,836.081c0-.142.2-.277.546-.339a1.7,1.7,0,0,1,1.222.186l18.248,16.259c.21.185,0,.406-.464.49a1.7,1.7,0,0,1-1.222-.186l-18.248-16.259A.209.209,0,0,1,174.526,836.081Z" transform="translate(-174.526 -835.71)" fill="#fff"/>
        </g>
      </g>
      <g id="Group_270" data-name="Group 270" transform="translate(181.936 835.71)">
        <g id="Group_269" data-name="Group 269">
          <path id="Path_268" data-name="Path 268" d="M181.459,836.081c0-.142.2-.277.546-.339a1.7,1.7,0,0,1,1.222.186l18.249,16.259c.209.185,0,.406-.464.49a1.7,1.7,0,0,1-1.222-.186l-18.249-16.259A.209.209,0,0,1,181.459,836.081Z" transform="translate(-181.459 -835.71)" fill="#fff"/>
        </g>
      </g>
      <g id="Group_272" data-name="Group 272" transform="translate(188.889 835.71)">
        <g id="Group_271" data-name="Group 271">
          <path id="Path_269" data-name="Path 269" d="M188.393,836.081c0-.142.2-.277.546-.339a1.7,1.7,0,0,1,1.222.186l18.249,16.259c.209.185,0,.406-.464.49a1.7,1.7,0,0,1-1.222-.186l-18.249-16.259A.209.209,0,0,1,188.393,836.081Z" transform="translate(-188.393 -835.71)" fill="#fff"/>
        </g>
      </g>
      <g id="Group_274" data-name="Group 274" transform="translate(195.841 835.71)">
        <g id="Group_273" data-name="Group 273">
          <path id="Path_270" data-name="Path 270" d="M195.327,836.081c0-.142.2-.277.546-.339a1.7,1.7,0,0,1,1.222.186l18.248,16.259c.209.185,0,.406-.464.49a1.7,1.7,0,0,1-1.222-.186l-18.249-16.259A.207.207,0,0,1,195.327,836.081Z" transform="translate(-195.327 -835.71)" fill="#fff"/>
        </g>
      </g>
      <g id="Group_276" data-name="Group 276" transform="translate(202.793 835.71)">
        <g id="Group_275" data-name="Group 275">
          <path id="Path_271" data-name="Path 271" d="M202.261,836.081c0-.142.2-.277.545-.339a1.7,1.7,0,0,1,1.223.186l18.248,16.259c.208.185,0,.406-.464.49a1.7,1.7,0,0,1-1.222-.186l-18.249-16.259A.207.207,0,0,1,202.261,836.081Z" transform="translate(-202.261 -835.71)" fill="#fff"/>
        </g>
      </g>
      <g id="Group_278" data-name="Group 278" transform="translate(209.746 835.71)">
        <g id="Group_277" data-name="Group 277">
          <path id="Path_272" data-name="Path 272" d="M209.2,836.081c0-.142.2-.277.545-.339a1.7,1.7,0,0,1,1.223.186l18.248,16.259c.211.185,0,.406-.464.49a1.7,1.7,0,0,1-1.222-.186l-18.249-16.259A.207.207,0,0,1,209.2,836.081Z" transform="translate(-209.195 -835.71)" fill="#fff"/>
        </g>
      </g>
      <g id="Group_280" data-name="Group 280" transform="translate(216.698 835.71)">
        <g id="Group_279" data-name="Group 279">
          <path id="Path_273" data-name="Path 273" d="M216.129,836.081c0-.142.2-.277.545-.339a1.7,1.7,0,0,1,1.222.186l18.249,16.259c.21.185,0,.406-.464.49a1.7,1.7,0,0,1-1.222-.186L216.21,836.232A.207.207,0,0,1,216.129,836.081Z" transform="translate(-216.129 -835.71)" fill="#fff"/>
        </g>
      </g>
      <g id="Group_282" data-name="Group 282" transform="translate(223.65 835.71)">
        <g id="Group_281" data-name="Group 281">
          <path id="Path_274" data-name="Path 274" d="M223.063,836.081c0-.142.2-.277.545-.339a1.7,1.7,0,0,1,1.222.186l18.249,16.259c.21.185,0,.406-.464.49a1.7,1.7,0,0,1-1.222-.186l-18.249-16.259A.207.207,0,0,1,223.063,836.081Z" transform="translate(-223.063 -835.71)" fill="#fff"/>
        </g>
      </g>
      <g id="Group_284" data-name="Group 284" transform="translate(230.711 835.71)">
        <g id="Group_283" data-name="Group 283">
          <path id="Path_275" data-name="Path 275" d="M230,836.081c0-.142.2-.277.545-.339a1.7,1.7,0,0,1,1.222.186l18.25,16.259c.209.185,0,.406-.464.49a1.7,1.7,0,0,1-1.222-.186l-18.25-16.259A.207.207,0,0,1,230,836.081Z" transform="translate(-229.996 -835.71)" fill="#fff"/>
        </g>
      </g>
      <g id="Group_286" data-name="Group 286" transform="translate(237.645 835.71)">
        <g id="Group_285" data-name="Group 285">
          <path id="Path_276" data-name="Path 276" d="M236.93,836.081c0-.142.2-.277.545-.339a1.7,1.7,0,0,1,1.222.186l18.25,16.259c.208.185,0,.406-.464.49a1.7,1.7,0,0,1-1.223-.186l-18.249-16.259A.207.207,0,0,1,236.93,836.081Z" transform="translate(-236.93 -835.71)" fill="#fff"/>
        </g>
      </g>
      <g id="Group_288" data-name="Group 288" transform="translate(244.579 835.71)">
        <g id="Group_287" data-name="Group 287">
          <path id="Path_277" data-name="Path 277" d="M243.864,836.081c0-.142.2-.277.545-.339a1.7,1.7,0,0,1,1.222.186l18.248,16.259c.209.185,0,.406-.463.49a1.7,1.7,0,0,1-1.223-.186l-18.248-16.259A.207.207,0,0,1,243.864,836.081Z" transform="translate(-243.864 -835.71)" fill="#fff"/>
        </g>
      </g>
      <g id="Group_290" data-name="Group 290" transform="translate(251.513 835.71)">
        <g id="Group_289" data-name="Group 289">
          <path id="Path_278" data-name="Path 278" d="M250.8,836.081c0-.142.2-.277.545-.339a1.7,1.7,0,0,1,1.222.186l18.248,16.259c.212.185,0,.406-.463.49a1.7,1.7,0,0,1-1.223-.186l-18.248-16.259A.207.207,0,0,1,250.8,836.081Z" transform="translate(-250.798 -835.71)" fill="#fff"/>
        </g>
      </g>
      <g id="Group_292" data-name="Group 292" transform="translate(258.447 835.71)">
        <g id="Group_291" data-name="Group 291">
          <path id="Path_279" data-name="Path 279" d="M257.732,836.081c0-.142.2-.277.545-.339a1.7,1.7,0,0,1,1.222.186l18.248,16.259c.211.185,0,.406-.463.49a1.7,1.7,0,0,1-1.223-.186l-18.248-16.259A.207.207,0,0,1,257.732,836.081Z" transform="translate(-257.732 -835.71)" fill="#fff"/>
        </g>
      </g>
      <g id="Group_294" data-name="Group 294" transform="translate(265.381 835.71)">
        <g id="Group_293" data-name="Group 293">
          <path id="Path_280" data-name="Path 280" d="M264.666,836.081c0-.142.2-.277.545-.339a1.7,1.7,0,0,1,1.222.186l18.248,16.259c.211.185,0,.406-.463.49a1.7,1.7,0,0,1-1.223-.186l-18.248-16.259A.207.207,0,0,1,264.666,836.081Z" transform="translate(-264.666 -835.71)" fill="#fff"/>
        </g>
      </g>
      <g id="Group_296" data-name="Group 296" transform="translate(272.315 835.71)">
        <g id="Group_295" data-name="Group 295">
          <path id="Path_281" data-name="Path 281" d="M271.6,836.081c0-.142.2-.277.545-.339a1.7,1.7,0,0,1,1.222.186l18.248,16.259c.21.185,0,.406-.464.49a1.7,1.7,0,0,1-1.222-.186l-18.248-16.259A.207.207,0,0,1,271.6,836.081Z" transform="translate(-271.6 -835.71)" fill="#fff"/>
        </g>
      </g>
    </g>
  </g>
</svg>
