<svg xmlns="http://www.w3.org/2000/svg" xmlns:xlink="http://www.w3.org/1999/xlink" width="94" height="94" viewBox="0 0 94 94">
  <defs>
    <clipPath id="clip-supreme_champion_icon">
      <rect width="94" height="94"/>
    </clipPath>
  </defs>
  <g id="supreme_champion_icon" clip-path="url(#clip-supreme_champion_icon)">
    <g id="Group_1259" data-name="Group 1259" transform="translate(-347.376 -335.736)">
      <rect id="Rectangle_602" data-name="Rectangle 602" width="43.1" height="6.685" transform="translate(372.826 400.052)" fill="#fff"/>
      <path id="Path_1888" data-name="Path 1888" d="M83.049-249.42A3.64,3.64,0,0,0,79.4-245.8a3.6,3.6,0,0,0,1.048,2.535l-11.37,13-3.864-18.523a3.607,3.607,0,0,0,2.668-3.467,3.626,3.626,0,0,0-3.638-3.614,3.626,3.626,0,0,0-3.638,3.614,3.61,3.61,0,0,0,2.759,3.5l-6.634,21.544-6.71-21.609a3.606,3.606,0,0,0,2.545-3.43,3.627,3.627,0,0,0-3.64-3.614,3.627,3.627,0,0,0-3.638,3.614,3.62,3.62,0,0,0,2.885,3.535l-3.856,18.486L32.952-243.263A3.6,3.6,0,0,0,34-245.8a3.641,3.641,0,0,0-3.65-3.624A3.641,3.641,0,0,0,26.7-245.8a3.642,3.642,0,0,0,3.65,3.626,3.643,3.643,0,0,0,1.168-.207l3.528,24.564h43.3l3.539-24.564a3.627,3.627,0,0,0,1.165.207A3.642,3.642,0,0,0,86.7-245.8,3.641,3.641,0,0,0,83.049-249.42Z" transform="translate(337.677 615.598)" fill="#fff"/>
    </g>
  </g>
</svg>
