<svg xmlns="http://www.w3.org/2000/svg" xmlns:xlink="http://www.w3.org/1999/xlink" width="94" height="94" viewBox="0 0 94 94">
  <defs>
    <clipPath id="clip-trainee_icon">
      <rect width="94" height="94"/>
    </clipPath>
  </defs>
  <g id="trainee_icon" clip-path="url(#clip-trainee_icon)">
    <g id="Group_1268" data-name="Group 1268" transform="translate(-502.148 -708.296)">
      <g id="Group_1110" data-name="Group 1110" transform="translate(515.148 712.296)">
        <g id="Group_1109" data-name="Group 1109" transform="translate(0 0)">
          <g id="Group_1108" data-name="Group 1108">
            <g id="Group_1107" data-name="Group 1107">
              <path id="Path_1817" data-name="Path 1817" d="M166.43,68.292a5.883,5.883,0,0,1-5.133-3.134l-4.425-8.864-1.682-.806L143.6,80.379a.944.944,0,0,0,1.062,1.343l11.594-2.238a.836.836,0,0,1,.974.448l5.664,10.386a.929.929,0,0,0,1.682-.09l11.683-25.069L168.2,67.845A4.313,4.313,0,0,1,166.43,68.292Z" transform="translate(-143.493 -5.866)" fill="#fff"/>
              <path id="Path_1818" data-name="Path 1818" d="M203.625,80.4,192.031,55.42l-1.682.806-4.425,8.864a5.811,5.811,0,0,1-6.9,2.865l-8.054-2.686,11.683,25.069a.956.956,0,0,0,1.682.09l5.664-10.386a.886.886,0,0,1,.974-.448l11.594,2.238A1.018,1.018,0,0,0,203.625,80.4Z" transform="translate(-135.727 -5.887)" fill="#fff"/>
              <path id="Path_1819" data-name="Path 1819" d="M189.612,74.927l4.6-9.132a3.069,3.069,0,0,1,1.062-1.074l9.028-4.656a2.382,2.382,0,0,0,1.151-2.865l-3.1-9.759a2.244,2.244,0,0,1,0-1.522l3.1-9.759a2.442,2.442,0,0,0-1.151-2.865l-9.028-4.656a3.069,3.069,0,0,1-1.062-1.074l-4.6-8.953a2.333,2.333,0,0,0-2.832-1.164l-9.647,3.134a2.17,2.17,0,0,1-1.5,0l-9.559-3.223a2.341,2.341,0,0,0-2.832,1.253l-4.6,9.132a3.069,3.069,0,0,1-1.062,1.074l-9.028,4.656a2.382,2.382,0,0,0-1.151,2.865l3.1,9.759a2.244,2.244,0,0,1,0,1.522l-3.1,9.759a2.442,2.442,0,0,0,1.151,2.865l9.028,4.656a3.069,3.069,0,0,1,1.062,1.074l4.6,9.132a2.333,2.333,0,0,0,2.832,1.164l9.647-3.134a2.17,2.17,0,0,1,1.5,0l9.647,3.134A2.543,2.543,0,0,0,189.612,74.927ZM176.425,64.9A18.087,18.087,0,1,1,194.3,46.814,17.99,17.99,0,0,1,176.425,64.9Z" transform="translate(-142.425 -17.247)" fill="#fff"/>
              <path id="Path_1820" data-name="Path 1820" d="M179.836,34.765a1.312,1.312,0,0,0-1.869,0L170.2,42.62l-3.8-3.847a1.312,1.312,0,0,0-1.869,0l-1.868,1.891a1.347,1.347,0,0,0,0,1.889l5.671,5.737a2.619,2.619,0,0,0,3.737,0l9.633-9.745a1.349,1.349,0,0,0,0-1.891Z" transform="translate(-138.183 -12.15)" fill="#fff"/>
            </g>
          </g>
        </g>
      </g>
    </g>
  </g>
</svg>
