<svg xmlns="http://www.w3.org/2000/svg" xmlns:xlink="http://www.w3.org/1999/xlink" width="94" height="94" viewBox="0 0 94 94">
  <defs>
    <clipPath id="clip-veteran_icon">
      <rect width="94" height="94"/>
    </clipPath>
  </defs>
  <g id="veteran_icon" clip-path="url(#clip-veteran_icon)">
    <g id="Group_1263" data-name="Group 1263" transform="translate(-502.444 -525.388)">
      <path id="Path_1867" data-name="Path 1867" d="M148.371-119.02,163.8-92.194l10.877-19.617-4.146-7.209Z" transform="translate(373.073 655.408)" fill="#fff"/>
      <path id="Path_1868" data-name="Path 1868" d="M185.228-78.585v-11.01l16.92-29.426H179.82L162.9-89.594v11.026a18.239,18.239,0,0,0-6.979,14.331A18.18,18.18,0,0,0,174.063-46.02a18.18,18.18,0,0,0,18.143-18.216A18.242,18.242,0,0,0,185.228-78.585Zm-19.54-6.806h16.748v5a18.078,18.078,0,0,0-8.373-2.064,18.071,18.071,0,0,0-8.375,2.072Zm18.322,18.2-9.722,9.761a2.658,2.658,0,0,1-3.771,0l-5.723-5.746a1.342,1.342,0,0,1,0-1.892l1.885-1.892a1.329,1.329,0,0,1,1.886,0l3.837,3.852,7.839-7.868a1.329,1.329,0,0,1,1.885,0l1.885,1.892A1.341,1.341,0,0,1,184.01-67.19Z" transform="translate(375.296 655.408)" fill="#fff"/>
    </g>
  </g>
</svg>
