<svg xmlns="http://www.w3.org/2000/svg" xmlns:xlink="http://www.w3.org/1999/xlink" width="50" height="48" viewBox="0 0 50 48"><defs><clipPath id="b"><rect width="50" height="48"/></clipPath></defs><g id="a" clip-path="url(#b)"><g transform="translate(-3 -3)" fill="#fff" stroke-linecap="round" stroke-linejoin="bevel"><path d="M 42.12115859985352 48.5435676574707 L 28.46397018432617 41.39046096801758 L 28 41.14745330810547 L 27.53602981567383 41.39046096801758 L 13.87884140014648 48.5435676574707 L 16.48550033569336 33.40122985839844 L 16.57496070861816 32.88157272338867 L 16.19668960571289 32.51420211791992 L 5.154695510864258 21.79068565368652 L 20.41692924499512 19.58179092407227 L 20.93658065795898 19.50658226013184 L 21.16971015930176 19.03610229492188 L 27.99999809265137 5.25222110748291 L 34.83029937744141 19.03611183166504 L 35.06343078613281 19.50658226013184 L 35.58308029174805 19.58179092407227 L 50.84530258178711 21.79068565368652 L 39.80331039428711 32.51420211791992 L 39.42504119873047 32.88157272338867 L 39.51449966430664 33.40122985839844 L 42.12115859985352 48.5435676574707 Z" stroke="none"/><path d="M 40.79230499267578 46.71870040893555 L 38.52899169921875 33.57088088989258 L 39.10662841796875 31.79683113098145 L 48.69062805175781 22.48925971984863 L 35.43984985351562 20.57148170471191 L 33.93426895141602 19.48011207580566 L 28.00000190734863 7.504460334777832 L 22.06574058532715 19.48011207580566 L 20.56015968322754 20.57148170471191 L 7.309372425079346 22.48925971984863 L 16.89336967468262 31.79683113098145 L 17.47101020812988 33.57088088989258 L 15.20769500732422 46.71870040893555 L 27.07205009460449 40.50461196899414 L 28.92794990539551 40.50461196899414 L 40.79230499267578 46.71870040893555 M 43.45000076293945 50.36842346191406 L 28 42.27630996704102 L 12.55000019073486 50.36842346191406 L 15.5 33.23158264160156 L 3 21.09211158752441 L 20.27368927001953 18.59210205078125 L 28 3.000001668930054 L 35.726318359375 18.59210205078125 L 53 21.09211158752441 L 40.5 33.23158264160156 L 43.45000076293945 50.36842346191406 Z" stroke="none" fill="#fff"/></g></g></svg>