<svg xmlns="http://www.w3.org/2000/svg" xmlns:xlink="http://www.w3.org/1999/xlink" width="100" height="100" viewBox="0 0 100 100"><defs><clipPath id="b"><rect width="100" height="100"/></clipPath></defs><g id="a" clip-path="url(#b)"><g transform="translate(-62 -62)"><path d="M112.129,64a48.129,48.129,0,1,0,48.129,48.129A48.132,48.132,0,0,0,112.129,64Zm0,88.093a39.964,39.964,0,1,1,39.964-39.964A39.971,39.971,0,0,1,112.129,152.093Z" fill="#fff"/><path d="M464,330.972a5.157,5.157,0,1,0,5.157-5.157A5.157,5.157,0,0,0,464,330.972Zm2.578-12.032h5.157a.862.862,0,0,0,.859-.859V288.859a.862.862,0,0,0-.859-.859h-5.157a.862.862,0,0,0-.859.859v29.221A.862.862,0,0,0,466.578,318.94Z" transform="translate(-357.028 -199.936)" fill="#fff"/></g></g></svg>